<svg xmlns="http://www.w3.org/2000/svg" width="24" height="24" viewBox="0 0 24 24">
  <g id="boost" transform="translate(-20 -880)">
    <g id="Group_1639" data-name="Group 1639">
      <g id="Group_1635" data-name="Group 1635" transform="translate(-20 -37)">
        <rect id="Rectangle_1171" data-name="Rectangle 1171" width="24" height="24" transform="translate(40 917)" fill="none"/>
      </g>
    </g>
    <path id="Path_213" data-name="Path 213" d="M5241.546-833.17a5.074,5.074,0,0,1,2.35-4.06c.048.026,0-3.076,0-3.076S5239.028-839.118,5241.546-833.17Z" transform="translate(-5215.823 1735.306)" fill="#333"/>
    <path id="Path_562" data-name="Path 562" d="M5243.195-833.17a5.074,5.074,0,0,0-2.35-4.06c-.048.026,0-3.076,0-3.076S5245.713-839.118,5243.195-833.17Z" transform="translate(-5204.823 1735.306)" fill="#333"/>
    <g id="Subtraction_18" data-name="Subtraction 18" transform="translate(27 882)" fill="none">
      <path d="M6.769,20H3.449A13.826,13.826,0,0,1,0,11.179a15.141,15.141,0,0,1,2.561-8A18.2,18.2,0,0,1,5.124,0L5.13,0A16.3,16.3,0,0,1,7.562,3.064,15.4,15.4,0,0,1,10,11.139,14.016,14.016,0,0,1,6.766,20ZM5,8A1.5,1.5,0,1,0,6.5,9.5,1.5,1.5,0,0,0,5,8Z" stroke="none"/>
      <path d="M 6.279608726501465 18.99799156188965 C 7.58320951461792 17.28191947937012 9.000800132751465 14.61598682403564 9.000800132751465 11.13930034637451 C 9.000800132751465 7.922180652618408 7.757329940795898 5.260550498962402 6.71382999420166 3.593640804290771 C 6.133559226989746 2.66531229019165 5.556209564208984 1.94070041179657 5.12465238571167 1.448855757713318 C 4.665034294128418 1.967156291007996 4.030047416687012 2.746498346328735 3.402690172195435 3.722090721130371 C 2.30659008026123 5.427870750427246 1.00000011920929 8.106210708618164 1.00000011920929 11.17890071868896 C 1.00000011920929 14.54394721984863 2.526396036148071 17.23794555664063 3.922858476638794 18.99799156188965 L 6.279608726501465 18.99799156188965 M 5.000400066375732 7.000100612640381 C 6.378570079803467 7.000100612640381 7.499800205230713 8.121730804443359 7.499800205230713 9.500400543212891 C 7.499800205230713 10.87857055664063 6.378570079803467 11.99980068206787 5.000400066375732 11.99980068206787 C 3.621730089187622 11.99980068206787 2.500100135803223 10.87857055664063 2.500100135803223 9.500400543212891 C 2.500100135803223 8.121730804443359 3.621730089187622 7.000100612640381 5.000400066375732 7.000100612640381 M 6.768939971923828 19.99894142150879 L 6.766200065612793 19.99799156188965 L 6.765300273895264 19.99799156188965 L 3.448800086975098 19.99799156188965 C 1.875060081481934 18.12822151184082 6.637573335410707e-08 15.08076095581055 6.637573335410707e-08 11.17890071868896 C 6.637573335410707e-08 7.863550662994385 1.392900109291077 4.999960899353027 2.561400175094604 3.181500673294067 C 3.827900171279907 1.211990714073181 5.110889911651611 0.01189071033149958 5.123700141906738 7.107544206519378e-07 L 5.130090236663818 0.004570710938423872 C 5.342030048370361 0.2048107087612152 6.455230236053467 1.293280720710754 7.561800003051758 3.063600778579712 C 8.674460411071777 4.840980529785156 10.00080013275146 7.684820652008057 10.00080013275146 11.13930034637451 C 10.00080013275146 15.16911029815674 8.241809844970703 18.18049049377441 6.766200065612793 19.99710083007813 L 6.768939971923828 19.99894142150879 Z M 5.000400066375732 8.000101089477539 C 4.173130035400391 8.000101089477539 3.500100135803223 8.673130989074707 3.500100135803223 9.500400543212891 C 3.500100135803223 10.32717037200928 4.173130035400391 10.99980068206787 5.000400066375732 10.99980068206787 C 5.827169895172119 10.99980068206787 6.499800205230713 10.32717037200928 6.499800205230713 9.500400543212891 C 6.499800205230713 8.673130989074707 5.827169895172119 8.000101089477539 5.000400066375732 8.000101089477539 Z" stroke="none" fill="#999"/>
    </g>
  </g>
</svg>
