<svg id="fan_3" xmlns="http://www.w3.org/2000/svg" width="24" height="24" viewBox="0 0 24 24">
  <rect id="Rectangle_1527" data-name="Rectangle 1527" width="24" height="24" fill="none"/>
  <path id="Union_85" data-name="Union 85" d="M17263.119,23290.057a5.075,5.075,0,0,1-1.066-3.207l-2.762,3.8a.75.75,0,0,1-.5.3.8.8,0,0,1-.551-.135l-.018-.018a6.719,6.719,0,0,1-1.672-2.062,4.744,4.744,0,0,1,.5-5.215,4.912,4.912,0,0,1,3.52-2.156l-5.156-1.48a.719.719,0,0,1-.457-.367.736.736,0,0,1-.059-.557c0-.012.006-.018.006-.023a6.709,6.709,0,0,1,1.369-2.279,4.742,4.742,0,0,1,5.068-1.314,4.911,4.911,0,0,1,3.145,2.41v-5.012a.75.75,0,0,1,.754-.748h.018a6.66,6.66,0,0,1,2.572.689,4.737,4.737,0,0,1,2.66,4.508,5.043,5.043,0,0,1-1.035,3.23l4.385-1.426a.78.78,0,0,1,.584.053.757.757,0,0,1,.361.434c0,.006.006.012.006.018a6.6,6.6,0,0,1,.141,2.654,4.737,4.737,0,0,1-3.467,3.928,4.916,4.916,0,0,1-4.012-.27l3.129,4.309a.754.754,0,0,1,.135.566.77.77,0,0,1-.3.48.044.044,0,0,1-.023.012,6.665,6.665,0,0,1-2.479.953,5.525,5.525,0,0,1-.85.068A4.729,4.729,0,0,1,17263.119,23290.057Zm.791-4.547a3.4,3.4,0,0,0,.42,3.664,3.288,3.288,0,0,0,3.355,1.484,5.031,5.031,0,0,0,1.176-.35l-4.262-5.863A5.145,5.145,0,0,0,17263.91,23285.51Zm-5.643-1.1a3.282,3.282,0,0,0-.373,3.646,4.909,4.909,0,0,0,.7,1.018l4.262-5.869a5.248,5.248,0,0,0-1.229-.326,3.756,3.756,0,0,0-.508-.033A3.413,3.413,0,0,0,17258.268,23284.41Zm8.324-1.473a4.881,4.881,0,0,0,.8.986,3.408,3.408,0,0,0,3.613.738,3.308,3.308,0,0,0,2.449-2.73,5.236,5.236,0,0,0,.029-1.234Zm-1.826-.395a.763.763,0,0,1,.016-.2.474.474,0,0,1-.059-.051.133.133,0,0,1-.023-.023.308.308,0,0,1-.047.029.664.664,0,0,1-.172.074.757.757,0,0,1,.137.168c.021,0,.043,0,.064,0A.586.586,0,0,1,17264.766,23282.543Zm1.225-1.682a5.163,5.163,0,0,0,1.188-.455,3.393,3.393,0,0,0,1.811-3.209,3.291,3.291,0,0,0-1.84-3.176,5.112,5.112,0,0,0-1.158-.408Zm-8.617-3.174a4.765,4.765,0,0,0-.713,1l6.969,2a5.327,5.327,0,0,0-.111-1.268,3.394,3.394,0,0,0-2.59-2.625,4.269,4.269,0,0,0-1.174-.176A3.162,3.162,0,0,0,17257.373,23277.688Z" transform="translate(-17252.939 -23270.104)" fill="#666"/>
</svg>