<svg id="fan_4" xmlns="http://www.w3.org/2000/svg" width="24" height="24" viewBox="0 0 24 24">
  <g id="Group_2505" data-name="Group 2505" transform="translate(-168 -486)">
    <path id="Path_582" data-name="Path 582" d="M5232.182,5947.515v9s4.5-.24,4.5-4.552S5232.182,5947.515,5232.182,5947.515Z" transform="translate(-5051.682 -5459.015)" fill="none" stroke="#666" stroke-linecap="round" stroke-linejoin="round" stroke-width="1.5"/>
    <path id="Path_582-2" data-name="Path 582" d="M5232.182,5947.515v9s4.5-.24,4.5-4.552S5232.182,5947.515,5232.182,5947.515Z" transform="translate(2723.085 -7011.277) rotate(60)" fill="none" stroke="#666" stroke-linecap="round" stroke-linejoin="round" stroke-width="1.5"/>
    <path id="Path_582-3" data-name="Path 582" d="M5232.182,5947.515v9s4.5-.24,4.5-4.552S5232.182,5947.515,5232.182,5947.515Z" transform="translate(7954.768 -1054.262) rotate(120)" fill="none" stroke="#666" stroke-linecap="round" stroke-linejoin="round" stroke-width="1.5"/>
    <path id="Path_582-4" data-name="Path 582" d="M5232.182,5947.515v9s4.5-.24,4.5-4.552S5232.182,5947.515,5232.182,5947.515Z" transform="translate(5411.682 6455.015) rotate(180)" fill="none" stroke="#666" stroke-linecap="round" stroke-linejoin="round" stroke-width="1.5"/>
    <path id="Path_582-5" data-name="Path 582" d="M5232.182,5947.515v9s4.5-.24,4.5-4.552S5232.182,5947.515,5232.182,5947.515Z" transform="translate(-2363.085 8007.277) rotate(-120)" fill="none" stroke="#666" stroke-linecap="round" stroke-linejoin="round" stroke-width="1.5"/>
    <path id="Path_582-6" data-name="Path 582" d="M5232.182,5947.515v9s4.5-.24,4.5-4.552S5232.182,5947.515,5232.182,5947.515Z" transform="translate(-7594.767 2050.262) rotate(-60)" fill="none" stroke="#666" stroke-linecap="round" stroke-linejoin="round" stroke-width="1.5"/>
  </g>
  <rect id="Rectangle_1528" data-name="Rectangle 1528" width="24" height="24" fill="none"/>
</svg>