<svg id="fan_1.5" xmlns="http://www.w3.org/2000/svg" width="24" height="24" viewBox="0 0 24 24">
  <rect id="Rectangle_3489" data-name="Rectangle 3489" width="24" height="24" fill="none"/>
  <path id="Path_1964" data-name="Path 1964" d="M.692,1.27a1.215,1.215,0,0,0-.4.044A1.579,1.579,0,0,0-.367,2.781,1.554,1.554,0,0,0,.287,4.224,1.236,1.236,0,0,0,.7,4.27,17.589,17.589,0,0,0,5.99,2.781,17.687,17.687,0,0,0,.692,1.27m14.852,0a17.858,17.858,0,0,0-5.336,1.488A17.764,17.764,0,0,0,15.552,4.27a1.238,1.238,0,0,0,.413-.046,1.572,1.572,0,0,0,.668-1.466,1.547,1.547,0,0,0-.664-1.441,1.25,1.25,0,0,0-.425-.047M.692-.23c2.6,0,7.364,2.291,7.364,2.291S14.424-.953,16.547-.067s2.105,4.787,0,5.674S8.126,3.479,8.126,3.479,1.81,6.493-.295,5.607-2.383.82-.295-.067A2.56,2.56,0,0,1,.692-.23Z" transform="translate(4 9)" fill="#212121"/>
</svg>
