<svg xmlns="http://www.w3.org/2000/svg" width="24" height="24" viewBox="0 0 24 24">
  <g id="led_light" transform="translate(-20 -880)">
    <g id="Group_1639" data-name="Group 1639">
      <g id="Group_1635" data-name="Group 1635" transform="translate(-20 -37)">
        <rect id="Rectangle_1171" data-name="Rectangle 1171" width="24" height="24" transform="translate(40 917)" fill="none"/>
      </g>
    </g>
    <g id="Rectangle_359" data-name="Rectangle 359" transform="translate(26 882)" fill="none" stroke="#999" stroke-width="1">
      <path d="M6,0H6a6,6,0,0,1,6,6v8a0,0,0,0,1,0,0H0a0,0,0,0,1,0,0V6A6,6,0,0,1,6,0Z" stroke="none"/>
      <path d="M6,.5H6A5.5,5.5,0,0,1,11.5,6v7.323a.177.177,0,0,1-.177.177H.677A.177.177,0,0,1,.5,13.323V6A5.5,5.5,0,0,1,6,.5Z" fill="none"/>
    </g>
    <line id="Line_254" data-name="Line 254" y2="5" transform="translate(29 896)" fill="none" stroke="#333" stroke-linecap="round" stroke-width="2"/>
    <line id="Line_255" data-name="Line 255" y2="5" transform="translate(35 896)" fill="none" stroke="#333" stroke-linecap="round" stroke-width="2"/>
    <line id="Line_253" data-name="Line 253" x2="18" transform="translate(23 896.5)" fill="none" stroke="#999" stroke-linecap="round" stroke-width="1"/>
    <path id="Rectangle_1220" data-name="Rectangle 1220" d="M6,0H6a6,6,0,0,1,6,6V7a0,0,0,0,1,0,0H0A0,0,0,0,1,0,7V6A6,6,0,0,1,6,0Z" transform="translate(26 889)" fill="#333"/>
  </g>
</svg>
