<svg id="dehumid" xmlns="http://www.w3.org/2000/svg" width="24" height="24" viewBox="0 0 24 24">
  <g id="Group_2498" data-name="Group 2498" transform="translate(-168.5 -487)">
    <path id="Subtraction_86" data-name="Subtraction 86" d="M-1721,625.23h0v0a4.956,4.956,0,0,0,1-3,4.948,4.948,0,0,0-1.074-3.1l-2.564-4.007L-1721,611l3.927,6.134a4.952,4.952,0,0,1,1.073,3.1A5.006,5.006,0,0,1-1721,625.23Z" transform="translate(1903.5 -120)" fill="none" stroke="#666" stroke-linecap="round" stroke-linejoin="round" stroke-width="1.5"/>
    <path id="Union_65" data-name="Union 65" d="M-1729.5,620.23a4.978,4.978,0,0,1,1.109-3.141l3.891-6.09,3.926,6.135a4.978,4.978,0,0,1,1.073,3.1,5,5,0,0,1-5,5A5,5,0,0,1-1729.5,620.23Z" transform="translate(1903 -118)" fill="none" stroke="#666" stroke-linecap="round" stroke-linejoin="round" stroke-width="1.5"/>
  </g>
  <rect id="Rectangle_1524" data-name="Rectangle 1524" width="24" height="24" fill="none"/>
</svg>