<svg id="source" xmlns="http://www.w3.org/2000/svg" width="24" height="24" viewBox="0 0 24 24">
  <g id="Group_1374" data-name="Group 1374" transform="translate(-778.5 -904)">
    <path id="Subtraction_103" data-name="Subtraction 103" d="M-748.5-4933a8.011,8.011,0,0,1-8-7.992.5.5,0,0,0,.5.493h7.683l-2.182,2.182a.5.5,0,0,0-.147.354.494.494,0,0,0,.147.352.493.493,0,0,0,.353.146.494.494,0,0,0,.354-.146l2.829-2.827a.5.5,0,0,0,.1-.562.5.5,0,0,0-.1-.56l-2.829-2.83a.5.5,0,0,0-.353-.146.5.5,0,0,0-.353.146.5.5,0,0,0-.147.355.494.494,0,0,0,.147.353l2.182,2.181H-756a.5.5,0,0,0-.5.5,8.01,8.01,0,0,1,8-8,8.009,8.009,0,0,1,8,8A8.009,8.009,0,0,1-748.5-4933Z" transform="translate(1541 5857)" fill="#212121"/>
    <g id="Group_2456" data-name="Group 2456" transform="translate(0 10)">
      <rect id="Rectangle_1518" data-name="Rectangle 1518" width="5" height="1" rx="0.5" transform="translate(780.5 905.5)" fill="#212121"/>
    </g>
  </g>
  <rect id="Rectangle_1166" data-name="Rectangle 1166" width="24" height="24" fill="none"/>
</svg>