<svg xmlns="http://www.w3.org/2000/svg" width="13.732" height="54.5" viewBox="0 0 13.732 54.5">
  <g id="_180_degrees" data-name="180_degrees" transform="translate(-178.134 -595.108)">
    <path id="Line_885" data-name="Line 885" d="M24,1H0V-1H24Z" transform="translate(179 646.393) rotate(-60)"/>
    <path id="Line_886" data-name="Line 886" d="M24,1H0V-1H24Z" transform="translate(179 641.393) rotate(-60)"/>
    <path id="Line_887" data-name="Line 887" d="M24,1H0V-1H24Z" transform="translate(179 636.393) rotate(-60)"/>
    <path id="Line_888" data-name="Line 888" d="M24,1H0V-1H24Z" transform="translate(179 631.393) rotate(-60)"/>
    <path id="Line_889" data-name="Line 889" d="M24,1H0V-1H24Z" transform="translate(179 626.393) rotate(-60)"/>
    <path id="Line_890" data-name="Line 890" d="M24,1H0V-1H24Z" transform="translate(179 621.393) rotate(-60)"/>
    <path id="Line_891" data-name="Line 891" d="M24,1H0V-1H24Z" transform="translate(179 616.393) rotate(-60)"/>
    <path id="Line_895" data-name="Line 895" d="M.5,54h-1V0h1Z" transform="translate(185.5 595.608)"/>
  </g>
</svg>
