<svg xmlns="http://www.w3.org/2000/svg" width="24" height="54" viewBox="0 0 24 54">
  <g id="_90_degrees" data-name="90_degrees" transform="translate(-120 -595.5)">
    <g id="Group_10935" data-name="Group 10935" transform="translate(0 -7)">
      <path id="Line_885" data-name="Line 885" d="M24,1H0V-1H24Z" transform="translate(120 643)"/>
      <path id="Line_886" data-name="Line 886" d="M24,1H0V-1H24Z" transform="translate(120 638)"/>
      <path id="Line_887" data-name="Line 887" d="M24,1H0V-1H24Z" transform="translate(120 633)"/>
      <path id="Line_888" data-name="Line 888" d="M24,1H0V-1H24Z" transform="translate(120 628)"/>
      <path id="Line_889" data-name="Line 889" d="M24,1H0V-1H24Z" transform="translate(120 623)"/>
      <path id="Line_890" data-name="Line 890" d="M24,1H0V-1H24Z" transform="translate(120 618)"/>
      <path id="Line_891" data-name="Line 891" d="M24,1H0V-1H24Z" transform="translate(120 613)"/>
    </g>
    <path id="Line_892" data-name="Line 892" d="M.5,54h-1V0h1Z" transform="translate(132.5 595.5)"/>
  </g>
</svg>
