<svg width="191" height="281" viewBox="0 0 191 281" fill="none" xmlns="http://www.w3.org/2000/svg">
<g filter="url(#filter0_b_2014_535)">
<rect width="191" height="280" transform="translate(0 1)" fill="black" fill-opacity="0.8"/>
<line y1="0.75" x2="191" y2="0.75" stroke="white" stroke-width="0.5"/>
<line y1="14.75" x2="191" y2="14.75" stroke="white" stroke-width="0.5"/>
<line y1="28.75" x2="191" y2="28.75" stroke="white" stroke-width="0.5"/>
<line y1="42.75" x2="191" y2="42.75" stroke="white" stroke-width="0.5"/>
<line y1="56.75" x2="191" y2="56.75" stroke="white" stroke-width="0.5"/>
<line y1="70.75" x2="191" y2="70.75" stroke="white" stroke-width="0.5"/>
<line y1="84.75" x2="191" y2="84.75" stroke="white" stroke-width="0.5"/>
<line y1="98.75" x2="191" y2="98.75" stroke="white" stroke-width="0.5"/>
<line y1="112.75" x2="191" y2="112.75" stroke="white" stroke-width="0.5"/>
<line y1="126.75" x2="191" y2="126.75" stroke="white" stroke-width="0.5"/>
<line y1="140.75" x2="191" y2="140.75" stroke="white" stroke-width="0.5"/>
<line y1="154.75" x2="191" y2="154.75" stroke="white" stroke-width="0.5"/>
<line y1="168.75" x2="191" y2="168.75" stroke="white" stroke-width="0.5"/>
<line y1="182.75" x2="191" y2="182.75" stroke="white" stroke-width="0.5"/>
<line y1="196.75" x2="191" y2="196.75" stroke="white" stroke-width="0.5"/>
<line y1="210.75" x2="191" y2="210.75" stroke="white" stroke-width="0.5"/>
<line y1="224.75" x2="191" y2="224.75" stroke="white" stroke-width="0.5"/>
<line y1="238.75" x2="191" y2="238.75" stroke="white" stroke-width="0.5"/>
<line y1="252.75" x2="191" y2="252.75" stroke="white" stroke-width="0.5"/>
<line y1="266.75" x2="191" y2="266.75" stroke="white" stroke-width="0.5"/>
<line y1="280.75" x2="191" y2="280.75" stroke="white" stroke-width="0.5"/>
</g>
<defs>
<filter id="filter0_b_2014_535" x="-50" y="-49.5" width="291" height="380.5" filterUnits="userSpaceOnUse" color-interpolation-filters="sRGB">
<feFlood flood-opacity="0" result="BackgroundImageFix"/>
<feGaussianBlur in="BackgroundImageFix" stdDeviation="25"/>
<feComposite in2="SourceAlpha" operator="in" result="effect1_backgroundBlur_2014_535"/>
<feBlend mode="normal" in="SourceGraphic" in2="effect1_backgroundBlur_2014_535" result="shape"/>
</filter>
</defs>
</svg>
