<svg id="curtain_close" xmlns="http://www.w3.org/2000/svg" width="24" height="24" viewBox="0 0 24 24">
  <g id="Group_2644" data-name="Group 2644" transform="translate(-108 -360)">
    <g id="Path_856" data-name="Path 856" transform="translate(112 362)" fill="none">
      <path d="M0,0H16V20a6.39,6.39,0,0,0-3.213-1.176c-1.613,0-1.6,1.176-3.074,1.176s-1.679-1.176-3.159-1.176S4.767,20,3.125,20A5.79,5.79,0,0,1,0,18.824Z" stroke="none"/>
      <path d="M 1 1 L 1 18.29571914672852 C 1.462494850158691 18.58002281188965 2.287509918212891 19 3.124509811401367 19 C 3.678319931030273 19 3.966629981994629 18.81818962097168 4.403050422668457 18.5429801940918 C 4.91133975982666 18.22244071960449 5.543919563293457 17.82353019714355 6.553950309753418 17.82353019714355 C 7.609939575195312 17.82353019714355 8.245250701904297 18.268310546875 8.709129333496094 18.59308052062988 C 9.083900451660156 18.85547065734863 9.290349960327148 19 9.713260650634766 19 C 10.09503936767578 19 10.24185943603516 18.88688087463379 10.56353950500488 18.63903999328613 C 11.01021957397461 18.29487037658691 11.62198066711426 17.82353019714355 12.78687000274658 17.82353019714355 C 13.5884895324707 17.82353019714355 14.36142158508301 18.04564094543457 15 18.3119010925293 L 15 1 L 1 1 M 0 0 L 16 0 L 16 20 C 16 20 14.40001964569092 18.82353019714355 12.78687000274658 18.82353019714355 C 11.17370986938477 18.82353019714355 11.19045066833496 20 9.713260650634766 20 C 8.23606014251709 20 8.034549713134766 18.82353019714355 6.553950309753418 18.82353019714355 C 5.073360443115234 18.82353019714355 4.767370223999023 20 3.124509811401367 20 C 1.481650352478027 20 0 18.82353019714355 0 18.82353019714355 L 0 0 Z" stroke="none" fill="#212121"/>
    </g>
    <line id="Line_504" data-name="Line 504" y2="17.5" transform="translate(124.5 363)" fill="none" stroke="#212121" stroke-width="1"/>
    <line id="Line_505" data-name="Line 505" y2="18.146" transform="translate(121.5 363)" fill="none" stroke="#212121" stroke-width="1"/>
    <line id="Line_506" data-name="Line 506" y2="18.146" transform="translate(115.5 363)" fill="none" stroke="#212121" stroke-width="1"/>
    <line id="Line_507" data-name="Line 507" y2="17.5" transform="translate(118.5 363)" fill="none" stroke="#212121" stroke-width="1"/>
  </g>
  <rect id="Rectangle_1883" data-name="Rectangle 1883" width="24" height="24" fill="none"/>
</svg>