<svg id="opens_from_left" xmlns="http://www.w3.org/2000/svg" xmlns:xlink="http://www.w3.org/1999/xlink" width="52" height="43.311" viewBox="0 0 52 43.311">
  <defs>
    <linearGradient id="linear-gradient" x1="0.5" x2="0.5" y2="1" gradientUnits="objectBoundingBox">
      <stop offset="0" stop-opacity="0"/>
      <stop offset="1"/>
    </linearGradient>
  </defs>
  <path id="Rectangle_3497" data-name="Rectangle 3497" d="M1,1V24H31V1H1M0,0H32V25H0Z" transform="translate(6 33) rotate(-90)"/>
  <path id="Union_94" data-name="Union 94" d="M3.434,51.16.125,45.139A1,1,0,0,1,1,43.658H7.619A1,1,0,0,1,8.5,45.139L5.187,51.16a1,1,0,0,1-1.752,0Zm-.124-7.5V1a1,1,0,0,1,2,0V43.658Z" transform="translate(52 34.689) rotate(90)" fill="url(#linear-gradient)"/>
  <path id="Line_862" data-name="Line 862" d="M48,1H0V-1H48Z" transform="translate(2 2)"/>
  <circle id="Ellipse_1122" data-name="Ellipse 1122" cx="2" cy="2" r="2" transform="translate(48 0)"/>
  <circle id="Ellipse_1123" data-name="Ellipse 1123" cx="2" cy="2" r="2" transform="translate(0 0)"/>
  <path id="Line_871" data-name="Line 871" d="M32,.5H0v-1H32Z" transform="translate(18 33) rotate(-90)"/>
  <path id="Line_896" data-name="Line 896" d="M32,.5H0v-1H32Z" transform="translate(22 33) rotate(-90)"/>
  <path id="Line_897" data-name="Line 897" d="M32,.5H0v-1H32Z" transform="translate(26 33) rotate(-90)"/>
  <path id="Line_869" data-name="Line 869" d="M32,.5H0v-1H32Z" transform="translate(14 33) rotate(-90)"/>
  <path id="Line_870" data-name="Line 870" d="M32,.5H0v-1H32Z" transform="translate(10 33) rotate(-90)"/>
</svg>
