<svg xmlns="http://www.w3.org/2000/svg" width="24" height="24" viewBox="0 0 24 24">
  <g id="tilt_180" transform="translate(0 24) rotate(-90)">
    <rect id="Rectangle_3504" data-name="Rectangle 3504" width="24" height="24" fill="none"/>
    <path id="Path_1967" data-name="Path 1967" d="M.9,4H17.1c.5,0,.9-.3.9-.667L17.1.667C17.1.3,16.7,0,16.2,0H1.8C1.3,0,.9.3.9.667L0,3.333C0,3.7.4,4,.9,4Z" transform="translate(3 2)" fill="#333"/>
    <path id="Path_1989" data-name="Path 1989" d="M.9,4H17.1c.5,0,.9-.3.9-.667L17.1.667C17.1.3,16.7,0,16.2,0H1.8C1.3,0,.9.3.9.667L0,3.333C0,3.7.4,4,.9,4Z" transform="translate(3 7)" fill="#333"/>
    <path id="Path_1990" data-name="Path 1990" d="M.9,4H17.1c.5,0,.9-.3.9-.667L17.1.667C17.1.3,16.7,0,16.2,0H1.8C1.3,0,.9.3.9.667L0,3.333C0,3.7.4,4,.9,4Z" transform="translate(3 12)" fill="#333"/>
    <path id="Path_1991" data-name="Path 1991" d="M.9,4H17.1c.5,0,.9-.3.9-.667L17.1.667C17.1.3,16.7,0,16.2,0H1.8C1.3,0,.9.3.9.667L0,3.333C0,3.7.4,4,.9,4Z" transform="translate(3 17)" fill="#333"/>
  </g>
</svg>
