<svg width="24" height="24" viewBox="0 0 24 24" fill="none" xmlns="http://www.w3.org/2000/svg">
<path d="M5.31139 20.3137L4.92202 20.6273L5.31139 20.3137L3.70028 18.3137C3.43678 17.9866 3.66962 17.5 4.08966 17.5H19.9103C20.3304 17.5 20.5632 17.9866 20.2997 18.3137L18.6886 20.3137C18.5937 20.4315 18.4505 20.5 18.2992 20.5H5.70077C5.54947 20.5 5.40631 20.4315 5.31139 20.3137ZM5.70077 13.5C5.54947 13.5 5.40631 13.4315 5.31139 13.3137L3.70028 11.3137C3.43678 10.9866 3.66962 10.5 4.08966 10.5H19.9103C20.3304 10.5 20.5632 10.9866 20.2997 11.3137L18.6886 13.3137C18.5937 13.4315 18.4505 13.5 18.2992 13.5H5.70077ZM5.70077 6.5C5.54947 6.5 5.40631 6.43149 5.31139 6.31367L3.70028 4.31366C3.43678 3.98656 3.66962 3.5 4.08966 3.5H19.9103C20.3304 3.5 20.5632 3.98656 20.2997 4.31366L18.6886 6.31366C18.5937 6.43149 18.4505 6.5 18.2992 6.5H5.70077Z" stroke="#1A1B1E"/>
</svg>
