<svg width="24" height="24" viewBox="0 0 24 24" fill="none" xmlns="http://www.w3.org/2000/svg">
<path d="M5.31139 3.68634C5.40631 3.56851 5.54947 3.5 5.70077 3.5H18.2992C18.4505 3.5 18.5937 3.56851 18.6886 3.68633L20.2997 5.68633C20.5632 6.01344 20.3304 6.5 19.9103 6.5H4.08966C3.66962 6.5 3.43678 6.01344 3.70028 5.68634L5.31139 3.68634ZM5.31139 10.6863C5.40631 10.5685 5.54947 10.5 5.70077 10.5H18.2992C18.4505 10.5 18.5937 10.5685 18.6886 10.6863L20.2997 12.6863C20.5632 13.0134 20.3304 13.5 19.9103 13.5H4.08966C3.66962 13.5 3.43678 13.0134 3.70028 12.6863L5.31139 10.6863ZM5.31139 17.6863C5.40631 17.5685 5.54947 17.5 5.70077 17.5H18.2992C18.4505 17.5 18.5937 17.5685 18.6886 17.6863L20.2997 19.6863C20.5632 20.0134 20.3304 20.5 19.9103 20.5H4.08966C3.66962 20.5 3.43678 20.0134 3.70028 19.6863L5.31139 17.6863Z" stroke="#1A1B1E"/>
</svg>
