<svg width="24" height="24" viewBox="0 0 24 24" fill="none" xmlns="http://www.w3.org/2000/svg">
<path d="M5.50734 19.5C5.41416 19.5 5.32283 19.474 5.24366 19.4248L3.75367 18.5H20.2463L18.7563 19.4248C18.6772 19.474 18.5858 19.5 18.4927 19.5H5.50734ZM5.50734 12.5C5.41416 12.5 5.32283 12.474 5.24366 12.4248L3.75367 11.5L20.2463 11.5L18.7563 12.4248C18.6772 12.474 18.5858 12.5 18.4927 12.5H5.50734ZM5.50734 5.5C5.41416 5.5 5.32283 5.47396 5.24366 5.42482L3.75367 4.5L20.2463 4.5L18.7563 5.42482C18.6772 5.47396 18.5858 5.5 18.4927 5.5H5.50734Z" fill="#1A1B1E" stroke="#1A1B1E"/>
</svg>
