<svg width="24" height="24" viewBox="0 0 24 24" fill="none" xmlns="http://www.w3.org/2000/svg">
<path d="M15.5 11.5V7C15.5 4.79086 13.7091 3 11.5 3C9.29086 3 7.5 4.79086 7.5 7V11.5M11.5 15C12.0523 15 12.5 14.5523 12.5 14C12.5 13.4477 12.0523 13 11.5 13C10.9477 13 10.5 13.4477 10.5 14C10.5 14.5523 10.9477 15 11.5 15ZM11.5 15V18M17 15.5C17 18.5376 14.5376 21 11.5 21C8.46243 21 6 18.5376 6 15.5C6 12.4624 8.46243 10 11.5 10C14.5376 10 17 12.4624 17 15.5Z" stroke="#21CB6F" stroke-linecap="round"/>
</svg>
