<svg width="24" height="24" viewBox="0 0 24 24" fill="none" xmlns="http://www.w3.org/2000/svg">
<path d="M19.2237 10.0773L5.16817 4.52917M7 18H17C18.8856 18 19.8284 18 20.4142 17.4143C21 16.8285 21 15.8857 21 14C21 12.1144 21 11.1716 20.4142 10.5858C19.8284 10 18.8856 10 17 10H7C5.11438 10 4.17157 10 3.58579 10.5858C3 11.1716 3 12.1144 3 14C3 15.8857 3 16.8285 3.58579 17.4143C4.17157 18 5.11438 18 7 18ZM7 16H17C18.1046 16 19 15.1046 19 14C19 12.8955 18.1046 12 17 12H7C5.89543 12 5 12.8955 5 14C5 15.1046 5.89543 16 7 16Z" stroke="#1A1B1E" stroke-linecap="round"/>
</svg>
