<svg width="24" height="24" viewBox="0 0 24 24" fill="none" xmlns="http://www.w3.org/2000/svg">
<path d="M15.0002 17H20.0002L18.5953 15.5951C18.2143 15.2141 18.0002 14.6973 18.0002 14.1585V11C18.0002 8.38757 16.3306 6.16509 14.0002 5.34142V5C14.0002 3.89543 13.1048 3 12.0002 3C10.8957 3 10.0002 3.89543 10.0002 5V5.34142C7.66986 6.16509 6.00024 8.38757 6.00024 11V14.1585C6.00024 14.6973 5.78619 15.2141 5.40518 15.5951L4.00024 17H9.00024M15.0002 17V18C15.0002 19.6569 13.6571 21 12.0002 21C10.3434 21 9.00024 19.6569 9.00024 18V17M15.0002 17H9.00024" stroke="#1A1B1E" stroke-linecap="round" stroke-linejoin="round"/>
</svg>
