<svg width="41" height="40" viewBox="0 0 41 40" fill="none" xmlns="http://www.w3.org/2000/svg">
<rect x="0.666748" width="40" height="40" rx="20" fill="#21CB6F" fill-opacity="0.2"/>
<path d="M24.1667 19.5V15C24.1667 12.7909 22.3759 11 20.1667 11C17.9576 11 16.1667 12.7909 16.1667 15V19.5M20.1667 23C20.719 23 21.1667 22.5523 21.1667 22C21.1667 21.4477 20.719 21 20.1667 21C19.6145 21 19.1667 21.4477 19.1667 22C19.1667 22.5523 19.6145 23 20.1667 23ZM20.1667 23V26M25.6667 23.5C25.6667 26.5376 23.2043 29 20.1667 29C17.1292 29 14.6667 26.5376 14.6667 23.5C14.6667 20.4624 17.1292 18 20.1667 18C23.2043 18 25.6667 20.4624 25.6667 23.5Z" stroke="#21CB6F" stroke-linecap="round"/>
</svg>
