<svg width="40" height="40" viewBox="0 0 40 40" fill="none" xmlns="http://www.w3.org/2000/svg">
<rect width="40" height="40" rx="20" fill="#E6161E" fill-opacity="0.2"/>
<path d="M16.5 24C17.0523 24 17.5 23.5523 17.5 23C17.5 22.4477 17.0523 22 16.5 22C15.9477 22 15.5 22.4477 15.5 23C15.5 23.5523 15.9477 24 16.5 24ZM16.5 24V27M28.5 16V13.6842C28.5 11.6495 26.7091 10 24.5 10C22.2909 10 20.5 11.6495 20.5 13.6842L20.5 21M22 24.5C22 27.5376 19.5376 30 16.5 30C13.4624 30 11 27.5376 11 24.5C11 21.4624 13.4624 19 16.5 19C19.5376 19 22 21.4624 22 24.5Z" stroke="#E4161D"/>
</svg>
