<svg width="40" height="40" viewBox="0 0 40 40" fill="none" xmlns="http://www.w3.org/2000/svg">
<path d="M15.8333 25.1667V16H13M24.1667 20.1667C24.1667 22.4679 23.5417 24.3333 21.6667 24.3333C19.7917 24.3333 19.1667 22.4679 19.1667 20.1667C19.1667 17.8655 19.7917 16 21.6667 16C23.5417 16 24.1667 17.8655 24.1667 20.1667Z" stroke="#43474E"/>
<path d="M15.7574 12.2426L20 8L15.7574 3.75736" stroke="#43474E" stroke-linecap="round" stroke-linejoin="round"/>
<path d="M20 8C13.3726 8 8 13.3726 8 20C8 26.6274 13.3726 32 20 32C26.6274 32 32 26.6274 32 20C32 15.6783 29.7154 11.8901 26.288 9.77743" stroke="#43474E" stroke-linecap="round" stroke-linejoin="round"/>
</svg>
