<svg xmlns="http://www.w3.org/2000/svg" width="247.792" height="150.13" viewBox="0 0 247.792 150.13">
  <g id="Group_4791" data-name="Group 4791" transform="translate(0 0.005)">
    <circle id="Ellipse_995" data-name="Ellipse 995" cx="12.77" cy="12.77" r="12.77" transform="translate(7.744 7.028)" fill="#ff6584"/>
    <ellipse id="Ellipse_996" data-name="Ellipse 996" cx="123.257" cy="4.997" rx="123.257" ry="4.997" transform="translate(0 140.131)" fill="#777"/>
    <circle id="Ellipse_997" data-name="Ellipse 997" cx="31.369" cy="31.369" r="31.369" transform="translate(0 19.767)" fill="#6c63ff"/>
    <path id="Path_1801" data-name="Path 1801" d="M107.172,266.411h-6.425l2.929-99.21Z" transform="translate(-72.779 -120.789)" fill="#fff"/>
    <path id="Path_1802" data-name="Path 1802" d="M111.127,210.1l6.9-9.543-6.992,11.9-.756-1.323Z" transform="translate(-79.664 -144.885)" fill="#fff"/>
    <path id="Path_1803" data-name="Path 1803" d="M92.668,244.817l-6.9-9.543,6.992,11.905.756-1.323Z" transform="translate(-61.961 -169.965)" fill="#fff"/>
    <path id="Path_1804" data-name="Path 1804" d="M810.786,266.787h-6.425l2.929-99.21Z" transform="translate(-581.068 -121.061)" fill="#777"/>
    <path id="Path_1805" data-name="Path 1805" d="M814.741,210.476l6.9-9.543-6.992,11.905-.756-1.323Z" transform="translate(-587.952 -145.157)" fill="#777"/>
    <path id="Path_1806" data-name="Path 1806" d="M796.282,245.193l-6.9-9.543,6.992,11.9.756-1.323Z" transform="translate(-570.249 -170.236)" fill="#777"/>
    <circle id="Ellipse_998" data-name="Ellipse 998" cx="58.436" cy="58.436" r="58.436" transform="translate(68.999 28.836)" fill="#777"/>
    <circle id="Ellipse_999" data-name="Ellipse 999" cx="53.599" cy="53.599" r="53.599" transform="translate(73.836 33.674)" fill="#fff"/>
    <circle id="Ellipse_1000" data-name="Ellipse 1000" cx="7.159" cy="7.159" r="7.159" transform="translate(120.082 80.307)" fill="#777"/>
    <rect id="Rectangle_2892" data-name="Rectangle 2892" width="3.096" height="5.805" transform="translate(125.694 36.383)" fill="#777"/>
    <rect id="Rectangle_2893" data-name="Rectangle 2893" width="3.096" height="5.805" transform="translate(125.694 132.745)" fill="#777"/>
    <rect id="Rectangle_2894" data-name="Rectangle 2894" width="3.096" height="5.805" transform="translate(81.963 85.918) rotate(90)" fill="#777"/>
    <rect id="Rectangle_2895" data-name="Rectangle 2895" width="3.096" height="5.805" transform="translate(178.325 85.918) rotate(90)" fill="#3f3d56"/>
    <path id="Path_1807" data-name="Path 1807" d="M450.924,310.543l2.646-6.05,33.153,18.361Z" transform="translate(-325.746 -219.968)" fill="#777"/>
    <rect id="Rectangle_2896" data-name="Rectangle 2896" width="15.093" height="17.415" transform="translate(119.889 14.711)" fill="#777"/>
    <ellipse id="Ellipse_1001" data-name="Ellipse 1001" cx="17.415" cy="4.837" rx="17.415" ry="4.837" transform="translate(110.02 9.874)" fill="#777"/>
    <path id="Path_1808" data-name="Path 1808" d="M715.576,527.759l-.967,1.354s-4.45,5.224-4.644,2.709,3.289-4.257,3.289-4.257l1.935-1.161Z" transform="translate(-555.536 -430.134)" fill="#ffb8b8"/>
    <path id="Path_1809" data-name="Path 1809" d="M825.8,547.147l.81,1.454s2.817,6.258.461,5.357-2.44-4.795-2.44-4.795l-.221-2.246Z" transform="translate(-638.218 -444.952)" fill="#ffb8b8"/>
    <circle id="Ellipse_1002" data-name="Ellipse 1002" cx="5.892" cy="5.892" r="5.892" transform="translate(177.335 64.627)" fill="#777"/>
    <path id="Path_1810" data-name="Path 1810" d="M811.751,607.194l.774,5.031v1.548h4.45v-1.935s.193-3.483-.581-4.45S811.751,607.194,811.751,607.194Z" transform="translate(-629.072 -488.284)" fill="#ffb8b8"/>
    <path id="Path_1811" data-name="Path 1811" d="M783.173,607.194l.774,5.031v1.548h4.45v-1.935s.194-3.483-.58-4.45S783.173,607.194,783.173,607.194Z" transform="translate(-608.427 -488.284)" fill="#ffb8b8"/>
    <path id="Path_1812" data-name="Path 1812" d="M791.486,462.384s-1.712.9-.543,2.954,8.029,23.284,8.029,23.284l3.957-1.123-3.49-13.428-2-8.44Z" transform="translate(-613.746 -383.885)" fill="#6c63ff"/>
    <circle id="Ellipse_1003" data-name="Ellipse 1003" cx="4.45" cy="4.45" r="4.45" transform="translate(178.132 67.73)" fill="#ffb8b8"/>
    <path id="Path_1813" data-name="Path 1813" d="M806.637,442.063l-.58,9.094-4.063-2.9s1.354-5.418.967-5.8Z" transform="translate(-622.023 -369.206)" fill="#ffb8b8"/>
    <path id="Path_1814" data-name="Path 1814" d="M794.39,462.753l-4.378-3.242s-2.008-.822-2.588.146-3.483,15.286-1.935,18c0,0,8.32,1.741,10.062.774l.774-5.031s.967-3.1-.581-5.031Z" transform="translate(-609.776 -381.575)" fill="#6c63ff"/>
    <path id="Path_1815" data-name="Path 1815" d="M744.436,460.681s-1.548-1.161-2.9.774-17.608,17.221-17.608,17.221l2.709,3.1,10.642-8.9,6.772-5.418Z" transform="translate(-565.627 -382.406)" fill="#6c63ff"/>
    <path id="Path_1816" data-name="Path 1816" d="M791.887,525.592s-9.578-1.838-10.546-.484l-.193,2.128s-2.128,4.063-.968,10.642a32.4,32.4,0,0,1,.387,10.642,42.788,42.788,0,0,1,9.094,0c3.87.581,4.45,0,4.45,0Z" transform="translate(-606.015 -428.838)" fill="#777"/>
    <path id="Path_1817" data-name="Path 1817" d="M817.363,628.868l-5.611.193,1.935,14.512s-1.548,6.192.193,6.579a19.629,19.629,0,0,0,3.676.387,5.332,5.332,0,0,0,3.677,1.548,10.835,10.835,0,0,0,3.676-1.161,1.2,1.2,0,0,0-.968-1.548c-1.354-.387-5.031-1.548-5.8-5.611Z" transform="translate(-629.072 -504.153)" fill="#777"/>
    <path id="Path_1818" data-name="Path 1818" d="M788.784,628.868l-5.611.193,1.935,14.512s-1.548,6.192.193,6.579a19.628,19.628,0,0,0,3.676.387,5.332,5.332,0,0,0,3.676,1.548,10.835,10.835,0,0,0,3.677-1.161,1.2,1.2,0,0,0-.968-1.548c-1.354-.387-5.031-1.548-5.8-5.611Z" transform="translate(-608.427 -504.153)" fill="#777"/>
    <circle id="Ellipse_1004" data-name="Ellipse 1004" cx="2.438" cy="2.438" r="2.438" transform="translate(182.85 61.88)" fill="#777"/>
    <path id="Path_1819" data-name="Path 1819" d="M827.177,400.2a2.438,2.438,0,0,0-2.184-2.425,2.466,2.466,0,0,1,.254-.013,2.438,2.438,0,1,1,0,4.876,2.468,2.468,0,0,1-.254-.013A2.438,2.438,0,0,0,827.177,400.2Z" transform="translate(-638.638 -337.204)" fill="#777"/>
    <ellipse id="Ellipse_1005" data-name="Ellipse 1005" cx="4.063" cy="2.438" rx="4.063" ry="2.438" transform="translate(178.479 66.832)" fill="#777"/>
    <path id="Path_1820" data-name="Path 1820" d="M919.282,191.3a12.4,12.4,0,0,0-24.334-2.615c-.15-.005-.3-.011-.452-.011a12.4,12.4,0,0,0-11.9,8.906,8.765,8.765,0,0,0-10.4,2.589h38.687a8.389,8.389,0,0,0,8.407-8.686Q919.287,191.388,919.282,191.3Z" transform="translate(-672.737 -179.599)" fill="#777"/>
    <circle id="Ellipse_1006" data-name="Ellipse 1006" cx="3.331" cy="3.331" r="3.331" transform="translate(210.871 31.137)" fill="#777"/>
    <circle id="Ellipse_1007" data-name="Ellipse 1007" cx="2.774" cy="2.774" r="2.774" transform="translate(221.487 23.841)" fill="#777"/>
    <circle id="Ellipse_1008" data-name="Ellipse 1008" cx="3.331" cy="3.331" r="3.331" transform="translate(234.467 38.355)" fill="#777"/>
    <circle id="Ellipse_1009" data-name="Ellipse 1009" cx="3.331" cy="3.331" r="3.331" transform="translate(209.206 53.623)" fill="#777"/>
    <circle id="Ellipse_1010" data-name="Ellipse 1010" cx="3.331" cy="3.331" r="3.331" transform="translate(234.467 72.778)" fill="#777"/>
    <path id="Path_1821" data-name="Path 1821" d="M955.167,674.023c0-.036.005-.071.005-.108a5.26,5.26,0,0,0-10.5-.275l-.05,0a5.021,5.021,0,0,0,7.761,6.3,3.328,3.328,0,1,0,2.783-5.916Z" transform="translate(-722.649 -533.68)" fill="#e6e6e6"/>
    <circle id="Ellipse_1011" data-name="Ellipse 1011" cx="1.388" cy="1.388" r="1.388" transform="translate(239.464 61.396)" fill="#777"/>
    <circle id="Ellipse_1012" data-name="Ellipse 1012" cx="1.388" cy="1.388" r="1.388" transform="translate(230.581 28.084)" fill="#777"/>
    <circle id="Ellipse_1013" data-name="Ellipse 1013" cx="1.388" cy="1.388" r="1.388" transform="translate(225.862 62.506)" fill="#777"/>
    <circle id="Ellipse_1014" data-name="Ellipse 1014" cx="1.388" cy="1.388" r="1.388" transform="translate(226.972 61.118)" fill="#777"/>
    <circle id="Ellipse_1015" data-name="Ellipse 1015" cx="1.388" cy="1.388" r="1.388" transform="translate(227.805 59.73)" fill="#777"/>
    <circle id="Ellipse_1016" data-name="Ellipse 1016" cx="1.388" cy="1.388" r="1.388" transform="translate(224.474 71.39)" fill="#777"/>
    <circle id="Ellipse_1017" data-name="Ellipse 1017" cx="1.388" cy="1.388" r="1.388" transform="translate(245.016 86.936)" fill="#777"/>
    <circle id="Ellipse_1018" data-name="Ellipse 1018" cx="1.388" cy="1.388" r="1.388" transform="translate(215.313 87.768)" fill="#777"/>
    <circle id="Ellipse_1019" data-name="Ellipse 1019" cx="1.388" cy="1.388" r="1.388" transform="translate(216.978 45.017)" fill="#777"/>
    <circle id="Ellipse_1020" data-name="Ellipse 1020" cx="1.388" cy="1.388" r="1.388" transform="translate(223.363 70.002)" fill="#777"/>
    <circle id="Ellipse_1021" data-name="Ellipse 1021" cx="1.388" cy="1.388" r="1.388" transform="translate(221.975 67.781)" fill="#777"/>
    <path id="Path_1822" data-name="Path 1822" d="M107.172,266.411h-6.425l3.034-63.274Z" transform="translate(-72.779 -120.789)" fill="#777"/>
  </g>
</svg>
