<svg xmlns="http://www.w3.org/2000/svg" width="24" height="24" viewBox="0 0 24 24">
  <g id="add_folder" transform="translate(-389 -856)">
    <rect id="Rectangle_1028" data-name="Rectangle 1028" width="24" height="24" transform="translate(389 856)" opacity="0"/>
    <g id="Group_1487" data-name="Group 1487" transform="translate(-5 -6.999)">
      <g id="Union_60" data-name="Union 60" transform="translate(1510 5162)" fill="none">
        <path d="M-1112-4280a2,2,0,0,1-2-2v-12a2,2,0,0,1,2-2h7.687l.661,2H-1096a2,2,0,0,1,2,2v10a2,2,0,0,1-2,2Z" stroke="none"/>
        <path d="M -1095.99951171875 -4281.00048828125 C -1095.448120117188 -4281.00048828125 -1094.99951171875 -4281.44921875 -1094.99951171875 -4282.00048828125 L -1094.99951171875 -4292.00048828125 C -1094.99951171875 -4292.5517578125 -1095.448120117188 -4293.00048828125 -1095.99951171875 -4293.00048828125 L -1103.652465820313 -4293.00048828125 L -1104.375244140625 -4293.00048828125 L -1104.60205078125 -4293.68701171875 L -1105.035888671875 -4295.00048828125 L -1112.000366210938 -4295.00048828125 C -1112.5517578125 -4295.00048828125 -1113.000366210938 -4294.5517578125 -1113.000366210938 -4294.00048828125 L -1113.000366210938 -4282.00048828125 C -1113.000366210938 -4281.44921875 -1112.5517578125 -4281.00048828125 -1112.000366210938 -4281.00048828125 L -1095.99951171875 -4281.00048828125 M -1095.99951171875 -4280.00048828125 L -1112.000366210938 -4280.00048828125 C -1113.1044921875 -4280.00048828125 -1114.000366210938 -4280.8955078125 -1114.000366210938 -4282.00048828125 L -1114.000366210938 -4294.00048828125 C -1114.000366210938 -4295.1044921875 -1113.1044921875 -4296.00048828125 -1112.000366210938 -4296.00048828125 L -1104.313110351563 -4296.00048828125 L -1103.652465820313 -4294.00048828125 L -1095.99951171875 -4294.00048828125 C -1094.8955078125 -4294.00048828125 -1093.99951171875 -4293.1044921875 -1093.99951171875 -4292.00048828125 L -1093.99951171875 -4282.00048828125 C -1093.99951171875 -4280.8955078125 -1094.8955078125 -4280.00048828125 -1095.99951171875 -4280.00048828125 Z" stroke="none" fill="#999"/>
      </g>
      <g id="Group_1352" data-name="Group 1352" transform="translate(391 860)">
        <line id="Line_72" data-name="Line 72" y2="6" transform="translate(12 11)" fill="none" stroke="#333" stroke-linecap="round" stroke-linejoin="round" stroke-width="2"/>
        <line id="Line_73" data-name="Line 73" x2="6" transform="translate(9 14)" fill="none" stroke="#333" stroke-linecap="round" stroke-linejoin="round" stroke-width="2"/>
      </g>
    </g>
  </g>
</svg>
