<svg xmlns="http://www.w3.org/2000/svg" width="24" height="24" viewBox="0 0 24 24">
  <g id="area" transform="translate(-20 -880)">
    <rect id="Rectangle_1236" data-name="Rectangle 1236" width="24" height="24" transform="translate(20 880)" fill="none"/>
    <g id="Path_573" data-name="Path 573" transform="translate(24 882)" fill="none">
      <path d="M8,0a8,8,0,0,1,8,8c0,4.418-6.646,12-8,12S0,12.418,0,8A8,8,0,0,1,8,0Z" stroke="none"/>
      <path d="M 8 1 C 4.140190124511719 1 1 4.140190124511719 1 8 C 1 9.615400314331055 2.121700286865234 12.08152961730957 4.077489852905273 14.76605033874512 C 5.784106254577637 17.10855293273926 7.399737358093262 18.61115646362305 8 18.95400238037109 C 8.600263595581055 18.61115646362305 10.21589469909668 17.10855293273926 11.92251014709473 14.76605033874512 C 13.87829971313477 12.08152961730957 15 9.615400314331055 15 8 C 15 4.140190124511719 11.85980987548828 1 8 1 M 8 0 C 12.41827964782715 0 16 3.581720352172852 16 8 C 16 12.41827964782715 9.354259490966797 20 8 20 C 6.645739555358887 20 0 12.41827964782715 0 8 C 0 3.581720352172852 3.581720352172852 0 8 0 Z" stroke="none" fill="#999"/>
    </g>
    <circle id="Ellipse_635" data-name="Ellipse 635" cx="3" cy="3" r="3" transform="translate(29 887)" fill="#999"/>
  </g>
</svg>
