<svg xmlns="http://www.w3.org/2000/svg" width="16" height="11.333" viewBox="0 0 16 11.333">
  <g id="Group_1549" data-name="Group 1549" transform="translate(105.5 -988.5)">
    <path id="Path_353" data-name="Path 353" d="M21,9h1a2,2,0,0,0,2-2V2a2,2,0,0,0-2-2H12" transform="translate(-114 989)" fill="none" stroke="#5ba5ed" stroke-width="1"/>
    <path id="Path_354" data-name="Path 354" d="M15,9H14a2,2,0,0,1-2-2V2a2,2,0,0,1,2-2H24" transform="translate(-117 989)" fill="none" stroke="#5ba5ed" stroke-width="1"/>
    <g id="Group_645" data-name="Group 645" transform="translate(-1 -4)">
      <path id="Path_355" data-name="Path 355" d="M-.257.147c-.2.371-.811.543-.811,1.377s.675.876.811,1.722a1.913,1.913,0,0,1-.811,1.51" transform="translate(-97.5 998.5)" fill="none" stroke="#5ba5ed" stroke-linecap="round" stroke-width="1"/>
      <path id="Path_356" data-name="Path 356" d="M-.257.147c-.2.371-.811.543-.811,1.377s.675.876.811,1.722a1.913,1.913,0,0,1-.811,1.51" transform="translate(-95.452 998.5)" fill="none" stroke="#5ba5ed" stroke-linecap="round" stroke-width="1"/>
      <path id="Path_357" data-name="Path 357" d="M-.257.147c-.2.371-.811.543-.811,1.377s.675.876.811,1.722a1.913,1.913,0,0,1-.811,1.51" transform="translate(-93.403 998.5)" fill="none" stroke="#5ba5ed" stroke-linecap="round" stroke-width="1"/>
    </g>
  </g>
</svg>
