<svg id="curtain_open" xmlns="http://www.w3.org/2000/svg" width="24" height="24" viewBox="0 0 24 24">
  <g id="Group_2643" data-name="Group 2643" transform="translate(-153.001 -372)">
    <g id="Path_854" data-name="Path 854" transform="translate(-1145.202 -4248.458)" fill="none" stroke-linecap="round" stroke-linejoin="round">
      <path d="M1301.2,4622.458v20h4.919s.8-5.8-3.665-8.792c4.977-3.212,4.746-11.208,4.746-11.208Z" stroke="none"/>
      <path d="M 1302.202392578125 4623.45849609375 L 1302.202392578125 4632.62939453125 C 1305.420532226562 4630.3056640625 1306.054077148438 4625.51416015625 1306.175659179688 4623.45849609375 L 1302.202392578125 4623.45849609375 M 1302.202392578125 4634.7109375 L 1302.202392578125 4641.45849609375 L 1305.176635742188 4641.45849609375 C 1305.1796875 4640.912109375 1305.140625 4640.1533203125 1304.971069335938 4639.31591796875 C 1304.56884765625 4637.33056640625 1303.638061523438 4635.783203125 1302.202392578125 4634.7109375 M 1301.202392578125 4622.45849609375 L 1307.202392578125 4622.45849609375 C 1307.202392578125 4622.45849609375 1307.433959960938 4630.4541015625 1302.456665039062 4633.66650390625 C 1306.924072265625 4636.65625 1306.121459960938 4642.45849609375 1306.121459960938 4642.45849609375 L 1301.202392578125 4642.45849609375 L 1301.202392578125 4622.45849609375 Z" stroke="none" fill="#212121"/>
    </g>
    <g id="Path_855" data-name="Path 855" transform="translate(-1133.202 -4248.458)" fill="none" stroke-linecap="round" stroke-linejoin="round">
      <path d="M1307.2,4622.458v20h-4.919s-.8-5.8,3.665-8.792c-4.977-3.212-4.746-11.208-4.746-11.208Z" stroke="none"/>
      <path d="M 1302.23095703125 4623.45849609375 C 1302.3525390625 4625.51513671875 1302.986328125 4630.30615234375 1306.2041015625 4632.62939453125 L 1306.2041015625 4623.45849609375 L 1302.23095703125 4623.45849609375 M 1306.2041015625 4634.7109375 C 1304.768432617188 4635.783203125 1303.837646484375 4637.33056640625 1303.435424804688 4639.31591796875 C 1303.265747070312 4640.1533203125 1303.226806640625 4640.91259765625 1303.229858398438 4641.45849609375 L 1306.2041015625 4641.45849609375 L 1306.2041015625 4634.7109375 M 1301.2041015625 4622.45849609375 L 1307.2041015625 4622.45849609375 L 1307.2041015625 4642.45849609375 L 1302.285034179688 4642.45849609375 C 1302.285034179688 4642.45849609375 1301.482421875 4636.65625 1305.949829101562 4633.66650390625 C 1300.972534179688 4630.4541015625 1301.2041015625 4622.45849609375 1301.2041015625 4622.45849609375 Z" stroke="none" fill="#212121"/>
    </g>
  </g>
  <rect id="Rectangle_1884" data-name="Rectangle 1884" width="24" height="24" fill="none"/>
</svg>