<svg width="49" height="48" viewBox="0 0 49 48" fill="none" xmlns="http://www.w3.org/2000/svg">
<path d="M6.52217 34.6001C12.1888 31.2667 25.7 24 30.5 24C35.3 24 40.8333 30.3333 42.5 33M18.5 16C18.5 17.1046 17.6046 18 16.5 18C15.3954 18 14.5 17.1046 14.5 16C14.5 14.8954 15.3954 14 16.5 14C17.6046 14 18.5 14.8954 18.5 16ZM14.5 42H34.5C38.9183 42 42.5 38.4183 42.5 34V14C42.5 9.58172 38.9183 6 34.5 6H14.5C10.0817 6 6.5 9.58172 6.5 14V34C6.5 38.4183 10.0817 42 14.5 42Z" stroke="#909094" stroke-width="2" stroke-linecap="round" stroke-linejoin="round"/>
</svg>
