<svg xmlns="http://www.w3.org/2000/svg" width="24" height="24"><g data-name="Group 2384" fill="none"><g data-name="Group 2383"><g data-name="Subtraction 90"><path d="M18 19a2 2 0 01-2-2h4a2 2 0 01-2 2zm2.147-3H16a49.522 49.522 0 011.459-2.5v-.005c1.02-1.667 1.532-2.5 1.532-4.31a6.272 6.272 0 00-1.552-4.15 5.189 5.189 0 01.557-.03 4.967 4.967 0 015 4.925 5.514 5.514 0 01-1.279 3.439l-.008.013c-.42.657-.943 1.475-1.562 2.622z"/><path d="M18.003 19.001c1.102 0 2-.897 2-2h-4.001c0 1.103.898 2 2.001 2M20.151 16v-.001a37.627 37.627 0 011.562-2.622l.008-.013c.852-1.33 1.279-1.999 1.279-3.44C23 7.21 20.759 5 18.003 5c-.18 0-.367.01-.556.03a6.272 6.272 0 011.552 4.15c0 1.806-.512 2.643-1.532 4.31l-.004.005A51.698 51.698 0 0016.003 16h4.147M18.004 20a3.004 3.004 0 01-3.001-3V17h-.677l.8-1.477a52.836 52.836 0 011.485-2.55l.005-.008.004-.006c.976-1.595 1.38-2.257 1.38-3.78a5.273 5.273 0 00-1.303-3.489l-1.273-1.447 1.916-.207c.222-.024.445-.036.664-.036C21.31 4 24 6.658 24 9.925c0 1.732-.54 2.577-1.435 3.975l-.006.01-.002.003-.002.003c-.41.64-.92 1.437-1.523 2.557l-.03.054V17c0 1.654-1.345 3-2.999 3z" fill="#999"/></g><g data-name="Group 2380"><g data-name="Path 254"><path d="M12.005 3a6.089 6.089 0 016 6.179c0 2.714-1.182 3.281-3.418 7.621H9.201c-1.24-3.633-3.357-4.908-3.189-7.621A6.089 6.089 0 0112.005 3z"/><path d="M12.005 3C8.694 3 6.009 5.767 6.009 9.18c-.165 2.712 1.952 3.987 3.192 7.62h5.381C16.82 12.46 18 11.893 18 9.18 18 5.766 15.316 3 12.005 3m0-1C15.862 2 19 5.22 19 9.18c0 2.087-.632 3.12-1.68 4.831a47.177 47.177 0 00-1.849 3.247l-.279.542H8.486l-.231-.677c-.489-1.433-1.14-2.496-1.713-3.434-.841-1.377-1.637-2.677-1.533-4.54C5.025 5.204 8.157 2 12.005 2z" fill="#999"/></g><g data-name="Rectangle 1269" stroke="#999"><path d="M9.5 17.8h5a2.5 2.5 0 01-2.5 2.5 2.5 2.5 0 01-2.5-2.5z" stroke="none"/><path d="M9.429 17.3h5.142a.429.429 0 01.429.429v.071a3 3 0 01-3 3h0a3 3 0 01-3-3v-.071a.429.429 0 01.429-.429z"/></g></g><g data-name="Ellipse 761" transform="translate(10.5 8)" stroke="#999" stroke-width="2"><circle cx="1.5" cy="1.5" r="1.5" stroke="none"/><circle cx="1.5" cy="1.5" r=".5"/></g><g data-name="Subtraction 91"><path d="M5.998 5.001a5.143 5.143 0 01.556.03 6.272 6.272 0 00-1.556 4.148c0 1.806.512 2.643 1.532 4.31.402.653.9 1.467 1.468 2.512H3.849c-.623-1.158-1.151-1.979-1.571-2.639a5.51 5.51 0 01-1.28-3.437 4.967 4.967 0 015-4.924zm-2 12h4a2 2 0 01-4 0z"/><path d="M5.996 5C3.242 5 1.001 7.21 1.001 9.925c0 1.44.426 2.108 1.277 3.437.422.66.948 1.481 1.571 2.638h4.146a51.902 51.902 0 00-1.463-2.51C5.512 11.821 5 10.984 5 9.18c0-1.54.552-3.012 1.553-4.15A5.143 5.143 0 005.996 5M3.997 17v.001c.001 1.102.898 2 2 2 1.103 0 2.001-.898 2.001-2h-4M5.995 4c.222 0 .445.012.665.036l1.914.209L7.303 5.69A5.274 5.274 0 006 9.18c0 1.523.406 2.186 1.385 3.787.406.663.911 1.489 1.49 2.557L9.674 17h-.676c0 1.654-1.346 3-3 3a3.004 3.004 0 01-3-2.998v-.474l-.03-.053A37.063 37.063 0 001.437 13.9C.54 12.502 0 11.658 0 9.925 0 6.658 2.69 4 5.996 4z" fill="#999"/></g></g><path data-name="Rectangle 1486" d="M0 0h24v24H0z"/></g></svg>