<svg width="48" height="48" viewBox="0 0 48 48" fill="none" xmlns="http://www.w3.org/2000/svg">
<g id="key">
<path id="icon" d="M30 14C32.2091 14 34 15.7909 34 18M42 18C42 24.6274 36.6274 30 30 30C28.7877 30 27.6173 29.8202 26.5141 29.4859L22 34H18V38H14V42H8C6.89543 42 6 41.1046 6 40V34.8284C6 34.298 6.21071 33.7893 6.58579 33.4142L18.5141 21.4859C18.1798 20.3827 18 19.2123 18 18C18 11.3726 23.3726 6 30 6C36.6274 6 42 11.3726 42 18Z" stroke="#909094" stroke-linecap="round" stroke-linejoin="round"/>
</g>
</svg>
