<svg xmlns="http://www.w3.org/2000/svg" width="24" height="24" viewBox="0 0 24 24">
  <g id="move_folder" transform="translate(-389 -856)">
    <rect id="Rectangle_1028" data-name="Rectangle 1028" width="24" height="24" transform="translate(389 856)" opacity="0"/>
    <g id="Group_1488" data-name="Group 1488" transform="translate(-5 -6.999)">
      <g id="Union_60" data-name="Union 60" transform="translate(1510 5162)" fill="none">
        <path d="M-1112-4279a2,2,0,0,1-2-2v-12a2,2,0,0,1,2-2h7.687l.661,2H-1096a2,2,0,0,1,2,2v10a2,2,0,0,1-2,2Z" stroke="none"/>
        <path d="M -1095.999877929688 -4280 C -1095.44873046875 -4280 -1095.000366210938 -4280.44873046875 -1095.000366210938 -4281.00048828125 L -1095.000366210938 -4291 C -1095.000366210938 -4291.55126953125 -1095.44873046875 -4291.99951171875 -1095.999877929688 -4291.99951171875 L -1103.65234375 -4291.99951171875 L -1104.375 -4291.99951171875 L -1104.601806640625 -4292.685546875 L -1105.036376953125 -4294.00048828125 L -1112.000244140625 -4294.00048828125 C -1112.551391601563 -4294.00048828125 -1112.999755859375 -4293.55126953125 -1112.999755859375 -4292.99951171875 L -1112.999755859375 -4281.00048828125 C -1112.999755859375 -4280.44873046875 -1112.551391601563 -4280 -1112.000244140625 -4280 L -1095.999877929688 -4280 M -1095.999877929688 -4279 L -1112.000244140625 -4279 C -1113.105102539063 -4279 -1113.999755859375 -4279.8955078125 -1113.999755859375 -4281.00048828125 L -1113.999755859375 -4292.99951171875 C -1113.999755859375 -4294.1044921875 -1113.105102539063 -4295.00048828125 -1112.000244140625 -4295.00048828125 L -1104.313720703125 -4295.00048828125 L -1103.65234375 -4292.99951171875 L -1095.999877929688 -4292.99951171875 C -1094.89501953125 -4292.99951171875 -1094.000366210938 -4292.10400390625 -1094.000366210938 -4291 L -1094.000366210938 -4281.00048828125 C -1094.000366210938 -4279.8955078125 -1094.89501953125 -4279 -1095.999877929688 -4279 Z" stroke="none" fill="#999"/>
      </g>
      <g id="Group_1351" data-name="Group 1351" transform="translate(78 778)">
        <line id="Line_73" data-name="Line 73" x2="8" transform="translate(322 97.333)" fill="none" stroke="#333" stroke-linecap="round" stroke-linejoin="round" stroke-width="2"/>
        <line id="Line_74" data-name="Line 74" x2="3.2" y2="3.333" transform="translate(326.8 94)" fill="none" stroke="#333" stroke-linecap="round" stroke-linejoin="round" stroke-width="2"/>
        <line id="Line_75" data-name="Line 75" y1="3.333" x2="3.2" transform="translate(326.8 97.333)" fill="none" stroke="#333" stroke-linecap="round" stroke-linejoin="round" stroke-width="2"/>
      </g>
    </g>
  </g>
</svg>
