<svg xmlns="http://www.w3.org/2000/svg" width="176.157" height="209.722" viewBox="0 0 176.157 209.722">
  <g id="Group_4784" data-name="Group 4784" transform="translate(-214.693 29.216)">
    <g id="Group_4783" data-name="Group 4783" transform="translate(214.693 -29.216)">
      <path id="Path_1824" data-name="Path 1824" d="M482.08,603.4a30.3,30.3,0,0,0,1.271,3.062v0q.583,1.217,1.266,2.372H537.8v.106q.724-1.206,1.331-2.483a29.717,29.717,0,0,0,1.271-3.06Zm1.341,3.03v-.495h55.652v.495ZM487.566,613H534.92a30.932,30.932,0,0,0,2.649-3.663H484.917A30.939,30.939,0,0,0,487.566,613Z" transform="translate(-423.242 -460.781)" fill="#777"/>
      <path id="Path_1825" data-name="Path 1825" d="M538.708,592.18q-.286,1.161-.663,2.281H479.383c-.25-.747-.472-1.506-.663-2.281Z" transform="translate(-420.713 -452.336)" fill="#777"/>
      <path id="Path_1826" data-name="Path 1826" d="M537.044,583.59v-.349H476.982v.349q-.315-1.291-.522-2.629h61.106Q537.362,582.3,537.044,583.59Z" transform="translate(-419.012 -443.891)" fill="#777"/>
      <path id="Path_1827" data-name="Path 1827" d="M475.252,542.534v.495h61.515c-.047.769-.121,1.529-.228,2.281h-61.25c-.1-.747-.181-1.5-.225-2.271-.045-.648-.064-1.3-.064-1.961,0-.445.01-.888.027-1.328v0q.063-1.406.242-2.775v0q.156-1.147.388-2.266h60.414v-.45q.3,1.343.485,2.731H475.378v.495h61.24q.122,1.035.173,2.088l.007.193H475.317v.495h61.5c.01.275.012.549.012.826,0,.49-.012.975-.035,1.457Z" transform="translate(-417.913 -408.735)" fill="#777"/>
      <path id="Path_1828" data-name="Path 1828" d="M538.4,527.048H478.1q.263-1.158.611-2.281h59.063v-.027Q538.13,525.876,538.4,527.048Z" transform="translate(-420.246 -401.578)" fill="#777"/>
      <path id="Path_1829" data-name="Path 1829" d="M539.967,514.466H481.21q.46-1.41,1.051-2.755v.472h56.654v-.47Q539.505,513.056,539.967,514.466Z" transform="translate(-422.587 -391.771)" fill="#777"/>
      <path id="Path_1830" data-name="Path 1830" d="M542.132,504.3H485.5q.512-1.165,1.121-2.281h54.326V501.9Q541.593,503.073,542.132,504.3Z" transform="translate(-425.816 -384.387)" fill="#777"/>
      <path id="Path_1831" data-name="Path 1831" d="M544.977,452.585H491.13a30.921,30.921,0,0,1,53.847,0Z" transform="translate(-430.053 -335.443)" fill="#777"/>
      <path id="Path_1832" data-name="Path 1832" d="M478.57,591.59a1.384,1.384,0,0,0,.037.146h-.037Z" transform="translate(-420.6 -451.892)" opacity="0.5"/>
      <path id="Path_1833" data-name="Path 1833" d="M721.277,591.59v.146h-.037A1.415,1.415,0,0,0,721.277,591.59Z" transform="translate(-603.244 -451.892)" opacity="0.5"/>
      <path id="Path_1834" data-name="Path 1834" d="M724.772,567.74v.495h-.062c.005-.062.01-.124.012-.186l.015-.309Z" transform="translate(-605.856 -433.941)" opacity="0.5"/>
      <path id="Path_1835" data-name="Path 1835" d="M724.87,556.51v.495h-.012c0-.166-.01-.329-.017-.495Z" transform="translate(-605.954 -425.489)" opacity="0.5"/>
      <path id="Path_1836" data-name="Path 1836" d="M721.87,534.07v.044c0-.015-.007-.03-.01-.044Z" transform="translate(-603.711 -408.6)" opacity="0.5"/>
      <path id="Path_1837" data-name="Path 1837" d="M485.46,511.621h.01a.087.087,0,0,1-.01.022Z" transform="translate(-425.786 -391.703)" opacity="0.5"/>
      <path id="Path_1838" data-name="Path 1838" d="M714.462,511.621v.025a.234.234,0,0,0-.012-.025Z" transform="translate(-598.134 -391.703)" opacity="0.5"/>
      <rect id="Rectangle_2922" data-name="Rectangle 2922" width="50.346" height="0.495" transform="translate(62.828 114.366)" opacity="0.5"/>
      <rect id="Rectangle_2923" data-name="Rectangle 2923" width="46.308" height="0.495" transform="translate(64.91 111.59)" opacity="0.5"/>
      <rect id="Rectangle_2924" data-name="Rectangle 2924" width="40.504" height="0.495" transform="translate(67.749 108.814)" opacity="0.5"/>
      <rect id="Rectangle_2925" data-name="Rectangle 2925" width="33.69" height="0.495" transform="translate(70.84 106.103) rotate(-0.112)" opacity="0.5"/>
      <rect id="Rectangle_2926" data-name="Rectangle 2926" width="14.763" height="32.712" transform="translate(68.756 116.098)" fill="#e6e6e6"/>
      <path id="Path_1839" data-name="Path 1839" d="M295.41,481.813h.625a3.473,3.473,0,0,1,3.473,3.473V490.2h-7.571v-4.917A3.473,3.473,0,0,1,295.41,481.813Z" transform="translate(-219.901 -362.634)" fill="#777"/>
      <path id="Path_1840" data-name="Path 1840" d="M403.625,468.2h0a3.785,3.785,0,0,1,3.785,3.785v6.183H399.84v-6.183A3.785,3.785,0,0,1,403.625,468.2Z" transform="translate(-301.113 -352.392)" fill="#e6e6e6"/>
      <path id="Path_1841" data-name="Path 1841" d="M628.875,543.732a7.908,7.908,0,0,1-.049.883H599.98v-1.64h28.859Q628.874,543.352,628.875,543.732Z" transform="translate(-511.978 -415.302)" fill="#e6e6e6"/>
      <path id="Path_1842" data-name="Path 1842" d="M613.368,518.716l.28-.433a6.491,6.491,0,0,0-.288-.673l-.181.146.144-.222c-.137-.269-.245-.439-.245-.439a6.227,6.227,0,0,0-.75,1.825l.36.556-.4-.322a2.623,2.623,0,0,0-.022.33c0,1.111.363,2.012.811,2.012s.811-.9.811-2.012a3.461,3.461,0,0,0-.185-1.038Z" transform="translate(-521.227 -395.823)" fill="#6c63ff"/>
      <path id="Path_1843" data-name="Path 1843" d="M617.8,523.433l.5-.108a6.515,6.515,0,0,0,.273-.68l-.232-.025.258-.055c.094-.287.138-.483.138-.483a6.228,6.228,0,0,0-1.821.76l-.139.648-.054-.509a2.622,2.622,0,0,0-.249.218c-.786.786-1.166,1.679-.85,2s1.21-.064,2-.85a3.462,3.462,0,0,0,.6-.865Z" transform="translate(-523.671 -399.577)" fill="#6c63ff"/>
      <path id="Path_1844" data-name="Path 1844" d="M613.915,535.477c-1.17.075-2.446,0-3.8,0v-3.106a13.7,13.7,0,0,0,3.8,0Z" transform="translate(-519.605 -407.321)" fill="#e6e6e6"/>
      <path id="Path_1845" data-name="Path 1845" d="M690.4,518.716l.28-.433a6.5,6.5,0,0,0-.288-.673l-.181.146.144-.222c-.137-.269-.244-.439-.244-.439a6.227,6.227,0,0,0-.75,1.825l.36.556-.4-.322a2.634,2.634,0,0,0-.022.33c0,1.111.363,2.012.811,2.012s.811-.9.811-2.012a3.458,3.458,0,0,0-.185-1.038Z" transform="translate(-579.202 -395.823)" fill="#6c63ff"/>
      <path id="Path_1846" data-name="Path 1846" d="M694.825,523.433l.5-.108a6.488,6.488,0,0,0,.273-.68l-.232-.025.258-.055c.094-.287.138-.483.138-.483a6.227,6.227,0,0,0-1.821.76l-.139.648-.054-.509a2.638,2.638,0,0,0-.249.218c-.786.786-1.166,1.679-.85,2s1.21-.064,2-.85a3.461,3.461,0,0,0,.6-.865Z" transform="translate(-581.646 -399.577)" fill="#6c63ff"/>
      <path id="Path_1847" data-name="Path 1847" d="M690.943,535.477c-1.17.075-2.446,0-3.8,0v-3.106a13.7,13.7,0,0,0,3.8,0Z" transform="translate(-577.58 -407.321)" fill="#e6e6e6"/>
      <ellipse id="Ellipse_981" data-name="Ellipse 981" cx="1.514" cy="1.274" rx="1.514" ry="1.274" transform="translate(69.008 132.136)" fill="#777"/>
      <path id="Path_1848" data-name="Path 1848" d="M451.653,657.279a87.582,87.582,0,0,1-144.123-.816c13.58-25.811,41.152-19.417,72.344-19.417C411.392,637.045,438.217,631.024,451.653,657.279Z" transform="translate(-291.867 -485.575)" fill="#6c63ff"/>
      <path id="Path_1849" data-name="Path 1849" d="M379.874,642.476c29.981,0,55.715-5.445,69.719,16.621q1.057-1.389,2.061-2.819c-13.436-26.254-40.262-20.234-71.78-20.234-31.191,0-58.764-6.394-72.344,19.417q1.007,1.473,2.073,2.9C323.793,636.689,350.194,642.476,379.874,642.476Z" transform="translate(-291.867 -484.822)" fill="#777"/>
      <path id="Path_1850" data-name="Path 1850" d="M332.216,338.693A88.068,88.068,0,1,1,373.6,328.4,88.068,88.068,0,0,1,332.216,338.693Zm0-175.621a87.428,87.428,0,1,0,80.568,53.4h0A87.368,87.368,0,0,0,332.216,163.072Z" transform="translate(-244.209 -128.972)" fill="#777"/>
      <path id="Path_1851" data-name="Path 1851" d="M333.187,339.054A87.666,87.666,0,1,1,405.068,301.6h0A87.835,87.835,0,0,1,333.187,339.054Zm0-174.632A86.945,86.945,0,1,0,404.46,301.177h0a86.956,86.956,0,0,0-71.273-136.755Z" transform="translate(-245.181 -129.827)" fill="#777"/>
      <circle id="Ellipse_982" data-name="Ellipse 982" cx="23.622" cy="23.622" r="23.622" transform="translate(8.853 26.803)" fill="#ff6584"/>
      <circle id="Ellipse_983" data-name="Ellipse 983" cx="40.442" cy="40.442" r="40.442" transform="translate(91.813)" fill="#6c63ff"/>
      <path id="Path_1852" data-name="Path 1852" d="M695.462,81.115a40.446,40.446,0,0,1-67.389,42.8,40.446,40.446,0,1,0,67.389-42.8Z" transform="translate(-533.123 -67.685)" opacity="0.2"/>
      <path id="Path_1853" data-name="Path 1853" d="M529.417,163.5h.111l2,114.661h-4.222Z" transform="translate(-397.05 -123.058)" fill="#777" stroke="#fff" stroke-width="0.5"/>
      <rect id="Rectangle_2927" data-name="Rectangle 2927" width="2" height="7.555" transform="translate(138.799 101.128) rotate(62.234)" fill="#777"/>
      <path id="Path_1854" data-name="Path 1854" d="M752.544,624.066s.171-3.579,3.673-3.163" transform="translate(-626.805 -473.929)" fill="#3f3d56"/>
      <circle id="Ellipse_984" data-name="Ellipse 984" cx="1.753" cy="1.753" r="1.753" transform="translate(122.997 143.226)" fill="#6c63ff"/>
      <rect id="Rectangle_2928" data-name="Rectangle 2928" width="0.495" height="3.463" transform="translate(124.464 147.93)" fill="#3f3d56"/>
      <path id="Path_1855" data-name="Path 1855" d="M845.544,651.066s.171-3.579,3.672-3.163" transform="translate(-696.801 -494.25)" fill="#3f3d56"/>
      <circle id="Ellipse_985" data-name="Ellipse 985" cx="1.753" cy="1.753" r="1.753" transform="translate(146.001 149.905)" fill="#6c63ff"/>
      <rect id="Rectangle_2929" data-name="Rectangle 2929" width="0.495" height="3.463" transform="translate(147.468 154.609)" fill="#3f3d56"/>
      <path id="Path_1856" data-name="Path 1856" d="M348.544,657.066s.171-3.579,3.672-3.163" transform="translate(-322.736 -498.766)" fill="#3f3d56"/>
      <circle id="Ellipse_986" data-name="Ellipse 986" cx="1.753" cy="1.753" r="1.753" transform="translate(23.066 151.389)" fill="#6c63ff"/>
      <rect id="Rectangle_2930" data-name="Rectangle 2930" width="0.495" height="3.463" transform="translate(24.533 156.093)" fill="#3f3d56"/>
      <path id="Path_1857" data-name="Path 1857" d="M808.544,634.066s.171-3.579,3.672-3.163" transform="translate(-668.953 -481.455)" fill="#3f3d56"/>
      <circle id="Ellipse_987" data-name="Ellipse 987" cx="1.753" cy="1.753" r="1.753" transform="translate(136.848 145.7)" fill="#6c63ff"/>
      <rect id="Rectangle_2931" data-name="Rectangle 2931" width="0.495" height="3.463" transform="translate(138.316 150.404)" fill="#3f3d56"/>
      <path id="Path_1858" data-name="Path 1858" d="M414.832,230.716l2.277-1.821a2.413,2.413,0,0,0-2.793,1.533,3.879,3.879,0,0,0-2.886.178l4.556,1.654A3.448,3.448,0,0,0,414.832,230.716Z" transform="translate(-370.067 -178.891)" fill="#3f3d56"/>
      <path id="Path_1859" data-name="Path 1859" d="M554.832,305.716l2.277-1.821a2.413,2.413,0,0,0-2.793,1.533,3.879,3.879,0,0,0-2.886.178l4.556,1.654a3.448,3.448,0,0,0-1.153-1.544Z" transform="translate(-475.437 -235.34)" fill="#3f3d56"/>
      <path id="Path_1860" data-name="Path 1860" d="M403.832,369.716l2.277-1.821a2.413,2.413,0,0,0-2.793,1.533,3.879,3.879,0,0,0-2.886.178l4.556,1.654A3.448,3.448,0,0,0,403.832,369.716Z" transform="translate(-361.787 -283.509)" fill="#3f3d56"/>
      <path id="Path_1861" data-name="Path 1861" d="M548.731,505.761a28.8,28.8,0,0,1-2.407,11.564L495.031,491.62l-3.9-1.937,5.286-.289,45.812-2.5C546.589,491.956,548.731,498.551,548.731,505.761Z" transform="translate(-430.053 -373.09)" opacity="0.2"/>
      <path id="Path_1862" data-name="Path 1862" d="M281.212,406.633H207.5V400.7l36.608-15.336,37.1,15.336Z" transform="translate(-156.349 -290.04)" fill="#777"/>
    </g>
  </g>
</svg>
