<svg width="24" height="24" viewBox="0 0 24 24" fill="none" xmlns="http://www.w3.org/2000/svg">
<path d="M6.75085 8.12689H6.99547C9.06455 8.12689 10.7463 9.80866 10.7463 11.8777V12.0306H3V11.8777C3 9.80866 4.68177 8.12689 6.75085 8.12689Z" stroke="#1A1B1E" stroke-linecap="round" stroke-linejoin="round"/>
<path d="M13.2435 12.1427H21V12.2956C21 14.3647 19.3182 16.0464 17.2491 16.0464H17.0045C14.9354 16.0464 13.2537 14.3647 13.2537 12.2956V12.1427H13.2435Z" stroke="#1A1B1E" stroke-linecap="round" stroke-linejoin="round"/>
<path d="M12.2038 10.7565V3H12.3262C14.4156 3 16.1178 4.70215 16.1178 6.79162V6.9649C16.1178 9.05436 14.4156 10.7565 12.3262 10.7565H12.2038Z" stroke="#1A1B1E" stroke-linecap="round" stroke-linejoin="round"/>
<path d="M8.12684 17.2084V17.0351C8.12684 14.9456 9.82899 13.2435 11.9185 13.2435H12.0408V21H11.9185C9.82899 21 8.12684 19.2978 8.12684 17.2084Z" stroke="#1A1B1E" stroke-linecap="round" stroke-linejoin="round"/>
</svg>
