<svg xmlns="http://www.w3.org/2000/svg" width="24" height="24" viewBox="0 0 24 24">
  <g id="room_master" transform="translate(-62 -835)">
    <rect id="Rectangle_1164" data-name="Rectangle 1164" width="24" height="24" transform="translate(62 835)" fill="none"/>
    <g id="Group_1486" data-name="Group 1486" transform="translate(-7 -7)">
      <g id="Group_1368" data-name="Group 1368" transform="translate(0 2)">
        <path id="Rectangle_1044" data-name="Rectangle 1044" d="M0,0H14a0,0,0,0,1,0,0V1a2,2,0,0,1-2,2H2A2,2,0,0,1,0,1V0A0,0,0,0,1,0,0Z" transform="translate(74 858)" fill="#999"/>
        <path id="Subtraction_77" data-name="Subtraction 77" d="M-1097-4284h-14l-1.134-5.1A5.011,5.011,0,0,0-1109-4288a5.006,5.006,0,0,0,5-5,4.971,4.971,0,0,0,1.466,3.534A4.963,4.963,0,0,0-1099-4288a5.011,5.011,0,0,0,3.135-1.1L-1097-4284Z" transform="translate(1185 5140)" fill="#999"/>
        <circle id="Ellipse_514" data-name="Ellipse 514" cx="2" cy="2" r="2" transform="translate(79 844)" fill="#999"/>
        <circle id="Ellipse_515" data-name="Ellipse 515" cx="2" cy="2" r="2" transform="translate(71 847)" fill="#999"/>
        <circle id="Ellipse_516" data-name="Ellipse 516" cx="2" cy="2" r="2" transform="translate(87 847)" fill="#999"/>
      </g>
    </g>
  </g>
</svg>
