<svg width="24" height="24" viewBox="0 0 24 24" fill="none" xmlns="http://www.w3.org/2000/svg">
<g id="scene_wizard">
<path id="icon" d="M7.00616 14.9445C8.58023 14.0185 12.3333 12 13.6667 12C15 12 16.537 13.7593 17 14.5M8 21.5H16C17.6569 21.5 19 20.1569 19 18.5V5.5C19 3.84315 17.6569 2.5 16 2.5H8C6.34315 2.5 5 3.84315 5 5.5V18.5C5 20.1569 6.34315 21.5 8 21.5ZM10.3333 9.77778C10.3333 10.0846 10.0846 10.3333 9.77778 10.3333C9.47095 10.3333 9.22222 10.0846 9.22222 9.77778C9.22222 9.47095 9.47095 9.22222 9.77778 9.22222C10.0846 9.22222 10.3333 9.47095 10.3333 9.77778ZM9.22222 17H14.7778C16.0051 17 17 16.0051 17 14.7778V9.22222C17 7.99492 16.0051 7 14.7778 7H9.22222C7.99492 7 7 7.99492 7 9.22222V14.7778C7 16.0051 7.99492 17 9.22222 17Z" stroke="#1A1B1E" stroke-linecap="round" stroke-linejoin="round"/>
</g>
</svg>
