<svg width="20" height="19" viewBox="0 0 20 19" fill="none" xmlns="http://www.w3.org/2000/svg">
<path d="M14.7508 5.83451H14.9955C17.0645 5.83451 18.7463 7.51627 18.7463 9.58536V9.73825H11V9.58536C11 7.51627 12.6817 5.83451 14.7508 5.83451Z" stroke="#1A1B1E" stroke-linecap="round" stroke-linejoin="round"/>
<path d="M6.979 4.29954L7.0546 4.06689C7.69398 2.09908 9.81313 1.01932 11.7809 1.6587L11.9263 1.70594L9.53261 9.07313L9.3872 9.02589C7.41939 8.3865 6.33962 6.26735 6.979 4.29954Z" stroke="#1A1B1E" stroke-linecap="round" stroke-linejoin="round"/>
<path d="M3.23239 11.3412L3.03449 11.1974C1.36056 9.98122 0.988505 7.63212 2.20468 5.9582L2.29455 5.83451L8.56145 10.3877L8.47159 10.5114C7.25541 12.1853 4.90631 12.5574 3.23239 11.3412Z" stroke="#1A1B1E" stroke-linecap="round" stroke-linejoin="round"/>
<path d="M8.79864 17.1334L8.60074 17.2772C6.92682 18.4934 4.57772 18.1213 3.36154 16.4474L3.27168 16.3237L9.53858 11.7706L9.62845 11.8942C10.8446 13.5682 10.4726 15.9173 8.79864 17.1334Z" stroke="#1A1B1E" stroke-linecap="round" stroke-linejoin="round"/>
<path d="M15.8717 13.4018L15.9473 13.6344C16.5867 15.6022 15.5069 17.7214 13.5391 18.3608L13.3937 18.408L11 11.0408L11.1454 10.9936C13.1132 10.3542 15.2324 11.434 15.8717 13.4018Z" stroke="#1A1B1E" stroke-linecap="round" stroke-linejoin="round"/>
</svg>
