<svg width="24" height="24" viewBox="0 0 24 24" fill="none" xmlns="http://www.w3.org/2000/svg">
<path d="M13.1008 3.0044C12.0445 3.74373 11.0858 5.50464 10.8448 6.66025C10.6961 7.42196 10.7564 8.17332 10.869 8.94837C10.4261 8.45563 10.1263 7.82533 10.0645 6.85839C10.0551 6.70709 9.95915 6.56545 9.82663 6.50732C9.69411 6.44919 9.53141 6.47736 9.42339 6.57717C7.30495 8.52872 6 11.4798 6 14.3363C6 17.4841 7.69225 19.5298 10.1552 20.9513C10.297 21.0341 10.4881 21.0092 10.6065 20.8924C10.725 20.7757 10.7618 20.5761 10.6935 20.4208C10.5613 20.1142 10.4516 19.8009 10.4516 19.4494C10.4516 18.309 11.1339 17.1167 12 16.5796C12.8667 17.1164 13.5484 18.308 13.5484 19.4494C13.5484 19.7986 13.438 20.1144 13.3065 20.4208C13.2382 20.5761 13.275 20.7757 13.3935 20.8924C13.5119 21.0092 13.703 21.0341 13.8448 20.9513C16.3103 19.5304 18 17.4865 18 14.3363C18 11.6107 16.7338 9.81936 15.5806 8.2581C14.4275 6.69684 13.4131 5.38318 13.5484 3.43902C13.5659 3.1935 13.3308 2.96526 13.1008 3.0044Z" stroke="#1A1B1E"/>
</svg>
