<svg width="16" height="16" viewBox="0 0 16 16" fill="none" xmlns="http://www.w3.org/2000/svg">
<path d="M10.7506 3.99999H10.9952C13.0643 3.99999 14.7461 5.68176 14.7461 7.75084V7.90373H6.99976V7.75084C6.99976 5.68176 8.68153 3.99999 10.7506 3.99999Z" stroke="#1A1B1E" stroke-linecap="round" stroke-linejoin="round"/>
<path d="M8.37823 13.2002L8.25592 13.412C7.22138 15.2039 4.92404 15.8195 3.13216 14.7849L2.99976 14.7085L6.87292 8L7.00532 8.07644C8.7972 9.11098 9.41277 11.4083 8.37823 13.2002Z" stroke="#1A1B1E" stroke-linecap="round" stroke-linejoin="round"/>
<path d="M1.99749 6.41205L1.87518 6.2002C0.840641 4.40832 1.45621 2.11099 3.24809 1.07644L3.3805 1L7.25365 7.70851L7.12125 7.78495C5.32937 8.81949 3.03203 8.20393 1.99749 6.41205Z" stroke="#1A1B1E" stroke-linecap="round" stroke-linejoin="round"/>
</svg>
