<svg width="20" height="19" viewBox="0 0 20 19" fill="none" xmlns="http://www.w3.org/2000/svg">
<path d="M14.7511 4.50007H14.9957C17.0648 4.50007 18.7465 6.18184 18.7465 8.25093V8.40381H11.0002V8.25093C11.0002 6.18184 12.682 4.50007 14.7511 4.50007Z" stroke="#1A1B1E" stroke-linecap="round" stroke-linejoin="round"/>
<path d="M16.7058 11.1144L16.8281 11.3263C17.8626 13.1182 17.2471 15.4155 15.4552 16.45L15.3228 16.5265L11.4496 9.81797L11.582 9.74153C13.3739 8.70699 15.6712 9.32256 16.7058 11.1144Z" stroke="#1A1B1E" stroke-linecap="round" stroke-linejoin="round"/>
<path d="M11.9549 16.1144L11.8326 16.3263C10.7981 18.1182 8.50074 18.7337 6.70886 17.6992L6.57645 17.6227L10.4496 10.9142L10.582 10.9907C12.3739 12.0252 12.9895 14.3226 11.9549 16.1144Z" stroke="#1A1B1E" stroke-linecap="round" stroke-linejoin="round"/>
<path d="M5.24938 14.5001H5.00476C2.93567 14.5001 1.25391 12.8183 1.25391 10.7492L1.25391 10.5963H9.00023V10.7492C9.00022 12.8183 7.31846 14.5001 5.24938 14.5001Z" stroke="#1A1B1E" stroke-linecap="round" stroke-linejoin="round"/>
<path d="M3.29468 7.88572L3.17237 7.67387C2.13783 5.88199 2.7534 3.58465 4.54528 2.55011L4.67768 2.47367L8.55084 9.18218L8.41843 9.25862C6.62655 10.2932 4.32922 9.67759 3.29468 7.88572Z" stroke="#1A1B1E" stroke-linecap="round" stroke-linejoin="round"/>
<path d="M8.04553 2.88572L8.16784 2.67387C9.20238 0.881992 11.4997 0.266423 13.2916 1.30096L13.424 1.37741L9.55084 8.08592L9.41843 8.00947C7.62655 6.97493 7.01098 4.67759 8.04553 2.88572Z" stroke="#1A1B1E" stroke-linecap="round" stroke-linejoin="round"/>
</svg>
