<svg width="20" height="19" viewBox="0 0 20 19" fill="none" xmlns="http://www.w3.org/2000/svg">
<path d="M4.75085 5.62689H4.99547C7.06455 5.62689 8.74632 7.30866 8.74632 9.37774V9.53063H1V9.37774C1 7.30866 2.68177 5.62689 4.75085 5.62689Z" stroke="#1A1B1E" stroke-linecap="round" stroke-linejoin="round"/>
<path d="M11.2435 9.64269H19V9.79557C19 11.8647 17.3182 13.5464 15.2491 13.5464H15.0045C12.9354 13.5464 11.2537 11.8647 11.2537 9.79557V9.64269H11.2435Z" stroke="#1A1B1E" stroke-linecap="round" stroke-linejoin="round"/>
<path d="M10.2038 8.25652V0.5H10.3262C12.4156 0.5 14.1178 2.20215 14.1178 4.29162V4.4649C14.1178 6.55436 12.4156 8.25652 10.3262 8.25652H10.2038Z" stroke="#1A1B1E" stroke-linecap="round" stroke-linejoin="round"/>
<path d="M6.12684 14.7084V14.5351C6.12684 12.4456 7.82899 10.7435 9.91846 10.7435H10.0408V18.5H9.91846C7.82899 18.5 6.12684 16.7978 6.12684 14.7084Z" stroke="#1A1B1E" stroke-linecap="round" stroke-linejoin="round"/>
</svg>
