<svg id="hot" xmlns="http://www.w3.org/2000/svg" width="24" height="24" viewBox="0 0 24 24">
  <rect id="Rectangle_1280" data-name="Rectangle 1280" width="24" height="24" fill="none"/>
  <g id="Path_601" data-name="Path 601" transform="translate(4 10.344)" fill="none">
    <path d="M9.993-8.344C9.624-3.8,11.872-2.669,13.381-1.022a7.505,7.505,0,0,1,1.9,5.039A7.639,7.639,0,0,1,0,4.017,7.722,7.722,0,0,1,1.669-.75,11.124,11.124,0,0,1,3.936-2.793c-1.553,1.968.014,3.844.9,3.44S5.194-5.255,9.993-8.344Z" stroke="none"/>
    <path d="M 9.014398574829102 -6.258403778076172 C 7.281682014465332 -4.45675802230835 6.77330207824707 -2.262892246246338 6.412769317626953 -0.7070984840393066 C 6.152329444885254 0.4167816638946533 5.964159965515137 1.228801727294922 5.248169898986816 1.556611776351929 C 5.03654956817627 1.653511762619019 4.809060096740723 1.702651739120483 4.572030067443848 1.702651739120483 C 3.783149719238281 1.702651739120483 3.003609657287598 1.14609169960022 2.586050033569336 0.2847416400909424 C 2.525195121765137 0.1592094898223877 2.473418235778809 0.03095197677612305 2.430671691894531 -0.09933042526245117 C 1.481277465820312 1.157204866409302 1 2.541682004928589 1 4.016611576080322 C 1 7.677451610565186 3.978329658508301 10.65576171875 7.639189720153809 10.65576171875 C 11.30004978179932 10.65576171875 14.27837944030762 7.677451610565186 14.27837944030762 4.016611576080322 C 14.27837944030762 2.372811794281006 13.68311977386475 0.7830517292022705 12.64389991760254 -0.3464581966400146 C 12.40830993652344 -0.6035282611846924 12.14571952819824 -0.8536581993103027 11.86769962310791 -1.118468284606934 C 10.70841598510742 -2.222713947296143 9.319723129272461 -3.545665740966797 9.014398574829102 -6.258403778076172 M 9.993139266967773 -8.34423828125 C 9.62399959564209 -3.797718048095703 11.87173938751221 -2.669068336486816 13.38113021850586 -1.02210807800293 C 14.5164098739624 0.2118217945098877 15.27837944030762 2.025231838226318 15.27837944030762 4.016611576080322 C 15.27837944030762 8.235591888427734 11.85820007324219 11.65576171875 7.639189720153809 11.65576171875 C 3.42017936706543 11.65576171875 0 8.235591888427734 0 4.016611576080322 C 0 2.274171829223633 0.583369255065918 0.6679916381835938 1.669089317321777 -0.7498683929443359 C 1.669089317321777 -0.7498683929443359 2.290959358215332 -1.594498157501221 3.936059951782227 -2.792538166046143 C 2.382959365844727 -0.8241667747497559 3.950152397155762 1.051078319549561 4.831830024719238 0.6474018096923828 C 5.713500022888184 0.2437317371368408 5.193779945373535 -5.254928588867188 9.993139266967773 -8.34423828125 Z" stroke="none" fill="#666"/>
  </g>
  <path id="Path_602" data-name="Path 602" d="M4.5-6.922A9.995,9.995,0,0,1,7.882-3.7,7.653,7.653,0,0,1,9-.735a4.5,4.5,0,0,1-4.5,4.5A4.5,4.5,0,0,1,0-.735,4.549,4.549,0,0,1,.983-3.543a6.553,6.553,0,0,1,1.335-1.2C1.4-3.587,2.546-.12,3.61-.2S5.486-2.872,4.5-6.922Z" transform="translate(7.473 17.922)" fill="#666"/>
</svg>