<svg width="24" height="24" viewBox="0 0 24 24" fill="none" xmlns="http://www.w3.org/2000/svg">
<path d="M12.0713 12.0713V17.0713M14.0713 11.0713L18.0713 15.0713M10.0713 11.0713L6.07129 15.0713M20.6914 21.0897L21.45 18.2586L18.6189 17.5M3.7586 21.0897L3 18.2586L5.83114 17.5M3.42937 18.2958C3.42937 18.2958 5.72676 20.8605 12.1233 20.8605C18.5198 20.8605 20.8172 18.2958 20.8172 18.2958M2.5 2.5H21.5V4.5C21.5 6.38562 21.5 7.32843 20.9142 7.91421C20.3284 8.5 19.3856 8.5 17.5 8.5H6.5C4.61438 8.5 3.67157 8.5 3.08579 7.91421C2.5 7.32843 2.5 6.38562 2.5 4.5V2.5Z" stroke="black" stroke-linecap="round" stroke-linejoin="round"/>
</svg>
