<svg id="awning" xmlns="http://www.w3.org/2000/svg" width="24" height="24" viewBox="0 0 24 24">
  <rect id="Rectangle_3248" data-name="Rectangle 3248" width="24" height="24" fill="none"/>
  <g id="Group_5292" data-name="Group 5292" transform="translate(-539 -651)">
    <path id="Subtraction_124" data-name="Subtraction 124" d="M-2150-2811a2,2,0,0,0,1.732-1h-3.463a2,2,0,0,0,1.731,1m0,1a3,3,0,0,1-3-3h6A3,3,0,0,1-2150-2810Z" transform="translate(2693 3480)"/>
    <path id="Subtraction_125" data-name="Subtraction 125" d="M-2150-2811a2,2,0,0,0,1.732-1h-3.463a2,2,0,0,0,1.731,1m0,1a3,3,0,0,1-3-3h6A3,3,0,0,1-2150-2810Z" transform="translate(2698 3480)"/>
    <path id="Subtraction_126" data-name="Subtraction 126" d="M-2150-2811a2,2,0,0,0,1.732-1h-3.463a2,2,0,0,0,1.731,1m0,1a3,3,0,0,1-3-3h6A3,3,0,0,1-2150-2810Z" transform="translate(2703 3480)"/>
    <path id="Subtraction_127" data-name="Subtraction 127" d="M-2150-2811a2,2,0,0,0,1.732-1h-3.463a2,2,0,0,0,1.731,1m0,1a3,3,0,0,1-3-3h6A3,3,0,0,1-2150-2810Z" transform="translate(2708 3480)"/>
    <path id="Path_1878" data-name="Path 1878" d="M3.744,1l-2.4,8H5.12L6.145,1h-2.4M3,0H7.281L6,10H0Z" transform="translate(540 657)"/>
    <path id="Path_1879" data-name="Path 1879" d="M2.133,1l-1,8h3.9l.25-8H2.133M1.25,0H6.313L6,10H0Z" transform="translate(545 657)"/>
    <path id="Path_1881" data-name="Path 1881" d="M1.31,1,1.035,9H4.9L4.123,1H1.31M.344,0H5.031L6,10H0Z" transform="translate(550 657)"/>
    <path id="Path_1882" data-name="Path 1882" d="M.16,1l.75,8H4.688l-2.2-8H.16m-1.1-1H3.25L6,10H0Z" transform="translate(555 657)"/>
  </g>
</svg>