<svg xmlns="http://www.w3.org/2000/svg" width="24" height="24" viewBox="0 0 24 24">
  <g id="invert" transform="translate(-1389 -129)">
    <rect id="Rectangle_1278" data-name="Rectangle 1278" width="24" height="24" transform="translate(1389 129)" fill="none"/>
    <g id="Group_1769" data-name="Group 1769">
      <g id="Rectangle_1179" data-name="Rectangle 1179" transform="translate(1391 133)" fill="none" stroke="#666" stroke-width="1">
        <rect width="20" height="16" rx="2" stroke="none"/>
        <rect x="0.5" y="0.5" width="19" height="15" rx="1.5" fill="none"/>
      </g>
      <path id="Rectangle_1180" data-name="Rectangle 1180" d="M2,0H12a0,0,0,0,1,0,0V16a0,0,0,0,1,0,0H2a2,2,0,0,1-2-2V2A2,2,0,0,1,2,0Z" transform="translate(1391 133)" fill="#666"/>
      <g id="Group_1768" data-name="Group 1768" transform="translate(-0.008 -0.011)">
        <g id="Group_1771" data-name="Group 1771" transform="translate(0.501)">
          <line id="Line_73" data-name="Line 73" x1="6" transform="translate(1394.008 141.101)" fill="none" stroke="#fff" stroke-linecap="round" stroke-linejoin="round" stroke-width="1"/>
          <line id="Line_74" data-name="Line 74" x1="3" y2="3.125" transform="translate(1393.507 137.967)" fill="none" stroke="#fff" stroke-linecap="round" stroke-linejoin="round" stroke-width="2"/>
          <line id="Line_75" data-name="Line 75" x1="3" y1="3.125" transform="translate(1393.507 141.101)" fill="none" stroke="#fff" stroke-linecap="round" stroke-linejoin="round" stroke-width="2"/>
        </g>
      </g>
    </g>
  </g>
</svg>
