<svg id="shades" xmlns="http://www.w3.org/2000/svg" width="24" height="24" viewBox="0 0 24 24">
  <rect id="Rectangle_3535" data-name="Rectangle 3535" width="24" height="24" fill="none"/>
  <g id="Group_10950" data-name="Group 10950" transform="translate(-351 -48)">
    <path id="Path_1992" data-name="Path 1992" d="M1,1V13.437a15.43,15.43,0,0,1,3.173-4.2A11.829,11.829,0,0,0,7.887,2.958,6.979,6.979,0,0,0,7.962,1H1M0,0H8.783s1.6,4.656-3.917,9.962S1.1,20,1.1,20H0Z" transform="translate(353 50)"/>
    <path id="Path_1993" data-name="Path 1993" d="M1.038,1a6.979,6.979,0,0,0,.075,1.958A11.829,11.829,0,0,0,4.827,9.241,15.43,15.43,0,0,1,8,13.437V1H1.038M.217,0H9V20H7.9S9.657,15.269,4.134,9.962.217,0,.217,0Z" transform="translate(364 50)"/>
    <path id="Path_1994" data-name="Path 1994" d="M4.317,10.094H3.791a.5.5,0,0,1-.469-.674c.027-.077.671-2.017-1.685-4.281C-1.21,2.4-.4-.059-.369-.163a.5.5,0,0,1,.636-.31A.5.5,0,0,1,.578.159C.552.24-.03,2.151,2.33,4.419A5.668,5.668,0,0,1,4.4,9.1a.5.5,0,0,1-.08.994Z" transform="translate(368 51)"/>
    <path id="Path_1995" data-name="Path 1995" d="M.527,10.094H0a.5.5,0,0,1-.5-.5A.5.5,0,0,1-.08,9.1,5.668,5.668,0,0,1,1.988,4.419C4.379,2.121,3.747.182,3.741.163a.5.5,0,0,1,.31-.636.5.5,0,0,1,.636.31c.036.1.841,2.567-2.005,5.3C.325,7.4.968,9.343,1,9.425a.5.5,0,0,1-.47.67Z" transform="translate(354 51)"/>
  </g>
</svg>
