<svg id="vallance" xmlns="http://www.w3.org/2000/svg" width="24" height="24" viewBox="0 0 24 24">
  <rect id="Rectangle_3244" data-name="Rectangle 3244" width="24" height="24" fill="none"/>
  <g id="Group_5284" data-name="Group 5284" transform="translate(-174 -652)">
    <path id="Subtraction_121" data-name="Subtraction 121" d="M-2149-2810a3.006,3.006,0,0,0,2.829-2h-5.657a3,3,0,0,0,2.828,2m0,1a4,4,0,0,1-4-4h8A4,4,0,0,1-2149-2809Z" transform="translate(2335 3468)"/>
    <path id="Subtraction_122" data-name="Subtraction 122" d="M-2149.5-2811a2.666,2.666,0,0,0,2.165-1h-4.329a2.664,2.664,0,0,0,2.164,1m0,1a3.282,3.282,0,0,1-3.5-3h7A3.283,3.283,0,0,1-2149.5-2810Z" transform="translate(2342 3468)"/>
    <path id="Subtraction_123" data-name="Subtraction 123" d="M-2149.5-2811a2.666,2.666,0,0,0,2.165-1h-4.329a2.664,2.664,0,0,0,2.164,1m0,1a3.282,3.282,0,0,1-3.5-3h7A3.283,3.283,0,0,1-2149.5-2810Z" transform="translate(2329 3468)"/>
    <path id="Line_759" data-name="Line 759" d="M0,18a.5.5,0,0,1-.5-.5V0A.5.5,0,0,1,0-.5.5.5,0,0,1,.5,0V17.5A.5.5,0,0,1,0,18Z" transform="translate(195.5 655.5)"/>
    <path id="Line_760" data-name="Line 760" d="M0,18a.5.5,0,0,1-.5-.5V0A.5.5,0,0,1,0-.5.5.5,0,0,1,.5,0V17.5A.5.5,0,0,1,0,18Z" transform="translate(176.5 655.5)"/>
    <path id="Path_1873" data-name="Path 1873" d="M2342.107,3481.8l-.142,0a4.744,4.744,0,0,1-4.09-2.988.5.5,0,0,1,.935-.354h0a3.741,3.741,0,0,0,3.192,2.343l.1,0c2.219,0,3.295-2.788,3.306-2.817a.5.5,0,0,1,.936.353C2346.289,3478.476,2345,3481.8,2342.107,3481.8Z" transform="translate(-2156 -2821)"/>
    <path id="Path_1874" data-name="Path 1874" d="M2341.079,3480.875a3.4,3.4,0,0,1-3.207-2.179.5.5,0,0,1,.944-.331,2.4,2.4,0,0,0,2.263,1.51,3.192,3.192,0,0,0,2.587-1.916.5.5,0,0,1,.919.395C2344.54,3478.457,2343.474,3480.875,2341.079,3480.875Z" transform="translate(-2161.781 -2821)"/>
    <path id="Path_1875" data-name="Path 1875" d="M2341.156,3481.345l-.1,0c-2.191-.088-3.141-2.45-3.18-2.55a.5.5,0,0,1,.931-.366h0c.007.019.755,1.855,2.29,1.917h.053c1.235,0,2.229-1.712,2.512-2.382a.5.5,0,0,1,.922.387C2344.534,3478.474,2343.307,3481.345,2341.156,3481.345Z" transform="translate(-2148.625 -2821.469)"/>
    <path id="Path_1876" data-name="Path 1876" d="M2335.875,3493.5h-3.312a.5.5,0,0,1,0-1h2.746a10.245,10.245,0,0,0-3.1-5.191.5.5,0,0,1-.05-.655c1.779-2.386,2.852-3.826.316-8.053a.5.5,0,1,1,.857-.515c1.308,2.18,1.8,3.815,1.6,5.3a7.694,7.694,0,0,1-1.716,3.517c3.1,3.225,3.155,5.972,3.156,6.091a.5.5,0,0,1-.5.5Z" transform="translate(-2156 -2820)"/>
    <path id="Path_1877" data-name="Path 1877" d="M2335.875,3493.5h-3.312a.5.5,0,0,1-.5-.5c0-.119.052-2.865,3.156-6.091a7.694,7.694,0,0,1-1.716-3.517c-.2-1.488.292-3.123,1.6-5.3a.5.5,0,0,1,.857.515c-2.536,4.227-1.463,5.667.316,8.053a.5.5,0,0,1-.05.655,10.245,10.245,0,0,0-3.1,5.191h2.746a.5.5,0,0,1,0,1Z" transform="translate(-2140.563 -2820)"/>
  </g>
</svg>