<svg width="25" height="24" viewBox="0 0 25 24" fill="none" xmlns="http://www.w3.org/2000/svg">
<g id="backward">
<path id="icon" d="M6 20.0002L3 17.0002M3 17.0002L6 14.0002M3 17.0002H22M5 11.0002H20C21.1046 11.0002 22 10.1048 22 9.00024V7.00024C22 5.89567 21.1046 5.00024 20 5.00024H5C3.89543 5.00024 3 5.89567 3 7.00024V9.00024C3 10.1048 3.89543 11.0002 5 11.0002ZM7.5 8.00024C7.5 8.55253 7.05228 9.00024 6.5 9.00024C5.94772 9.00024 5.5 8.55253 5.5 8.00024C5.5 7.44796 5.94772 7.00024 6.5 7.00024C7.05228 7.00024 7.5 7.44796 7.5 8.00024ZM19.5 8.00024C19.5 8.55253 19.0523 9.00024 18.5 9.00024C17.9477 9.00024 17.5 8.55253 17.5 8.00024C17.5 7.44796 17.9477 7.00024 18.5 7.00024C19.0523 7.00024 19.5 7.44796 19.5 8.00024ZM13.5 8.00024C13.5 8.55253 13.0523 9.00024 12.5 9.00024C11.9477 9.00024 11.5 8.55253 11.5 8.00024C11.5 7.44796 11.9477 7.00024 12.5 7.00024C13.0523 7.00024 13.5 7.44796 13.5 8.00024Z" stroke="#1A1B1E" stroke-linecap="round" stroke-linejoin="round"/>
</g>
</svg>
