<svg width="24" height="24" viewBox="0 0 24 24" fill="none" xmlns="http://www.w3.org/2000/svg">
<g id="converge">
<path id="icon" d="M16.5 20.0002L13.5 17.0002M13.5 17.0002L16.5 14.0002M13.5 17.0002H21.5M7.5 20.0002L10.5 17.0002M10.5 17.0002L7.5 14.0002M10.5 17.0002H2.5M4.5 10.0002H19.5C20.6046 10.0002 21.5 9.10481 21.5 8.00024V6.00024C21.5 4.89567 20.6046 4.00024 19.5 4.00024H4.5C3.39543 4.00024 2.5 4.89567 2.5 6.00024V8.00024C2.5 9.10481 3.39543 10.0002 4.5 10.0002ZM7 7.00024C7 7.55253 6.55228 8.00024 6 8.00024C5.44772 8.00024 5 7.55253 5 7.00024C5 6.44796 5.44772 6.00024 6 6.00024C6.55228 6.00024 7 6.44796 7 7.00024ZM19 7.00024C19 7.55253 18.5523 8.00024 18 8.00024C17.4477 8.00024 17 7.55253 17 7.00024C17 6.44796 17.4477 6.00024 18 6.00024C18.5523 6.00024 19 6.44796 19 7.00024ZM13 7.00024C13 7.55253 12.5523 8.00024 12 8.00024C11.4477 8.00024 11 7.55253 11 7.00024C11 6.44796 11.4477 6.00024 12 6.00024C12.5523 6.00024 13 6.44796 13 7.00024Z" stroke="white" stroke-linecap="round" stroke-linejoin="round"/>
</g>
</svg>
