<svg width="25" height="24" viewBox="0 0 25 24" fill="none" xmlns="http://www.w3.org/2000/svg">
<g id="diverge">
<path id="icon" d="M18.8333 20.0002L21.8333 17.0002M21.8333 17.0002L18.8333 14.0002M21.8333 17.0002H14.3333M5.83325 20.0002L2.83325 17.0002M2.83325 17.0002L5.83325 14.0002M2.83325 17.0002H10.3333M4.83325 10.0002H19.8333C20.9378 10.0002 21.8333 9.10481 21.8333 8.00024V6.00024C21.8333 4.89567 20.9378 4.00024 19.8333 4.00024H4.83325C3.72868 4.00024 2.83325 4.89567 2.83325 6.00024V8.00024C2.83325 9.10481 3.72868 10.0002 4.83325 10.0002ZM7.33325 7.00024C7.33325 7.55253 6.88554 8.00024 6.33325 8.00024C5.78097 8.00024 5.33325 7.55253 5.33325 7.00024C5.33325 6.44796 5.78097 6.00024 6.33325 6.00024C6.88554 6.00024 7.33325 6.44796 7.33325 7.00024ZM19.3333 7.00024C19.3333 7.55253 18.8855 8.00024 18.3333 8.00024C17.781 8.00024 17.3333 7.55253 17.3333 7.00024C17.3333 6.44796 17.781 6.00024 18.3333 6.00024C18.8855 6.00024 19.3333 6.44796 19.3333 7.00024ZM13.3333 7.00024C13.3333 7.55253 12.8855 8.00024 12.3333 8.00024C11.781 8.00024 11.3333 7.55253 11.3333 7.00024C11.3333 6.44796 11.781 6.00024 12.3333 6.00024C12.8855 6.00024 13.3333 6.44796 13.3333 7.00024Z" stroke="#1A1B1E" stroke-linecap="round" stroke-linejoin="round"/>
</g>
</svg>
