<svg width="25" height="24" viewBox="0 0 25 24" fill="none" xmlns="http://www.w3.org/2000/svg">
<g id="forward">
<path id="icon" d="M18.6667 20.0002L21.6667 17.0002M21.6667 17.0002L18.6667 14.0002M21.6667 17.0002H2.66675M4.66675 11.0002H19.6667C20.7713 11.0002 21.6667 10.1048 21.6667 9.00024V7.00024C21.6667 5.89567 20.7713 5.00024 19.6667 5.00024H4.66675C3.56218 5.00024 2.66675 5.89567 2.66675 7.00024V9.00024C2.66675 10.1048 3.56218 11.0002 4.66675 11.0002ZM7.16675 8.00024C7.16675 8.55253 6.71903 9.00024 6.16675 9.00024C5.61446 9.00024 5.16675 8.55253 5.16675 8.00024C5.16675 7.44796 5.61446 7.00024 6.16675 7.00024C6.71903 7.00024 7.16675 7.44796 7.16675 8.00024ZM19.1667 8.00024C19.1667 8.55253 18.719 9.00024 18.1667 9.00024C17.6145 9.00024 17.1667 8.55253 17.1667 8.00024C17.1667 7.44796 17.6145 7.00024 18.1667 7.00024C18.719 7.00024 19.1667 7.44796 19.1667 8.00024ZM13.1667 8.00024C13.1667 8.55253 12.719 9.00024 12.1667 9.00024C11.6145 9.00024 11.1667 8.55253 11.1667 8.00024C11.1667 7.44796 11.6145 7.00024 12.1667 7.00024C12.719 7.00024 13.1667 7.44796 13.1667 8.00024Z" stroke="#1A1B1E" stroke-linecap="round" stroke-linejoin="round"/>
</g>
</svg>
