<svg id="dishwasher" xmlns="http://www.w3.org/2000/svg" width="24" height="24" viewBox="0 0 24 24">
  <rect id="Rectangle_3258" data-name="Rectangle 3258" width="24" height="24" fill="none"/>
  <g id="Group_5303" data-name="Group 5303" transform="translate(-753 -849)">
    <g id="Group_4623" data-name="Group 4623">
      <path id="Rectangle_3197" data-name="Rectangle 3197" d="M1,1V15H15V1H1M1,0H15a1,1,0,0,1,1,1V15a1,1,0,0,1-1,1H1a1,1,0,0,1-1-1V1A1,1,0,0,1,1,0Z" transform="translate(757 853)"/>
      <path id="Line_768" data-name="Line 768" d="M15,.5H0A.5.5,0,0,1-.5,0,.5.5,0,0,1,0-.5H15a.5.5,0,0,1,.5.5A.5.5,0,0,1,15,.5Z" transform="translate(757.5 857.5)"/>
      <path id="Path_1893" data-name="Path 1893" d="M2950.521,3629.906a5.416,5.416,0,0,1-1.137,2.5c-.984,1.214-.737,2.706.279,3.222a1.721,1.721,0,0,0,2.391-.687,2.334,2.334,0,0,0-.437-2.534A7.316,7.316,0,0,1,2950.521,3629.906Z" transform="translate(-2185.554 -2770.304)"/>
      <path id="Line_769" data-name="Line 769" d="M3,.5H0A.5.5,0,0,1-.5,0,.5.5,0,0,1,0-.5H3a.5.5,0,0,1,.5.5A.5.5,0,0,1,3,.5Z" transform="translate(760.5 855.5)"/>
      <path id="Line_770" data-name="Line 770" d="M2,.5H0A.5.5,0,0,1-.5,0,.5.5,0,0,1,0-.5H2a.5.5,0,0,1,.5.5A.5.5,0,0,1,2,.5Z" transform="translate(765.5 855.5)"/>
      <path id="Line_771" data-name="Line 771" d="M2,.5H0A.5.5,0,0,1-.5,0,.5.5,0,0,1,0-.5H2a.5.5,0,0,1,.5.5A.5.5,0,0,1,2,.5Z" transform="translate(768.5 855.5)"/>
    </g>
  </g>
</svg>