<svg id="fountain" xmlns="http://www.w3.org/2000/svg" width="24" height="24" viewBox="0 0 24 24">
  <rect id="Rectangle_3263" data-name="Rectangle 3263" width="24" height="24" fill="none"/>
  <g id="fountain-2" data-name="fountain" transform="translate(-97 -621.169)">
    <path id="Path_687" data-name="Path 687" d="M7,4a.5.5,0,0,1-.5-.5,3,3,0,1,0-6,0A.5.5,0,0,1,0,4a.5.5,0,0,1-.5-.5,4,4,0,1,1,8,0A.5.5,0,0,1,7,4Z" transform="translate(108.83 625.857)" fill="#212121"/>
    <path id="Line_407" data-name="Line 407" d="M0,18.5A.5.5,0,0,1-.5,18V0A.5.5,0,0,1,0-.5.5.5,0,0,1,.5,0V18A.5.5,0,0,1,0,18.5Z" transform="translate(109.22 623.5)" fill="#212121"/>
    <path id="Path_688" data-name="Path 688" d="M10,5.5A.5.5,0,0,1,9.5,5a4.5,4.5,0,0,0-9,0,.5.5,0,0,1-.5.5A.5.5,0,0,1-.5,5a5.5,5.5,0,0,1,11,0A.5.5,0,0,1,10,5.5Z" transform="translate(108.44 630.592)" fill="#212121"/>
    <path id="Ellipse_765" data-name="Ellipse 765" d="M10.22,1A17.592,17.592,0,0,0,3.345,2.244C1.855,2.9.929,3.764.929,4.5s.926,1.6,2.416,2.256A17.592,17.592,0,0,0,10.22,8,17.592,17.592,0,0,0,17.1,6.756c1.49-.656,2.416-1.521,2.416-2.256S18.585,2.9,17.1,2.244A17.592,17.592,0,0,0,10.22,1m0-1c5.644,0,10.22,2.015,10.22,4.5S15.865,9,10.22,9,0,6.985,0,4.5,4.576,0,10.22,0Z" transform="translate(99 636.169)" fill="#212121"/>
    <ellipse id="Ellipse_766" data-name="Ellipse 766" cx="6.22" cy="2.5" rx="6.22" ry="2.5" transform="translate(103 637.169)" fill="#212121"/>
    <path id="Path_689" data-name="Path 689" d="M7,4a.5.5,0,0,1-.5-.5,3,3,0,0,0-6,0A.5.5,0,0,1,0,4a.5.5,0,0,1-.5-.5,4,4,0,0,1,8,0A.5.5,0,0,1,7,4Z" transform="translate(102.61 625.857)" fill="#212121"/>
    <path id="Path_690" data-name="Path 690" d="M10,5.5A.5.5,0,0,1,9.5,5a4.5,4.5,0,0,0-9,0,.5.5,0,0,1-.5.5A.5.5,0,0,1-.5,5a5.5,5.5,0,0,1,11,0A.5.5,0,0,1,10,5.5Z" transform="translate(100 630.592)" fill="#212121"/>
    <path id="Path_822" data-name="Path 822" d="M5.325,3.162a.5.5,0,0,1-.5-.5,2.162,2.162,0,0,0-4.325,0,.5.5,0,0,1-.5.5.5.5,0,0,1-.5-.5,3.162,3.162,0,0,1,6.325,0A.5.5,0,0,1,5.325,3.162Z" transform="translate(108.955 621.669)" fill="#212121"/>
    <path id="Path_823" data-name="Path 823" d="M5.325,3.162a.5.5,0,0,1-.5-.5,2.162,2.162,0,0,0-4.325,0,.5.5,0,0,1-.5.5.5.5,0,0,1-.5-.5,3.162,3.162,0,0,1,6.325,0A.5.5,0,0,1,5.325,3.162Z" transform="translate(104.16 621.669)" fill="#212121"/>
  </g>
</svg>