<svg id="geyser_grey" xmlns="http://www.w3.org/2000/svg" width="24" height="24" viewBox="0 0 24 24">
  <rect id="Rectangle_982" data-name="Rectangle 982" width="24" height="24" fill="none"/>
  <line id="Line_121" data-name="Line 121" y2="2" transform="translate(10 19.5)" fill="none" stroke="#212121" stroke-linecap="square" stroke-width="1"/>
  <line id="Line_258" data-name="Line 258" y2="2" transform="translate(14 19.5)" fill="none" stroke="#212121" stroke-linecap="square" stroke-width="1"/>
  <g id="Rectangle_900" data-name="Rectangle 900" transform="translate(6 2)" fill="none" stroke="#212121" stroke-width="1">
    <rect width="12" height="17" rx="4" stroke="none"/>
    <rect x="0.5" y="0.5" width="11" height="16" rx="3.5" fill="none"/>
  </g>
  <circle id="Ellipse_634" data-name="Ellipse 634" cx="2" cy="2" r="2" transform="translate(10 5)" fill="#212121"/>
  <path id="Path_563" data-name="Path 563" d="M0-.152A10.277,10.277,0,0,1,3.77-.575C5.767-.4,6,.424,7.988.563A10.052,10.052,0,0,0,12-.152v1.5a4.24,4.24,0,0,1-4.5,4.5h-3c-3.2,0-4.5-2.015-4.5-4.5Z" transform="translate(6 13.293)" fill="#212121"/>
</svg>
