<svg id="heat_pump" xmlns="http://www.w3.org/2000/svg" width="24" height="24" viewBox="0 0 24 24">
  <rect id="Rectangle_3261" data-name="Rectangle 3261" width="24" height="24" fill="none"/>
  <g id="Group_5306" data-name="Group 5306" transform="translate(-959 -849)">
    <path id="Rectangle_3209" data-name="Rectangle 3209" d="M2,1A1,1,0,0,0,1,2V14a1,1,0,0,0,1,1H18a1,1,0,0,0,1-1V2a1,1,0,0,0-1-1H2M2,0H18a2,2,0,0,1,2,2V14a2,2,0,0,1-2,2H2a2,2,0,0,1-2-2V2A2,2,0,0,1,2,0Z" transform="translate(961 853)"/>
    <path id="Ellipse_1070" data-name="Ellipse 1070" d="M5,1A4,4,0,1,0,9,5,4,4,0,0,0,5,1M5,0A5,5,0,1,1,0,5,5,5,0,0,1,5,0Z" transform="translate(963 856)"/>
    <path id="Line_805" data-name="Line 805" d="M4,.5H0A.5.5,0,0,1-.5,0,.5.5,0,0,1,0-.5H4a.5.5,0,0,1,.5.5A.5.5,0,0,1,4,.5Z" transform="translate(974.5 856.5)"/>
    <path id="Line_806" data-name="Line 806" d="M4,.5H0A.5.5,0,0,1-.5,0,.5.5,0,0,1,0-.5H4a.5.5,0,0,1,.5.5A.5.5,0,0,1,4,.5Z" transform="translate(974.5 859.5)"/>
    <path id="Line_807" data-name="Line 807" d="M4,.5H0A.5.5,0,0,1-.5,0,.5.5,0,0,1,0-.5H4a.5.5,0,0,1,.5.5A.5.5,0,0,1,4,.5Z" transform="translate(974.5 862.5)"/>
    <path id="Line_808" data-name="Line 808" d="M4,.5H0A.5.5,0,0,1-.5,0,.5.5,0,0,1,0-.5H4a.5.5,0,0,1,.5.5A.5.5,0,0,1,4,.5Z" transform="translate(974.5 865.5)"/>
    <path id="Path_1913" data-name="Path 1913" d="M3124.561,3657.781h0a1.063,1.063,0,0,1-.445-.1c-.226-.1-.574-.368-1.281-1.472l-.006.01-.006-.01c-.635,1.047-.85,1.19-.924,1.24a1.538,1.538,0,0,1-.811.233,1.04,1.04,0,0,1-.772-.3,1.091,1.091,0,0,1-.278-.831c.037-1.039,1.438-1.182,2.254-1.216l-.012-.02h.012c-.119-.2-.219-.382-.294-.515-.048-.086-.083-.148-.1-.18a1.5,1.5,0,0,1,.03-1.331.942.942,0,0,1,.837-.5h.019a.963.963,0,0,1,.8.4,1.554,1.554,0,0,1,.155,1.314,6.805,6.805,0,0,1-.393.8h.013l-.008.014c.781.028,1.861.178,2.191.771a1.157,1.157,0,0,1-.982,1.7Zm-.809-1.635c.464.673.656.79.7.808a.272.272,0,0,0,.113.027h0a.361.361,0,0,0,.282-.507A1.906,1.906,0,0,0,3123.752,3656.146Zm-1.845.021c-.9.089-1.065.289-1.069.414a.365.365,0,0,0,.054.247.284.284,0,0,0,.2.055.746.746,0,0,0,.363-.1A3.841,3.841,0,0,0,3121.906,3656.167Zm.677-1.953c.021.035.059.1.111.195l.115.2a3.635,3.635,0,0,0,.173-.365.792.792,0,0,0-.045-.593.163.163,0,0,0-.156-.066h-.007a.146.146,0,0,0-.143.079A.774.774,0,0,0,3122.583,3654.214Z" transform="translate(-2154.859 -2794.284)"/>
  </g>
</svg>