<svg xmlns="http://www.w3.org/2000/svg" width="28.05" height="28" viewBox="0 0 28.05 28">
  <g id="Group_1998" data-name="Group 1998" transform="translate(-1389 -39)">
    <rect id="Rectangle_1321" data-name="Rectangle 1321" width="28" height="28" transform="translate(1389 39)" fill="none"/>
    <g id="Group_1997" data-name="Group 1997" transform="translate(91.196 9)">
      <path id="Path_621" data-name="Path 621" d="M2428.6,4297.588a20.7,20.7,0,0,0,2.366-6.16,35.064,35.064,0,0,0,.422-7.738" transform="translate(-1120 -4244)" fill="none" stroke="#999" stroke-width="1"/>
      <line id="Line_332" data-name="Line 332" x2="6" y2="6" transform="translate(1319.5 41.5)" fill="none" stroke="#999" stroke-width="1"/>
      <path id="Path_619" data-name="Path 619" d="M2429.389,4288.56s-.107,5.47-2.995,9.127-8.509,5.942-8.509,5.942" transform="translate(-1119 -4249)" fill="none" stroke="#999" stroke-width="1"/>
      <path id="Path_620" data-name="Path 620" d="M2417.506,4289a23.576,23.576,0,0,0,3.113,7.833,14.906,14.906,0,0,0,5.7,4.563" transform="translate(-1105 -4248)" fill="none" stroke="#999" stroke-width="1"/>
      <rect id="Rectangle_1319" data-name="Rectangle 1319" width="14" height="4" rx="2" transform="translate(1297.804 43.268) rotate(-30)" fill="#333"/>
      <rect id="Rectangle_1320" data-name="Rectangle 1320" width="9" height="6" rx="3" transform="matrix(0.966, -0.259, 0.259, 0.966, 1308.377, 36.267)" fill="#333"/>
      <circle id="Ellipse_714" data-name="Ellipse 714" cx="2" cy="2" r="2" transform="translate(1317 39)" fill="#333"/>
    </g>
  </g>
</svg>
