<svg width="48" height="48" viewBox="0 0 48 48" fill="none" xmlns="http://www.w3.org/2000/svg">
<path d="M12 10C12 7.79086 13.7909 6 16 6H32C34.2091 6 36 7.79086 36 10V38C36 40.2091 34.2091 42 32 42H16C13.7909 42 12 40.2091 12 38V10Z" stroke="#909094" stroke-width="2"/>
<path d="M26 14C26 15.1046 25.1046 16 24 16C22.8954 16 22 15.1046 22 14C22 12.8954 22.8954 12 24 12C25.1046 12 26 12.8954 26 14Z" stroke="#909094" stroke-width="2"/>
<path d="M20 35C20 36.1046 19.1046 37 18 37C16.8954 37 16 36.1046 16 35C16 33.8954 16.8954 33 18 33C19.1046 33 20 33.8954 20 35Z" stroke="#909094" stroke-width="2"/>
<path d="M32 35C32 36.1046 31.1046 37 30 37C28.8954 37 28 36.1046 28 35C28 33.8954 28.8954 33 30 33C31.1046 33 32 33.8954 32 35Z" stroke="#909094" stroke-width="2"/>
</svg>
