<svg xmlns="http://www.w3.org/2000/svg" width="24" height="24" viewBox="0 0 24 24">
  <g id="balcony" transform="translate(-69 -842)">
    <rect id="Rectangle_1024" data-name="Rectangle 1024" width="24" height="24" transform="translate(69 842)" fill="#999" opacity="0"/>
    <g id="Group_1574" data-name="Group 1574" transform="translate(0 -1)">
      <g id="Rectangle_1186" data-name="Rectangle 1186" transform="translate(73 845)" fill="none" stroke="#999" stroke-width="1">
        <path d="M3,0H13a3,3,0,0,1,3,3V13a0,0,0,0,1,0,0H0a0,0,0,0,1,0,0V3A3,3,0,0,1,3,0Z" stroke="none"/>
        <path d="M3,.5H13A2.5,2.5,0,0,1,15.5,3v9a.5.5,0,0,1-.5.5H1A.5.5,0,0,1,.5,12V3A2.5,2.5,0,0,1,3,.5Z" fill="none"/>
      </g>
      <line id="Line_187" data-name="Line 187" x2="15" transform="translate(73.5 851.5)" fill="none" stroke="#999" stroke-width="1"/>
      <line id="Line_188" data-name="Line 188" y2="14.466" transform="translate(81 845.5)" fill="none" stroke="#999" stroke-width="1"/>
    </g>
    <g id="Rectangle_1187" data-name="Rectangle 1187" transform="translate(71 856)" fill="none" stroke="#999" stroke-width="1">
      <path d="M2,0H18a2,2,0,0,1,2,2V4a4,4,0,0,1-4,4H4A4,4,0,0,1,0,4V2A2,2,0,0,1,2,0Z" stroke="none"/>
      <path d="M2,.5H18A1.5,1.5,0,0,1,19.5,2V4A3.5,3.5,0,0,1,16,7.5H4A3.5,3.5,0,0,1,.5,4V2A1.5,1.5,0,0,1,2,.5Z" fill="none"/>
    </g>
    <line id="Line_189" data-name="Line 189" y2="6" transform="translate(76.5 857)" fill="none" stroke="#999" stroke-width="1"/>
    <line id="Line_190" data-name="Line 190" y2="6" transform="translate(81 857)" fill="none" stroke="#999" stroke-width="1"/>
    <line id="Line_192" data-name="Line 192" y2="6" transform="translate(85.5 857)" fill="none" stroke="#999" stroke-width="1"/>
  </g>
</svg>
