<svg xmlns="http://www.w3.org/2000/svg" width="24" height="24" viewBox="0 0 24 24">
  <g id="Group_10938" data-name="Group 10938" transform="translate(-204 -613)">
    <rect id="Rectangle_3425" data-name="Rectangle 3425" width="24" height="24" transform="translate(204 613)" fill="none"/>
    <g id="Group_4969" data-name="Group 4969" transform="translate(204 620.556)">
      <path id="Path_1486" data-name="Path 1486" d="M0,8.738V0" transform="translate(0.295)" fill="#598455"/>
      <path id="Path_1486_-_Outline" data-name="Path 1486 - Outline" d="M-.161,8.738H-.75V0h.589Z" transform="translate(0.75 0)" fill="#598455"/>
      <path id="Line_719" data-name="Line 719" d="M-.161,8.634H-.75V0h.589Z" transform="translate(24.161 0)" fill="#598455"/>
      <path id="Path_1485" data-name="Path 1485" d="M89.667,0" transform="translate(-66.005 0.277)" fill="#598455"/>
      <path id="Path_1466" data-name="Path 1466" d="M.143,0-.6,6.051" transform="translate(4.479 2.727)" fill="#598455"/>
      <path id="Path_1466_-_Outline" data-name="Path 1466 - Outline" d="M-.9,5.944H-.929A.2.2,0,0,1-1.1,5.723L-.355-.328A.2.2,0,0,1-.136-.5.2.2,0,0,1,.035-.28L-.71,5.771A.2.2,0,0,1-.9,5.944Z" transform="translate(4.783 3.03)" fill="#598455"/>
      <path id="Path_1465" data-name="Path 1465" d="M0,0S.6,5.094.709,6.057" transform="translate(7.116 2.727)" fill="#598455"/>
      <path id="Path_1465_-_Outline" data-name="Path 1465 - Outline" d="M.405,5.95A.2.2,0,0,1,.21,5.776C.1,4.824-.493-.23-.5-.281A.2.2,0,0,1-.326-.5a.2.2,0,0,1,.218.172C-.1-.276.491,4.779.6,5.731a.2.2,0,0,1-.173.218Z" transform="translate(7.419 3.03)" fill="#598455"/>
      <path id="Rectangle_2876" data-name="Rectangle 2876" d="M.157,0H3.631a.157.157,0,0,1,0,.314H.157A.157.157,0,0,1,.157,0Z" transform="translate(3.945 6.578)" fill="#598455"/>
      <path id="Path_1463" data-name="Path 1463" d="M6077.714,176.067a5.289,5.289,0,0,1-1.286-.146l.052-.19a5.579,5.579,0,0,0,2.469,0l.045.191A5.576,5.576,0,0,1,6077.714,176.067Z" transform="translate(-6071.834 -172.537)" fill="#598455"/>
      <path id="Path_1464" data-name="Path 1464" d="M6045.19,165.529c-.226,0-.454-.009-.731-.02l-.179-.007a13.7,13.7,0,0,1-1.384-.139.255.255,0,1,1,.079-.5c.007,0,.707.11,1.324.133l.18.007a9.646,9.646,0,0,0,1.32-.006,12.86,12.86,0,0,0,1.335-.161.251.251,0,0,1,.044,0,.255.255,0,0,1,.044.507,13.452,13.452,0,0,1-1.381.166C6045.6,165.522,6045.4,165.529,6045.19,165.529Z" transform="translate(-6039.2 -162.541)" fill="#598455"/>
      <path id="Path_1466-2" data-name="Path 1466" d="M.143,0-.6,6.051" transform="translate(10.373 2.727)" fill="#598455"/>
      <path id="Path_1466_-_Outline-2" data-name="Path 1466 - Outline" d="M-.9,5.944H-.929A.2.2,0,0,1-1.1,5.723L-.355-.328A.2.2,0,0,1-.136-.5.2.2,0,0,1,.035-.28L-.71,5.771A.2.2,0,0,1-.9,5.944Z" transform="translate(10.677 3.03)" fill="#598455"/>
      <path id="Path_1465-2" data-name="Path 1465" d="M0,0S.6,5.094.709,6.057" transform="translate(13.01 2.727)" fill="#598455"/>
      <path id="Path_1465_-_Outline-2" data-name="Path 1465 - Outline" d="M.405,5.95A.2.2,0,0,1,.21,5.776C.1,4.824-.493-.23-.5-.281A.2.2,0,0,1-.326-.5a.2.2,0,0,1,.218.172C-.1-.276.491,4.779.6,5.731a.2.2,0,0,1-.173.218Z" transform="translate(13.313 3.03)" fill="#598455"/>
      <path id="Rectangle_2876-2" data-name="Rectangle 2876" d="M.157,0H3.631a.157.157,0,0,1,0,.314H.157A.157.157,0,0,1,.157,0Z" transform="translate(9.839 6.578)" fill="#598455"/>
      <path id="Path_1463-2" data-name="Path 1463" d="M6077.714,176.067a5.289,5.289,0,0,1-1.286-.146l.052-.19a5.579,5.579,0,0,0,2.469,0l.045.191A5.576,5.576,0,0,1,6077.714,176.067Z" transform="translate(-6065.939 -172.537)" fill="#598455"/>
      <path id="Path_1464-2" data-name="Path 1464" d="M6045.19,165.529c-.226,0-.454-.009-.731-.02l-.179-.007a13.7,13.7,0,0,1-1.384-.139.255.255,0,1,1,.079-.5c.007,0,.707.11,1.324.133l.18.007a9.646,9.646,0,0,0,1.32-.006,12.86,12.86,0,0,0,1.335-.161.251.251,0,0,1,.044,0,.255.255,0,0,1,.044.507,13.452,13.452,0,0,1-1.381.166C6045.6,165.522,6045.4,165.529,6045.19,165.529Z" transform="translate(-6033.306 -162.541)" fill="#598455"/>
      <path id="Path_1466-3" data-name="Path 1466" d="M.143,0-.6,6.051" transform="translate(16.267 2.727)" fill="#598455"/>
      <path id="Path_1466_-_Outline-3" data-name="Path 1466 - Outline" d="M-.9,5.944H-.929A.2.2,0,0,1-1.1,5.723L-.355-.328A.2.2,0,0,1-.136-.5.2.2,0,0,1,.035-.28L-.71,5.771A.2.2,0,0,1-.9,5.944Z" transform="translate(16.571 3.03)" fill="#598455"/>
      <path id="Path_1465-3" data-name="Path 1465" d="M0,0S.6,5.094.709,6.057" transform="translate(18.904 2.727)" fill="#598455"/>
      <path id="Path_1465_-_Outline-3" data-name="Path 1465 - Outline" d="M.405,5.95A.2.2,0,0,1,.21,5.776C.1,4.824-.493-.23-.5-.281A.2.2,0,0,1-.326-.5a.2.2,0,0,1,.218.172C-.1-.276.491,4.779.6,5.731a.2.2,0,0,1-.173.218Z" transform="translate(19.207 3.03)" fill="#598455"/>
      <path id="Rectangle_2876-3" data-name="Rectangle 2876" d="M.157,0H3.631a.157.157,0,0,1,0,.314H.157A.157.157,0,0,1,.157,0Z" transform="translate(15.733 6.578)" fill="#598455"/>
      <path id="Path_1463-3" data-name="Path 1463" d="M6077.714,176.067a5.289,5.289,0,0,1-1.286-.146l.052-.19a5.579,5.579,0,0,0,2.469,0l.045.191A5.576,5.576,0,0,1,6077.714,176.067Z" transform="translate(-6060.045 -172.537)" fill="#598455"/>
      <path id="Path_1464-3" data-name="Path 1464" d="M6045.19,165.529c-.226,0-.454-.009-.731-.02l-.179-.007a13.7,13.7,0,0,1-1.384-.139.255.255,0,1,1,.079-.5c.007,0,.707.11,1.324.133l.18.007a9.646,9.646,0,0,0,1.32-.006,12.86,12.86,0,0,0,1.335-.161.251.251,0,0,1,.044,0,.255.255,0,0,1,.044.507,13.452,13.452,0,0,1-1.381.166C6045.6,165.522,6045.4,165.529,6045.19,165.529Z" transform="translate(-6027.412 -162.541)" fill="#598455"/>
      <rect id="Rectangle_2887" data-name="Rectangle 2887" width="23.325" height="0.786" transform="translate(0.381)" fill="#598455"/>
    </g>
  </g>
</svg>
