<svg xmlns="http://www.w3.org/2000/svg" width="24" height="24" viewBox="0 0 24 24">
  <g id="Group_10946" data-name="Group 10946" transform="translate(-412 -223)">
    <rect id="Rectangle_3417" data-name="Rectangle 3417" width="24" height="24" transform="translate(412 223)" fill="none"/>
    <g id="Group_4961" data-name="Group 4961" transform="translate(412 229.222)">
      <path id="Path_1422" data-name="Path 1422" d="M1903.56,542.858h-20.353a.234.234,0,0,1-.23-.192,8.744,8.744,0,0,1-.145-2.056,1.534,1.534,0,0,1,1.357-1.24c.318-.053,15.779-.079,19.391-.079.824,0,1.835,0,1.972,0a1.318,1.318,0,0,1,1.227,1.294,12.085,12.085,0,0,1-.066,1.915.235.235,0,0,1-.221.21C1906.018,542.738,1903.651,542.858,1903.56,542.858Zm-20.155-.47h20.154c.089,0,1.6-.077,2.706-.134a10.067,10.067,0,0,0,.049-1.6c-.027-.2-.163-.87-.776-.888-.059,0-.393,0-1.959,0-5.37,0-18.828.032-19.319.074-.112.019-.883.177-.963.833A7.5,7.5,0,0,0,1883.406,542.389Z" transform="translate(-1882.805 -532.948)" fill="#337081"/>
      <path id="Path_1423" data-name="Path 1423" d="M1884.193,521.642a.234.234,0,0,1-.219-.318,5.118,5.118,0,0,1,1.645-1.94c1.216-.948,1.856-1.45,1.862-1.455a.234.234,0,0,1,.29.369c-.006,0-.647.507-1.864,1.456a4.787,4.787,0,0,0-1.5,1.74A.235.235,0,0,1,1884.193,521.642Z" transform="translate(-1883.878 -513.935)" fill="#337081"/>
      <path id="Path_1424" data-name="Path 1424" d="M1915.495,484.765a.234.234,0,0,1-.234-.231c0-.025-.036-2.479-.036-3.17,0-.866.5-.908.8-.933l.063-.006c.352-.034,7.073-.008,7.436.009l.089,0a1.672,1.672,0,0,1,.464.059.462.462,0,0,1,.327.416,6.86,6.86,0,0,1,0,.782.234.234,0,0,1-.468-.025,6.542,6.542,0,0,0,0-.711.106.106,0,0,0,0-.014,1.336,1.336,0,0,0-.343-.038l-.092,0c-.332-.016-7.051-.041-7.369-.011l-.069.006a.332.332,0,0,0-.373.466c0,.688.035,3.139.036,3.163a.234.234,0,0,1-.231.238Z" transform="translate(-1911.766 -480.399)" fill="#337081"/>
      <path id="Path_1425" data-name="Path 1425" d="M2005.057,484.748a.234.234,0,0,1-.234-.234c0-.129,0-.273,0-.427,0-.353-.009-.793,0-1.3.009-.337,0-.567-.006-.771a4.725,4.725,0,0,1,.007-.622c.037-.405.021-.648-.046-.721,0,0-.006-.007-.025-.007l-.7,0c-1.729-.007-6.923-.026-7.38,0a.739.739,0,0,0-.032.288.234.234,0,1,1-.469,0c0-.186,0-.682.411-.75.1-.017,1.08-.03,7.473-.006l.7,0a.489.489,0,0,1,.371.159,1.475,1.475,0,0,1,.166,1.08,4.318,4.318,0,0,0-.005.564c.007.2.015.448.006.8-.012.494-.007.929,0,1.279,0,.155,0,.3,0,.432A.234.234,0,0,1,2005.057,484.748Z" transform="translate(-1983.999 -480.185)" fill="#337081"/>
      <path id="Path_1427" data-name="Path 1427" d="M2075.451,521.694a.235.235,0,0,1-.233-.209,2.651,2.651,0,0,0-.373-1.071,4.772,4.772,0,0,0-.923-.89l-.1-.081a13.028,13.028,0,0,1-1.269-1.241.235.235,0,0,1,.383-.271,13.5,13.5,0,0,0,1.178,1.146l.1.079a5.163,5.163,0,0,1,1.01.98,3.091,3.091,0,0,1,.461,1.3.235.235,0,0,1-.208.259Z" transform="translate(-2051.703 -513.719)" fill="#337081"/>
      <path id="Path_1433" data-name="Path 1433" d="M2074.768,578.325a.351.351,0,0,1-.352-.352V576.44a.352.352,0,1,1,.7,0v1.533A.352.352,0,0,1,2074.768,578.325Z" transform="translate(-2053.943 -566.57)" fill="#337081"/>
      <path id="Path_1437" data-name="Path 1437" d="M-.4,2.078A.352.352,0,0,1-.75,1.726V.209A.352.352,0,0,1-.4-.143.352.352,0,0,1-.047.209V1.726A.352.352,0,0,1-.4,2.078Z" transform="translate(3.662 9.66)" fill="#337081"/>
      <path id="Rectangle_2888" data-name="Rectangle 2888" d="M.988.469a.519.519,0,0,0,0,1.039H5.93a.519.519,0,0,0,0-1.039H.988M.988,0H5.93a.988.988,0,0,1,0,1.977H.988A.988.988,0,0,1,.988,0Z" transform="translate(5.007 2.459)" fill="#337081"/>
      <path id="Rectangle_2892" data-name="Rectangle 2892" d="M.988.469a.519.519,0,0,0,0,1.039H5.93a.519.519,0,0,0,0-1.039H.988M.988,0H5.93a.988.988,0,0,1,0,1.977H.988A.988.988,0,0,1,.988,0Z" transform="translate(12.914 2.459)" fill="#337081"/>
      <path id="Line_748" data-name="Line 748" d="M22.531-.062H-.531A.469.469,0,0,1-1-.531.469.469,0,0,1-.531-1H22.531A.469.469,0,0,1,23-.531.469.469,0,0,1,22.531-.062Z" transform="translate(1 9.744)" fill="#337081"/>
      <path id="Path_1490" data-name="Path 1490" d="M5863.387,785.249h-.017c-.308-.021-.5-.038-.652-.051-.362-.031-.5-.042-1.457-.057a.234.234,0,0,1,0-.469h0c.976.015,1.115.027,1.489.058.152.013.341.029.645.05a.234.234,0,0,1-.016.468Z" transform="translate(-5857.472 -780.744)" fill="#337081"/>
      <path id="Path_1491" data-name="Path 1491" d="M5847.339,785.471c-.728,0-1.754-.005-2.887-.012-2.2-.012-4.7-.025-6.371-.008h0a.234.234,0,0,1,0-.469c1.68-.017,4.177,0,6.379.008,1.655.009,3.083.016,3.679.008h0a.234.234,0,0,1,0,.469C5847.95,785.47,5847.677,785.471,5847.339,785.471Z" transform="translate(-5827.099 -780.947)" fill="#337081"/>
    </g>
  </g>
</svg>
