<svg xmlns="http://www.w3.org/2000/svg" width="24" height="24" viewBox="0 0 24 24">
  <g id="Group_10948" data-name="Group 10948" transform="translate(-204 -223)">
    <rect id="Rectangle_3415" data-name="Rectangle 3415" width="24" height="24" transform="translate(204 223)" fill="none"/>
    <g id="Group_4959" data-name="Group 4959" transform="translate(204 228.778)">
      <rect id="Rectangle_2882" data-name="Rectangle 2882" width="7.483" height="0.748" rx="0.374" transform="translate(0.582 6.668)" fill="#2f4e88"/>
      <path id="Line_742" data-name="Line 742" d="M.223,6.042a.249.249,0,0,1-.246-.213L-1-.714A.249.249,0,0,1-.787-1,.249.249,0,0,1-.5-.787L.47,5.756a.249.249,0,0,1-.21.283Z" transform="translate(1.102 1)" fill="#2f4e88"/>
      <path id="Line_743" data-name="Line 743" d="M-.563,4.749a.188.188,0,0,1-.041,0,.187.187,0,0,1-.142-.223L.393-.6A.187.187,0,0,1,.616-.746a.187.187,0,0,1,.142.223L-.38,4.6A.187.187,0,0,1-.563,4.749Z" transform="translate(0.75 7.848)" fill="#2f4e88"/>
      <path id="Line_744" data-name="Line 744" d="M.481,4.749A.187.187,0,0,1,.3,4.6L-.746-.526A.187.187,0,0,1-.6-.746.187.187,0,0,1-.38-.6L.664,4.524a.187.187,0,0,1-.183.224Z" transform="translate(7.868 7.848)" fill="#2f4e88"/>
      <path id="Path_1622" data-name="Path 1622" d="M5.857-.376H-.563A.187.187,0,0,1-.75-.563.187.187,0,0,1-.563-.75h6.42a.187.187,0,0,1,.187.187A.187.187,0,0,1,5.857-.376Z" transform="translate(1.655 9.044)" fill="#2f4e88"/>
      <rect id="Rectangle_3146" data-name="Rectangle 3146" width="7.483" height="0.748" rx="0.374" transform="translate(23.418 7.416) rotate(180)" fill="#2f4e88"/>
      <path id="Line_742-2" data-name="Line 742" d="M1.223,0A.249.249,0,0,0,.977.213L0,6.756A.249.249,0,0,0,.5,6.829L1.47.286A.249.249,0,0,0,1.26,0Z" transform="translate(23.898 7.042) rotate(180)" fill="#2f4e88"/>
      <path id="Line_743-2" data-name="Line 743" d="M.187,0A.187.187,0,0,0,0,.228L1.143,5.352a.187.187,0,0,0,.365-.081L.37.147A.187.187,0,0,0,.187,0Z" transform="translate(24 12.597) rotate(180)" fill="#2f4e88"/>
      <path id="Line_744-2" data-name="Line 744" d="M1.231,0a.187.187,0,0,0-.183.15L0,5.274a.187.187,0,0,0,.367.075L1.414.224A.187.187,0,0,0,1.231,0Z" transform="translate(16.882 12.597) rotate(180)" fill="#2f4e88"/>
      <path id="Path_1622-2" data-name="Path 1622" d="M6.607,0H.187a.187.187,0,0,0,0,.374h6.42a.187.187,0,1,0,0-.374Z" transform="translate(23.095 8.667) rotate(180)" fill="#2f4e88"/>
      <rect id="Rectangle_3163" data-name="Rectangle 3163" width="12.471" height="0.418" rx="0.209" transform="translate(5.764 3.696)" fill="#2f4e88"/>
      <path id="Rectangle_3163_-_Outline" data-name="Rectangle 3163 - Outline" d="M.209,0H12.262a.209.209,0,0,1,0,.418H.209A.209.209,0,1,1,.209,0Z" transform="translate(5.764 3.696)" fill="#2f4e88"/>
      <path id="Path_1887" data-name="Path 1887" d="M0,7.563V-.7" transform="translate(11.886 4.722)" fill="#2f4e88"/>
      <path id="Path_1887_-_Outline" data-name="Path 1887 - Outline" d="M-.082,7.563H-.5V-.7h.418Z" transform="translate(12.177 4.722)" fill="#2f4e88"/>
      <path id="Line_819" data-name="Line 819" d="M2.746-.082H-.291A.209.209,0,0,1-.5-.291.209.209,0,0,1-.291-.5H2.746a.209.209,0,0,1,.209.209A.209.209,0,0,1,2.746-.082Z" transform="translate(10.658 12.575)" fill="#2f4e88"/>
    </g>
  </g>
</svg>
