<svg xmlns="http://www.w3.org/2000/svg" width="24" height="24" viewBox="0 0 24 24">
  <g id="Group_10945" data-name="Group 10945" transform="translate(-516 -223)">
    <rect id="Rectangle_3418" data-name="Rectangle 3418" width="24" height="24" transform="translate(516 223)" fill="none"/>
    <g id="Group_4962" data-name="Group 4962" transform="translate(516 226.556)">
      <path id="Rectangle_3418-2" data-name="Rectangle 3418" d="M.708.708v15.2h.738V.708H.708M.506,0H1.648a.506.506,0,0,1,.506.506v15.6a.506.506,0,0,1-.506.506H.506A.506.506,0,0,1,0,16.11V.506A.506.506,0,0,1,.506,0Z" transform="translate(3.692 17.007) rotate(-90)" fill="#535898"/>
      <path id="Rectangle_3154" data-name="Rectangle 3154" d="M.872.776V12.238H23.179V.776M0,0H24V13.091H0Z" fill="#535898"/>
    </g>
  </g>
</svg>
