<svg xmlns="http://www.w3.org/2000/svg" width="24" height="24" viewBox="0 0 24 24">
  <g id="Group_10936" data-name="Group 10936" transform="translate(-414 -608)">
    <rect id="Rectangle_3444" data-name="Rectangle 3444" width="24" height="24" transform="translate(414 608)" fill="none"/>
    <g id="Group_4965" data-name="Group 4965" transform="translate(415 609)">
      <path id="Rectangle_3413" data-name="Rectangle 3413" d="M.669.65V8.025H20.964V.65H.669M0,0H21.633V8.674H0Z" transform="translate(0 12.959)" fill="#7e7c6d"/>
      <path id="Line_955" data-name="Line 955" d="M-.283,7.856A.217.217,0,0,1-.5,7.639V-.283A.217.217,0,0,1-.283-.5a.217.217,0,0,1,.217.217V7.639A.217.217,0,0,1-.283,7.856Z" transform="translate(7.567 13.699)" fill="#7e7c6d"/>
      <path id="Line_956" data-name="Line 956" d="M-.283,7.856A.217.217,0,0,1-.5,7.639V-.283A.217.217,0,0,1-.283-.5a.217.217,0,0,1,.217.217V7.639A.217.217,0,0,1-.283,7.856Z" transform="translate(14.711 13.699)" fill="#7e7c6d"/>
      <path id="Path_1951" data-name="Path 1951" d="M-70.714-.067H-91.777A.22.22,0,0,1-92-.283.22.22,0,0,1-91.777-.5h21.063a.22.22,0,0,1,.223.217A.22.22,0,0,1-70.714-.067Z" transform="translate(92.041 15.326)" fill="#7e7c6d"/>
      <path id="Path_1952" data-name="Path 1952" d="M-84.968-.067h-6.815A.217.217,0,0,1-92-.283.217.217,0,0,1-91.784-.5h6.815a.217.217,0,0,1,.217.217A.217.217,0,0,1-84.968-.067Z" transform="translate(92.041 18.408)" fill="#7e7c6d"/>
      <path id="Path_1953" data-name="Path 1953" d="M-85-.067h-6.78A.217.217,0,0,1-92-.283.217.217,0,0,1-91.783-.5H-85a.217.217,0,0,1,.217.217A.217.217,0,0,1-85-.067Z" transform="translate(106.42 18.408)" fill="#7e7c6d"/>
      <path id="Rectangle_3414" data-name="Rectangle 3414" d="M.669.65V5.286H20.964V.65H.669M0,0H21.633V5.935H0Z" transform="translate(0 0)" fill="#7e7c6d"/>
      <path id="Line_958" data-name="Line 958" d="M-.283,5.224A.217.217,0,0,1-.5,5.008V-.283A.217.217,0,0,1-.283-.5a.217.217,0,0,1,.217.217V5.008A.217.217,0,0,1-.283,5.224Z" transform="translate(7.567 0.653)" fill="#7e7c6d"/>
      <path id="Line_959" data-name="Line 959" d="M-.283,5.224A.217.217,0,0,1-.5,5.008V-.283A.217.217,0,0,1-.283-.5a.217.217,0,0,1,.217.217V5.008A.217.217,0,0,1-.283,5.224Z" transform="translate(14.711 0.653)" fill="#7e7c6d"/>
      <path id="Line_960" data-name="Line 960" d="M1.365-.033H-.142A.108.108,0,0,1-.25-.142.108.108,0,0,1-.142-.25H1.365a.108.108,0,0,1,.108.108A.108.108,0,0,1,1.365-.033Z" transform="translate(2.995 4.656)" fill="#7e7c6d"/>
      <path id="Line_967" data-name="Line 967" d="M1.365-.033H-.142A.108.108,0,0,1-.25-.142.108.108,0,0,1-.142-.25H1.365a.108.108,0,0,1,.108.108A.108.108,0,0,1,1.365-.033Z" transform="translate(2.995 14.01)" fill="#7e7c6d"/>
      <path id="Line_961" data-name="Line 961" d="M1.365-.033H-.142A.108.108,0,0,1-.25-.142.108.108,0,0,1-.142-.25H1.365a.108.108,0,0,1,.108.108A.108.108,0,0,1,1.365-.033Z" transform="translate(10.243 4.656)" fill="#7e7c6d"/>
      <path id="Line_962" data-name="Line 962" d="M1.365-.033H-.142A.108.108,0,0,1-.25-.142.108.108,0,0,1-.142-.25H1.365a.108.108,0,0,1,.108.108A.108.108,0,0,1,1.365-.033Z" transform="translate(17.489 4.656)" fill="#7e7c6d"/>
      <path id="Line_968" data-name="Line 968" d="M1.365-.033H-.142A.108.108,0,0,1-.25-.142.108.108,0,0,1-.142-.25H1.365a.108.108,0,0,1,.108.108A.108.108,0,0,1,1.365-.033Z" transform="translate(17.489 14.01)" fill="#7e7c6d"/>
      <path id="Path_1949" data-name="Path 1949" d="M18014.627,1640.628h-5.918a.216.216,0,0,1-.213-.216v-.6a.213.213,0,0,1,.121-.194l2.184-1.092a.209.209,0,0,1,.1-.023h1.572a.213.213,0,0,1,.1.023l2.16,1.092a.216.216,0,0,1,.121.193v.6A.217.217,0,0,1,18014.627,1640.628Zm-5.7-.433h5.482v-.253l-2-1.009h-1.465l-2.021,1.01Z" transform="translate(-18000.834 -1631.818)" fill="#7e7c6d"/>
      <path id="Line_963" data-name="Line 963" d="M-.283.8A.217.217,0,0,1-.5.581V-.283A.217.217,0,0,1-.283-.5a.217.217,0,0,1,.217.217V.581A.217.217,0,0,1-.283.8Z" transform="translate(10.362 6.28)" fill="#7e7c6d"/>
      <path id="Line_964" data-name="Line 964" d="M-.283.8A.217.217,0,0,1-.5.581V-.283A.217.217,0,0,1-.283-.5a.217.217,0,0,1,.217.217V.581A.217.217,0,0,1-.283.8Z" transform="translate(11.915 6.28)" fill="#7e7c6d"/>
      <path id="Path_1950" data-name="Path 1950" d="M17939.1,1676.58a.218.218,0,0,1-.219-.214c0-.007-.006-.693-.008-1.286a1.28,1.28,0,0,1,.3-.971,1.061,1.061,0,0,1,.777-.272h.021a.942.942,0,0,1,.74.3,1.182,1.182,0,0,1,.23.85.218.218,0,0,1-.213.188l-.029,0a.217.217,0,0,1-.187-.243.73.73,0,0,0-.129-.508.522.522,0,0,0-.412-.147h-.021a.649.649,0,0,0-.475.146.933.933,0,0,0-.174.662c0,.59.01,1.275.01,1.282a.216.216,0,0,1-.215.219Z" transform="translate(-17936.775 -1663.698)" fill="#7e7c6d"/>
      <path id="Line_965" data-name="Line 965" d="M1.9-.067H-.283A.217.217,0,0,1-.5-.283.217.217,0,0,1-.283-.5H1.9a.217.217,0,0,1,.217.217A.217.217,0,0,1,1.9-.067Z" transform="translate(8.216 12.486)" fill="#7e7c6d"/>
      <path id="Line_966" data-name="Line 966" d="M1.9-.067H-.283A.217.217,0,0,1-.5-.283.217.217,0,0,1-.283-.5H1.9a.217.217,0,0,1,.217.217A.217.217,0,0,1,1.9-.067Z" transform="translate(11.8 12.486)" fill="#7e7c6d"/>
      <path id="Ellipse_1050" data-name="Ellipse 1050" d="M.433.13a.3.3,0,1,0,.3.3.3.3,0,0,0-.3-.3m0-.13A.433.433,0,1,1,0,.433.433.433,0,0,1,.433,0Z" transform="translate(8.476 13.655)" fill="#7e7c6d"/>
      <path id="Ellipse_1053" data-name="Ellipse 1053" d="M.433.13a.3.3,0,1,0,.3.3.3.3,0,0,0-.3-.3m0-.13A.433.433,0,1,1,0,.433.433.433,0,0,1,.433,0Z" transform="translate(11.301 13.655)" fill="#7e7c6d"/>
      <path id="Ellipse_1051" data-name="Ellipse 1051" d="M.433.13a.3.3,0,1,0,.3.3.3.3,0,0,0-.3-.3m0-.13A.433.433,0,1,1,0,.433.433.433,0,0,1,.433,0Z" transform="translate(9.888 13.655)" fill="#7e7c6d"/>
      <path id="Ellipse_1052" data-name="Ellipse 1052" d="M.433.13a.3.3,0,1,0,.3.3.3.3,0,0,0-.3-.3m0-.13A.433.433,0,1,1,0,.433.433.433,0,0,1,.433,0Z" transform="translate(12.713 13.655)" fill="#7e7c6d"/>
    </g>
  </g>
</svg>
