<svg xmlns="http://www.w3.org/2000/svg" width="24" height="24" viewBox="0 0 24 24">
  <g id="parking" transform="translate(-76 -575)">
    <g id="Path_542" data-name="Path 542" transform="translate(79 579)" fill="none">
      <path d="M2.313.39A2.715,2.715,0,0,1,3.222,0H14.66a3.591,3.591,0,0,1,1.051.39,1.733,1.733,0,0,1,.592.67L18,7H0L1.678,1.125A2.559,2.559,0,0,1,2.313.39Z" stroke="none"/>
      <path d="M 3.347586631774902 1 C 3.219174385070801 1.03771448135376 3.024622917175293 1.10956859588623 2.902509689331055 1.198579788208008 C 2.79027271270752 1.280388355255127 2.675493240356445 1.423400402069092 2.602331161499023 1.531896114349365 L 1.325727462768555 6 L 16.67427253723145 6 L 15.37184810638428 1.44152307510376 C 15.33291625976563 1.381490230560303 15.26151657104492 1.290391445159912 15.16892051696777 1.230609893798828 C 15.02548027038574 1.138002872467041 14.74328517913818 1.046847820281982 14.55122756958008 1 L 3.347586631774902 1 M 3.222379684448242 0 L 14.660400390625 0 C 14.660400390625 0 15.30068016052246 0.1253700256347656 15.71131992340088 0.3904900550842285 C 16.12196922302246 0.6556100845336914 16.3029899597168 1.060480117797852 16.3029899597168 1.060480117797852 L 18 7 L 0 7 L 1.678449630737305 1.125440120697021 C 1.678449630737305 1.125440120697021 1.927469253540039 0.6718502044677734 2.313449859619141 0.3904900550842285 C 2.699430465698242 0.1091299057006836 3.222379684448242 0 3.222379684448242 0 Z" stroke="none" fill="#999"/>
    </g>
    <g id="Rectangle_1194" data-name="Rectangle 1194" transform="translate(78 584.325)" fill="none" stroke="#999" stroke-width="1">
      <rect width="20" height="10" rx="4" stroke="none"/>
      <rect x="0.5" y="0.5" width="19" height="9" rx="3.5" fill="none"/>
    </g>
    <circle id="Ellipse_616" data-name="Ellipse 616" cx="2" cy="2" r="2" transform="translate(80 587.325)" fill="#999"/>
    <circle id="Ellipse_617" data-name="Ellipse 617" cx="2" cy="2" r="2" transform="translate(92 587.325)" fill="#999"/>
    <line id="Line_198" data-name="Line 198" y2="2" transform="translate(94 594)" fill="none" stroke="#999" stroke-width="3"/>
    <line id="Line_199" data-name="Line 199" y2="2" transform="translate(82 594)" fill="none" stroke="#999" stroke-width="3"/>
    <rect id="Rectangle_1204" data-name="Rectangle 1204" width="24" height="24" transform="translate(76 575)" fill="none"/>
  </g>
</svg>
