<svg xmlns="http://www.w3.org/2000/svg" width="24" height="24" viewBox="0 0 24 24">
  <g id="pooja_room" transform="translate(-69 -842)">
    <rect id="Rectangle_1024" data-name="Rectangle 1024" width="24" height="24" transform="translate(69 842)" fill="#999" opacity="0"/>
    <g id="Path_555" data-name="Path 555" transform="translate(71 844.006)" fill="none">
      <path d="M9.994,11.757A26.933,26.933,0,0,0,19.988,10,9.994,9.994,0,0,1,0,10,35.133,35.133,0,0,0,9.994,11.757Z" stroke="none"/>
      <path d="M 1.102603912353516 11.35992050170898 C 1.760082244873047 15.67621612548828 5.496874809265137 18.99395370483398 9.993955612182617 18.99395370483398 C 14.44835662841797 18.99395370483398 18.15682029724121 15.73896789550781 18.86574554443359 11.48261833190918 C 18.44584274291992 11.60824203491211 17.91155624389648 11.75470161437988 17.26839637756348 11.90515327453613 C 15.60764503479004 12.29364395141602 12.99749565124512 12.75674438476563 9.993955612182617 12.75674438476563 C 6.189436912536621 12.75674438476563 2.877719879150391 11.891845703125 1.102603912353516 11.35992050170898 M 0.01733589172363281 9.993949890136719 C 0.3256549835205078 9.993949890136719 4.652994155883789 11.75674438476563 9.993955612182617 11.75674438476563 C 15.51346588134766 11.75674438476563 19.93423652648926 10.14151382446289 19.9879150390625 9.999994277954102 C 19.9879150390625 15.51950359344482 15.51346588134766 19.99395370483398 9.993955612182617 19.99395370483398 C 4.474445343017578 19.99395370483398 -3.814697265625e-06 15.51950359344482 -3.814697265625e-06 9.999994277954102 C 0.001207351684570313 9.995922088623047 0.007028579711914063 9.993949890136719 0.01733589172363281 9.993949890136719 Z" stroke="none" fill="#999"/>
    </g>
    <path id="Path_556" data-name="Path 556" d="M3,0S6,2.462,6,5.5,3,11,3,11,0,8.538,0,5.5,3,0,3,0Z" transform="translate(78 844)" fill="#999"/>
    <path id="Path_557" data-name="Path 557" d="M10.023,16.324c4-.02,8.073-.275,8.03-.331a9.874,9.874,0,0,1-8.03,4.019,10.162,10.162,0,0,1-7.969-3.939C1.98,16.083,6.023,16.344,10.023,16.324Z" transform="translate(70.947 844.007)" fill="#999"/>
  </g>
</svg>
