<svg xmlns="http://www.w3.org/2000/svg" width="24" height="24" viewBox="0 0 24 24">
  <g id="study_room" transform="translate(-51 -322)">
    <rect id="Rectangle_1198" data-name="Rectangle 1198" width="24" height="24" transform="translate(51 322)" fill="none"/>
    <g id="Group_1591" data-name="Group 1591" transform="translate(4.5 -8.784)">
      <path id="Path_548" data-name="Path 548" d="M0,1.45a19.685,19.685,0,0,1,4.71-1.5A17.774,17.774,0,0,1,9.5-.054V13.48a14.3,14.3,0,0,0-4.485-.042A23.93,23.93,0,0,0,0,14.984Z" transform="translate(58.5 336)" fill="none" stroke="#999" stroke-linecap="round" stroke-linejoin="round" stroke-width="1"/>
      <path id="Path_553" data-name="Path 553" d="M9.5,1.45a19.685,19.685,0,0,0-4.71-1.5A17.774,17.774,0,0,0,0-.054V13.48a14.3,14.3,0,0,1,4.485-.042A23.931,23.931,0,0,1,9.5,14.984Z" transform="translate(49 336)" fill="none" stroke="#999" stroke-linecap="round" stroke-linejoin="round" stroke-width="1"/>
      <path id="Path_548-2" data-name="Path 548" d="M0,15.538a19.01,19.01,0,0,1,4.71-1.577,16.89,16.89,0,0,1,4.79-.007v3.167a13.593,13.593,0,0,0-4.485-.044A23.083,23.083,0,0,0,0,18.705Z" transform="translate(58.5 332)" fill="#999"/>
      <path id="Path_551" data-name="Path 551" d="M9.5,15.538a19.01,19.01,0,0,0-4.71-1.577A16.89,16.89,0,0,0,0,13.955v3.167a13.593,13.593,0,0,1,4.485-.044A23.083,23.083,0,0,1,9.5,18.7Z" transform="translate(49 332)" fill="#999"/>
    </g>
  </g>
</svg>
