<svg id="fan_2" xmlns="http://www.w3.org/2000/svg" width="24" height="24" viewBox="0 0 24 24">
  <g id="Group_2508" data-name="Group 2508" transform="translate(-168 -486)">
    <path id="Path_764" data-name="Path 764" d="M5232.182,5947.515v9s4.5-.24,4.5-4.552S5232.182,5947.515,5232.182,5947.515Z" transform="translate(-5052.182 -5459.015)" fill="none" stroke="#212121" stroke-linecap="round" stroke-linejoin="round" stroke-width="1.5"/>
    <path id="Path_764-2" data-name="Path 764" d="M5232.182,5947.515v9s4.5-.24,4.5-4.552S5232.182,5947.515,5232.182,5947.515Z" transform="translate(6137.015 -4734.182) rotate(90)" fill="none" stroke="#212121" stroke-linecap="round" stroke-linejoin="round" stroke-width="1.5"/>
    <path id="Path_764-3" data-name="Path 764" d="M5232.182,5947.515v9s4.5-.24,4.5-4.552S5232.182,5947.515,5232.182,5947.515Z" transform="translate(5412.182 6455.015) rotate(180)" fill="none" stroke="#212121" stroke-linecap="round" stroke-linejoin="round" stroke-width="1.5"/>
    <path id="Path_764-4" data-name="Path 764" d="M5232.182,5947.515v9s4.5-.24,4.5-4.552S5232.182,5947.515,5232.182,5947.515Z" transform="translate(-5777.015 5730.182) rotate(-90)" fill="none" stroke="#212121" stroke-linecap="round" stroke-linejoin="round" stroke-width="1.5"/>
  </g>
  <rect id="Rectangle_1526" data-name="Rectangle 1526" width="24" height="24" fill="none"/>
</svg>