<svg width="24" height="24" viewBox="0 0 24 24" fill="none" xmlns="http://www.w3.org/2000/svg">
<g id="arcticons:infraredremote">
<path id="Vector" d="M18.9246 10.4774L13.5491 5.1009C13.3291 4.8809 12.8831 4.9709 12.5531 5.3009L2.09108 15.7629C1.76108 16.0929 1.67158 16.5389 1.89158 16.7589L7.26708 22.1344C7.48708 22.3544 7.93308 22.2649 8.26308 21.9349L18.7251 11.4734C19.0551 11.1434 19.1446 10.6969 18.9246 10.4774Z" stroke="black" stroke-linecap="round" stroke-linejoin="round"/>
<path id="Vector_2" d="M7.47149 17.7633C8.15743 17.7633 8.71349 17.2072 8.71349 16.5213C8.71349 15.8354 8.15743 15.2793 7.47149 15.2793C6.78555 15.2793 6.22949 15.8354 6.22949 16.5213C6.22949 17.2072 6.78555 17.7633 7.47149 17.7633Z" stroke="black" stroke-linecap="round" stroke-linejoin="round"/>
<path id="Vector_3" d="M15.5854 3.00195C16.3055 3.00774 17.0172 3.15749 17.6786 3.4424C18.3399 3.72731 18.9376 4.14162 19.4365 4.66095C19.9559 5.1593 20.3705 5.75649 20.6559 6.4174C20.9412 7.07832 21.0915 7.78961 21.0979 8.50945M15.9959 4.56945C16.9321 4.57562 17.8281 4.95055 18.4896 5.61294C19.1512 6.27534 19.525 7.1718 19.53 8.10795M16.3679 6.03445C16.7485 6.05027 17.114 6.1874 17.4111 6.42579C17.7081 6.66419 17.9211 6.99135 18.0189 7.35945C18.0502 7.48025 18.0652 7.60469 18.0634 7.72945" stroke="black" stroke-linecap="round" stroke-linejoin="round"/>
<path id="Vector_4" d="M13.1394 8.52734C13.3465 8.52734 13.5144 8.35945 13.5144 8.15234C13.5144 7.94524 13.3465 7.77734 13.1394 7.77734C12.9323 7.77734 12.7644 7.94524 12.7644 8.15234C12.7644 8.35945 12.9323 8.52734 13.1394 8.52734Z" fill="black"/>
<path id="Vector_5" d="M16.1111 11.498C16.3182 11.498 16.4861 11.3302 16.4861 11.123C16.4861 10.9159 16.3182 10.748 16.1111 10.748C15.904 10.748 15.7361 10.9159 15.7361 11.123C15.7361 11.3302 15.904 11.498 16.1111 11.498Z" fill="black"/>
<path id="Vector_6" d="M14.625 10.0117C14.8321 10.0117 15 9.84383 15 9.63672C15 9.42961 14.8321 9.26172 14.625 9.26172C14.4179 9.26172 14.25 9.42961 14.25 9.63672C14.25 9.84383 14.4179 10.0117 14.625 10.0117Z" fill="black"/>
<path id="Vector_7" d="M11.6536 10.0117C11.8607 10.0117 12.0286 9.84383 12.0286 9.63672C12.0286 9.42961 11.8607 9.26172 11.6536 9.26172C11.4465 9.26172 11.2786 9.42961 11.2786 9.63672C11.2786 9.84383 11.4465 10.0117 11.6536 10.0117Z" fill="black"/>
<path id="Vector_8" d="M14.625 12.9844C14.8321 12.9844 15 12.8165 15 12.6094C15 12.4023 14.8321 12.2344 14.625 12.2344C14.4179 12.2344 14.25 12.4023 14.25 12.6094C14.25 12.8165 14.4179 12.9844 14.625 12.9844Z" fill="black"/>
<path id="Vector_9" d="M13.1394 11.498C13.3465 11.498 13.5144 11.3302 13.5144 11.123C13.5144 10.9159 13.3465 10.748 13.1394 10.748C12.9323 10.748 12.7644 10.9159 12.7644 11.123C12.7644 11.3302 12.9323 11.498 13.1394 11.498Z" fill="black"/>
<path id="Vector_10" d="M10.1675 11.498C10.3746 11.498 10.5425 11.3302 10.5425 11.123C10.5425 10.9159 10.3746 10.748 10.1675 10.748C9.96037 10.748 9.79248 10.9159 9.79248 11.123C9.79248 11.3302 9.96037 11.498 10.1675 11.498Z" fill="black"/>
<path id="Vector_11" d="M13.1394 14.4707C13.3465 14.4707 13.5144 14.3028 13.5144 14.0957C13.5144 13.8886 13.3465 13.7207 13.1394 13.7207C12.9323 13.7207 12.7644 13.8886 12.7644 14.0957C12.7644 14.3028 12.9323 14.4707 13.1394 14.4707Z" fill="black"/>
<path id="Vector_12" d="M11.6536 12.9844C11.8607 12.9844 12.0286 12.8165 12.0286 12.6094C12.0286 12.4023 11.8607 12.2344 11.6536 12.2344C11.4465 12.2344 11.2786 12.4023 11.2786 12.6094C11.2786 12.8165 11.4465 12.9844 11.6536 12.9844Z" fill="black"/>
</g>
</svg>
