<svg id="projector_grey" xmlns="http://www.w3.org/2000/svg" width="24" height="24" viewBox="0 0 24 24">
  <rect id="Rectangle_1254" data-name="Rectangle 1254" width="24" height="24" fill="none"/>
  <g id="Group_1659" data-name="Group 1659" transform="translate(-1176 -160)">
    <path id="Rectangle_1252" data-name="Rectangle 1252" d="M0,0H5A0,0,0,0,1,5,0V0A2,2,0,0,1,3,2H2A2,2,0,0,1,0,0V0A0,0,0,0,1,0,0Z" transform="translate(1180 175)" fill="#212121"/>
    <path id="Rectangle_1264" data-name="Rectangle 1264" d="M0,0H5A0,0,0,0,1,5,0V0A2,2,0,0,1,3,2H2A2,2,0,0,1,0,0V0A0,0,0,0,1,0,0Z" transform="translate(1191 175)" fill="#212121"/>
    <g id="Subtraction_95" data-name="Subtraction 95" transform="translate(1537 4601)" fill="none">
      <path d="M-341-4426h-10.993a4.005,4.005,0,0,0,3.993-4,4,4,0,0,0-4-4h11a2,2,0,0,1,2,2v4A2,2,0,0,1-341-4426Zm-11.127,0H-357a2,2,0,0,1-2-2v-4a2,2,0,0,1,2-2h4.993a4.005,4.005,0,0,0-3.992,4,3.981,3.981,0,0,0,3.872,4Z" stroke="none"/>
      <path d="M -341.0003356933594 -4427.00048828125 C -340.448486328125 -4427.00048828125 -339.9995422363281 -4427.44873046875 -339.9995422363281 -4428 L -339.9995422363281 -4431.99951171875 C -339.9995422363281 -4432.55126953125 -340.448486328125 -4433.00048828125 -341.0003356933594 -4433.00048828125 L -348.0023498535156 -4433.00048828125 C -347.3730773925781 -4432.1640625 -346.999755859375 -4431.125 -346.999755859375 -4430 C -346.999755859375 -4428.8759765625 -347.3734130859375 -4427.8369140625 -348.0029296875 -4427.00048828125 L -341.0003356933594 -4427.00048828125 M -356.0107421875 -4427.00048828125 C -356.6332702636719 -4427.8349609375 -356.9996032714844 -4428.87255859375 -356.9996032714844 -4430 C -356.9996032714844 -4431.12451171875 -356.6258850097656 -4432.1640625 -355.9963684082031 -4433.00048828125 L -357 -4433.00048828125 C -357.5512084960938 -4433.00048828125 -357.9996643066406 -4432.55126953125 -357.9996643066406 -4431.99951171875 L -357.9996643066406 -4428 C -357.9996643066406 -4427.44873046875 -357.5512084960938 -4427.00048828125 -357 -4427.00048828125 L -356.0107421875 -4427.00048828125 M -341.0003356933594 -4426.00048828125 L -351.9930419921875 -4426.00048828125 C -349.7911376953125 -4426.00439453125 -347.999755859375 -4427.7978515625 -347.999755859375 -4430 C -347.999755859375 -4432.2060546875 -349.7943725585938 -4434.00048828125 -352.000244140625 -4434.00048828125 L -341.0003356933594 -4434.00048828125 C -339.8970947265625 -4434.00048828125 -338.9995422363281 -4433.10302734375 -338.9995422363281 -4431.99951171875 L -338.9995422363281 -4428 C -338.9995422363281 -4426.8974609375 -339.8970947265625 -4426.00048828125 -341.0003356933594 -4426.00048828125 Z M -352.1276245117188 -4426.00048828125 L -357 -4426.00048828125 C -358.1026000976562 -4426.00048828125 -358.9996643066406 -4426.8974609375 -358.9996643066406 -4428 L -358.9996643066406 -4431.99951171875 C -358.9996643066406 -4433.10302734375 -358.1026000976562 -4434.00048828125 -357 -4434.00048828125 L -352.0074462890625 -4434.00048828125 C -354.208740234375 -4433.99658203125 -355.9996032714844 -4432.20263671875 -355.9996032714844 -4430 C -355.9996032714844 -4427.82666015625 -354.298828125 -4426.07080078125 -352.1275939941406 -4426.00244140625 L -352.1276245117188 -4426.00048828125 Z" stroke="none" fill="#212121"/>
    </g>
    <g id="Ellipse_776" data-name="Ellipse 776" transform="translate(1180 166)" fill="none" stroke="#212121" stroke-width="1">
      <circle cx="5" cy="5" r="5" stroke="none"/>
      <circle cx="5" cy="5" r="4.5" fill="none"/>
    </g>
    <circle id="Ellipse_651" data-name="Ellipse 651" cx="2" cy="2" r="2" transform="translate(1183 169)" fill="#212121"/>
  </g>
</svg>