<svg width="24" height="24" viewBox="0 0 24 24" fill="none" xmlns="http://www.w3.org/2000/svg">
<path d="M2 4V3.5C1.72386 3.5 1.5 3.72386 1.5 4H2ZM4 4H4.5C4.5 3.72386 4.27614 3.5 4 3.5V4ZM4 22V22.5C4.27614 22.5 4.5 22.2761 4.5 22H4ZM2 22H1.5C1.5 22.2761 1.72386 22.5 2 22.5V22ZM8.5 12C8.22386 12 8 12.2239 8 12.5C8 12.7761 8.22386 13 8.5 13V12ZM17.2236 8.55279C16.9766 8.42929 16.6763 8.5294 16.5528 8.77639C16.4293 9.02338 16.5294 9.32372 16.7764 9.44721L17.2236 8.55279ZM19.6295 10.3148L19.8531 9.86755L19.8531 9.86754L19.6295 10.3148ZM20.131 10.893L20.6053 10.7348L20.131 10.893ZM20.5257 13.6581C20.613 13.9201 20.8961 14.0617 21.1581 13.9743C21.4201 13.887 21.5617 13.6039 21.4743 13.3419L20.5257 13.6581ZM12.2764 11.9472L12.7236 12.1708L12.2764 11.9472ZM13.4472 10.7236C13.5707 10.4766 13.4706 10.1763 13.2236 10.0528C12.9766 9.92929 12.6763 10.0294 12.5528 10.2764L13.4472 10.7236ZM10.1284 21.6655C9.94362 21.8708 9.96026 22.1869 10.1655 22.3716C10.3708 22.5564 10.6869 22.5397 10.8716 22.3345L10.1284 21.6655ZM15.3716 17.3345C15.5564 17.1292 15.5397 16.8131 15.3345 16.6284C15.1292 16.4436 14.8131 16.4603 14.6284 16.6655L15.3716 17.3345ZM17.8536 17.6464C17.6583 17.4512 17.3417 17.4512 17.1464 17.6464C16.9512 17.8417 16.9512 18.1583 17.1464 18.3536L17.8536 17.6464ZM21.1464 22.3536C21.3417 22.5488 21.6583 22.5488 21.8536 22.3536C22.0488 22.1583 22.0488 21.8417 21.8536 21.6464L21.1464 22.3536ZM14.0539 15.5224L14.5482 15.4472L14.0539 15.5224ZM18.0083 14.9202L18.5026 14.845L18.0083 14.9202ZM17.2555 9.97723L16.7612 10.0525L17.2555 9.97723ZM13.3011 10.5794L12.8068 10.6547L13.3011 10.5794ZM2 4.5H4V3.5H2V4.5ZM3.5 4V22H4.5V4H3.5ZM4 21.5H2V22.5H4V21.5ZM2.5 22V4H1.5V22H2.5ZM16.5 5C16.5 5.82843 15.8284 6.5 15 6.5V7.5C16.3807 7.5 17.5 6.38071 17.5 5H16.5ZM15 6.5C14.1716 6.5 13.5 5.82843 13.5 5H12.5C12.5 6.38071 13.6193 7.5 15 7.5V6.5ZM13.5 5C13.5 4.17157 14.1716 3.5 15 3.5V2.5C13.6193 2.5 12.5 3.61929 12.5 5H13.5ZM15 3.5C15.8284 3.5 16.5 4.17157 16.5 5H17.5C17.5 3.61929 16.3807 2.5 15 2.5V3.5ZM8.5 13H11.382V12H8.5V13ZM16.7764 9.44721L19.4059 10.762L19.8531 9.86754L17.2236 8.55279L16.7764 9.44721ZM19.6566 11.0511L20.5257 13.6581L21.4743 13.3419L20.6053 10.7348L19.6566 11.0511ZM12.7236 12.1708L13.4472 10.7236L12.5528 10.2764L11.8292 11.7236L12.7236 12.1708ZM19.4059 10.762C19.5245 10.8213 19.6147 10.9253 19.6566 11.0511L20.6053 10.7348C20.4795 10.3574 20.2089 10.0455 19.8531 9.86755L19.4059 10.762ZM11.382 13C11.9501 13 12.4695 12.679 12.7236 12.1708L11.8292 11.7236C11.7445 11.893 11.5714 12 11.382 12V13ZM10.8716 22.3345L15.3716 17.3345L14.6284 16.6655L10.1284 21.6655L10.8716 22.3345ZM17.1464 18.3536L21.1464 22.3536L21.8536 21.6464L17.8536 17.6464L17.1464 18.3536ZM16.7612 10.0525L17.514 14.9955L18.5026 14.845L17.7498 9.90195L16.7612 10.0525ZM14.5482 15.4472L13.7954 10.5042L12.8068 10.6547L13.5596 15.5977L14.5482 15.4472ZM16.2569 16.7042C15.4379 16.829 14.6729 16.2662 14.5482 15.4472L13.5596 15.5977C13.7674 16.9627 15.0425 17.9007 16.4075 17.6928L16.2569 16.7042ZM17.514 14.9955C17.6387 15.8145 17.0759 16.5795 16.2569 16.7042L16.4075 17.6928C17.7724 17.485 18.7104 16.2099 18.5026 14.845L17.514 14.9955ZM15.0525 8.79543C15.8715 8.67071 16.6365 9.23352 16.7612 10.0525L17.7498 9.90195C17.5419 8.53698 16.2669 7.59896 14.9019 7.80683L15.0525 8.79543ZM14.9019 7.80683C13.537 8.0147 12.5989 9.28974 12.8068 10.6547L13.7954 10.5042C13.6707 9.68518 14.2335 8.92015 15.0525 8.79543L14.9019 7.80683Z" fill="#1A1B1E"/>
</svg>
