<svg width="24" height="24" viewBox="0 0 24 24" fill="none" xmlns="http://www.w3.org/2000/svg">
<path d="M17 12V18C17 20.2091 15.2091 22 13 22H8C5.79086 22 4 20.2091 4 18V12C4 10.8954 4.89543 10 6 10H15C16.1046 10 17 10.8954 17 12ZM17 12C17.4596 12 17.9148 12.0905 18.3394 12.2664C18.764 12.4423 19.1499 12.7001 19.4749 13.0251C19.7999 13.3501 20.0577 13.736 20.2336 14.1606C20.4095 14.5852 20.5 15.0404 20.5 15.5C20.5 15.9596 20.4095 16.4148 20.2336 16.8394C20.0577 17.264 19.7999 17.6499 19.4749 17.9749C19.1499 18.2999 18.764 18.5577 18.3394 18.7336C17.9148 18.9095 17.4596 19 17 19V12ZM4 14C4 14 8.21899 18 12.125 18C15.375 18 16.4583 16.6667 17 16M9.5 2L8.84853 2.86863C8.36165 3.5178 8.4262 4.4262 9 5C9.5738 5.5738 9.63835 6.4822 9.15147 7.13137L8.5 8M11.5 2L10.8485 2.86863C10.3616 3.5178 10.4262 4.4262 11 5C11.5738 5.5738 11.6384 6.4822 11.1515 7.13137L10.5 8M13.5 2L12.8485 2.86863C12.3616 3.5178 12.4262 4.4262 13 5C13.5738 5.5738 13.6384 6.4822 13.1515 7.13137L12.5 8" stroke="#1A1B1E" stroke-linecap="round"/>
</svg>
