<svg width="24" height="24" viewBox="0 0 24 24" fill="none" xmlns="http://www.w3.org/2000/svg">
<path d="M12.2475 10.2578C12.7838 9.45576 13.729 8.92998 14.8015 8.92998C16.4739 8.92998 17.8282 10.2132 17.8282 11.7995C17.8282 12.3431 17.6736 12.8421 17.3919 13.2788M11.0932 9.66964L8.96641 8.27945M12.9474 8.19031L11.6022 5.96243M15.0378 7.6289V5M17.1919 8.25271L18.7371 6.13177M18.8098 9.90133L21.2002 8.69828M19.1461 11.951H22M18.6098 13.9917L20.8366 15.373M3.92203 19H15.5923C15.5923 19 18.2372 18.9554 17.6282 16.1038C17.2646 14.4195 15.2651 14.366 14.956 14.3927C15.0833 13.2342 12.8928 11.0598 10.7751 12.5748C10.0571 10.7836 5.22175 9.89242 4.45828 13.9115C3.33125 14.0541 2.15877 14.8383 2.01334 16.3622C1.84974 18.0554 3.23127 19 3.92203 19Z" stroke="#1A1B1E" stroke-miterlimit="10" stroke-linecap="round"/>
</svg>
