<svg width="24" height="24" viewBox="0 0 24 24" fill="none" xmlns="http://www.w3.org/2000/svg">
<path d="M16.3212 3.5C15.7312 3.5 14.8212 4.681 14.8212 6.25C14.829 6.96037 15.0557 7.65104 15.4702 8.228C15.6798 8.5549 15.9738 8.81918 16.3212 8.993C16.6685 8.81918 16.9625 8.5549 17.1722 8.228C17.5866 7.65104 17.8133 6.96037 17.8212 6.25C17.8212 4.681 16.9112 3.5 16.3212 3.5ZM16.3212 2C17.8712 2 19.3212 3.9 19.3212 6.25C19.3212 8.6 17.5372 10.5 16.3212 10.5C15.1052 10.5 13.3212 8.6 13.3212 6.25C13.3212 3.9 14.7712 2 16.3212 2Z" fill="#1A1B1E"/>
<path d="M16.2201 18.621C16.1614 19.3412 16.1514 20.0645 16.1902 20.786C16.1972 20.798 16.2081 20.805 16.2392 20.805C16.2474 20.8062 16.2559 20.8062 16.2641 20.805C16.2963 20.0782 16.2819 19.35 16.2211 18.625M15.9212 9.80899H16.4951C16.4951 9.80899 17.5152 20.087 17.2291 21.069C17.1629 21.2825 17.0302 21.4691 16.8502 21.6017C16.6703 21.7343 16.4527 21.8058 16.2291 21.8058C16.0056 21.8058 15.788 21.7343 15.6081 21.6017C15.4281 21.4691 15.2954 21.2825 15.2291 21.069C14.9181 20.087 15.9232 9.80499 15.9232 9.80499L15.9212 9.80899Z" fill="#1A1B1E"/>
<path d="M7.21615 18.621C7.15743 19.3412 7.1474 20.0645 7.18615 20.786C7.19315 20.798 7.20415 20.805 7.23515 20.805C7.24344 20.8062 7.25186 20.8062 7.26015 20.805C7.29226 20.0782 7.27789 19.35 7.21715 18.625M6.91715 9.80899H7.49115C7.49115 9.80899 8.51115 20.087 8.22515 21.069C8.15894 21.2825 8.02615 21.4691 7.84622 21.6017C7.66629 21.7343 7.44865 21.8058 7.22515 21.8058C7.00165 21.8058 6.78401 21.7343 6.60408 21.6017C6.42415 21.4691 6.29136 21.2825 6.22515 21.069C5.91415 20.087 6.91915 9.80499 6.91915 9.80499L6.91715 9.80899Z" fill="#1A1B1E"/>
<path d="M6.24615 7.799L5.24615 7.831C5.29277 8.10275 5.3894 8.3635 5.53115 8.6C5.70057 8.86983 5.93437 9.09333 6.21156 9.25042C6.48874 9.40751 6.80061 9.49328 7.11915 9.5C7.43768 9.49328 7.74955 9.40751 8.02673 9.25042C8.30392 9.09333 8.53772 8.86983 8.70715 8.6C8.85341 8.35672 8.9512 8.08744 8.99515 7.807H8.24015V7.816L6.24815 7.817V7.794M4.72115 2C4.97615 2 5.64615 7.734 5.64615 7.734C5.64615 7.734 5.94415 2.017 6.34315 2.017C6.74215 2.017 7.24315 7.736 7.24315 7.736C7.24315 7.736 7.68915 2.017 8.10415 2.017C8.51915 2.017 8.90415 7.736 8.90415 7.736C8.90415 7.736 9.37715 1.659 9.53615 2.017C9.69515 2.375 10.7441 7.376 9.53615 9.162C9.2801 9.572 8.92395 9.91012 8.50121 10.1445C8.07846 10.3789 7.60303 10.5019 7.11965 10.5019C6.63626 10.5019 6.16083 10.3789 5.73808 10.1445C5.31534 9.91012 4.95919 9.572 4.70315 9.162C3.49515 7.374 4.46715 2.372 4.70315 2.017C4.70457 2.01294 4.70695 2.00927 4.71008 2.00632C4.71321 2.00336 4.71701 2.00119 4.72115 2Z" fill="#1A1B1E"/>
</svg>
