<svg width="24" height="24" viewBox="0 0 24 24" fill="none" xmlns="http://www.w3.org/2000/svg">
<path d="M2 4V3.5C1.72386 3.5 1.5 3.72386 1.5 4H2ZM4 4H4.5C4.5 3.72386 4.27614 3.5 4 3.5V4ZM4 22V22.5C4.27614 22.5 4.5 22.2761 4.5 22H4ZM2 22H1.5C1.5 22.2761 1.72386 22.5 2 22.5V22ZM21.5 13C21.7761 13 22 12.7761 22 12.5C22 12.2239 21.7761 12 21.5 12V13ZM13.2236 9.44721C13.4706 9.32372 13.5707 9.02338 13.4472 8.77639C13.3237 8.5294 13.0234 8.42929 12.7764 8.55279L13.2236 9.44721ZM10.3705 10.3148L10.1469 9.86754V9.86755L10.3705 10.3148ZM9.86901 10.893L9.39467 10.7348H9.39467L9.86901 10.893ZM8.52566 13.3419C8.43833 13.6039 8.57991 13.887 8.84189 13.9743C9.10386 14.0617 9.38702 13.9201 9.47434 13.6581L8.52566 13.3419ZM17.7236 11.9472L17.2764 12.1708L17.7236 11.9472ZM17.4472 10.2764C17.3237 10.0294 17.0234 9.92929 16.7764 10.0528C16.5294 10.1763 16.4293 10.4766 16.5528 10.7236L17.4472 10.2764ZM19.1284 22.3345C19.3131 22.5397 19.6292 22.5564 19.8345 22.3716C20.0397 22.1869 20.0564 21.8708 19.8716 21.6655L19.1284 22.3345ZM15.3716 16.6655C15.1869 16.4603 14.8708 16.4436 14.6655 16.6284C14.4603 16.8131 14.4436 17.1292 14.6284 17.3345L15.3716 16.6655ZM12.8536 18.3536C13.0488 18.1583 13.0488 17.8417 12.8536 17.6464C12.6583 17.4512 12.3417 17.4512 12.1464 17.6464L12.8536 18.3536ZM8.14645 21.6464C7.95118 21.8417 7.95118 22.1583 8.14645 22.3536C8.34171 22.5488 8.65829 22.5488 8.85355 22.3536L8.14645 21.6464ZM15.9461 15.5224L15.4518 15.4472L15.9461 15.5224ZM11.9917 14.9202L11.4974 14.845L11.9917 14.9202ZM12.7445 9.97723L13.2388 10.0525L12.7445 9.97723ZM16.6989 10.5794L17.1932 10.6547L16.6989 10.5794ZM2 4.5H4V3.5H2V4.5ZM3.5 4V22H4.5V4H3.5ZM4 21.5H2V22.5H4V21.5ZM2.5 22V4H1.5V22H2.5ZM12.5 5C12.5 6.38071 13.6193 7.5 15 7.5V6.5C14.1716 6.5 13.5 5.82843 13.5 5H12.5ZM15 7.5C16.3807 7.5 17.5 6.38071 17.5 5H16.5C16.5 5.82843 15.8284 6.5 15 6.5V7.5ZM17.5 5C17.5 3.61929 16.3807 2.5 15 2.5V3.5C15.8284 3.5 16.5 4.17157 16.5 5H17.5ZM15 2.5C13.6193 2.5 12.5 3.61929 12.5 5H13.5C13.5 4.17157 14.1716 3.5 15 3.5V2.5ZM21.5 12H18.618V13H21.5V12ZM12.7764 8.55279L10.1469 9.86754L10.5941 10.762L13.2236 9.44721L12.7764 8.55279ZM9.39467 10.7348L8.52566 13.3419L9.47434 13.6581L10.3434 11.0511L9.39467 10.7348ZM18.1708 11.7236L17.4472 10.2764L16.5528 10.7236L17.2764 12.1708L18.1708 11.7236ZM10.1469 9.86755C9.79105 10.0455 9.52048 10.3574 9.39467 10.7348L10.3434 11.0511C10.3853 10.9253 10.4755 10.8213 10.5941 10.762L10.1469 9.86755ZM18.618 12C18.4286 12 18.2555 11.893 18.1708 11.7236L17.2764 12.1708C17.5305 12.679 18.0499 13 18.618 13V12ZM19.8716 21.6655L15.3716 16.6655L14.6284 17.3345L19.1284 22.3345L19.8716 21.6655ZM12.1464 17.6464L8.14645 21.6464L8.85355 22.3536L12.8536 18.3536L12.1464 17.6464ZM12.2502 9.90195L11.4974 14.845L12.486 14.9955L13.2388 10.0525L12.2502 9.90195ZM16.4404 15.5977L17.1932 10.6547L16.2046 10.5042L15.4518 15.4472L16.4404 15.5977ZM13.5925 17.6928C14.9575 17.9007 16.2326 16.9627 16.4404 15.5977L15.4518 15.4472C15.3271 16.2662 14.5621 16.829 13.7431 16.7042L13.5925 17.6928ZM11.4974 14.845C11.2896 16.2099 12.2276 17.485 13.5925 17.6928L13.7431 16.7042C12.9241 16.5795 12.3613 15.8145 12.486 14.9955L11.4974 14.845ZM15.0981 7.80683C13.7331 7.59896 12.4581 8.53698 12.2502 9.90195L13.2388 10.0525C13.3635 9.23352 14.1285 8.67071 14.9475 8.79543L15.0981 7.80683ZM14.9475 8.79543C15.7665 8.92015 16.3293 9.68518 16.2046 10.5042L17.1932 10.6547C17.4011 9.28974 16.463 8.0147 15.0981 7.80683L14.9475 8.79543Z" fill="#1A1B1E"/>
</svg>
