<svg width="24" height="24" viewBox="0 0 24 24" fill="none" xmlns="http://www.w3.org/2000/svg">
<path d="M9.99976 14.5C8.06676 14.5 6.49976 16.067 6.49976 18C6.49976 19.933 8.06676 21.5 9.99976 21.5H16.9998C20.0373 21.5 22.4998 19.0376 22.4998 16C22.4998 12.9624 20.0373 10.5 16.9998 10.5C14.3416 10.5 12.1239 12.3857 11.6113 14.8923M9.99976 14.5C10.5809 14.5 11.129 14.6416 11.6113 14.8923M9.99976 14.5C8.75962 14.5 7.67013 15.145 7.04843 16.1178C6.09425 15.2073 5.49976 13.9231 5.49976 12.5C5.49976 9.73858 7.73833 7.5 10.4998 7.5C12.6643 7.5 14.5077 8.87547 15.2034 10.8001C13.3875 11.4273 12.0026 12.9789 11.6113 14.8923M11.6113 14.8923C11.6113 14.8923 12.4998 15.5 12.4998 17.5M11.6113 14.8923C11.6113 14.8923 12.3765 15.4157 12.4866 17.0897M9.99976 3.5C9.99976 3.77614 9.7759 4 9.49976 4C9.22361 4 8.99976 3.77614 8.99976 3.5C8.99976 3.22386 9.22361 3 9.49976 3C9.7759 3 9.99976 3.22386 9.99976 3.5ZM5.99966 4.57193C5.99966 4.84807 5.77581 5.07193 5.49966 5.07193C5.22352 5.07193 4.99966 4.84807 4.99966 4.57193C4.99966 4.29579 5.22352 4.07193 5.49966 4.07193C5.77581 4.07193 5.99966 4.29579 5.99966 4.57193ZM3.07169 7.50034C3.07169 7.77648 2.84783 8.00034 2.57169 8.00034C2.29554 8.00034 2.07169 7.77648 2.07169 7.50034C2.07169 7.22419 2.29554 7.00034 2.57169 7.00034C2.84783 7.00034 3.07169 7.22419 3.07169 7.50034ZM2 11.5002C2 11.7764 1.77614 12.0002 1.5 12.0002C1.22386 12.0002 1 11.7764 1 11.5002C1 11.2241 1.22386 11.0002 1.5 11.0002C1.77614 11.0002 2 11.2241 2 11.5002ZM3.07193 15.5001C3.07193 15.7763 2.84807 16.0001 2.57193 16.0001C2.29579 16.0001 2.07193 15.7763 2.07193 15.5001C2.07193 15.224 2.29579 15.0001 2.57193 15.0001C2.84807 15.0001 3.07193 15.224 3.07193 15.5001ZM13.9997 4.57181C13.9997 4.84795 13.7758 5.07181 13.4997 5.07181C13.2235 5.07181 12.9997 4.84795 12.9997 4.57181C12.9997 4.29567 13.2235 4.07181 13.4997 4.07181C13.7758 4.07181 13.9997 4.29567 13.9997 4.57181ZM16.9278 7.49991C16.9278 7.77605 16.704 7.99991 16.4278 7.99991C16.1517 7.99991 15.9278 7.77605 15.9278 7.49991C15.9278 7.22377 16.1517 6.99991 16.4278 6.99991C16.704 6.99991 16.9278 7.22377 16.9278 7.49991Z" stroke="#1A1B1E"/>
</svg>
