<svg width="24" height="24" viewBox="0 0 24 24" fill="none" xmlns="http://www.w3.org/2000/svg">
<path d="M2 9C2 7.34315 3.34315 6 5 6H13C14.6569 6 16 7.34315 16 9V15C16 16.6569 14.6569 18 13 18H5C3.34315 18 2 16.6569 2 15V9Z" stroke="#1A1B1E" stroke-linecap="round"/>
<path d="M13 9.5C13 9.77614 12.7761 10 12.5 10C12.2239 10 12 9.77614 12 9.5C12 9.22386 12.2239 9 12.5 9C12.7761 9 13 9.22386 13 9.5Z" stroke="#1A1B1E" stroke-linecap="round"/>
<path d="M19.2929 8.70711L16.7071 11.2929C16.3166 11.6834 16.3166 12.3166 16.7071 12.7071L19.2929 15.2929C19.9229 15.9229 21 15.4767 21 14.5858V9.41421C21 8.52331 19.9229 8.07714 19.2929 8.70711Z" stroke="#1A1B1E" stroke-linecap="round"/>
</svg>
