<svg width="24" height="24" viewBox="0 0 24 24" fill="none" xmlns="http://www.w3.org/2000/svg">
<path d="M19.6542 13.2103C20.4148 12.959 21.7984 11.6844 22 10.8047C21.4319 11.3164 20.3873 11.7652 19.7 11.6934C18.0965 11.5318 16.5937 10.2213 16.612 8.21958C16.612 6.87315 17.6016 5.48183 18.747 5.06893C17.849 4.79067 14.5778 5.20357 14.2021 9.17105M4.13165 19H17.1435C17.1435 19 20.094 18.9461 19.416 15.4095C19.0128 13.327 16.7861 13.2552 16.4379 13.2911C16.5845 11.8549 14.1379 9.16208 11.7738 11.0381C10.9766 8.82098 5.58861 7.71691 4.73643 12.6987C3.48106 12.8693 2.17988 13.8566 2.01494 15.7327C1.83168 17.8331 3.38027 19 4.14082 19H4.13165Z" stroke="#1A1B1E" stroke-linecap="round" stroke-linejoin="round"/>
</svg>
