<svg width="24" height="24" viewBox="0 0 24 24" fill="none" xmlns="http://www.w3.org/2000/svg">
<path d="M8.93301 16.25L6.43301 20.5801M11.933 16.25L9.43301 20.5801M14.933 16.25L12.433 20.5801M6.88889 14.6667C4.74111 14.6667 3 12.9256 3 10.7778C3 8.63 4.74111 6.88889 6.88889 6.88889L6.9348 6.88916C7.24918 4.69032 9.14016 3 11.4259 3C13.9317 3 15.963 5.0313 15.963 7.53704C15.963 7.86815 15.9275 8.19098 15.8601 8.50194C16.2837 8.2989 16.7582 8.18519 17.2593 8.18519C19.0491 8.18519 20.5 9.63612 20.5 11.4259C20.5 13.2157 19.0491 14.6667 17.2593 14.6667H6.88889Z" stroke="#1A1B1E" stroke-linecap="round"/>
</svg>
