<svg width="24" height="24" viewBox="0 0 24 24" fill="none" xmlns="http://www.w3.org/2000/svg">
<path d="M2 5C2 3.89543 2.89846 3.03388 3.97905 3.26281C4.67521 3.41029 5.52946 3.64054 6.5 4C9.2 5 11 7 11 7V22C11 22 8.75 20.5 6.5 19.5C5.43706 19.0276 4.37412 18.6668 3.5484 18.4175C2.651 18.1466 2 17.3331 2 16.3957V5Z" stroke="#1A1B1E"/>
<path d="M21 5C21 3.89543 20.1015 3.03388 19.021 3.26281C18.3248 3.41029 17.4705 3.64054 16.5 4C13.8 5 12 7 12 7V22C12 22 14.25 20.5 16.5 19.5C17.5629 19.0276 18.6259 18.6668 19.4516 18.4175C20.349 18.1466 21 17.3331 21 16.3957V5Z" stroke="#1A1B1E"/>
</svg>
