<svg width="24" height="24" viewBox="0 0 24 24" fill="none" xmlns="http://www.w3.org/2000/svg">
<path d="M6.81432 21.9577C6.81432 21.9577 8.83981 19.1743 9.59236 18.4298C11.4898 16.5347 13.7314 17.7107 15.2525 15.9171C17.0618 13.7766 19.7278 10.3503 19.7278 10.3503M14.4679 16.8139L19.8559 22M4.37253 19.6227C3.94021 19.3266 3.88417 18.6413 4.20441 18.2183C5.04502 17.1269 6.2379 15.4941 6.47007 15.2318C8.46353 12.9137 9.91259 13.9458 11.762 12.3976C12.4905 11.4078 13.6673 9.978 14.54 8.81895C15.1805 7.90524 16.0051 7.89678 16.6535 8.42978C17.238 8.91201 17.4061 9.80034 16.8457 10.6379C16.8457 10.6379 14.8842 13.4298 14.2117 14.2081C12.9468 15.6633 10.5531 14.665 8.91986 15.824C8.12728 16.3909 6.71825 17.9898 5.78957 19.2843C5.08826 20.2667 4.37253 19.6227 4.37253 19.6227ZM20 4.12352C20 5.2963 19.1003 6.24704 17.9905 6.24704C16.8807 6.24704 15.9811 5.2963 15.9811 4.12352C15.9811 2.95073 16.8807 2 17.9905 2C19.1003 2 20 2.95073 20 4.12352Z" stroke="#1A1B1E" stroke-miterlimit="10" stroke-linecap="round"/>
</svg>
