<svg width="24" height="24" viewBox="0 0 24 24" fill="none" xmlns="http://www.w3.org/2000/svg">
<path d="M6.75736 17C5.65279 17 4.75736 17.8954 4.75736 19C4.75736 20.1045 5.65279 21 6.75736 21C7.86193 21 8.75736 20.1045 8.75736 19C8.75736 17.8954 7.86193 17 6.75736 17ZM6.75736 17C5.97307 17 5.29421 17.4514 4.96648 18.1086L3.87868 17.0208C2.70711 15.8493 2.70711 13.9498 3.87868 12.7782L9.53553 7.12136C10.7071 5.94978 12.6066 5.94978 13.7782 7.12136L16.6066 9.94978M6.75736 17C7.51511 17 8.17443 17.4214 8.51376 18.0426L16.6066 9.94978M16.6066 9.94978L21.0564 5.5L18.5564 3" stroke="#1A1B1E" stroke-linecap="round" stroke-linejoin="round"/>
</svg>
