<svg width="54" height="54" viewBox="0 0 54 54" fill="none" xmlns="http://www.w3.org/2000/svg">
<path d="M0.662994 36.661V17V36.661Z" fill="#598455"/>
<path d="M1.326 36.661H0V17H1.326V36.661Z" fill="#598455"/>
<path d="M54 36.426H52.674V17H54V36.426Z" fill="#598455"/>
<path d="M10.4 23.135L8.72601 36.749L10.4 23.135Z" fill="#598455"/>
<path d="M8.72499 37.193C8.70667 37.1941 8.68831 37.1941 8.66999 37.193C8.61156 37.1861 8.5551 37.1676 8.50391 37.1386C8.45272 37.1096 8.40783 37.0707 8.37188 37.0241C8.33593 36.9776 8.30964 36.9243 8.29455 36.8674C8.27945 36.8106 8.27587 36.7513 8.28399 36.693L9.96199 23.081C9.96868 23.0231 9.98677 22.967 10.0152 22.9161C10.0437 22.8652 10.0819 22.8204 10.1277 22.7844C10.1735 22.7483 10.2261 22.7217 10.2822 22.706C10.3384 22.6903 10.3971 22.6859 10.455 22.693C10.5132 22.7001 10.5695 22.7188 10.6204 22.7479C10.6714 22.777 10.7161 22.816 10.7518 22.8625C10.7876 22.909 10.8137 22.9622 10.8286 23.019C10.8436 23.0757 10.8471 23.1349 10.839 23.193L9.16299 36.803C9.15028 36.9103 9.09869 37.0092 9.01799 37.0811C8.93728 37.153 8.83305 37.1928 8.72499 37.193Z" fill="#598455"/>
<path d="M16.01 23.135C16.01 23.135 17.356 34.597 17.61 36.763L16.01 23.135Z" fill="#598455"/>
<path d="M17.605 37.205C17.4968 37.2044 17.3926 37.1643 17.312 37.092C17.2315 37.0198 17.1802 36.9205 17.168 36.813C16.92 34.673 15.584 23.301 15.568 23.187C15.5608 23.1289 15.5651 23.0699 15.5809 23.0135C15.5966 22.9571 15.6234 22.9044 15.6597 22.8584C15.696 22.8125 15.741 22.7742 15.7922 22.7458C15.8435 22.7174 15.8998 22.6994 15.958 22.693C16.0159 22.6862 16.0745 22.6909 16.1306 22.7068C16.1866 22.7227 16.239 22.7496 16.2846 22.7858C16.3303 22.8221 16.3683 22.867 16.3965 22.918C16.4247 22.969 16.4425 23.0251 16.449 23.083C16.462 23.198 17.798 34.57 18.049 36.712C18.0557 36.7697 18.0509 36.8282 18.035 36.8841C18.019 36.9399 17.9922 36.9921 17.9561 37.0376C17.92 37.0832 17.8752 37.1211 17.8244 37.1493C17.7736 37.1775 17.7177 37.1954 17.66 37.202L17.605 37.205Z" fill="#598455"/>
<path d="M9.231 31.7988H17.047C17.1375 31.8036 17.2227 31.843 17.2851 31.9088C17.3474 31.9745 17.3822 32.0617 17.3822 32.1523C17.3822 32.243 17.3474 32.3301 17.2851 32.3959C17.2227 32.4617 17.1375 32.501 17.047 32.5058H9.231C9.1405 32.501 9.05529 32.4617 8.99293 32.3959C8.93057 32.3301 8.89581 32.243 8.89581 32.1523C8.89581 32.0617 8.93057 31.9745 8.99293 31.9088C9.05529 31.843 9.1405 31.8036 9.231 31.7988Z" fill="#598455"/>
<path d="M13.2298 24.943C12.2553 24.9523 11.2833 24.8418 10.3358 24.614L10.4529 24.188C12.2814 24.6029 14.1797 24.6029 16.0081 24.188L16.1082 24.618C15.1646 24.837 14.1985 24.9461 13.2298 24.943Z" fill="#598455"/>
<path d="M13.4792 23.7218C12.9702 23.7218 12.4582 23.7018 11.8332 23.6778L11.4333 23.6618C10.391 23.6107 9.35173 23.5065 8.32002 23.3498C8.17127 23.3242 8.03885 23.241 7.95088 23.1183C7.8629 22.9957 7.82644 22.8433 7.8498 22.6942C7.87317 22.5451 7.95411 22.4111 8.07539 22.3212C8.19667 22.2314 8.34876 22.1928 8.49824 22.2138C8.51424 22.2138 10.0882 22.4608 11.4772 22.5138L11.8771 22.5298C12.8666 22.593 13.859 22.5883 14.8479 22.5158C15.8535 22.4479 16.8548 22.3274 17.8479 22.1548C17.9959 22.133 18.1469 22.1698 18.2683 22.2573C18.3896 22.3448 18.4722 22.4763 18.4982 22.6236C18.5243 22.771 18.492 22.9228 18.4079 23.0466C18.3239 23.1704 18.1946 23.2566 18.048 23.2868C17.0199 23.4654 15.9832 23.5906 14.9421 23.6618C14.4041 23.7058 13.9432 23.7218 13.4792 23.7218Z" fill="#598455"/>
<path d="M23.662 23.135L21.988 36.749L23.662 23.135Z" fill="#598455"/>
<path d="M21.986 37.193C21.9677 37.1941 21.9493 37.1941 21.931 37.193C21.8726 37.1861 21.8161 37.1676 21.7649 37.1386C21.7137 37.1096 21.6689 37.0707 21.6329 37.0241C21.5969 36.9776 21.5707 36.9243 21.5556 36.8674C21.5405 36.8106 21.5369 36.7513 21.545 36.693L23.223 23.081C23.2297 23.0231 23.2478 22.967 23.2762 22.9161C23.3047 22.8652 23.3429 22.8204 23.3887 22.7844C23.4346 22.7483 23.4871 22.7217 23.5432 22.706C23.5994 22.6903 23.6581 22.6859 23.716 22.693C23.7743 22.7001 23.8305 22.7188 23.8815 22.7479C23.9324 22.777 23.9771 22.816 24.0128 22.8625C24.0486 22.909 24.0747 22.9622 24.0897 23.019C24.1046 23.0757 24.1081 23.1349 24.1 23.193L22.424 36.803C22.4113 36.9103 22.3597 37.0092 22.279 37.0811C22.1983 37.153 22.0941 37.1928 21.986 37.193Z" fill="#598455"/>
<path d="M29.272 23.135C29.272 23.135 30.618 34.597 30.872 36.763L29.272 23.135Z" fill="#598455"/>
<path d="M30.867 37.205C30.7588 37.2044 30.6546 37.1643 30.574 37.092C30.4935 37.0198 30.4422 36.9205 30.43 36.813C30.182 34.673 28.846 23.301 28.83 23.187C28.8228 23.1289 28.8271 23.0699 28.8429 23.0135C28.8586 22.9571 28.8854 22.9044 28.9217 22.8584C28.958 22.8125 29.003 22.7742 29.0542 22.7458C29.1054 22.7174 29.1618 22.6994 29.22 22.693C29.2779 22.6862 29.3365 22.6909 29.3926 22.7068C29.4486 22.7227 29.501 22.7496 29.5466 22.7858C29.5923 22.8221 29.6303 22.867 29.6585 22.918C29.6867 22.969 29.7045 23.0251 29.711 23.083C29.724 23.198 31.06 34.57 31.311 36.712C31.3177 36.7697 31.3129 36.8282 31.297 36.8841C31.281 36.9399 31.2542 36.9921 31.2181 37.0376C31.182 37.0832 31.1372 37.1211 31.0864 37.1493C31.0356 37.1775 30.9797 37.1954 30.922 37.202L30.867 37.205Z" fill="#598455"/>
<path d="M22.492 31.7988H30.308C30.3985 31.8036 30.4837 31.843 30.5461 31.9088C30.6084 31.9745 30.6432 32.0617 30.6432 32.1523C30.6432 32.243 30.6084 32.3301 30.5461 32.3959C30.4837 32.4617 30.3985 32.501 30.308 32.5058H22.492C22.4015 32.501 22.3163 32.4617 22.2539 32.3959C22.1916 32.3301 22.1568 32.243 22.1568 32.1523C22.1568 32.0617 22.1916 31.9745 22.2539 31.9088C22.3163 31.843 22.4015 31.8036 22.492 31.7988Z" fill="#598455"/>
<path d="M26.4918 24.943C25.5173 24.9523 24.5453 24.8418 23.5977 24.614L23.7149 24.188C25.5434 24.6029 27.4417 24.6029 29.2701 24.188L29.3702 24.618C28.4266 24.837 27.4604 24.9461 26.4918 24.943Z" fill="#598455"/>
<path d="M26.7412 23.7218C26.2322 23.7218 25.7202 23.7018 25.0952 23.6778L24.6953 23.6618C23.653 23.6107 22.6137 23.5065 21.582 23.3498C21.4333 23.3242 21.3008 23.241 21.2129 23.1183C21.1249 22.9957 21.0884 22.8433 21.1118 22.6942C21.1352 22.5451 21.2161 22.4111 21.3374 22.3212C21.4587 22.2314 21.6108 22.1928 21.7602 22.2138C21.7762 22.2138 23.3502 22.4608 24.7392 22.5138L25.1391 22.5298C26.1286 22.593 27.121 22.5883 28.1098 22.5158C29.1155 22.4479 30.1168 22.3274 31.1098 22.1548C31.2579 22.133 31.4089 22.1698 31.5303 22.2573C31.6516 22.3448 31.7342 22.4763 31.7602 22.6236C31.7863 22.771 31.7539 22.9228 31.6699 23.0466C31.5859 23.1704 31.4566 23.2566 31.31 23.2868C30.2819 23.4654 29.2452 23.5906 28.2041 23.6618C27.6661 23.7058 27.2052 23.7218 26.7412 23.7218Z" fill="#598455"/>
<path d="M36.923 23.135L35.249 36.749L36.923 23.135Z" fill="#598455"/>
<path d="M35.248 37.193C35.2297 37.1941 35.2113 37.1941 35.193 37.193C35.1346 37.1861 35.0781 37.1676 35.0269 37.1386C34.9757 37.1096 34.9308 37.0707 34.8949 37.0241C34.8589 36.9776 34.8326 36.9243 34.8176 36.8674C34.8025 36.8106 34.7989 36.7513 34.807 36.693L36.485 23.081C36.4917 23.0231 36.5098 22.967 36.5382 22.9161C36.5667 22.8652 36.6049 22.8204 36.6507 22.7844C36.6966 22.7483 36.7491 22.7217 36.8052 22.706C36.8614 22.6903 36.9201 22.6859 36.978 22.693C37.0363 22.7001 37.0925 22.7188 37.1435 22.7479C37.1944 22.777 37.2391 22.816 37.2748 22.8625C37.3106 22.909 37.3367 22.9622 37.3517 23.019C37.3666 23.0757 37.3701 23.1349 37.362 23.193L35.686 36.803C35.6733 36.9103 35.6217 37.0092 35.541 37.0811C35.4603 37.153 35.3561 37.1928 35.248 37.193Z" fill="#598455"/>
<path d="M42.534 23.135C42.534 23.135 43.88 34.597 44.134 36.763L42.534 23.135Z" fill="#598455"/>
<path d="M44.129 37.205C44.0208 37.2044 43.9165 37.1643 43.836 37.092C43.7555 37.0198 43.7042 36.9205 43.692 36.813C43.444 34.673 42.108 23.301 42.092 23.187C42.0847 23.1289 42.0891 23.0699 42.1049 23.0135C42.1206 22.9571 42.1474 22.9044 42.1837 22.8584C42.22 22.8125 42.265 22.7742 42.3162 22.7458C42.3674 22.7174 42.4238 22.6994 42.482 22.693C42.5399 22.6862 42.5985 22.6909 42.6546 22.7068C42.7106 22.7227 42.763 22.7496 42.8086 22.7858C42.8543 22.8221 42.8923 22.867 42.9205 22.918C42.9487 22.969 42.9665 23.0251 42.973 23.083C42.986 23.198 44.322 34.57 44.573 36.712C44.5797 36.7697 44.5749 36.8282 44.559 36.8841C44.543 36.9399 44.5162 36.9921 44.4801 37.0376C44.444 37.0832 44.3992 37.1211 44.3484 37.1493C44.2976 37.1775 44.2417 37.1954 44.184 37.202L44.129 37.205Z" fill="#598455"/>
<path d="M35.754 31.7988H43.57C43.6605 31.8036 43.7457 31.843 43.8081 31.9088C43.8704 31.9745 43.9052 32.0617 43.9052 32.1523C43.9052 32.243 43.8704 32.3301 43.8081 32.3959C43.7457 32.4617 43.6605 32.501 43.57 32.5058H35.754C35.6635 32.501 35.5783 32.4617 35.5159 32.3959C35.4536 32.3301 35.4188 32.243 35.4188 32.1523C35.4188 32.0617 35.4536 31.9745 35.5159 31.9088C35.5783 31.843 35.6635 31.8036 35.754 31.7988Z" fill="#598455"/>
<path d="M39.7538 24.943C38.7793 24.9523 37.8073 24.8418 36.8598 24.614L36.977 24.188C38.8054 24.6029 40.7037 24.6029 42.5321 24.188L42.6322 24.618C41.6887 24.837 40.7225 24.9461 39.7538 24.943Z" fill="#598455"/>
<path d="M40.0022 23.7218C39.4932 23.7218 38.9812 23.7018 38.3562 23.6778L37.9563 23.6618C36.914 23.6107 35.8747 23.5065 34.843 23.3498C34.6943 23.3242 34.5619 23.241 34.4739 23.1183C34.3859 22.9957 34.3494 22.8433 34.3728 22.6942C34.3962 22.5451 34.4771 22.4111 34.5984 22.3212C34.7197 22.2314 34.8718 22.1928 35.0213 22.2138C35.0373 22.2138 36.6113 22.4608 38.0003 22.5138L38.4002 22.5298C39.3896 22.593 40.382 22.5883 41.3709 22.5158C42.3765 22.4479 43.3778 22.3274 44.3709 22.1548C44.5189 22.133 44.6699 22.1698 44.7913 22.2573C44.9127 22.3448 44.9952 22.4763 45.0213 22.6236C45.0473 22.771 45.015 22.9228 44.9309 23.0466C44.8469 23.1704 44.7176 23.2566 44.5711 23.2868C43.5429 23.4654 42.5062 23.5906 41.4651 23.6618C40.9271 23.7058 40.4662 23.7218 40.0022 23.7218Z" fill="#598455"/>
<path d="M53.336 17H0.855988V18.768H53.336V17Z" fill="#598455"/>
</svg>
