<svg xmlns="http://www.w3.org/2000/svg" width="24" height="24" viewBox="0 0 24 24">
  <g id="Group_10944" data-name="Group 10944" transform="translate(-516 -431)">
    <rect id="Rectangle_3423" data-name="Rectangle 3423" width="24" height="24" transform="translate(516 431)" fill="none"/>
    <g id="Group_4967" data-name="Group 4967" transform="translate(516 431.444)">
      <path id="Path_1579" data-name="Path 1579" d="M10279.9-872h3.442a.4.4,0,0,1,.4.4v22.422a.4.4,0,0,1-.208.348.4.4,0,0,1-.405-.018l-3.441-2.262a.392.392,0,0,1-.18-.331V-871.6A.4.4,0,0,1,10279.9-872Zm3.047.791h-2.651v19.551l2.651,1.742Z" transform="translate(-10279.5 872.197)" fill="#80705e"/>
      <path id="Path_1580" data-name="Path 1580" d="M10304.654-857.351a.4.4,0,0,1-.4-.4V-871.7l-15.481.24h-.006a.4.4,0,0,1-.395-.389.394.394,0,0,1,.389-.4l15.883-.246h.006a.4.4,0,0,1,.277.114.4.4,0,0,1,.118.282v14.358A.4.4,0,0,1,10304.654-857.351Z" transform="translate(-10284.886 872.5)" fill="#80705e"/>
      <path id="Path_1581" data-name="Path 1581" d="M10288.646-847.332a.4.4,0,0,1-.394-.362.4.4,0,0,1,.359-.428l15.932-1.377h.035a.394.394,0,0,1,.393.362.4.4,0,0,1-.359.428l-15.932,1.377Z" transform="translate(-10284.809 858.547)" fill="#80705e"/>
      <path id="Path_1582" data-name="Path 1582" d="M10288.646-825.583a.4.4,0,0,1-.341-.195.4.4,0,0,1,.024-.438l3.539-4.72a.4.4,0,0,1,.254-.153l16.227-2.655a.4.4,0,0,1,.41.2.4.4,0,0,1-.051.454l-4.721,5.31a.4.4,0,0,1-.242.129l-15.046,2.065A.408.408,0,0,1,10288.646-825.583Zm3.761-4.751-2.876,3.835,13.963-1.917,3.883-4.368Z" transform="translate(-10284.81 848.993)" fill="#80705e"/>
      <path id="Path_1583" data-name="Path 1583" d="M10294.478-836.4a.4.4,0,0,1-.394-.353.4.4,0,0,1,.35-.436c.088-.01,2.084-.282,2.141-2.959a.4.4,0,0,1,.2-.336.394.394,0,0,1,.391,0,5.621,5.621,0,0,0,2.084.589,2.99,2.99,0,0,0,2.24-.539.908.908,0,0,0,.089-.088,3.649,3.649,0,0,0-1.167-.161c-.112,0-.222,0-.327,0-.441,0-.79.024-.794.024a.4.4,0,0,1-.422-.367.4.4,0,0,1,.367-.422c.027,0,.655-.044,1.328-.016,1.1.046,1.639.241,1.812.651.091.215.1.558-.356.972a3.74,3.74,0,0,1-2.84.739,6.879,6.879,0,0,1-1.857-.434,3.621,3.621,0,0,1-1.389,2.547,3.2,3.2,0,0,1-1.413.591Z" transform="translate(-10288.346 853.682)" fill="#80705e"/>
      <path id="Path_1584" data-name="Path 1584" d="M10312.979-835.6a.4.4,0,0,1-.4-.4v-2.688a.4.4,0,0,1,.4-.4.4.4,0,0,1,.4.4V-836A.4.4,0,0,1,10312.979-835.6Z" transform="translate(-10299.238 851.755)" fill="#80705e"/>
      <path id="Path_1586" data-name="Path 1586" d="M10312.979-836.686a.4.4,0,0,1-.4-.4v-1.606a.4.4,0,0,1,.4-.4.4.4,0,0,1,.4.4v1.606A.4.4,0,0,1,10312.979-836.686Z" transform="translate(-10295.231 852.228)" fill="#80705e"/>
      <path id="Path_1585" data-name="Path 1585" d="M10317.848-839.571c-.57,0-1.05-.046-1.074-.048a.4.4,0,0,1-.354-.432.4.4,0,0,1,.393-.357l.038,0h0c.006,0,.467.045,1,.045h.16a2.36,2.36,0,0,0,1.234-.206.117.117,0,0,0-.027-.1c-.116-.144-.585-.4-2.42-.459a.4.4,0,0,1-.383-.409.4.4,0,0,1,.4-.382h.013c1.756.061,2.628.279,3.01.753a.919.919,0,0,1,.186.762c-.125.685-1.106.8-1.834.824C10318.072-839.573,10317.958-839.571,10317.848-839.571Z" transform="translate(-10301.894 853.947)" fill="#80705e"/>
      <path id="Path_1587" data-name="Path 1587" d="M10299.8-832.842a3.736,3.736,0,0,1-.915-.129.4.4,0,0,1-.285-.481.4.4,0,0,1,.48-.286,1.729,1.729,0,0,0,1.057.053.4.4,0,0,1,.533.09.4.4,0,0,1-.074.555A1.305,1.305,0,0,1,10299.8-832.842Z" transform="translate(-10290.876 848.993)" fill="#80705e"/>
      <path id="Path_1588" data-name="Path 1588" d="M10291.268-826.75a.4.4,0,0,1-.395-.378c-.028-.63-.454-.884-1.2-1.278a4.134,4.134,0,0,1-1.327-.945.4.4,0,0,1,.051-.557.4.4,0,0,1,.558.051,3.472,3.472,0,0,0,1.087.751c.738.389,1.576.829,1.627,1.943a.4.4,0,0,1-.377.413Z" transform="translate(-10284.809 846.718)" fill="#80705e"/>
      <path id="Path_1589" data-name="Path 1589" d="M10314.478-824.895a.394.394,0,0,1-.388-.32.4.4,0,0,1,.313-.464l1.45-.283a.4.4,0,0,1,.464.313.4.4,0,0,1-.312.464l-1.451.283A.39.39,0,0,1,10314.478-824.895Z" transform="translate(-10300.412 844.273)" fill="#80705e"/>
      <circle id="Ellipse_1027" data-name="Ellipse 1027" cx="0.657" cy="0.657" r="0.657" transform="translate(12.109 2.837)" fill="#80705e"/>
    </g>
  </g>
</svg>
