<svg xmlns="http://www.w3.org/2000/svg" width="24" height="24" viewBox="0 0 24 24">
  <g id="Group_10939" data-name="Group 10939" transform="translate(-100 -613)">
    <rect id="Rectangle_3424" data-name="Rectangle 3424" width="24" height="24" transform="translate(100 613)" fill="none"/>
    <g id="Group_4968" data-name="Group 4968" transform="translate(100 618.778)">
      <path id="Path_1546" data-name="Path 1546" d="M8824.42-741.191c0-.11-.088-2.691-.08-3.14a.552.552,0,0,1,.142-.409c.189-.182.526-.175,1.337-.157l.285.006c1.26.025,2.584.018,3.338,0h.031a.642.642,0,0,1,.479.163c.2.2.194.52.185.962,0,.171-.007.365,0,.575l-.363.013c-.008-.221,0-.42,0-.6.007-.325.012-.606-.078-.7a.322.322,0,0,0-.222-.057h-.023c-.757.018-2.089.025-3.354,0l-.285-.006a2.98,2.98,0,0,0-1.077.055.263.263,0,0,0-.031.154c-.007.44.079,3.1.08,3.122Z" transform="translate(-8819.351 748.593)" fill="#3e6070"/>
      <path id="Path_1547" data-name="Path 1547" d="M8829.769-743.3c-.013-.174-.01-.344-.007-.507,0-.29.01-.564-.091-.664-.016-.015-.061-.06-.207-.06h-.019c-.758.018-2.089.025-3.354,0l-.285-.006a2.984,2.984,0,0,0-1.078.055.274.274,0,0,0-.03.154c-.007.44,0,.72,0,.723l-.363.009c0-.012-.007-.29,0-.738a.557.557,0,0,1,.143-.409c.188-.182.526-.175,1.337-.157l.284.006c1.261.025,2.586.018,3.339,0h.026a.632.632,0,0,1,.464.165,1.261,1.261,0,0,1,.2.928c0,.155-.006.316.006.473Z" transform="translate(-8813.912 748.593)" fill="#3e6070"/>
      <path id="Path_1548" data-name="Path 1548" d="M8830.093-741.131l-.351-.1a.131.131,0,0,0,0,.02c0-.018.023-.222.03-1.707,0-.314.009-.577.015-.788a2.182,2.182,0,0,0-.041-.791c-.038-.039-.231-.034-.3-.033-.758.018-2.089.025-3.354,0l-.285-.006a2.984,2.984,0,0,0-1.078.055.274.274,0,0,0-.03.154c-.007.44,0,.72,0,.723l-.363.009c0-.012-.007-.29,0-.738a.557.557,0,0,1,.143-.409c.188-.182.526-.175,1.337-.157l.284.006c1.261.025,2.586.018,3.339,0h.086a.644.644,0,0,1,.478.14c.17.171.162.449.146,1.057-.006.21-.013.47-.014.78C8830.127-741.807,8830.113-741.207,8830.093-741.131Z" transform="translate(-8808.478 748.593)" fill="#3e6070"/>
      <path id="Path_1545" data-name="Path 1545" d="M8808.362-734.27a.437.437,0,0,1-.345-.133.353.353,0,0,1-.088-.261v-2.644c0-.513.8-.713,1.235-.821l.085-.022a3.436,3.436,0,0,1,.941,0l-.042.361a3.091,3.091,0,0,0-.807,0l-.09.023a4.008,4.008,0,0,0-.646.2c-.2.089-.314.187-.314.264v2.665a.211.211,0,0,0,.081.009c.3-.008.96,0,.987,0l0,.363c-.007,0-.684-.008-.975,0Z" transform="translate(-8805.003 742.718)" fill="#3e6070"/>
      <path id="Path_1550" data-name="Path 1550" d="M8808.155-734.444h-.021c-.291-.008-.967,0-.974,0l0-.363c.028,0,.69-.008.987,0a.224.224,0,0,0,.081-.009v-2.665c0-.077-.118-.176-.315-.264a4.031,4.031,0,0,0-.645-.2l-.091-.023a6.967,6.967,0,0,0-1.121-.049l-.006-.363a7.321,7.321,0,0,1,1.221.061l.084.021c.432.108,1.236.308,1.236.821v2.643a.365.365,0,0,1-.087.261A.439.439,0,0,1,8808.155-734.444Z" transform="translate(-8784.589 742.893)" fill="#3e6070"/>
      <path id="Path_1549" data-name="Path 1549" d="M8835.615-718.224h-18.188a.327.327,0,0,1-.327-.327v-1.522a.327.327,0,0,1,.327-.327.327.327,0,0,1,.327.327v1.2h17.533v-1.18a.328.328,0,0,1,.328-.327.327.327,0,0,1,.326.327v1.507A.327.327,0,0,1,8835.615-718.224Z" transform="translate(-8813.117 727.069)" fill="#3e6070"/>
      <path id="Rectangle_3071" data-name="Rectangle 3071" d="M.628.363a.265.265,0,1,0,0,.529h3.39a.265.265,0,1,0,0-.529H.628M.628,0h3.39a.628.628,0,1,1,0,1.255H.628A.628.628,0,1,1,.628,0Z" transform="translate(5.062 6.682)" fill="#3e6070"/>
      <path id="Rectangle_3072" data-name="Rectangle 3072" d="M.628.363a.265.265,0,1,0,0,.529h3.39a.265.265,0,1,0,0-.529H.628M.628,0h3.39a.628.628,0,1,1,0,1.255H.628A.628.628,0,1,1,.628,0Z" transform="translate(10.963 6.682)" fill="#3e6070"/>
      <path id="Rectangle_3073" data-name="Rectangle 3073" d="M.628.363a.265.265,0,1,0,0,.529h3.39a.265.265,0,1,0,0-.529H.628M.628,0h3.39a.628.628,0,1,1,0,1.255H.628A.628.628,0,1,1,.628,0Z" transform="translate(16.989 6.682)" fill="#3e6070"/>
      <path id="Line_825" data-name="Line 825" d="M-.573.632A.327.327,0,0,1-.9.306V-.573A.327.327,0,0,1-.573-.9a.327.327,0,0,1,.327.327V.306A.327.327,0,0,1-.573.632Z" transform="translate(6.577 9.287)" fill="#3e6070"/>
      <path id="Line_826" data-name="Line 826" d="M-.573.632A.327.327,0,0,1-.9.306V-.573A.327.327,0,0,1-.573-.9a.327.327,0,0,1,.327.327V.306A.327.327,0,0,1-.573.632Z" transform="translate(21.014 9.287)" fill="#3e6070"/>
      <path id="Line_815" data-name="Line 815" d="M-.318,3.329a.182.182,0,0,1-.048-.006A.182.182,0,0,1-.494,3.1L.451-.366A.182.182,0,0,1,.674-.494.182.182,0,0,1,.8-.271L-.143,3.195A.182.182,0,0,1-.318,3.329Z" transform="translate(9.026 9.469)" fill="#3e6070"/>
      <path id="Line_816" data-name="Line 816" d="M.626,3.329a.182.182,0,0,1-.175-.134L-.494-.271A.182.182,0,0,1-.366-.494a.182.182,0,0,1,.223.127L.8,3.1a.182.182,0,0,1-.175.229Z" transform="translate(17.533 9.469)" fill="#3e6070"/>
      <rect id="Rectangle_3026" data-name="Rectangle 3026" width="9.451" height="0.423" rx="0.211" transform="translate(8.55 8.94)" fill="#3e6070"/>
      <path id="Line_828" data-name="Line 828" d="M-.137,8.731H-.5V0h.363Z" transform="translate(1.812 3.102)" fill="#3e6070"/>
      <path id="Path_1551" data-name="Path 1551" d="M.7.363.409,2.854H2.571L2.232.363H.7M.381,0H2.549l.438,3.217H0Z" transform="translate(0 0)" fill="#3e6070"/>
      <path id="Line_829" data-name="Line 829" d="M1.06-.137H-.318A.182.182,0,0,1-.5-.318.182.182,0,0,1-.318-.5H1.06a.182.182,0,0,1,.182.182A.182.182,0,0,1,1.06-.137Z" transform="translate(1.123 12.151)" fill="#3e6070"/>
    </g>
  </g>
</svg>
