<svg xmlns="http://www.w3.org/2000/svg" width="24" height="24" viewBox="0 0 24 24">
  <g id="Group_10937" data-name="Group 10937" transform="translate(-308 -613)">
    <rect id="Rectangle_3426" data-name="Rectangle 3426" width="24" height="24" transform="translate(308 613)" fill="none"/>
    <g id="Group_4970" data-name="Group 4970" transform="translate(309.778 613)">
      <path id="Rectangle_3410" data-name="Rectangle 3410" d="M.7.7V4.916H3.979V.7H.7M0,0H4.682V5.618H0Z" transform="translate(8.032 12.246)" fill="#5b9f99"/>
      <path id="Rectangle_3412" data-name="Rectangle 3412" d="M2.341.7a1.641,1.641,0,0,0-1.622,1.4H3.963A1.641,1.641,0,0,0,2.341.7m0-.7A2.341,2.341,0,0,1,4.682,2.341v.468H0V2.341A2.341,2.341,0,0,1,2.341,0Z" transform="translate(8.032 5.691)" fill="#5b9f99"/>
      <path id="Rectangle_3411" data-name="Rectangle 3411" d="M.7.7V3.043H7.725V.7H.7M0,0H8.427V3.745H0Z" transform="translate(6.16 8.969)" fill="#5b9f99"/>
      <path id="Path_1928" data-name="Path 1928" d="M9718.774-285.336a.234.234,0,0,1-.231-.2.234.234,0,0,1,.2-.264,9.382,9.382,0,0,0,1.578-.383c1.207-.42,1.467-.885,1.473-1.2a.368.368,0,0,0-.1-.286c-.355-.347-1.595-.3-2.91-.242a29.112,29.112,0,0,1-3.285,0,2.672,2.672,0,0,1-1.2-.317.854.854,0,0,1-.445-.759c.022-.628.754-1.323,1.957-1.86a12.331,12.331,0,0,1,4.892-.92c2.2,0,3.671-.013,4.849-.022,1.918-.016,3.186-.026,5.881.022a4.641,4.641,0,0,1,2.343.57,1.644,1.644,0,0,1,.872,1.367c.01,1.21-1.581,2.565-5.094,2.68h-.008a.234.234,0,0,1-.234-.226.235.235,0,0,1,.227-.242,7.651,7.651,0,0,0,3.569-.821,1.779,1.779,0,0,0,1.072-1.388,1.2,1.2,0,0,0-.651-.973,4.187,4.187,0,0,0-2.1-.5c-2.69-.048-3.955-.038-5.869-.022-1.18.01-2.646.022-4.853.022a11.857,11.857,0,0,0-4.7.88c-1.142.51-1.667,1.1-1.679,1.449-.012.316.441.537,1.211.592a28.725,28.725,0,0,0,3.232-.005c1.6-.065,2.758-.113,3.256.375a.819.819,0,0,1,.245.629c-.012.677-.614,1.227-1.793,1.636a9.681,9.681,0,0,1-1.663.4Z" transform="translate(-9713.85 309.336)" fill="#5b9f99"/>
      <path id="Path_1929" data-name="Path 1929" d="M.234,3.673A.234.234,0,0,1,.1,3.245c.15-.1.3-.2.456-.3a.234.234,0,0,1,.255.393c-.15.1-.3.2-.451.3A.233.233,0,0,1,.234,3.673Zm1.245-.8a.234.234,0,0,1-.123-.433c.252-.155.516-.314.806-.485a.234.234,0,0,1,.238.4c-.287.169-.548.327-.8.48A.233.233,0,0,1,1.479,2.874ZM3.091,1.92a.234.234,0,0,1-.117-.437l.133-.077c.233-.134.453-.261.676-.392a.234.234,0,0,1,.236.4c-.224.131-.445.258-.679.393l-.133.077A.233.233,0,0,1,3.091,1.92ZM4.7.971A.234.234,0,0,1,4.582.537c.279-.171.535-.334.783-.5a.234.234,0,0,1,.258.39c-.252.167-.513.333-.8.507A.233.233,0,0,1,4.7.971Z" transform="translate(4.042 9.631) rotate(-109)" fill="#5b9f99"/>
      <path id="Path_1930" data-name="Path 1930" d="M.234,3.673A.234.234,0,0,1,.1,3.245c.15-.1.3-.2.456-.3a.234.234,0,0,1,.255.393c-.15.1-.3.2-.451.3A.233.233,0,0,1,.234,3.673Zm1.245-.8a.234.234,0,0,1-.123-.433c.252-.155.516-.314.806-.485a.234.234,0,0,1,.238.4c-.287.169-.548.327-.8.48A.233.233,0,0,1,1.479,2.874ZM3.091,1.92a.234.234,0,0,1-.117-.437l.133-.077c.233-.134.453-.261.676-.392a.234.234,0,0,1,.236.4c-.224.131-.445.258-.679.393l-.133.077A.233.233,0,0,1,3.091,1.92ZM4.7.971A.234.234,0,0,1,4.582.537c.279-.171.535-.334.783-.5a.234.234,0,0,1,.258.39c-.252.167-.513.333-.8.507A.233.233,0,0,1,4.7.971Z" transform="translate(12.431 4.96) rotate(-14)" fill="#5b9f99"/>
      <path id="Path_1931" data-name="Path 1931" d="M.234,3.986a.234.234,0,0,1-.1-.444l.232-.114a.234.234,0,1,1,.208.42l-.232.115A.233.233,0,0,1,.234,3.986ZM1.3,3.453A.234.234,0,0,1,1.2,3.01l.835-.422a.234.234,0,0,1,.212.418l-.837.422A.233.233,0,0,1,1.3,3.453Zm1.67-.847a.234.234,0,0,1-.107-.443L3.7,1.737a.234.234,0,1,1,.214.416l-.834.427A.233.233,0,0,1,2.975,2.606Zm1.666-.855a.234.234,0,0,1-.107-.442L5.366.88A.234.234,0,0,1,5.58,1.3l-.833.429A.233.233,0,0,1,4.641,1.751ZM6.306.894A.234.234,0,0,1,6.2.452L7.033.025a.234.234,0,1,1,.212.417L6.413.868A.233.233,0,0,1,6.306.894Z" transform="matrix(0.946, -0.326, 0.326, 0.946, 11.344, 3.195)" fill="#5b9f99"/>
      <path id="Path_1932" data-name="Path 1932" d="M.234,3.673A.234.234,0,0,1,.1,3.245c.15-.1.3-.2.456-.3a.234.234,0,0,1,.255.393c-.15.1-.3.2-.451.3A.233.233,0,0,1,.234,3.673Zm1.245-.8a.234.234,0,0,1-.123-.433c.252-.155.516-.314.806-.485a.234.234,0,0,1,.238.4c-.287.169-.548.327-.8.48A.233.233,0,0,1,1.479,2.874ZM3.091,1.92a.234.234,0,0,1-.117-.437l.133-.077c.233-.134.453-.261.676-.392a.234.234,0,0,1,.236.4c-.224.131-.445.258-.679.393l-.133.077A.233.233,0,0,1,3.091,1.92ZM4.7.971A.234.234,0,0,1,4.582.537c.279-.171.535-.334.783-.5a.234.234,0,0,1,.258.39c-.252.167-.513.333-.8.507A.233.233,0,0,1,4.7.971Z" transform="translate(5.608 6.324) rotate(-101)" fill="#5b9f99"/>
      <path id="Path_1934" data-name="Path 1934" d="M.234,3.673a.234.234,0,0,1-.118-.436l.469-.274a.234.234,0,1,1,.236.4l-.469.274A.233.233,0,0,1,.234,3.673Zm1.277-.748a.234.234,0,0,1-.119-.436L2.2,2.014a.234.234,0,1,1,.239.4l-.807.477A.233.233,0,0,1,1.511,2.925ZM3.12,1.968A.234.234,0,0,1,3,1.534c.281-.17.542-.33.8-.488a.234.234,0,1,1,.247.4c-.256.159-.518.319-.8.491A.233.233,0,0,1,3.12,1.968ZM4.71.979A.234.234,0,0,1,4.584.548C4.845.38,5.1.214,5.365.039a.234.234,0,1,1,.258.39C5.357.606,5.1.773,4.836.942A.233.233,0,0,1,4.71.979Z" transform="matrix(0.961, -0.276, 0.276, 0.961, 10.486, 2.266)" fill="#5b9f99"/>
      <path id="Path_1933" data-name="Path 1933" d="M.234,4.019a.234.234,0,0,1-.129-.43c.247-.163.5-.331.785-.513a.234.234,0,0,1,.255.393c-.28.182-.536.349-.783.511A.233.233,0,0,1,.234,4.019ZM1.805,3a.234.234,0,0,1-.127-.431l.789-.505a.234.234,0,1,1,.252.395l-.788.5A.233.233,0,0,1,1.805,3ZM3.383,1.991a.234.234,0,0,1-.126-.431l.789-.5A.234.234,0,0,1,4.3,1.45l-.789.5A.233.233,0,0,1,3.383,1.991ZM4.96.98A.234.234,0,0,1,4.832.55c.3-.191.552-.359.781-.511a.234.234,0,0,1,.258.39c-.231.153-.488.321-.785.513A.233.233,0,0,1,4.96.98Z" transform="matrix(-0.276, -0.961, 0.961, -0.276, 4.344, 7.673)" fill="#5b9f99"/>
    </g>
  </g>
</svg>
