<svg xmlns="http://www.w3.org/2000/svg" width="24" height="24" viewBox="0 0 24 24">
  <g id="guest_room" transform="translate(-62 -419)">
    <line id="Line_232" data-name="Line 232" y1="12" x2="12" transform="translate(70.5 425)" fill="none" stroke="#999" stroke-linecap="round" stroke-width="1"/>
    <path id="Rectangle_1191" data-name="Rectangle 1191" d="M3,0H7A0,0,0,0,1,7,0V14a0,0,0,0,1,0,0H3a3,3,0,0,1-3-3V3A3,3,0,0,1,3,0Z" transform="translate(73.107 425.121) rotate(45)" fill="#999"/>
    <rect id="Rectangle_1202" data-name="Rectangle 1202" width="24" height="24" transform="translate(62 419)" fill="none"/>
    <g id="Ellipse_627" data-name="Ellipse 627" transform="translate(66 436)" fill="#999" stroke="#fff" stroke-width="1">
      <circle cx="2.5" cy="2.5" r="2.5" stroke="none"/>
      <circle cx="2.5" cy="2.5" r="2" fill="none"/>
    </g>
    <line id="Line_234" data-name="Line 234" x1="2" y1="2" transform="translate(80.5 423)" fill="none" stroke="#999" stroke-linecap="round" stroke-width="1"/>
  </g>
</svg>
