<svg xmlns="http://www.w3.org/2000/svg" width="24" height="24" viewBox="0 0 24 24">
  <g id="Group_10949" data-name="Group 10949" transform="translate(-100 -213)">
    <rect id="Rectangle_3414" data-name="Rectangle 3414" width="24" height="24" transform="translate(100 213)" fill="none"/>
    <g id="Group_5463" data-name="Group 5463" transform="translate(100 217.863)">
      <g id="Group_4958" data-name="Group 4958">
        <path id="Path_1467" data-name="Path 1467" d="M6575.389,379.386c-.069,0-.137,0-.2-.009s-.113-.008-.165-.008l-.816,0q-6.274-.02-9.689-.02c-2.381,0-3.7.008-3.951.022a1.689,1.689,0,0,1-1.049-.216.91.91,0,0,1-.4-.613c-.028-.169-.168-1.16-.314-2.208-.129-.911-.261-1.854-.333-2.345a1.062,1.062,0,0,1,.235-.945,1.09,1.09,0,0,1,.854-.272h1.355v.5h-1.387l-.014,0a.47.47,0,0,0-.547.646c.072.493.2,1.436.333,2.348.147,1.045.286,2.032.313,2.2.049.295.387.445.927.412.291-.018,1.958-.024,4.07-.024,3.288,0,7.655.014,9.6.021l.815,0c.069,0,.136,0,.2.009a.625.625,0,0,0,.357-.033.858.858,0,0,0,.229-.566c.066-.436.17-1.245.27-2.027.137-1.071.267-2.083.328-2.357a.7.7,0,0,0-.094-.573.468.468,0,0,0-.386-.157h-1.447v-.5h1.447a.946.946,0,0,1,.776.344,1.184,1.184,0,0,1,.192.994c-.056.251-.19,1.3-.319,2.311-.1.785-.2,1.6-.271,2.04a1.226,1.226,0,0,1-.452.909A.827.827,0,0,1,6575.389,379.386Z" transform="translate(-6558.453 -365.676)" fill="#464a81"/>
        <path id="Path_1468" data-name="Path 1468" d="M6588,359.955a.187.187,0,0,1-.186-.171c-.093-1.018-.188-3.678-.188-4.109a1.107,1.107,0,0,1,.228-.727,1.164,1.164,0,0,1,.949-.365h4.7a1.756,1.756,0,0,1,.892.217.893.893,0,0,1,.459.8v2.61a.188.188,0,0,1-.375,0V355.6c0-.609-.812-.64-.975-.64h-4.7a.819.819,0,0,0-.66.229.752.752,0,0,0-.141.488c0,.427.095,3.066.187,4.076a.188.188,0,0,1-.17.2Z" transform="translate(-6585.379 -348.951)" fill="#464a81"/>
        <path id="Path_1469" data-name="Path 1469" d="M6682.11,358.8h-.009a.188.188,0,0,1-.179-.2c.049-1.061.157-3.66.176-4.128a.62.62,0,0,0-.173-.485,1.089,1.089,0,0,0-.821-.25c-.306.011-1.177,0-2.1-.006-1.174-.011-2.506-.024-2.744,0a.719.719,0,0,0-.635.744.188.188,0,0,1-.375,0,1.1,1.1,0,0,1,.967-1.116c.261-.031,1.547-.019,2.791-.007.918.009,1.786.017,2.083.006h.082a1.412,1.412,0,0,1,1.019.362,1,1,0,0,1,.282.765c-.02.468-.128,3.067-.176,4.129A.188.188,0,0,1,6682.11,358.8Z" transform="translate(-6666.153 -347.812)" fill="#464a81"/>
        <path id="Rectangle_2880" data-name="Rectangle 2880" d="M1.037.375a.663.663,0,1,0,0,1.325H5.78a.663.663,0,0,0,0-1.325H1.037m0-.375H5.78a1.037,1.037,0,1,1,0,2.075H1.037A1.037,1.037,0,1,1,1.037,0Z" transform="translate(2.309 10.179)" fill="#464a81"/>
        <path id="Rectangle_2881" data-name="Rectangle 2881" d="M1.037.375a.663.663,0,1,0,0,1.325H5.78a.663.663,0,0,0,0-1.325H1.037m0-.375H5.78a1.037,1.037,0,1,1,0,2.075H1.037A1.037,1.037,0,1,1,1.037,0Z" transform="translate(9.423 10.179)" fill="#464a81"/>
        <path id="Path_1470" data-name="Path 1470" d="M6580,454.854a.25.25,0,0,1-.217-.374l.833-1.462a.25.25,0,1,1,.434.248l-.833,1.462A.25.25,0,0,1,6580,454.854Z" transform="translate(-6578.098 -439.682)" fill="#464a81"/>
        <path id="Path_1471" data-name="Path 1471" d="M6760.547,454.873a.249.249,0,0,1-.221-.132l-.795-1.481a.25.25,0,0,1,.441-.236l.794,1.481a.25.25,0,0,1-.1.338A.245.245,0,0,1,6760.547,454.873Z" transform="translate(-6743.916 -439.682)" fill="#464a81"/>
        <path id="Path_1473" data-name="Path 1473" d="M6795.3,292.12h-.414V279.234a1.651,1.651,0,0,0-.391-1.093,1.557,1.557,0,0,0-1.041-.515,1.947,1.947,0,0,0-1.835.517,1.917,1.917,0,0,0-.353,1.09l-.414,0a2.033,2.033,0,0,1,2.642-2.023,1.964,1.964,0,0,1,1.8,2.021Z" transform="translate(-6772.831 -277.188)" fill="#464a81"/>
        <path id="Path_1474" data-name="Path 1474" d="M6818.078,467.543h3.106" transform="translate(-6797.392 -452.601)" fill="#464a81"/>
        <path id="Path_1474_-_Outline" data-name="Path 1474 - Outline" d="M6820.892,467.457h-3.106a.207.207,0,1,1,0-.414h3.106a.207.207,0,1,1,0,.414Z" transform="translate(-6797.098 -452.308)" fill="#464a81"/>
        <path id="Path_1483" data-name="Path 1483" d="M2,.414A1.612,1.612,0,0,0,.831.941a1.555,1.555,0,0,0-.381.7H.806c.374,0,.807,0,1.266,0s.94,0,1.355,0h.109A1.628,1.628,0,0,0,2,.414M2,0A2.06,2.06,0,0,1,4,2.065c-.84.008-2.242-.007-3.2-.007-.338,0-.62,0-.8.007A2.015,2.015,0,0,1,2,0Z" transform="translate(16.243 1.738)" fill="#464a81"/>
      </g>
    </g>
  </g>
</svg>
