<svg xmlns="http://www.w3.org/2000/svg" width="271.989" height="208.684" viewBox="0 0 271.989 208.684">
  <g id="Group_10990" data-name="Group 10990" transform="translate(0 -0.005)">
    <path id="Path_1963" data-name="Path 1963" d="M372.07,631.369a1.052,1.052,0,0,1-.763-1.824l.072-.287-.029-.069c-.969-2.31-7.151,4.13-7.418,6.3a8.36,8.36,0,0,0,.147,2.875,33.518,33.518,0,0,1-3.049-13.921,32.351,32.351,0,0,1,.2-3.609q.166-1.474.461-2.926a33.906,33.906,0,0,1,6.724-14.37c1.914.107,3.591-.185,3.753-3.894.029-.66.518-1.231.626-1.881-.183.024-.368.039-.551.051l-.174.009h-.021a1.043,1.043,0,0,1-.856-1.7l.237-.291c.12-.15.243-.3.362-.446a.53.53,0,0,0,.039-.045c.138-.171.276-.338.413-.509a3.015,3.015,0,0,0-.988-.955,3.475,3.475,0,0,0-4.283,1,5.448,5.448,0,0,0-.842,4.561,12.082,12.082,0,0,0,1.671,3.726c-.075.1-.153.189-.228.285a34.127,34.127,0,0,0-3.562,5.643c.283-2.21-3.177-10.192-4.515-11.883a2.912,2.912,0,0,0-5.186,1.43l-.008.075q.3.168.584.357a1.427,1.427,0,0,1-.576,2.6l-.029,0c-2.66,3.8,5.868,13.685,8,11.465a34.834,34.834,0,0,0-1.875,8.823,33.047,33.047,0,0,0,.024,5.334l-.009-.063c-.474-3.865-8.611-9.611-10.988-9.133-1.369.276-2.717.213-2.509,1.594l.01.066a9.6,9.6,0,0,1,1.075.518q.3.168.584.357a1.427,1.427,0,0,1-.576,2.6l-.029,0-.06.009c-1.211,4.167,7.77,10.891,13.229,8.752h0a34.826,34.826,0,0,0,2.339,6.829h8.356c.03-.093.057-.189.084-.282a9.493,9.493,0,0,1-2.312-.138c.62-.761,1.24-1.528,1.86-2.288a.533.533,0,0,0,.039-.045c.314-.389.632-.776.946-1.165h0a13.907,13.907,0,0,0-.408-3.543ZM362.5,612.546l0-.006,0,.012Zm-1.851,16.686-.072-.162c0-.117,0-.234,0-.353,0-.033-.006-.066-.006-.1.027.207.051.413.081.62Z" transform="translate(-313.128 -431.2)" fill="#6c63ff"/>
    <path id="Path_1964" data-name="Path 1964" d="M805.15,648.956l-.043-.293a36.1,36.1,0,0,1,8.553-29.032,34.945,34.945,0,0,1,6.607-5.757l.219-.147.128.377a1.915,1.915,0,0,0,3.717-.488l.169-2.211.261-.129a6.807,6.807,0,0,1,7.571,1.013,6.924,6.924,0,0,1,2.055,7.492c-.4,1.208-.778,2.463-1.145,3.676-1.255,4.148-2.553,8.437-4.915,12.008a21.547,21.547,0,0,1-16.147,9.49Z" transform="translate(-586.047 -441.368)" fill="#f2f2f2"/>
    <path id="Path_1965" data-name="Path 1965" d="M608.781,490.083a2.947,2.947,0,0,0,3.894,2.292l6.685,7.845,1.672-5.179-6.611-6.64a2.963,2.963,0,0,0-5.639,1.681Z" transform="translate(-469.214 -367.48)" fill="#9e616a"/>
    <path id="Path_1966" data-name="Path 1966" d="M642.9,484s3.384-5.62,6.561-4.018.732,7.161.732,7.161L635.32,504.405s-16.57-13.836-14.367-13.641,3.36-3.71,3.36-3.71l8.928,5.961.536-1.654.452.582,1.466-.881Z" transform="translate(-476.376 -363.358)" fill="#6c63ff"/>
    <path id="Path_1967" data-name="Path 1967" d="M686.823,207.284a15.57,15.57,0,0,1-4.163,10.622c-.2.222-.418.436-.636.643a236.278,236.278,0,0,0-25.372-17.034c.109-.276.225-.549.352-.817a15.637,15.637,0,0,1,29.818,6.586Z" transform="translate(-497.778 -191.641)" fill="#ff6584"/>
    <path id="Path_1968" data-name="Path 1968" d="M609.929,256.607l-.015.163q-15.427-1.063-30.85-2.129c-7.429-.512-15.116-1.093-21.681-4.61-2.492-1.333-4.919-3.113-7.745-3.237-3.506-.156-6.565,2.3-8.969,4.853-14.215,15.142-18.331,38.294-34.279,51.593A506.457,506.457,0,0,1,542.3,231.563c2.558-4.232,5.591-8.752,10.339-10.132,4.53-1.319,9.166.607,13.336,3.077.894.53,1.766,1.086,2.608,1.638q9.64,6.31,18.963,13.1Q599,247.581,609.929,256.607Z" transform="translate(-408.201 -209.141)" fill="#f2f2f2"/>
    <path id="Path_1969" data-name="Path 1969" d="M566.093,274.139A243.635,243.635,0,0,0,528.039,231.9q-6.163-5.417-12.689-10.433a236.285,236.285,0,0,0-25.372-17.034q-4.338-2.518-8.777-4.835c-2.3-1.2-4.748-2.289-7.4-2.118a9.846,9.846,0,0,0-5.111,1.965c-3.259,2.38-5.417,6.1-7.193,9.638-1.555,3.106-3,6.274-4.483,9.424-.628,1.341-1.257,2.677-1.907,4.007q-3.4,6.986-6.96,13.9-4.588,8.9-9.442,17.674-10.2,18.435-21.517,36.2-16.642,26.118-35.609,50.652c-1.551,2-2.191,2.467-3.764,4.454-.363.465-1.01-.189-.65-.65,13.118-16.58,24.54-32.245,36.056-49.98q13.024-20.059,24.616-41.007,3.722-6.719,7.287-13.521,5.771-11.013,11.142-22.233,1.417-2.953,2.8-5.929c2.939-6.3,7.218-15.657,15.483-15.53a15.693,15.693,0,0,1,6.815,2.111c2.169,1.115,4.3,2.3,6.423,3.5q1.275.719,2.539,1.46,5.008,2.91,9.867,6.063,8.108,5.259,15.788,11.145,3.645,2.8,7.182,5.718a244.685,244.685,0,0,1,39.63,41.527q2.087,2.774,4.087,5.609C567.227,274.161,566.431,274.618,566.093,274.139Z" transform="translate(-331.103 -194.558)" fill="#e4e4e4"/>
    <path id="Path_1970" data-name="Path 1970" d="M751.783,250.281c.48-.535.957-1.071,1.441-1.606,3.811-4.215,7.9-8.382,13.135-10.8a19.057,19.057,0,0,1,7.984-1.851,22.786,22.786,0,0,1,8.29,1.808c1.248.5,2.469,1.065,3.671,1.667,1.374.691,2.723,1.429,4.065,2.172q3.781,2.092,7.464,4.368,7.328,4.529,14.2,9.749,3.561,2.707,6.974,5.592,3.175,2.68,6.222,5.5c.434.4,1.083-.248.648-.649-.535-.5-1.077-.994-1.618-1.484q-2.294-2.074-4.662-4.068-4.318-3.643-8.859-7.005-7.062-5.231-14.61-9.752-3.772-2.258-7.647-4.325c-.78-.416-1.569-.823-2.368-1.208a37.743,37.743,0,0,0-5.628-2.291,20.023,20.023,0,0,0-8.5-.835,22.132,22.132,0,0,0-7.843,2.713c-5.139,2.872-9.125,7.314-13,11.649C750.743,250.07,751.388,250.721,751.783,250.281Z" transform="translate(-554.029 -217.563)" fill="#e4e4e4"/>
    <path id="Path_1971" data-name="Path 1971" d="M355.727,365.864l-12.314-4.5-6.114-2.236a62.527,62.527,0,0,0-6.036-2.079,9.523,9.523,0,0,0-5.464.07,12.593,12.593,0,0,0-4.262,2.642,34.586,34.586,0,0,0-3.5,3.733c-1.331,1.6-2.643,3.216-3.96,4.827q-8.156,9.974-16.2,20.035t-15.99,20.207q-7.961,10.171-15.812,20.427-.962,1.256-1.922,2.514c-.354.463-1.151.007-.792-.463q7.909-10.359,15.928-20.633,8.039-10.3,16.189-20.51t16.41-20.334q2.058-2.522,4.122-5.038c1.161-1.415,2.309-2.845,3.583-4.162,2.338-2.418,5.258-4.554,8.754-4.612a16.9,16.9,0,0,1,5.954,1.309c2.059.745,4.112,1.5,6.169,2.256l12.4,4.536,3.1,1.134c.55.2.312,1.088-.244.885Z" transform="translate(-263.27 -289.464)" fill="#e4e4e4"/>
    <path id="Path_1972" data-name="Path 1972" d="M774.62,252.035a19.881,19.881,0,0,1,20.023,1.432,285.586,285.586,0,0,0-32.491,7.583C766.583,258.453,770.051,254.383,774.62,252.035Z" transform="translate(-560.669 -226.417)" fill="#f2f2f2"/>
    <path id="Path_1973" data-name="Path 1973" d="M842.662,258.582l1.2.979c-.407-.343-.831-.664-1.266-.968Z" transform="translate(-608.627 -231.543)" fill="#f2f2f2"/>
    <path id="Path_1974" data-name="Path 1974" d="M342.1,375.57c1.212-1.476,2.523-3.021,4.336-3.62l1.693.067a192.013,192.013,0,0,1-51.143,58.468Z" transform="translate(-283.368 -299.126)" fill="#f2f2f2"/>
    <path id="Path_1975" data-name="Path 1975" d="M687.316,530.656l-11.4-5.028v-4.322l4.061-.023a3.016,3.016,0,0,0,2.845-2.063l2.853-5.328a3.017,3.017,0,0,0-2.862-3.971l-6.9,2.423v-4.022h8.659a3.017,3.017,0,0,0,2.94-2.341l1.965-8.547a3.017,3.017,0,0,0-2.94-3.692H675.92v-1.006a2.011,2.011,0,0,0-4.022,0v1.006H600.673v-1.006a2.011,2.011,0,1,0-4.022,0v1.006h-8.445a3.017,3.017,0,0,0-2.94,3.692l1.965,8.547a3.017,3.017,0,0,0,2.94,2.341h6.48v4.022l-4.719-2.423a3.017,3.017,0,0,0-2.871,3.942l2.912,5.806a3.016,3.016,0,0,0,2.888,2.091l1.79-.01v3.877l-9.217,5.028a3.017,3.017,0,0,0-3.017,3.017h0a3.017,3.017,0,0,0,3.017,3.017h9.217v39.084a2.011,2.011,0,0,0,4.022,0V536.689H671.9v39.488a2.011,2.011,0,1,0,4.022,0V536.689h11.4a3.017,3.017,0,0,0,3.017-3.017h0a3.017,3.017,0,0,0-3.017-3.017Zm-86.643-22.333H671.9v4.022H600.673Zm0,17.305v-3.9l71.225-.4v4.3Z" transform="translate(-454.715 -369.932)" fill="#ccc"/>
    <path id="Path_1976" data-name="Path 1976" d="M690.391,437.554a8.429,8.429,0,0,1,5.675-4.825,12.092,12.092,0,0,1,8.943,1.961c3.824,2.894,4.757,12.836,2.13,15.977-.523-.021-2.326-.037-2.855-.052l-.748-1.894V450.6c-4.128-.1-8.426-.036-12.727.027C690.425,448.4,689.507,439.694,690.391,437.554Z" transform="translate(-517.668 -335.223)" fill="#2f2e41"/>
    <circle id="Ellipse_1129" data-name="Ellipse 1129" cx="5.964" cy="5.964" r="5.964" transform="translate(172.508 101.119)" fill="#9e616a"/>
    <path id="Path_1977" data-name="Path 1977" d="M689.734,435.93a7.491,7.491,0,0,1,11.389,6.537,20.124,20.124,0,0,1-10.386.2l-.839-2.054-.495,2.055a2.523,2.523,0,0,1-3.252,0A7.648,7.648,0,0,1,689.734,435.93Z" transform="translate(-515.359 -336.614)" fill="#2f2e41"/>
    <path id="Path_1978" data-name="Path 1978" d="M728.248,435.463a5.366,5.366,0,0,0-2.24-2.263c-1-.4-2.419.079-2.555,1.149-.1.8.509,1.487.968,2.15s.758,1.663.158,2.2l-.338.174a3.374,3.374,0,0,0,2.741,1.308,2.43,2.43,0,0,0,2.238-1.882A4.179,4.179,0,0,0,728.248,435.463Z" transform="translate(-537.593 -335.554)" fill="#2f2e41"/>
    <path id="Path_1979" data-name="Path 1979" d="M377.475,475.007l-3.35-.975,2.166-13.385,4.944,1.439Z" transform="translate(-223.028 -274.603)" fill="#9e616a"/>
    <path id="Path_1980" data-name="Path 1980" d="M628.2,689.818l-2.377-.692.229-2.368-1.74,1.928-6.3-1.834a1.476,1.476,0,0,1-.054-2.818L624,682.022l.66-2.269,5.2,1.857Z" transform="translate(-474.108 -482.617)" fill="#2f2e41"/>
    <path id="Path_1981" data-name="Path 1981" d="M471.117,474.3l-3.319,1.074-5.722-12.293,4.9-1.585Z" transform="translate(-275.458 -275.109)" fill="#9e616a"/>
    <path id="Path_1982" data-name="Path 1982" d="M738.7,687.853l-2.355.762-1.14-2.088-.357,2.572L728.6,691.12a1.476,1.476,0,0,1-1.626-2.3l3.874-5.06-.727-2.248,5.349-1.384Z" transform="translate(-539.517 -482.839)" fill="#2f2e41"/>
    <path id="Path_1983" data-name="Path 1983" d="M660.438,567.238l-2.049,8.848,15.351,19.5,5.877-3.012c-4.58-10.2-4.984-11.414-9.883-15.814l.05-.076c3.521-5.316,7.325-10.413,7.839-16.769.014-.174-.773-6.532-.755-6.706.439-4.157-20.076-5.475-20.076-5.475A50.144,50.144,0,0,1,648.12,558.6L637.629,569l.283,28.65,4.936,1.2c3.63-6.915,5.395-15.024,5.9-23.937l9.119-6.117Z" transform="translate(-486.437 -403.918)" fill="#2f2e41"/>
    <path id="Path_1984" data-name="Path 1984" d="M726.118,563.02a2.722,2.722,0,0,1,.591-4.132l-.348-1.74-4.054-20.283,4.7,1.779,3.074,18.3.5,2.974a2.737,2.737,0,0,1-4.464,3.1Z" transform="translate(-536.916 -397.437)" fill="#9e616a"/>
    <path id="Path_1985" data-name="Path 1985" d="M715.042,484.359l3.08-2.087s2.626-.051,2.848,4.691.7,13.986.7,13.986l3.462,21.252-6.353,1.057-3.7-22.933-2.571-6.886Z" transform="translate(-531.077 -364.892)" fill="#6c63ff"/>
    <path id="Path_1986" data-name="Path 1986" d="M426.275,323.568l-.876,2.276.175,2.276,17.132,5.934-.85-9.961-1.926-2.276Z" transform="translate(-253.594 -191.842)" fill="#ffb6b6"/>
    <path id="Path_1987" data-name="Path 1987" d="M677.379,508.786l.558-5.578a1.112,1.112,0,0,1,1.005-.835c.232-2.657,1.21-14.121,1.269-14.621l0-.021.445-9.5a1.4,1.4,0,0,1,1.312-1.336l2.349-.154a.124.124,0,0,0,.12-.124,1.975,1.975,0,0,1,1.975-1.975h6.954a1.849,1.849,0,0,1,1.834,1.619.123.123,0,0,0,.125.11h0a3.3,3.3,0,0,1,3.323,2.74c.951,5.531,2.856,18.085,1.914,25.064-.328,2.43.379.505.5,2.538a1.5,1.5,0,0,1-.372,1.085,1.079,1.079,0,0,1,.649,1.371l.122-.03a1.116,1.116,0,0,1-1.354.809l-20.365-1.841C679.149,507.956,677.228,509.383,677.379,508.786Z" transform="translate(-510.128 -360.344)" fill="#6c63ff"/>
    <path id="Path_1988" data-name="Path 1988" d="M537.755,706.15a.479.479,0,0,1-.481.481l-25.456.012-6.349,0-4.188,0h-4.632l-2.528,0-7.019,0-110.442.057-.84,0-49.4.016H325.6l-42.051.016h-.816l-13.126,0a.481.481,0,0,1,0-.961l13.263,0h.816l42.039-.016h.816l49.018-.016h.836l41.768-.016h.549l67.62-.04,7.007,0,3.207,0,5.069,0h4.329l6.821,0,24.507-.016a.479.479,0,0,1,.481.481Z" transform="translate(-266.763 -498.066)" fill="#cacaca"/>
  </g>
</svg>
