<svg xmlns="http://www.w3.org/2000/svg" width="24" height="24" viewBox="0 0 24 24">
  <g id="Group_10941" data-name="Group 10941" transform="translate(-204 -431)">
    <rect id="Rectangle_3420" data-name="Rectangle 3420" width="24" height="24" transform="translate(204 431)" fill="none"/>
    <g id="Group_4964" data-name="Group 4964" transform="translate(204 431)">
      <path id="Path_1572" data-name="Path 1572" d="M10012.871-628a.371.371,0,0,1-.37-.371v-3.506a.371.371,0,0,1,.37-.371.371.371,0,0,1,.371.371v3.506A.371.371,0,0,1,10012.871-628Z" transform="translate(-10008.329 652.003)" fill="#4389a7"/>
      <path id="Path_1573" data-name="Path 1573" d="M10012.871-628.62a.371.371,0,0,1-.37-.371v-2.889a.371.371,0,0,1,.37-.371.371.371,0,0,1,.371.371v2.889A.371.371,0,0,1,10012.871-628.62Z" transform="translate(-10002.876 647.134)" fill="#4389a7"/>
      <path id="Path_1574" data-name="Path 1574" d="M10012.871-628.62a.371.371,0,0,1-.37-.371v-2.889a.371.371,0,0,1,.37-.371.371.371,0,0,1,.371.371v2.889A.371.371,0,0,1,10012.871-628.62Z" transform="translate(-9997.423 642.46)" fill="#4389a7"/>
      <path id="Path_1575" data-name="Path 1575" d="M10012.871-629.3a.371.371,0,0,1-.37-.371v-2.207a.371.371,0,0,1,.37-.371.371.371,0,0,1,.371.371v2.207A.371.371,0,0,1,10012.871-629.3Z" transform="translate(-9995.864 638.954)" fill="#4389a7"/>
      <path id="Path_1568" data-name="Path 1568" d="M10028.277-632.009h-20.157a.371.371,0,0,1-.37-.371.371.371,0,0,1,.37-.371h20.157a.371.371,0,0,1,.371.371A.371.371,0,0,1,10028.277-632.009Z" transform="translate(-10005.429 652.308)" fill="#4389a7"/>
      <path id="Path_1569" data-name="Path 1569" d="M10022.727-632.009h-14.606a.371.371,0,0,1-.37-.371.371.371,0,0,1,.37-.371h14.606a.371.371,0,0,1,.371.371A.371.371,0,0,1,10022.727-632.009Z" transform="translate(-9999.488 647.634)" fill="#4389a7"/>
      <path id="Path_1570" data-name="Path 1570" d="M10017.662-632.009h-9.542a.371.371,0,0,1-.37-.371.371.371,0,0,1,.37-.371h9.542a.37.37,0,0,1,.371.371A.37.37,0,0,1,10017.662-632.009Z" transform="translate(-9994.425 642.96)" fill="#4389a7"/>
      <path id="Path_1571" data-name="Path 1571" d="M10015.424-632.009h-7.3a.371.371,0,0,1-.37-.371.371.371,0,0,1,.37-.371h7.3a.37.37,0,0,1,.37.371A.37.37,0,0,1,10015.424-632.009Z" transform="translate(-9992.185 639.454)" fill="#4389a7"/>
      <path id="Path_1576" data-name="Path 1576" d="M10002.258-668.8a.256.256,0,0,1-.2-.091.258.258,0,0,1,.029-.364l15.841-13.438a.258.258,0,0,1,.363.03.259.259,0,0,1-.029.364l-15.841,13.438A.257.257,0,0,1,10002.258-668.8Z" transform="translate(-10002 682.75)" fill="#4389a7"/>
      <path id="Path_1577" data-name="Path 1577" d="M10014.57-656.939a3.328,3.328,0,0,1-.707-.075.257.257,0,0,1-.19-.311.257.257,0,0,1,.31-.191h0a2.089,2.089,0,0,0,1.5-.19,1,1,0,0,0,.32-.853c-.031-1.8,0-3.915,0-3.936a.259.259,0,0,1,.259-.254h0a.257.257,0,0,1,.254.262c0,.021-.031,2.127,0,3.919a1.5,1.5,0,0,1-.515,1.265A1.977,1.977,0,0,1,10014.57-656.939Z" transform="translate(-10009.121 670.54)" fill="#4389a7"/>
      <path id="Path_1578" data-name="Path 1578" d="M10014.57-656.939a3.328,3.328,0,0,1-.707-.075.257.257,0,0,1-.19-.311.257.257,0,0,1,.31-.191h0a2.089,2.089,0,0,0,1.5-.19,1,1,0,0,0,.32-.853c-.031-1.8,0-3.915,0-3.936a.259.259,0,0,1,.259-.254h0a.257.257,0,0,1,.254.262c0,.021-.031,2.127,0,3.919a1.5,1.5,0,0,1-.515,1.265A1.977,1.977,0,0,1,10014.57-656.939Z" transform="translate(-10003.668 665.866)" fill="#4389a7"/>
    </g>
  </g>
</svg>
