<svg width="16" height="18" viewBox="0 0 16 18" fill="none" xmlns="http://www.w3.org/2000/svg">
<path d="M8 3.11177C4.13401 3.11177 1 6.24578 1 10.1118C1 13.9778 4.13401 17.1118 8 17.1118C11.866 17.1118 15 13.9778 15 10.1118C15 7.73303 13.8135 5.63141 12 4.36646M5 0.888229L8.67423 3.00955L6.55291 6.68378M6 14.1118V8.11177M4.5 8.61177H6.5M11 11.1118C11 12.4925 10.625 13.6118 9.5 13.6118C8.375 13.6118 8 12.4925 8 11.1118C8 9.73106 8.375 8.61177 9.5 8.61177C10.625 8.61177 11 9.73106 11 11.1118Z" stroke="#1A1B1E"/>
</svg>
