<svg width="16" height="18" viewBox="0 0 16 18" fill="none" xmlns="http://www.w3.org/2000/svg">
<path d="M8 3.11177C11.866 3.11177 15 6.24578 15 10.1118C15 13.9778 11.866 17.1118 8 17.1118C4.13401 17.1118 1 13.9778 1 10.1118C1 7.73303 2.18652 5.63141 4 4.36646M11 0.888229L7.32577 3.00955L9.44709 6.68378M6 14.1118V8.11177M4.5 8.61177H6.5M11 11.1118C11 12.4925 10.625 13.6118 9.5 13.6118C8.375 13.6118 8 12.4925 8 11.1118C8 9.73106 8.375 8.61177 9.5 8.61177C10.625 8.61177 11 9.73106 11 11.1118Z" stroke="#1A1B1E"/>
</svg>
