<?xml version="1.0" encoding="UTF-8"?>
<svg width="24px" height="24px" viewBox="0 0 24 24" version="1.1" xmlns="http://www.w3.org/2000/svg">
    <g stroke="none" stroke-width="1" fill="none" fill-rule="evenodd">
        <path d="M19.8,2L20.8,3L21.8,2L23,3.2L22,4.2L23,5.2L21.8,6.4L20.8,5.4L19.8,6.4L18.6,5.2L19.6,4.2L18.6,3.2L19.8,2ZM17,6L14,3L11,6L6,6L6,21L18,21L18,6L17,6ZM8,8L8,19L16,19L16,8L8,8ZM10,10L14,10L14,12L10,12L10,10ZM10,14L14,14L14,16L10,16L10,14Z" fill="currentColor" fill-rule="nonzero"/>
    </g>
</svg> 