<svg xmlns="http://www.w3.org/2000/svg" width="16" height="16" viewBox="0 0 16 16">
  <g id="alexa" transform="translate(-104 -360)">
    <rect id="Rectangle_2017" data-name="Rectangle 2017" width="16" height="16" transform="translate(104 360)" fill="none"/>
    <g id="Group_3317" data-name="Group 3317">
      <path id="Subtraction_117" data-name="Subtraction 117" d="M-798-4127a7.008,7.008,0,0,1-7-7,7.008,7.008,0,0,1,7-7,7.008,7.008,0,0,1,7,7A7.007,7.007,0,0,1-798-4127Zm0-12a5.006,5.006,0,0,0-5,5,4.9,4.9,0,0,0,3.054,4.607c.46.167.561.836.3,1.99a.6.6,0,0,0-.02.1c4.117-.6,6.666-3.945,6.666-6.7A5.005,5.005,0,0,0-798-4139Z" transform="translate(910 4502)" fill="#666"/>
    </g>
  </g>
</svg>
