<svg xmlns="http://www.w3.org/2000/svg" width="16" height="16" viewBox="0 0 16 16">
  <g id="android" transform="translate(-104 -360)">
    <rect id="Rectangle_2018" data-name="Rectangle 2018" width="16" height="16" transform="translate(104 360)" fill="none"/>
    <path id="Subtraction_118" data-name="Subtraction 118" d="M-786-4197h-12v-.007a6.365,6.365,0,0,1,.946-2.493A5.653,5.653,0,0,1-792-4202a5.653,5.653,0,0,1,5.055,2.5A6.326,6.326,0,0,1-786-4197Zm-3.75-3a.751.751,0,0,0-.751.75.751.751,0,0,0,.751.75.751.751,0,0,0,.75-.75A.751.751,0,0,0-789.75-4200Zm-4.5,0a.751.751,0,0,0-.75.75.751.751,0,0,0,.75.75.751.751,0,0,0,.751-.75A.751.751,0,0,0-794.25-4200Z" transform="translate(904 4568)" fill="#666"/>
    <line id="Line_570" data-name="Line 570" y1="2" x2="2" transform="translate(114.5 364.5)" fill="none" stroke="#666" stroke-linecap="round" stroke-width="1"/>
    <line id="Line_571" data-name="Line 571" x1="2" y1="2" transform="translate(107.5 364.5)" fill="none" stroke="#666" stroke-linecap="round" stroke-width="1"/>
  </g>
</svg>
