<svg xmlns="http://www.w3.org/2000/svg" width="16" height="16" viewBox="0 0 16 16">
  <g id="curtain" transform="translate(-32 -421)">
    <rect id="Rectangle_2001" data-name="Rectangle 2001" width="16" height="16" transform="translate(32 421)" fill="none"/>
    <g id="Group_3305" data-name="Group 3305" transform="translate(-7.999 -15)">
      <g id="Path_854" data-name="Path 854" transform="translate(-1259.203 -4184.458)" fill="none" stroke-linecap="round" stroke-linejoin="round">
        <path d="M1301.2,4622.458v12h3.279a5.459,5.459,0,0,0-2.443-5.275c3.317-1.927,3.163-6.725,3.163-6.725Z" stroke="none"/>
        <path d="M 1302.202514648438 4623.45849609375 L 1302.202514648438 4627.83740234375 C 1303.593872070312 4626.60986328125 1304.0185546875 4624.6337890625 1304.147216796875 4623.45849609375 L 1302.202514648438 4623.45849609375 M 1302.202514648438 4630.548828125 L 1302.202514648438 4633.45849609375 L 1303.509887695312 4633.45849609375 C 1303.45703125 4632.6640625 1303.195068359375 4631.46923828125 1302.202514648438 4630.548828125 M 1301.202514648438 4622.45849609375 L 1305.201416015625 4622.45849609375 C 1305.201416015625 4622.45849609375 1305.355834960938 4627.255859375 1302.03857421875 4629.18310546875 C 1305.015869140625 4630.9775390625 1304.481079101562 4634.45849609375 1304.481079101562 4634.45849609375 L 1301.202514648438 4634.45849609375 L 1301.202514648438 4622.45849609375 Z" stroke="none" fill="#707070"/>
      </g>
      <g id="Path_855" data-name="Path 855" transform="translate(-1251.203 -4184.458)" fill="none" stroke-linecap="round" stroke-linejoin="round">
        <path d="M1305.2,4622.458v12h-3.278a5.458,5.458,0,0,1,2.442-5.275c-3.317-1.927-3.163-6.725-3.163-6.725Z" stroke="none"/>
        <path d="M 1302.2568359375 4623.45849609375 C 1302.299438476562 4623.85107421875 1302.375 4624.3330078125 1302.5087890625 4624.84521484375 C 1302.848510742188 4626.146484375 1303.416748046875 4627.14990234375 1304.202514648438 4627.83935546875 L 1304.202514648438 4623.45849609375 L 1302.2568359375 4623.45849609375 M 1304.202514648438 4630.54931640625 C 1303.2099609375 4631.46923828125 1302.948120117188 4632.6640625 1302.895263671875 4633.45849609375 L 1304.202514648438 4633.45849609375 L 1304.202514648438 4630.54931640625 M 1301.203735351562 4622.45849609375 L 1305.202514648438 4622.45849609375 L 1305.202514648438 4634.45849609375 L 1301.924072265625 4634.45849609375 C 1301.924072265625 4634.45849609375 1301.38916015625 4630.9775390625 1304.366455078125 4629.18310546875 C 1301.04931640625 4627.255859375 1301.203735351562 4622.45849609375 1301.203735351562 4622.45849609375 Z" stroke="none" fill="#707070"/>
      </g>
    </g>
  </g>
</svg>
