<svg xmlns="http://www.w3.org/2000/svg" width="16" height="16" viewBox="0 0 16 16">
  <g id="google_home" transform="translate(-104 -360)">
    <rect id="Rectangle_2014" data-name="Rectangle 2014" width="16" height="16" transform="translate(104 360)" fill="none"/>
    <g id="Path_864" data-name="Path 864" transform="translate(107 369)" fill="none" stroke-linecap="round" stroke-linejoin="round">
      <path d="M0-.714,5-6,10-.714V4H0Z" stroke="none"/>
      <path d="M 10 4 L 10 -0.7142900228500366 L 5 -6 L 0 -0.7142900228500366 L 0 4 L 10 4 M 10 5 L 0 5 C -0.5522800087928772 5 -1 4.552279949188232 -1 4 L -1 -0.7142900228500366 C -1 -0.9699000120162964 -0.9021199941635132 -1.215800046920776 -0.7264699935913086 -1.401489973068237 L 4.273530006408691 -6.68720006942749 C 4.462409973144531 -6.88686990737915 4.725150108337402 -7 5 -7 C 5.274849891662598 -7 5.537590026855469 -6.88686990737915 5.726469993591309 -6.68720006942749 L 10.72646999359131 -1.401489973068237 C 10.90211963653564 -1.215800046920776 11 -0.9699000120162964 11 -0.7142900228500366 L 11 4 C 11 4.552279949188232 10.55228042602539 5 10 5 Z" stroke="none" fill="#707070"/>
    </g>
  </g>
</svg>
