<svg fill="none" height="27" viewBox="0 0 27 27" width="27" xmlns="http://www.w3.org/2000/svg"><path d="m2.67041 8.01124c0-.70824.28135-1.38747.78215-1.88827s1.18003-.78215 1.88827-.78215h16.02257c.7082 0 1.3874.28135 1.8882.78215s.7822 1.18003.7822 1.88827v9.34646c0 .7083-.2814 1.3875-.7822 1.8883s-1.18.7821-1.8882.7821h-16.02257c-.70824 0-1.38747-.2813-1.88827-.7821s-.78215-1.18-.78215-1.8883zm2.67042-1.33521c-.35412 0-.69373.14068-.94413.39108s-.39108.59001-.39108.94413v9.34646c0 .3541.14068.6938.39108.9442s.59001.391.94413.391h16.02257c.3541 0 .6937-.1406.9441-.391s.3911-.5901.3911-.9442v-9.34646c0-.35412-.1407-.69373-.3911-.94413s-.59-.39108-.9441-.39108zm1.33521 15.35497c0-.1771.07034-.3469.19554-.4721s.29501-.1955.47207-.1955h12.01695c.177 0 .3468.0703.472.1955s.1956.295.1956.4721c0 .177-.0704.3468-.1956.472s-.295.1956-.472.1956h-12.01695c-.17706 0-.34687-.0704-.47207-.1956s-.19554-.295-.19554-.472z" fill="#000"/></svg>