<svg width="16" height="16" viewBox="0 0 16 16" fill="none" xmlns="http://www.w3.org/2000/svg">
<path d="M4.5 6.18199L5.56066 5.12133M5.56066 5.12133L6.62132 4.06067M5.56066 5.12133L6.62132 6.18199M5.56066 5.12133L4.5 4.06067M4.5 11.182L5.56066 10.1213M5.56066 10.1213L6.62132 9.06067M5.56066 10.1213L6.62132 11.182M5.56066 10.1213L4.5 9.06067M9.5 6.18199L10.5607 5.12133M10.5607 5.12133L11.6213 4.06067M10.5607 5.12133L11.6213 6.18199M10.5607 5.12133L9.5 4.06067M9.5 11.182L10.5607 10.1213M10.5607 10.1213L11.6213 9.06067M10.5607 10.1213L11.6213 11.182M10.5607 10.1213L9.5 9.06067M3 14H13C13.5523 14 14 13.5523 14 13V3C14 2.44772 13.5523 2 13 2H3C2.44772 2 2 2.44772 2 3V13C2 13.5523 2.44772 14 3 14Z" stroke="black"/>
</svg>
