<svg xmlns="http://www.w3.org/2000/svg" width="16" height="16" viewBox="0 0 16 16">
  <g id="sceneswitch_wizard" transform="translate(-104 -360)">
    <rect id="Rectangle_2016" data-name="Rectangle 2016" width="16" height="16" transform="translate(104 360)" fill="none"/>
    <g id="Group_1376" data-name="Group 1376" transform="translate(-655 245)">
      <g id="Rectangle_722" data-name="Rectangle 722" transform="translate(761 117)" fill="none" stroke="#666" stroke-width="1">
        <rect width="12" height="12" rx="3" stroke="none"/>
        <rect x="0.5" y="0.5" width="11" height="11" rx="2.5" fill="none"/>
      </g>
      <g id="Path_847" data-name="Path 847" transform="translate(761 113.463)" fill="#666">
        <path d="M 9.600000381469727 15.03730297088623 L 2.400000095367432 15.03730297088623 C 1.435019731521606 15.03730297088623 0.6357426047325134 14.31414604187012 0.515597939491272 13.3813304901123 C 0.9845750331878662 13.04588317871094 2.158442974090576 12.22652626037598 3.535860061645508 11.41668319702148 C 5.842959880828857 10.06024265289307 7.662990093231201 9.343262672424316 8.799180030822754 9.343262672424316 C 9.812040328979492 9.343262672424316 10.56987953186035 9.952532768249512 11.05165004730225 11.15414237976074 C 11.42447757720947 12.08401966094971 11.49310207366943 13.03946781158447 11.4999532699585 13.15060710906982 C 11.49281597137451 14.19220447540283 10.64324760437012 15.03730297088623 9.600000381469727 15.03730297088623 Z" stroke="none"/>
        <path d="M 9.600000381469727 14.53730297088623 C 10.36310195922852 14.53730297088623 10.98556900024414 13.92354106903076 10.99975299835205 13.16376686096191 C 10.98929500579834 13.01394653320312 10.91620445251465 12.14941120147705 10.57987022399902 11.32114315032959 C 10.04195022583008 9.996462821960449 9.30597972869873 9.843262672424316 8.799180030822754 9.843262672424316 C 8.202139854431152 9.843262672424316 6.758369922637939 10.10308265686035 3.796960115432739 11.84319305419922 C 2.648671388626099 12.51792049407959 1.642359852790833 13.20032501220703 1.077286839485168 13.59633922576904 C 1.267733573913574 14.14351940155029 1.788755059242249 14.53730297088623 2.400000095367432 14.53730297088623 L 9.600000381469727 14.53730297088623 M 9.600000381469727 15.53730297088623 L 2.400000095367432 15.53730297088623 C 1.074519991874695 15.53730297088623 -8.881784197001252e-16 14.46278285980225 -8.881784197001252e-16 13.13730239868164 C -8.881784197001252e-16 13.13730239868164 5.799180030822754 8.843262672424316 8.799180030822754 8.843262672424316 C 11.79918003082275 8.843262672424316 12 13.13730239868164 12 13.13730239868164 C 12 14.46278285980225 10.92547988891602 15.53730297088623 9.600000381469727 15.53730297088623 Z" stroke="none" fill="#666"/>
      </g>
      <circle id="Ellipse_47" data-name="Ellipse 47" cx="1.2" cy="1.2" r="1.2" transform="translate(762.846 118.846)" fill="#666"/>
    </g>
  </g>
</svg>
