<svg xmlns="http://www.w3.org/2000/svg" width="24" height="24" viewBox="0 0 24 24">
  <g id="appliances" transform="translate(-156.5 -190)">
    <g id="Group_1324" data-name="Group 1324" transform="translate(-11 -2)">
      <g id="Subtraction_71" data-name="Subtraction 71" transform="translate(172.5 209)" fill="none">
        <path d="M10,5H4A4,4,0,0,1,0,1V0H14V1A4,4,0,0,1,10,5ZM7,1A1.5,1.5,0,1,0,8.5,2.5,1.5,1.5,0,0,0,7,1Z" stroke="none"/>
        <path d="M 10.00080013275146 4.999500274658203 L 4.000500202178955 4.999500274658203 C 1.794620275497437 4.999500274658203 2.716064386731887e-07 3.205290079116821 2.716064386731887e-07 0.9999001622200012 L 2.716064386731887e-07 1.373290956507844e-07 L 14.00040054321289 1.373290956507844e-07 L 14.00040054321289 0.9999001622200012 C 14.00040054321289 3.205290079116821 12.20619010925293 4.999500274658203 10.00080013275146 4.999500274658203 Z M 7.000200271606445 0.9999001622200012 C 6.172930240631104 0.9999001622200012 5.499900341033936 1.672930121421814 5.499900341033936 2.500200033187866 C 5.499900341033936 3.327470064163208 6.172930240631104 4.000500202178955 7.000200271606445 4.000500202178955 C 7.826970100402832 4.000500202178955 8.499600410461426 3.327470064163208 8.499600410461426 2.500200033187866 C 8.499600410461426 1.672930121421814 7.826970100402832 0.9999001622200012 7.000200271606445 0.9999001622200012 Z" stroke="none" fill="#ccc"/>
      </g>
      <path id="Path_121" data-name="Path 121" d="M12,17.7V5.594A2.44,2.44,0,0,0,9.75,3H2.25A2.44,2.44,0,0,0,0,5.594V17.7" transform="translate(173.5 192)" fill="none" stroke="#ccc" stroke-linejoin="round" stroke-width="2"/>
    </g>
    <rect id="Rectangle_1010" data-name="Rectangle 1010" width="24" height="24" transform="translate(156.5 190)" fill="none" opacity="0"/>
  </g>
</svg>
