<svg xmlns="http://www.w3.org/2000/svg" width="24" height="24" viewBox="0 0 24 24">
  <g id="lights" transform="translate(-410 -252)">
    <g id="Group_1325" data-name="Group 1325" transform="translate(4 -1)">
      <g id="Path_254" data-name="Path 254" transform="translate(411.009 255)" fill="none">
        <path d="M7,0a7.082,7.082,0,0,1,7,7.164c0,3.147-1.379,3.8-3.988,8.836H3.724C2.277,11.788-.194,10.309,0,7.164A7.082,7.082,0,0,1,7,0Z" stroke="none"/>
        <path d="M 6.995003700256348 1 C 3.68873405456543 1 0.9988842010498047 3.765310287475586 0.9988842010498047 7.164340019226074 L 0.9970035552978516 7.225589752197266 C 0.9050436019897461 8.724120140075684 1.560673713684082 9.789569854736328 2.468103408813477 11.26420974731445 C 3.106161117553711 12.30109405517578 3.818813323974609 13.45918560028076 4.421604156494141 15 L 9.398928642272949 15 C 10.16486644744873 13.56400203704834 10.81660270690918 12.50578212738037 11.35159397125244 11.63712978363037 C 12.51116371154785 9.754369735717773 12.99112415313721 8.975080490112305 12.99112415313721 7.164340019226074 C 12.99112415313721 3.765310287475586 10.30127334594727 1 6.995003700256348 1 M 6.995003700256348 0 C 10.85886383056641 0 13.99112415313721 3.207579612731934 13.99112415313721 7.164340019226074 C 13.99112415313721 10.31103992462158 12.61230373382568 10.9678201675415 10.00286388397217 16 L 3.72369384765625 16 C 2.2767333984375 11.78796005249023 -0.1941261291503906 10.30945014953613 -0.001115798950195312 7.164340019226074 C -0.001115798950195312 3.207579612731934 3.13115406036377 0 6.995003700256348 0 Z" stroke="none" fill="#4e76aa"/>
      </g>
      <path id="Rectangle_1269" data-name="Rectangle 1269" d="M0,0H6A0,0,0,0,1,6,0V0A3,3,0,0,1,3,3H3A3,3,0,0,1,0,0V0A0,0,0,0,1,0,0Z" transform="translate(415 272)" fill="#4e76aa"/>
    </g>
    <rect id="Rectangle_1011" data-name="Rectangle 1011" width="24" height="24" transform="translate(410 252)" fill="none"/>
  </g>
</svg>
