<svg xmlns="http://www.w3.org/2000/svg" width="24" height="24" viewBox="0 0 24 24">
  <g id="scene_list" transform="translate(-1065 -104)">
    <rect id="boundingbox" width="24" height="24" transform="translate(1065 104)" fill="none"/>
    <g id="Group_1376" data-name="Group 1376" transform="translate(307 -10)">
      <g id="Rectangle_722" data-name="Rectangle 722" transform="translate(761 117)" fill="none" stroke="#fff" stroke-width="1">
        <rect width="18" height="18" rx="4" stroke="none"/>
        <rect x="0.5" y="0.5" width="17" height="17" rx="3.5" fill="none"/>
      </g>
      <g id="Path_847" data-name="Path 847" transform="translate(761 116.116)" fill="#fff">
        <path d="M 14.39999961853027 18.38432502746582 L 3.599999904632568 18.38432502746582 C 1.974009990692139 18.38432502746582 0.6363964080810547 17.12603187561035 0.5098000764846802 15.53203392028809 C 1.859274744987488 14.56105041503906 9.294220924377441 9.343264579772949 13.19876956939697 9.343264579772949 C 14.83341026306152 9.343264579772949 16.04966926574707 10.31354427337646 16.81376075744629 12.22715473175049 C 17.39238166809082 13.67625999450684 17.49177742004395 15.15790271759033 17.49997138977051 15.29748916625977 C 17.49286651611328 17.00082015991211 16.1049690246582 18.38432502746582 14.39999961853027 18.38432502746582 Z" stroke="none"/>
        <path d="M 14.39999961853027 17.88432502746582 C 15.82480239868164 17.88432502746582 16.9856071472168 16.73241806030273 16.99986457824707 15.3109245300293 C 16.98767471313477 15.12184047698975 16.88197135925293 13.73523139953613 16.34137916564941 12.39254474639893 C 16.02667045593262 11.61086463928223 15.62882995605469 10.99944400787354 15.15890979766846 10.57525444030762 C 14.6132698059082 10.08270454406738 13.97210025787354 9.843264579772949 13.19876956939697 9.843264579772949 C 9.978195190429688 9.843264579772949 3.71864128112793 13.84666156768799 1.043906569480896 15.76160907745361 C 1.268692493438721 16.96805763244629 2.329376935958862 17.88432502746582 3.599999904632568 17.88432502746582 L 14.39999961853027 17.88432502746582 M 14.39999961853027 18.88432502746582 L 3.599999904632568 18.88432502746582 C 1.611780047416687 18.88432502746582 0 17.27255439758301 0 15.28432464599609 C 0 15.28432464599609 8.698769569396973 8.843264579772949 13.19876956939697 8.843264579772949 C 17.69877052307129 8.843264579772949 18 15.28432464599609 18 15.28432464599609 C 18 17.27255439758301 16.38822937011719 18.88432502746582 14.39999961853027 18.88432502746582 Z" stroke="none" fill="#fff"/>
      </g>
      <circle id="Ellipse_47" data-name="Ellipse 47" cx="1.8" cy="1.8" r="1.8" transform="translate(763.769 119.769)" fill="#fff"/>
    </g>
  </g>
</svg>
