<svg xmlns="http://www.w3.org/2000/svg" width="24" height="24" viewBox="0 0 24 24">
  <g id="security" transform="translate(-153 -186)">
    <rect id="Rectangle_1005" data-name="Rectangle 1005" width="24" height="24" transform="translate(153 186)" fill="none" opacity="0"/>
    <g id="Group_1319" data-name="Group 1319" transform="translate(-15 -2)">
      <g id="Rectangle_414" data-name="Rectangle 414" transform="translate(171 196)" fill="none" stroke="#ccc" stroke-width="2">
        <rect width="18" height="14" rx="4" stroke="none"/>
        <rect x="1" y="1" width="16" height="12" rx="3" fill="none"/>
      </g>
      <g id="Rectangle_415" data-name="Rectangle 415" transform="translate(174 190)" fill="none" stroke="#ccc" stroke-width="2">
        <path d="M6,0H6a6,6,0,0,1,6,6V8a0,0,0,0,1,0,0H0A0,0,0,0,1,0,8V6A6,6,0,0,1,6,0Z" stroke="none"/>
        <path d="M6,1H6a5,5,0,0,1,5,5v.167A.833.833,0,0,1,10.167,7H1.833A.833.833,0,0,1,1,6.167V6A5,5,0,0,1,6,1Z" fill="none"/>
      </g>
      <g id="Ellipse_194" data-name="Ellipse 194" transform="translate(177 199)" fill="none" stroke="#ccc" stroke-width="2">
        <circle cx="3" cy="3" r="3" stroke="none"/>
        <circle cx="3" cy="3" r="2" fill="none"/>
      </g>
      <line id="Line_175" data-name="Line 175" y2="1.5" transform="translate(180 204.5)" fill="none" stroke="#ccc" stroke-linecap="round" stroke-width="2"/>
    </g>
  </g>
</svg>
