<svg width="24" height="24" viewBox="0 0 24 24" fill="none" xmlns="http://www.w3.org/2000/svg">
<path d="M5 15.0018V22.0018M7.5 17.0018L7.5 22.0018M7.5 14.8018V14.9018M9.5 15.5018L11.5 21.5018H12L14 15.5018M15.5 18.5018H19.5C19.5 18.5018 19.5 16.0018 17.4998 16.0018C15.5 16.0018 15.5 18.0018 15.5 18.5018ZM15.5 18.5018C15.5 19.0018 15.5 21.5018 17.5 21.5018C19.5 21.5018 19.5 20.0018 19.5 20.0018M8.5 3.00182L8.5 11.0018C8.5 11.8259 9.44076 12.2962 10.1 11.8018L15.4333 7.80182C15.9667 7.40182 15.9667 6.60182 15.4333 6.20182L10.1 2.20182C9.44076 1.70739 8.5 2.17777 8.5 3.00182Z" stroke="#1A1B1E" stroke-linecap="round"/>
</svg>
