<svg width="19" height="18" viewBox="0 0 19 18" fill="none" xmlns="http://www.w3.org/2000/svg">
<path d="M8.96 8.66051V11.3333M8.96 8.66051C8.25813 8.61854 7.58341 8.36295 7.02589 7.92494L5 6.33333M8.96 8.66051C9.02846 8.66461 9.09717 8.66667 9.16606 8.66667C10.0906 8.66667 10.9773 9.03765 11.631 9.698L13.25 11.3333M8.96 11.3333C9.95 12.6667 10.61 13.6667 12.26 15M8.96 11.3333C8.96 11.3333 6.98 12.3333 5.99 15M12.26 5C12.26 6.10457 11.3735 7 10.28 7C9.18648 7 8.3 6.10457 8.3 5C8.3 3.89543 9.18648 3 10.28 3C11.3735 3 12.26 3.89543 12.26 5Z" stroke="#1A1B1E" stroke-linecap="round"/>
</svg>
