<svg width="19" height="18" viewBox="0 0 19 18" fill="none" xmlns="http://www.w3.org/2000/svg">
<path d="M11.75 12.75H15.5L14.4463 11.6963C14.1605 11.4105 14 11.023 14 10.6188V8.25C14 6.29067 12.7478 4.62382 11 4.00606V3.75C11 2.92157 10.3284 2.25 9.5 2.25C8.67157 2.25 8 2.92157 8 3.75V4.00606C6.25221 4.62382 5 6.29067 5 8.25V10.6188C5 11.023 4.83946 11.4105 4.5537 11.6963L3.5 12.75H7.25M11.75 12.75V13.5C11.75 14.7426 10.7426 15.75 9.5 15.75C8.25736 15.75 7.25 14.7426 7.25 13.5V12.75M11.75 12.75H7.25" stroke="#1A1B1E" stroke-linecap="round" stroke-linejoin="round"/>
</svg>
