<svg width="25" height="25" viewBox="0 0 25 25" fill="none" xmlns="http://www.w3.org/2000/svg">
<path d="M9.18387 13.6505C9.38616 13.2467 9.5 12.791 9.5 12.3086C9.5 11.8262 9.38616 11.3704 9.18387 10.9667M9.18387 13.6505C8.69134 14.6337 7.67449 15.3086 6.5 15.3086C4.84315 15.3086 3.5 13.9654 3.5 12.3086C3.5 10.6517 4.84315 9.30859 6.5 9.30859C7.67449 9.30859 8.69134 9.98351 9.18387 10.9667M9.18387 13.6505L15.8161 16.9667M9.18387 10.9667L15.8161 7.65053M15.8161 7.65053C16.3087 8.63368 17.3255 9.30859 18.5 9.30859C20.1569 9.30859 21.5 7.96545 21.5 6.30859C21.5 4.65174 20.1569 3.30859 18.5 3.30859C16.8431 3.30859 15.5 4.65174 15.5 6.30859C15.5 6.79096 15.6138 7.24674 15.8161 7.65053ZM15.8161 16.9667C15.6138 17.3704 15.5 17.8262 15.5 18.3086C15.5 19.9654 16.8431 21.3086 18.5 21.3086C20.1569 21.3086 21.5 19.9654 21.5 18.3086C21.5 16.6517 20.1569 15.3086 18.5 15.3086C17.3255 15.3086 16.3087 15.9835 15.8161 16.9667Z" stroke="#1A1B1E" stroke-linecap="round" stroke-linejoin="round"/>
</svg>
