<svg width="19" height="18" viewBox="0 0 19 18" fill="none" xmlns="http://www.w3.org/2000/svg">
<path d="M2.375 9C2.375 8.17157 3.04657 7.5 3.875 7.5H15.125C15.9534 7.5 16.625 8.17157 16.625 9V10.5C16.625 11.3284 15.9534 12 15.125 12H3.875C3.04657 12 2.375 11.3284 2.375 10.5V9Z" stroke="#1A1B1E"/>
<path d="M5.75 9.75C5.75 10.1642 5.41421 10.5 5 10.5C4.58579 10.5 4.25 10.1642 4.25 9.75C4.25 9.33579 4.58579 9 5 9C5.41421 9 5.75 9.33579 5.75 9.75Z" stroke="#1A1B1E"/>
<path d="M14.75 9.75C14.75 10.1642 14.4142 10.5 14 10.5C13.5858 10.5 13.25 10.1642 13.25 9.75C13.25 9.33579 13.5858 9 14 9C14.4142 9 14.75 9.33579 14.75 9.75Z" stroke="#1A1B1E"/>
<path d="M5.33541 3.82918C5.5895 3.321 6.10889 3 6.67705 3H12.3229C12.8911 3 13.4105 3.321 13.6646 3.82918L15.5 7.5H3.5L5.33541 3.82918Z" stroke="#1A1B1E"/>
<path d="M3.5 12H5V13.5C5 13.9142 4.66421 14.25 4.25 14.25C3.83579 14.25 3.5 13.9142 3.5 13.5V12Z" stroke="#1A1B1E"/>
<path d="M14 12H15.5V13.5C15.5 13.9142 15.1642 14.25 14.75 14.25C14.3358 14.25 14 13.9142 14 13.5V12Z" stroke="#1A1B1E"/>
</svg>
