<svg width="24" height="25" viewBox="0 0 24 25" fill="none" xmlns="http://www.w3.org/2000/svg">
<path d="M2 8.88281H7M3 11.8828H7M5 14.8828H7M13.5002 15.3828H16.5002C18.9855 15.3828 21.0002 13.3681 21.0002 10.8828C21.0002 8.39753 18.9855 6.38281 16.5002 6.38281H13.5002C11.015 6.38281 9.00024 8.39753 9.00024 10.8828C9.00024 12.2156 9.00024 18.3828 9.00024 18.3828C9.00024 18.3828 12.3477 15.3828 13.5002 15.3828ZM12.5 10.8828C12.5 11.159 12.2761 11.3828 12 11.3828C11.7239 11.3828 11.5 11.159 11.5 10.8828C11.5 10.6067 11.7239 10.3828 12 10.3828C12.2761 10.3828 12.5 10.6067 12.5 10.8828ZM15.5 10.8828C15.5 11.159 15.2761 11.3828 15 11.3828C14.7239 11.3828 14.5 11.159 14.5 10.8828C14.5 10.6067 14.7239 10.3828 15 10.3828C15.2761 10.3828 15.5 10.6067 15.5 10.8828ZM18.5 10.8828C18.5 11.159 18.2761 11.3828 18 11.3828C17.7239 11.3828 17.5 11.159 17.5 10.8828C17.5 10.6067 17.7239 10.3828 18 10.3828C18.2761 10.3828 18.5 10.6067 18.5 10.8828Z" stroke="#1A1B1E"/>
</svg>
