<svg width="24" height="24" viewBox="0 0 24 24" fill="none" xmlns="http://www.w3.org/2000/svg">
<g clip-path="url(#clip0_59477_2326)">
<path d="M15.1799 2.57301L15.6165 2.8166L15.1799 2.57301ZM14.7071 4.24264H14.2071H14.7071ZM11.8787 7.77817C11.6834 7.97344 11.6834 8.29002 11.8787 8.48528C12.0739 8.68054 12.3905 8.68054 12.5858 8.48528L11.8787 7.77817ZM20.6194 8.01252L20.3758 7.57586L20.3758 7.57586L20.6194 8.01252ZM18.9497 8.48528L18.9497 8.98528L18.9497 8.98528L18.9497 8.48528ZM14.7071 10.6066C14.5118 10.8019 14.5118 11.1184 14.7071 11.3137C14.9024 11.509 15.219 11.509 15.4142 11.3137L14.7071 10.6066ZM14 18.3848L13.6464 18.7383C13.8417 18.9336 14.1583 18.9336 14.3536 18.7383L14 18.3848ZM4.80761 9.19239L4.45406 8.83883C4.2588 9.0341 4.2588 9.35068 4.45406 9.54594L4.80761 9.19239ZM9.75736 14.1421C9.95262 13.9469 9.95262 13.6303 9.75736 13.435C9.5621 13.2398 9.24551 13.2398 9.05025 13.435L9.75736 14.1421ZM4.1005 18.3848C3.90524 18.58 3.90524 18.8966 4.1005 19.0919C4.29577 19.2871 4.61235 19.2871 4.80761 19.0919L4.1005 18.3848ZM14.7432 2.32942C14.4627 2.83226 14.2071 3.50177 14.2071 4.24264H15.2071C15.2071 3.72659 15.3879 3.22645 15.6165 2.8166L14.7432 2.32942ZM14.2071 4.24264C14.2071 4.41678 14.1397 4.67059 13.9847 4.99727C13.8337 5.31543 13.619 5.66307 13.371 6.01303C12.8751 6.71304 12.2758 7.38105 11.8787 7.77817L12.5858 8.48528C13.0136 8.05745 13.6518 7.3466 14.187 6.59114C14.4547 6.21338 14.704 5.81414 14.8882 5.42592C15.0683 5.04624 15.2071 4.63418 15.2071 4.24264H14.2071ZM20.3758 7.57586C19.9659 7.8045 19.4658 7.98528 18.9497 7.98528L18.9497 8.98528C19.6906 8.98528 20.3601 8.72968 20.863 8.44917L20.3758 7.57586ZM18.9497 7.98528C18.5582 7.98528 18.1461 8.12409 17.7665 8.30424C17.3782 8.48843 16.979 8.73773 16.6012 9.00538C15.8458 9.54062 15.1349 10.1788 14.7071 10.6066L15.4142 11.3137C15.8113 10.9166 16.4794 10.3173 17.1794 9.82134C17.5293 9.57339 17.877 9.35865 18.1951 9.20771C18.5218 9.05271 18.7756 8.98528 18.9497 8.98528L18.9497 7.98528ZM20.364 7.07107C20.4639 7.17104 20.5015 7.29111 20.4965 7.38354C20.492 7.46587 20.4565 7.53082 20.3758 7.57586L20.863 8.44917C21.2645 8.22515 21.4734 7.83787 21.495 7.43759C21.5161 7.04741 21.3616 6.65451 21.0711 6.36396L20.364 7.07107ZM16.8284 2.12132C16.5379 1.83077 16.145 1.67624 15.7548 1.69736C15.3545 1.71902 14.9672 1.92785 14.7432 2.32942L15.6165 2.8166C15.6616 2.73586 15.7265 2.70035 15.8088 2.6959C15.9013 2.69089 16.0213 2.72845 16.1213 2.82843L16.8284 2.12132ZM12.9393 9.54594L13.6464 10.253L14.3536 9.54594L13.6464 8.83883L12.9393 9.54594ZM14.3536 18.0312L5.16117 8.83883L4.45406 9.54594L13.6464 18.7383L14.3536 18.0312ZM13.6464 10.253C15.7943 12.4009 15.7943 15.8833 13.6464 18.0312L14.3536 18.7383C16.892 16.1999 16.892 12.0843 14.3536 9.54594L13.6464 10.253ZM13.6464 8.83883C11.108 6.30043 6.99247 6.30043 4.45406 8.83883L5.16117 9.54594C7.30905 7.39806 10.7915 7.39806 12.9393 9.54594L13.6464 8.83883ZM9.05025 13.435L4.1005 18.3848L4.80761 19.0919L9.75736 14.1421L9.05025 13.435ZM21.0711 6.36396L16.8284 2.12132L16.1213 2.82843L20.364 7.07107L21.0711 6.36396Z" fill="#1A1B1E"/>
</g>
<defs>
<clipPath id="clip0_59477_2326">
<rect width="24" height="24" fill="white"/>
</clipPath>
</defs>
</svg>
