<svg width="24" height="24" viewBox="0 0 24 24" fill="none" xmlns="http://www.w3.org/2000/svg">
<path d="M8.58455 6.12973L8.93811 5.77618L8.58455 6.12973ZM3.12973 6.12973L2.77618 5.77618L2.77618 5.77618L3.12973 6.12973ZM11 8.54518L10.6464 8.89873L11 9.25228L11.3536 8.89873L11 8.54518ZM13.4154 6.12973L13.769 6.48328L13.4154 6.12973ZM18.5167 6.48328C18.712 6.67855 19.0286 6.67855 19.2238 6.48328C19.4191 6.28802 19.4191 5.97144 19.2238 5.77618L18.5167 6.48328ZM3.12973 11.5846L2.77618 11.9381H2.77618L3.12973 11.5846ZM10.6464 19.8084C10.8417 20.0036 11.1583 20.0036 11.3536 19.8084C11.5488 19.6131 11.5488 19.2965 11.3536 19.1013L10.6464 19.8084ZM16.0858 15.6213L19.6213 12.0858L18.9142 11.3787L15.3787 14.9142L16.0858 15.6213ZM15.3787 12.0858L18.9142 15.6213L19.6213 14.9142L16.0858 11.3787L15.3787 12.0858ZM21.5 13.5C21.5 15.7091 19.7091 17.5 17.5 17.5V18.5C20.2614 18.5 22.5 16.2614 22.5 13.5H21.5ZM17.5 17.5C15.2909 17.5 13.5 15.7091 13.5 13.5H12.5C12.5 16.2614 14.7386 18.5 17.5 18.5V17.5ZM13.5 13.5C13.5 11.2909 15.2909 9.5 17.5 9.5V8.5C14.7386 8.5 12.5 10.7386 12.5 13.5H13.5ZM17.5 9.5C19.7091 9.5 21.5 11.2909 21.5 13.5H22.5C22.5 10.7386 20.2614 8.5 17.5 8.5V9.5ZM8.93811 5.77618C7.23654 4.07461 4.47775 4.07461 2.77618 5.77618L3.48328 6.48328C4.79433 5.17224 6.91996 5.17224 8.231 6.48328L8.93811 5.77618ZM11.3536 8.19162L8.93811 5.77618L8.231 6.48328L10.6464 8.89873L11.3536 8.19162ZM13.0619 5.77618L10.6464 8.19162L11.3536 8.89873L13.769 6.48328L13.0619 5.77618ZM19.2238 5.77618C17.5223 4.07461 14.7635 4.07461 13.0619 5.77618L13.769 6.48328C15.08 5.17224 17.2057 5.17224 18.5167 6.48328L19.2238 5.77618ZM2.77618 5.77618C1.07461 7.47775 1.07461 10.2365 2.77618 11.9381L3.48328 11.231C2.17224 9.91996 2.17224 7.79433 3.48328 6.48328L2.77618 5.77618ZM2.77618 11.9381L10.6464 19.8084L11.3536 19.1013L3.48328 11.231L2.77618 11.9381Z" fill="#1A1B1E"/>
</svg>
