<svg width="24" height="24" viewBox="0 0 24 24" fill="none" xmlns="http://www.w3.org/2000/svg">
<path d="M2 17H6V19C6 19.5523 5.55228 20 5 20H3C2.44772 20 2 19.5523 2 19V17ZM2 17H22M2 17V15C2 13.3431 3.34315 12 5 12H19C20.6569 12 22 13.3431 22 15V17M22 17H18V19C18 19.5523 18.4477 20 19 20H21C21.5523 20 22 19.5523 22 19V17ZM21 12V7C21 5.34315 19.6569 4 18 4H6C4.34315 4 3 5.34315 3 7V12H21ZM11 12V10C11 9.44772 10.5523 9 10 9H7C6.44772 9 6 9.44772 6 10V12H11ZM18 12V10C18 9.44772 17.5523 9 17 9H14C13.4477 9 13 9.44772 13 10V12H18Z" stroke="#1A1B1E"/>
</svg>
