<svg width="24" height="24" viewBox="0 0 24 24" fill="none" xmlns="http://www.w3.org/2000/svg">
<path d="M15.1799 10.6159C14.9678 10.7927 14.9391 11.108 15.1159 11.3201C15.2927 11.5322 15.608 11.5609 15.8201 11.3841L15.1799 10.6159ZM18.5 8.5L18.8201 8.88411C18.9497 8.77609 19.0161 8.60997 18.9967 8.44236C18.9772 8.27474 18.8745 8.12825 18.7236 8.05279L18.5 8.5ZM15.5 7L15.0659 6.75193C14.9977 6.87125 14.9816 7.01337 15.0215 7.14489C15.0613 7.27642 15.1535 7.38576 15.2764 7.44721L15.5 7ZM17.5 3.5L17.9341 3.74807C18.0118 3.61216 18.0213 3.44773 17.9599 3.30376C17.8984 3.15978 17.7731 3.05289 17.6213 3.01493L17.5 3.5ZM13.6213 2.01493C13.3534 1.94795 13.0819 2.11083 13.0149 2.37873C12.948 2.64663 13.1108 2.9181 13.3787 2.98507L13.6213 2.01493ZM6.68765 11.8904C6.90328 12.0629 7.21793 12.028 7.39043 11.8123C7.56294 11.5967 7.52798 11.2821 7.31235 11.1096L6.68765 11.8904ZM4.5 9.5L4.17991 9.11589C4.06457 9.21201 3.99852 9.35487 4.00003 9.505C4.00153 9.65513 4.07041 9.79664 4.18765 9.89043L4.5 9.5ZM7.5 7L7.82009 7.38411C7.93409 7.28911 8 7.14839 8 7C8 6.85161 7.93409 6.71089 7.82009 6.61589L7.5 7ZM4.5 4.5L4.25684 4.06311C4.11282 4.14326 4.01756 4.28925 4.00218 4.45335C3.9868 4.61745 4.05329 4.77859 4.17991 4.88411L4.5 4.5ZM8.33663 2.93689C8.57792 2.8026 8.66466 2.49813 8.53036 2.25684C8.39607 2.01555 8.0916 1.92882 7.85031 2.06311L8.33663 2.93689ZM17.593 14.5L18.0674 14.3419V14.3419L17.593 14.5ZM17.0933 21.5V22H17.4398L17.5614 21.6756L17.0933 21.5ZM11.0933 21.5L10.7092 21.8201L10.8591 22H11.0933V21.5ZM8.09347 17L8.56784 16.842L8.09347 17ZM15.8201 11.3841L18.8201 8.88411L18.1799 8.11589L15.1799 10.6159L15.8201 11.3841ZM18.7236 8.05279L15.7236 6.55279L15.2764 7.44721L18.2764 8.94721L18.7236 8.05279ZM15.9341 7.24807L17.9341 3.74807L17.0659 3.25193L15.0659 6.75193L15.9341 7.24807ZM17.6213 3.01493L13.6213 2.01493L13.3787 2.98507L17.3787 3.98507L17.6213 3.01493ZM7.31235 11.1096L4.81235 9.10957L4.18765 9.89043L6.68765 11.8904L7.31235 11.1096ZM4.82009 9.88411L7.82009 7.38411L7.17991 6.61589L4.17991 9.11589L4.82009 9.88411ZM7.82009 6.61589L4.82009 4.11589L4.17991 4.88411L7.17991 7.38411L7.82009 6.61589ZM4.74316 4.93689L8.33663 2.93689L7.85031 2.06311L4.25684 4.06311L4.74316 4.93689ZM11.5931 7.00002V13H12.5931V7.00002H11.5931ZM10.5931 17V13.0001H9.59311V17H10.5931ZM10.5931 13.0001V7.00002H9.59311V13.0001H10.5931ZM11.0931 6.50002C11.3693 6.50002 11.5931 6.72388 11.5931 7.00002H12.5931C12.5931 6.17159 11.9215 5.50002 11.0931 5.50002V6.50002ZM11.0931 5.50002C10.2647 5.50002 9.59311 6.17159 9.59311 7.00002H10.5931C10.5931 6.72388 10.817 6.50002 11.0931 6.50002V5.50002ZM12.048 12.498C12.9025 12.5756 14.132 12.8997 15.1945 13.3465C15.724 13.5691 16.1927 13.8143 16.5436 14.0614C16.9132 14.3216 17.0766 14.5317 17.1187 14.6581L18.0674 14.3419C17.9198 13.8991 17.53 13.5329 17.1193 13.2437C16.6898 12.9414 16.1511 12.6639 15.5822 12.4247C14.448 11.9478 13.1174 11.5911 12.1385 11.5021L12.048 12.498ZM17.1187 14.6581C17.5788 16.0385 17.4711 17.6886 17.2262 19.0356C17.1052 19.7015 16.9537 20.2773 16.8326 20.6861C16.7721 20.8903 16.7194 21.052 16.6822 21.1618C16.6636 21.2166 16.6489 21.2584 16.6391 21.286C16.6341 21.2997 16.6304 21.3099 16.6281 21.3164C16.6269 21.3196 16.626 21.3219 16.6255 21.3233C16.6253 21.324 16.6251 21.3244 16.625 21.3246C16.625 21.3247 16.625 21.3247 16.625 21.3247C16.625 21.3247 16.625 21.3247 16.625 21.3246C16.6251 21.3246 16.6251 21.3245 17.0933 21.5C17.5614 21.6756 17.5615 21.6754 17.5615 21.6753C17.5616 21.6752 17.5616 21.6751 17.5617 21.6749C17.5618 21.6747 17.5619 21.6744 17.562 21.674C17.5623 21.6732 17.5627 21.6722 17.5632 21.6709C17.5641 21.6684 17.5654 21.6649 17.567 21.6605C17.5702 21.6517 17.5748 21.639 17.5807 21.6228C17.5923 21.5902 17.6088 21.5432 17.6293 21.4828C17.6702 21.3621 17.7269 21.1879 17.7914 20.9702C17.9202 20.5352 18.0812 19.9235 18.2101 19.2144C18.4651 17.8114 18.6072 15.9615 18.0674 14.3419L17.1187 14.6581ZM17.0933 21H11.0933V22H17.0933V21ZM11.0933 21.5C11.4774 21.1799 11.4774 21.1799 11.4774 21.1799C11.4774 21.1799 11.4774 21.1799 11.4773 21.1799C11.4773 21.1798 11.4772 21.1797 11.4771 21.1796C11.4769 21.1793 11.4765 21.1788 11.4759 21.1782C11.4749 21.1769 11.4732 21.1749 11.4709 21.1722C11.4665 21.1668 11.4597 21.1586 11.4507 21.1477C11.4328 21.1261 11.4063 21.0938 11.3722 21.052C11.3041 20.9685 11.2058 20.8472 11.0862 20.6967C10.8468 20.3955 10.5228 19.979 10.184 19.5168C9.84451 19.0539 9.49342 18.5498 9.19815 18.0728C8.89847 17.5887 8.67379 17.16 8.56784 16.842L7.6191 17.158C7.76301 17.59 8.03823 18.0989 8.34786 18.5991C8.6619 19.1065 9.02952 19.6336 9.37755 20.1082C9.72616 20.5836 10.0584 21.0108 10.3034 21.319C10.426 21.4732 10.527 21.5979 10.5975 21.6843C10.6328 21.7275 10.6604 21.7612 10.6794 21.7842C10.6889 21.7957 10.6962 21.8045 10.7012 21.8106C10.7037 21.8136 10.7056 21.8159 10.707 21.8175C10.7076 21.8183 10.7082 21.8189 10.7085 21.8193C10.7087 21.8196 10.7088 21.8197 10.709 21.8199C10.709 21.8199 10.7091 21.82 10.7091 21.82C10.7091 21.8201 10.7092 21.8201 11.0933 21.5ZM8.56784 16.842C8.38753 16.3008 8.57967 15.6356 9.01393 14.9478C9.43744 14.2771 10.0229 13.6966 10.4055 13.3906L9.78074 12.6097C9.32993 12.9704 8.66274 13.631 8.16836 14.414C7.68473 15.18 7.29374 16.1814 7.6191 17.158L8.56784 16.842Z" fill="#1A1B1E"/>
</svg>
