<svg width="24" height="24" viewBox="0 0 24 24" fill="none" xmlns="http://www.w3.org/2000/svg">
<path d="M2.19302 12C2.19514 10.0115 2.986 8.1051 4.39206 6.69904C5.79813 5.29297 7.70455 4.50212 9.69302 4.5C10.9562 4.51086 12.1969 4.8356 13.3034 5.44498C14.4099 6.05436 15.3476 6.92927 16.032 7.991C16.1064 8.1008 16.1341 8.23565 16.1091 8.3659C16.0841 8.49614 16.0083 8.61111 15.8985 8.6855C15.7887 8.75989 15.6539 8.78762 15.5236 8.76259C15.3934 8.73755 15.2784 8.6618 15.204 8.552C14.589 7.62185 13.7629 6.85021 12.793 6.3C11.8459 5.77054 10.778 5.49496 9.69302 5.5C7.96912 5.5 6.31582 6.18482 5.09683 7.40381C3.87784 8.62279 3.19302 10.2761 3.19302 12C3.19302 13.7239 3.87784 15.3772 5.09683 16.5962C6.31582 17.8152 7.96912 18.5 9.69302 18.5C10.7597 18.5085 11.8117 18.2506 12.7535 17.7496C13.6952 17.2486 14.497 16.5204 15.086 15.631C15.1206 15.5751 15.1658 15.5266 15.2191 15.4882C15.2724 15.4498 15.3327 15.4222 15.3966 15.4072C15.4606 15.3921 15.5268 15.3897 15.5917 15.4002C15.6565 15.4108 15.7186 15.434 15.7745 15.4685C15.8874 15.5383 15.9679 15.65 15.9984 15.7791C16.0135 15.843 16.0158 15.9093 16.0053 15.9741C15.9948 16.039 15.9716 16.1011 15.937 16.157C15.257 17.1901 14.3297 18.0371 13.2392 18.6209C12.1488 19.2047 10.9299 19.5069 9.69302 19.5C7.70455 19.4979 5.79813 18.707 4.39206 17.301C2.986 15.8949 2.19514 13.9885 2.19302 12Z" fill="#1A1B1E"/>
<path d="M6 12C6 11.8674 6.05268 11.7402 6.14645 11.6464C6.24021 11.5527 6.36739 11.5 6.5 11.5H21C21.1326 11.5 21.2598 11.5527 21.3536 11.6464C21.4473 11.7402 21.5 11.8674 21.5 12C21.5 12.1326 21.4473 12.2598 21.3536 12.3536C21.2598 12.4473 21.1326 12.5 21 12.5H6.5C6.36739 12.5 6.24021 12.4473 6.14645 12.3536C6.05268 12.2598 6 12.1326 6 12Z" fill="#1A1B1E"/>
<path d="M18 9.50003C17.9999 9.43432 18.0127 9.36924 18.0378 9.3085C18.0628 9.24776 18.0996 9.19255 18.146 9.14603C18.2398 9.05229 18.3669 8.99963 18.4995 8.99963C18.6321 8.99963 18.7592 9.05229 18.853 9.14603L21.3536 11.6464C21.4473 11.7402 21.5 11.8674 21.5 12C21.5 12.1326 21.4473 12.2598 21.3536 12.3536C21.2598 12.4473 21.1326 12.5 21 12.5C20.8674 12.5 20.7398 12.4468 20.646 12.353L18.146 9.85303C18.0525 9.75932 18 9.63238 18 9.50003Z" fill="#1A1B1E"/>
<path d="M18 14.5C17.9999 14.4343 18.0127 14.3692 18.0378 14.3085C18.0628 14.2478 18.0996 14.1925 18.146 14.146L20.646 11.646C20.7398 11.5523 20.8674 11.5 21 11.5C21.1326 11.5 21.2598 11.5527 21.3536 11.6464C21.4473 11.7402 21.5 11.8674 21.5 12C21.5 12.1326 21.4473 12.2598 21.3536 12.3536L18.853 14.853C18.7831 14.9227 18.6941 14.9702 18.5972 14.9894C18.5004 15.0086 18.4 14.9987 18.3088 14.9609C18.2176 14.9232 18.1396 14.8593 18.0846 14.7772C18.0297 14.6952 18.0002 14.5988 18 14.5Z" fill="#1A1B1E"/>
</svg>
