<svg width="20" height="20" viewBox="0 0 20 20" fill="none" xmlns="http://www.w3.org/2000/svg">
<path d="M8.32463 2.37981C8.75103 0.623397 11.249 0.623397 11.6754 2.37981C11.9508 3.51443 13.2507 4.05288 14.2478 3.44535C15.7913 2.50489 17.5576 4.2712 16.6172 5.81468C16.0096 6.81175 16.5481 8.11168 17.6827 8.38713C19.4391 8.81353 19.4391 11.3115 17.6827 11.7379C16.5481 12.0133 16.0096 13.3132 16.6172 14.3103C17.5576 15.8538 15.7913 17.6201 14.2478 16.6797C13.2507 16.0721 11.9508 16.6106 11.6754 17.7452C11.249 19.5016 8.75103 19.5016 8.32463 17.7452C8.04918 16.6106 6.74926 16.0721 5.75219 16.6797C4.2087 17.6201 2.44239 15.8538 3.38285 14.3103C3.99038 13.3132 3.45193 12.0133 2.31731 11.7379C0.560897 11.3115 0.560897 8.81353 2.31731 8.38713C3.45193 8.11168 3.99037 6.81176 3.38285 5.81468C2.44239 4.2712 4.2087 2.50489 5.75219 3.44535C6.74926 4.05287 8.04918 3.51443 8.32463 2.37981Z" stroke="#1A1B1E" stroke-linecap="round" stroke-linejoin="round"/>
<path d="M13 10.0625C13 11.7194 11.6569 13.0625 10 13.0625C8.34315 13.0625 7 11.7194 7 10.0625C7 8.40565 8.34315 7.0625 10 7.0625C11.6569 7.0625 13 8.40565 13 10.0625Z" stroke="#1A1B1E" stroke-linecap="round" stroke-linejoin="round"/>
</svg>
