<svg width="20" height="20" viewBox="0 0 20 20" fill="none" xmlns="http://www.w3.org/2000/svg">
<path d="M10 4.5C8.9122 4.5 7.84883 4.82257 6.94436 5.42692C6.03989 6.03126 5.33494 6.89025 4.91866 7.89524C4.50238 8.90023 4.39346 10.0061 4.60568 11.073C4.8179 12.1399 5.34172 13.1199 6.11091 13.8891C6.8801 14.6583 7.86011 15.1821 8.927 15.3943C9.9939 15.6065 11.0998 15.4976 12.1048 15.0813C13.1098 14.6651 13.9687 13.9601 14.5731 13.0556C15.1774 12.1512 15.5 11.0878 15.5 10C15.4984 8.5418 14.9184 7.14377 13.8873 6.11267C12.8562 5.08156 11.4582 4.50159 10 4.5ZM10 4C11.1867 4 12.3467 4.35189 13.3334 5.01118C14.3201 5.67047 15.0892 6.60754 15.5433 7.7039C15.9974 8.80026 16.1162 10.0067 15.8847 11.1705C15.6532 12.3344 15.0818 13.4035 14.2426 14.2426C13.4035 15.0818 12.3344 15.6532 11.1705 15.8847C10.0067 16.1162 8.80026 15.9974 7.7039 15.5433C6.60754 15.0892 5.67047 14.3201 5.01118 13.3334C4.35189 12.3467 4 11.1867 4 10C4 8.4087 4.63214 6.88258 5.75736 5.75736C6.88258 4.63214 8.4087 4 10 4Z" fill="#1A1B1E"/>
<path d="M10 4C11.5913 4 13.1174 4.63214 14.2426 5.75736C15.3679 6.88258 16 8.4087 16 10C16 11.5913 15.3679 13.1174 14.2426 14.2426C13.1174 15.3679 11.5913 16 10 16C10.005 16.022 10.008 4 10 4Z" fill="#1A1B1E"/>
<path d="M10 2C10.5523 2 11 1.55228 11 1C11 0.447715 10.5523 0 10 0C9.44771 0 9 0.447715 9 1C9 1.55228 9.44771 2 10 2Z" fill="#1A1B1E"/>
<path d="M10 20C10.5523 20 11 19.5523 11 19C11 18.4477 10.5523 18 10 18C9.44771 18 9 18.4477 9 19C9 19.5523 9.44771 20 10 20Z" fill="#1A1B1E"/>
<path d="M18 10C18 10.5523 18.4477 11 19 11C19.5523 11 20 10.5523 20 10C20 9.44771 19.5523 9 19 9C18.4477 9 18 9.44771 18 10Z" fill="#1A1B1E"/>
<path d="M0 10C0 10.5523 0.447715 11 1 11C1.55228 11 2 10.5523 2 10C2 9.44771 1.55228 9 1 9C0.447715 9 0 9.44771 0 10Z" fill="#1A1B1E"/>
<path d="M15.6569 4.34332C16.0474 4.73384 16.6806 4.73384 17.0711 4.34332C17.4616 3.9528 17.4616 3.31963 17.0711 2.92911C16.6806 2.53858 16.0474 2.53858 15.6569 2.92911C15.2664 3.31963 15.2664 3.9528 15.6569 4.34332Z" fill="#1A1B1E"/>
<path d="M2.92889 17.0713C3.31942 17.4618 3.95258 17.4618 4.34311 17.0713C4.73363 16.6808 4.73363 16.0476 4.34311 15.6571C3.95258 15.2666 3.31942 15.2666 2.92889 15.6571C2.53837 16.0476 2.53837 16.6808 2.92889 17.0713Z" fill="#1A1B1E"/>
<path d="M15.6567 15.6569C15.2662 16.0474 15.2662 16.6806 15.6567 17.0711C16.0472 17.4616 16.6804 17.4616 17.0709 17.0711C17.4614 16.6806 17.4614 16.0474 17.0709 15.6569C16.6804 15.2664 16.0472 15.2664 15.6567 15.6569Z" fill="#1A1B1E"/>
<path d="M2.92968 2.92889C2.53916 3.31942 2.53916 3.95258 2.92968 4.34311C3.3202 4.73363 3.95337 4.73363 4.34389 4.34311C4.73442 3.95258 4.73442 3.31942 4.34389 2.92889C3.95337 2.53837 3.3202 2.53837 2.92968 2.92889Z" fill="#1A1B1E"/>
</svg>
