<svg width="25" height="24" viewBox="0 0 25 24" fill="none" xmlns="http://www.w3.org/2000/svg">
<g id="amp">
<g id="icon">
<path d="M6.50012 19.5C6.50012 20.6046 7.39555 21.5 8.50012 21.5H16.5001C17.6047 21.5 18.5001 20.6046 18.5001 19.5V4.5C18.5001 3.39543 17.6047 2.5 16.5001 2.5H8.50012C7.39555 2.5 6.50012 3.39543 6.50012 4.5V19.5Z" stroke="#1A1B1E"/>
<path d="M15.5001 16C15.5001 14.3431 14.157 13 12.5001 13C10.8433 13 9.50012 14.3431 9.50012 16C9.50012 17.6569 10.8433 19 12.5001 19C14.157 19 15.5001 17.6569 15.5001 16Z" stroke="#1A1B1E"/>
<path d="M14.5001 7C14.5001 5.89543 13.6047 5 12.5001 5C11.3956 5 10.5001 5.89543 10.5001 7C10.5001 8.10457 11.3956 9 12.5001 9C13.6047 9 14.5001 8.10457 14.5001 7Z" stroke="#1A1B1E"/>
</g>
</g>
</svg>
