<svg width="25" height="24" viewBox="0 0 25 24" fill="none" xmlns="http://www.w3.org/2000/svg">
<path d="M4.75012 19.5C4.75012 20.6046 5.64555 21.5 6.75012 21.5H14.7501C15.8547 21.5 16.7501 20.6046 16.7501 19.5V4.5C16.7501 3.39543 15.8547 2.5 14.7501 2.5H6.75012C5.64555 2.5 4.75012 3.39543 4.75012 4.5V19.5Z" stroke="#1A1B1E"/>
<path d="M13.7501 16C13.7501 14.3431 12.407 13 10.7501 13C9.09327 13 7.75012 14.3431 7.75012 16C7.75012 17.6569 9.09327 19 10.7501 19C12.407 19 13.7501 17.6569 13.7501 16Z" stroke="#1A1B1E"/>
<path d="M12.7501 7C12.7501 5.89543 11.8547 5 10.7501 5C9.64555 5 8.75012 5.89543 8.75012 7C8.75012 8.10457 9.64555 9 10.7501 9C11.8547 9 12.7501 8.10457 12.7501 7Z" stroke="#1A1B1E"/>
<path d="M16.7501 7H19.2501C19.8024 7 20.2501 7.44772 20.2501 8V19.5C20.2501 20.6046 19.3547 21.5 18.2501 21.5H14.2501" stroke="#1A1B1E"/>
</svg>
