<!-- Generated by IcoMoon.io -->
<svg version="1.1" xmlns="http://www.w3.org/2000/svg" width="32" height="32" viewBox="0 0 32 32">
<path d="M16 10.842c-6.542 0-11.912 5.010-12.489 11.402h24.977c-0.576-6.392-5.946-11.402-12.489-11.402zM20.776 17.602c0-0.575 0.466-1.040 1.040-1.040s1.040 0.466 1.040 1.040c0 0.575-0.466 1.040-1.040 1.040s-1.040-0.466-1.040-1.040zM10.184 18.642c-0.575 0-1.040-0.466-1.040-1.040s0.466-1.040 1.040-1.040 1.040 0.466 1.040 1.040c0 0.575-0.466 1.040-1.040 1.040z"></path>
<path d="M21.223 13.561c-0.073 0-0.146-0.018-0.213-0.057-0.204-0.118-0.274-0.379-0.157-0.584l2.704-4.687c0.118-0.205 0.379-0.275 0.584-0.157s0.274 0.379 0.157 0.584l-2.704 4.687c-0.079 0.137-0.223 0.214-0.37 0.214z"></path>
<path d="M10.777 13.561c-0.148 0-0.291-0.077-0.37-0.214l-2.704-4.687c-0.118-0.204-0.048-0.466 0.156-0.584s0.466-0.048 0.584 0.157l2.704 4.687c0.118 0.205 0.048 0.466-0.157 0.584-0.067 0.039-0.14 0.057-0.213 0.057z"></path>
</svg>
