<!-- Generated by IcoMoon.io -->
<svg version="1.1" xmlns="http://www.w3.org/2000/svg" width="35" height="32" viewBox="0 0 35 32">
<path d="M10.131 9.311c-0.725 0.1-1.552 0.497-2.070 1.094-0.518 0.596-0.831 1.295-0.623 1.991 0.828 0 1.555-0.399 2.073-0.996 0.414-0.498 0.724-1.293 0.62-2.088zM19.103 9.311l-1.852 0.514v2.571h-1.542v1.414h1.542v5.373c0 1.234 0.205 2.055 0.719 2.672 0.514 0.514 1.234 0.824 2.056 0.824 0.72 0 1.339-0.102 1.647-0.205l-0.105-1.441c-0.206 0.103-0.514 0.103-1.028 0.103-1.131 0-1.437-0.72-1.437-1.954v-5.373h2.672v-1.414h-2.672v-3.085zM5.263 12.395c-1.036 0-2.073 0.617-2.798 1.645-1.035 1.542-0.829 4.42 0.725 6.785 0.518 0.925 1.244 1.852 2.28 1.852 0.933 0.103 1.138-0.514 2.381-0.514 1.139-0.103 1.347 0.514 2.28 0.514s1.761-1.131 2.382-1.954c0.312-0.617 0.518-0.925 0.932-1.645-2.279-0.925-2.693-4.112-0.414-5.346-0.725-0.823-1.655-1.338-2.588-1.338-1.242 0-1.762 0.617-2.591 0.617s-1.552-0.617-2.588-0.617zM23.035 12.395l3.896 10.282h1.743l4.001-10.282h-1.949l-1.948 5.758c-0.307 1.028-0.617 1.85-0.822 2.672h-0.102c-0.206-0.925-0.512-1.747-0.82-2.672l-2.052-5.758h-1.949z"></path>
</svg>
