<!-- Generated by IcoMoon.io -->
<svg version="1.1" xmlns="http://www.w3.org/2000/svg" width="30" height="32" viewBox="0 0 30 32">
<path d="M17.385 9.040c-0.294 0.075-0.605 0.274-0.739 0.475-0.15 0.223-0.189 0.294-0.23 0.417-0.171 0.521-0.041 1.055 0.358 1.47l0.086 0.090-0.143 0.154c-0.078 0.084-0.202 0.208-0.275 0.274-0.307 0.281-0.49 0.719-0.489 1.17 0 0.244 0.040 0.411 0.151 0.637 0.163 0.333 0.411 0.582 0.73 0.736 0.229 0.11 0.385 0.144 0.662 0.145 0.279 0.001 0.437-0.034 0.71-0.157 0.244-0.11 0.345-0.189 0.646-0.5l0.244-0.251 0.375 0.364c0.206 0.2 0.385 0.364 0.397 0.364 0.027 0 0.572-0.537 0.572-0.563 0-0.010-0.164-0.18-0.364-0.377s-0.364-0.369-0.364-0.381c0-0.012 0.112-0.132 0.249-0.268s0.249-0.258 0.249-0.273c0-0.015-0.124-0.151-0.276-0.302-0.213-0.212-0.284-0.272-0.312-0.264-0.020 0.007-0.146 0.122-0.282 0.258l-0.246 0.246-0.906-0.903c-0.696-0.694-0.916-0.925-0.951-0.996-0.101-0.209-0.064-0.408 0.11-0.59 0.071-0.074 0.132-0.119 0.192-0.139 0.174-0.059 0.367-0.026 0.507 0.086 0.039 0.031 0.074 0.057 0.078 0.057s0.14-0.131 0.302-0.29l0.295-0.29-0.101-0.093c-0.122-0.112-0.303-0.216-0.488-0.28-0.195-0.068-0.534-0.079-0.748-0.024zM8.457 16.096v6.902l0.848-0c0.647-0 0.896-0.007 1.049-0.029 0.673-0.096 1.242-0.383 1.727-0.87 0.374-0.377 0.564-0.692 0.734-1.22 0.102-0.317 0.135-0.583 0.122-0.977-0.012-0.355-0.039-0.517-0.13-0.795-0.123-0.373-0.216-0.564-0.397-0.815-0.22-0.305-0.47-0.557-0.719-0.721l-0.091-0.060 0.238-0.159c0.425-0.284 0.715-0.53 0.961-0.817 0.347-0.404 0.499-0.637 0.681-1.042 0.305-0.679 0.421-1.197 0.421-1.88s-0.116-1.202-0.419-1.877c-0.212-0.471-0.495-0.868-0.905-1.271-0.206-0.202-0.361-0.328-0.658-0.535-0.205-0.143-0.506-0.313-0.553-0.313-0.013 0-0.113-0.039-0.222-0.086-0.364-0.158-0.836-0.274-1.288-0.315-0.121-0.011-0.486-0.021-0.81-0.021l-0.59-0v6.902zM9.895 10.256c0.272 0.036 0.72 0.154 0.925 0.242 0.433 0.188 0.931 0.561 1.242 0.933 0.387 0.463 0.587 0.865 0.727 1.463 0.087 0.374 0.1 0.912 0.032 1.294-0.061 0.34-0.233 0.85-0.344 1.024-0.369 0.575-0.577 0.813-0.967 1.108-0.254 0.192-0.788 0.486-0.883 0.486-0.010 0-0.122 0.030-0.248 0.066-0.262 0.076-0.57 0.126-0.768 0.126h-0.137v-6.768l0.11 0c0.061 0 0.201 0.013 0.312 0.027zM17.887 12.5c0.183 0.18 0.393 0.389 0.468 0.465l0.135 0.138-0.224 0.239c-0.307 0.327-0.49 0.433-0.748 0.433-0.43 0-0.79-0.415-0.716-0.823 0.033-0.18 0.1-0.28 0.387-0.577l0.271-0.28 0.048 0.040c0.027 0.022 0.198 0.186 0.381 0.366zM17.239 15.311c-0.464 0.060-1.105 0.273-1.401 0.466-0.221 0.144-0.339 0.217-0.365 0.227-0.056 0.021-0.316 0.24-0.453 0.381-0.342 0.355-0.605 0.702-0.723 0.957-0.373 0.801-0.492 1.439-0.414 2.208 0.058 0.568 0.288 1.219 0.597 1.688 0.297 0.451 0.85 0.985 1.207 1.165 0.067 0.034 0.136 0.074 0.152 0.088 0.049 0.043 0.415 0.209 0.632 0.285 0.408 0.144 0.779 0.202 1.278 0.202 0.522 0 0.94-0.076 1.377-0.249 0.672-0.266 1.124-0.586 1.598-1.13 0.234-0.269 0.583-0.862 0.662-1.123 0.156-0.52 0.203-0.779 0.217-1.2 0.017-0.476-0.021-0.762-0.176-1.341-0.058-0.215-0.282-0.683-0.439-0.917-0.059-0.088-0.168-0.23-0.242-0.316s-0.17-0.198-0.213-0.248c-0.094-0.11-0.444-0.405-0.528-0.446-0.033-0.016-0.106-0.063-0.163-0.106-0.23-0.174-0.775-0.413-1.148-0.505-0.335-0.083-0.574-0.109-0.971-0.106-0.199 0.001-0.418 0.010-0.486 0.019zM18.038 16.327c0.391 0.043 0.754 0.166 1.137 0.383 0.369 0.209 0.523 0.349 0.854 0.766 0.236 0.298 0.438 0.747 0.521 1.16 0.052 0.259 0.048 0.776-0.009 1.039-0.15 0.697-0.564 1.328-1.148 1.755-0.35 0.256-0.914 0.463-1.396 0.515-0.538 0.057-1.038-0.050-1.665-0.357-0.327-0.161-0.825-0.652-1.056-1.043-0.182-0.309-0.284-0.609-0.348-1.033-0.078-0.522 0.022-1.15 0.26-1.624 0.155-0.309 0.489-0.723 0.779-0.965 0.136-0.113 0.629-0.376 0.856-0.455 0.391-0.137 0.816-0.186 1.216-0.142zM10.127 18.051c0.343 0.039 0.754 0.201 1.018 0.402 0.342 0.259 0.623 0.683 0.708 1.065 0.060 0.272 0.061 0.69 0.002 0.959-0.090 0.412-0.409 0.875-0.771 1.121-0.162 0.11-0.438 0.239-0.643 0.3-0.157 0.047-0.208 0.052-0.571 0.060l-0.398 0.008v-3.934l0.245 0c0.134 0 0.319 0.009 0.41 0.019z"></path>
</svg>
