<!-- Generated by IcoMoon.io -->
<svg version="1.1" xmlns="http://www.w3.org/2000/svg" width="32" height="32" viewBox="0 0 32 32">
<path d="M8.313 15.241c0.329-0.082 0.752-0.623 0.752-1.27s-0.517-1.398-1.811-1.398h-3.48v5.749h3.268c1.669 0 2.187-0.741 2.187-1.716s-0.917-1.365-0.917-1.365zM5.397 13.965h1.493c0.341 0 0.463 0.259 0.463 0.411s-0.040 0.447-0.475 0.447h-1.481v-0.858zM6.785 17.051h-1.423v-1.152h1.413c0.317 0 0.681 0.129 0.681 0.553-0.001 0.423-0.201 0.6-0.671 0.6zM12.040 12.554c-0.686 0-1.246 0.304-1.657 0.642-0.699 0.574-0.966 1.493-0.954 2.386 0.014 1.043 0.524 2.081 1.346 2.455 1.94 0.882 3.49 0.238 4.054-0.314v-1.259c0 0-0.858 0.835-2.269 0.635s-1.387-1.105-1.399-1.223h3.75c0-0.001 0.34-3.323-2.87-3.323v0zM11.194 14.796c-0.012-0.165 0.247-0.846 1.034-0.846s0.94 0.846 0.94 0.846h-1.975zM18.636 12.573c-0.696 0.023-1.218 0.389-1.657 0.933v-0.769h-1.681v5.584h1.681v-3.533c0.268-0.385 0.7-0.892 1.129-0.921 0.444-0.030 0.719 0.211 0.882 0.783v3.663h1.716v-3.811c-0.106-1.329-0.964-1.963-2.069-1.927v0zM25.553 18.184c0.978-0.413 1.636-1.307 1.689-2.706 0.062-1.643-1.4-2.976-3.128-2.976-1.727 0-3.16 1.333-3.128 2.976 0.038 1.934 1.401 2.976 3.128 2.976 1.592 1.688 3.887 0.821 3.887 0.821l0.225-1.793c-1.201 0.9-2.33 0.786-2.672 0.702zM22.768 15.622c0-0.896 0.594-1.621 1.327-1.621s1.295 0.726 1.295 1.621c0 0.894-0.562 1.621-1.295 1.621-0.733-0.001-1.327-0.727-1.327-1.621v0z"></path>
</svg>
