<!-- Generated by IcoMoon.io -->
<svg version="1.1" xmlns="http://www.w3.org/2000/svg" width="32" height="32" viewBox="0 0 32 32">
<path d="M26 18c0 1.978-0.587 3.911-1.685 5.556s-2.661 2.926-4.488 3.683c-1.827 0.757-3.838 0.955-5.778 0.569s-3.722-1.338-5.12-2.737c-1.399-1.399-2.351-3.18-2.737-5.12s-0.188-3.95 0.569-5.778c0.757-1.827 2.039-3.389 3.683-4.488s3.578-1.685 5.556-1.685h4v5l6-6-6-6v5h-4c-2.373 0-4.693 0.704-6.667 2.022s-3.511 3.193-4.42 5.385-1.146 4.606-0.683 6.933c0.463 2.328 1.606 4.466 3.284 6.144s3.816 2.821 6.144 3.284c2.328 0.463 4.741 0.225 6.933-0.683s4.067-2.446 5.385-4.42c1.319-1.973 2.022-4.293 2.022-6.667h-2zM19.63 22.13c-0.442 0.011-0.88-0.082-1.28-0.27-0.355-0.18-0.661-0.445-0.89-0.77-0.252-0.38-0.428-0.804-0.52-1.25-0.118-0.552-0.175-1.115-0.17-1.68-0.004-0.564 0.053-1.128 0.17-1.68 0.094-0.445 0.27-0.869 0.52-1.25 0.229-0.325 0.535-0.59 0.89-0.77 0.4-0.188 0.838-0.281 1.28-0.27 0.415-0.032 0.832 0.044 1.21 0.219s0.705 0.444 0.95 0.781c0.516 0.887 0.759 1.906 0.7 2.93 0.059 1.024-0.184 2.043-0.7 2.93-0.235 0.352-0.558 0.637-0.937 0.826s-0.8 0.277-1.223 0.254zM19.63 20.91c0.202 0.012 0.402-0.033 0.579-0.131s0.323-0.243 0.421-0.419c0.239-0.468 0.366-0.985 0.37-1.51v-1.38c0.022-0.516-0.078-1.029-0.29-1.5-0.112-0.171-0.265-0.312-0.444-0.409s-0.381-0.148-0.586-0.148-0.406 0.051-0.586 0.148c-0.18 0.097-0.332 0.238-0.444 0.409-0.212 0.471-0.312 0.984-0.29 1.5v1.38c-0.021 0.519 0.079 1.036 0.29 1.51 0.095 0.174 0.238 0.318 0.411 0.416s0.37 0.144 0.569 0.134zM10.63 22v-1.18h2v-5.19l-1.86 1-0.55-1.060 2.32-1.3h1.46v6.5h1.78v1.23h-5.15z"></path>
</svg>
