<!-- Generated by IcoMoon.io -->
<svg version="1.1" xmlns="http://www.w3.org/2000/svg" width="26" height="32" viewBox="0 0 26 32">
<path d="M0 18.759c0 2.619 0.777 5.179 2.232 7.356s3.523 3.875 5.943 4.877c2.42 1.002 5.082 1.264 7.651 0.753s4.928-1.772 6.78-3.624c1.852-1.852 3.113-4.211 3.624-6.78s0.249-5.231-0.753-7.651c-1.002-2.42-2.699-4.488-4.877-5.943s-4.738-2.232-7.356-2.232h-4.414v-5.517l-6.621 6.621 6.621 6.621v-5.517h4.414c2.182 0 4.316 0.647 6.13 1.86s3.229 2.936 4.064 4.952c0.835 2.016 1.054 4.235 0.628 6.375s-1.477 4.107-3.020 5.65c-1.543 1.543-3.509 2.594-5.65 3.020s-4.359 0.207-6.375-0.628c-2.016-0.835-3.74-2.25-4.952-4.064s-1.86-3.948-1.86-6.13h-2.207zM17.247 23.316c-0.488 0.012-0.971-0.090-1.412-0.298-0.392-0.199-0.729-0.49-0.982-0.85-0.278-0.419-0.472-0.887-0.574-1.379-0.13-0.609-0.193-1.231-0.188-1.854-0.004-0.623 0.058-1.244 0.188-1.854 0.104-0.491 0.298-0.959 0.574-1.379 0.253-0.359 0.59-0.651 0.982-0.85 0.441-0.208 0.925-0.31 1.412-0.298 0.458-0.035 0.918 0.048 1.335 0.241s0.778 0.49 1.048 0.862c0.569 0.979 0.838 2.103 0.772 3.233 0.065 1.13-0.203 2.255-0.772 3.233-0.26 0.388-0.616 0.702-1.034 0.911s-0.883 0.306-1.35 0.28zM17.247 21.97c0.222 0.013 0.444-0.037 0.639-0.144s0.356-0.268 0.464-0.463c0.264-0.516 0.404-1.087 0.408-1.666v-1.523c0.024-0.569-0.086-1.136-0.32-1.655-0.123-0.189-0.292-0.344-0.49-0.452s-0.421-0.164-0.646-0.164-0.448 0.056-0.646 0.164c-0.198 0.107-0.367 0.263-0.49 0.452-0.234 0.519-0.344 1.086-0.32 1.655v1.523c-0.023 0.573 0.087 1.143 0.32 1.666 0.105 0.192 0.262 0.351 0.454 0.459s0.409 0.159 0.628 0.148zM7.316 23.173v-1.302h2.207v-5.727l-2.052 1.103-0.607-1.17 2.56-1.434h1.611v7.172h1.964v1.357h-5.683z"></path>
</svg>
