<!-- Generated by IcoMoon.io -->
<svg version="1.1" xmlns="http://www.w3.org/2000/svg" width="44" height="32" viewBox="0 0 44 32">
<path d="M4.966 11.8c0.035 0.021 0.053 0.055 0.076 0.061 0.443 0.099 0.873 0.237 1.279 0.441 0.782 0.394 1.397 0.962 1.778 1.758 0.201 0.421 0.336 0.866 0.359 1.336 0.018 0.357 0.054 0.717 0.027 1.072-0.063 0.821-0.304 1.59-0.838 2.233-0.451 0.545-1.029 0.92-1.699 1.154-0.574 0.2-1.162 0.291-1.771 0.284-0.819-0.009-1.639-0.002-2.473-0.002-0.015-2.776-0.015-5.552-0.015-8.337 1.087 0 2.174 0 3.276 0zM3.132 17.301c0 0.557 0 1.113 0 1.688 0.606-0.051 1.197 0.051 1.785-0.071 0.538-0.112 1.015-0.339 1.414-0.713 0.513-0.481 0.754-1.102 0.805-1.786 0.029-0.383 0.003-0.777-0.061-1.156-0.175-1.052-0.811-1.736-1.805-2.076-0.293-0.1-0.614-0.14-0.925-0.161-0.401-0.027-0.804-0.007-1.212-0.007 0 1.411 0 2.831 0 4.282zM28.096 20.2c-0.035-0.021-0.052-0.056-0.076-0.061-0.402-0.076-0.793-0.192-1.157-0.379-0.817-0.419-1.411-1.046-1.77-1.898-0.227-0.54-0.354-1.093-0.372-1.682-0.020-0.692 0.109-1.344 0.382-1.975 0.194-0.449 0.465-0.846 0.81-1.188 0.515-0.511 1.142-0.834 1.847-0.992 0.312-0.070 0.634-0.096 0.954-0.129 0.752-0.076 1.484 0.028 2.195 0.281 0.453 0.161 0.853 0.409 1.215 0.73 0.65 0.578 1.013 1.314 1.217 2.14 0.112 0.454 0.13 0.921 0.096 1.384-0.041 0.552-0.181 1.085-0.428 1.584-0.347 0.7-0.842 1.267-1.532 1.652-0.431 0.24-0.888 0.401-1.377 0.473-0.022 0.003-0.042 0.025-0.053 0.050-0.639 0.011-1.288 0.011-1.951 0.011zM32.156 15.833c-0.010-0.065-0.025-0.13-0.030-0.196-0.041-0.512-0.186-0.99-0.458-1.428-0.291-0.468-0.684-0.832-1.187-1.049-0.643-0.278-1.318-0.37-2.016-0.233-0.658 0.128-1.233 0.393-1.686 0.908-0.487 0.554-0.708 1.208-0.762 1.926-0.033 0.442 0.001 0.885 0.123 1.314 0.186 0.652 0.518 1.209 1.089 1.601 0.447 0.306 0.938 0.472 1.48 0.531 0.376 0.041 0.745 0.026 1.103-0.050 0.631-0.133 1.188-0.418 1.611-0.93 0.206-0.249 0.368-0.518 0.484-0.817 0.193-0.498 0.267-1.014 0.249-1.575zM35.054 20.2c-0.015-2.79-0.015-5.581-0.015-8.385 0.023-0.015 0.047-0.015 0.073-0.006 0.016 0.025 0.026 0.043 0.041 0.058 1.812 1.813 3.625 3.626 5.438 5.439 0.019 0.019 0.046 0.030 0.090 0.058 0-1.87 0-3.717 0-5.563 0.376 0 0.751 0 1.126 0 0.001 0.005 0.002 0.009 0.002 0.014 0 2.796 0 5.591 0 8.386-0.031 0-0.063 0-0.11-0.012-0.040-0.054-0.056-0.105-0.090-0.139-1.717-1.719-3.434-3.436-5.153-5.153-0.023-0.023-0.052-0.040-0.102-0.078 0 1.813 0 3.597 0 5.381-0.429 0-0.858 0-1.302 0zM23.083 11.8c0.015 2.726 0.015 5.453 0.013 8.179-0 0.065-0.019 0.129-0.030 0.208-0 0.013-0.016 0.013-0.024 0.013-0.030-0.038-0.046-0.083-0.076-0.113-1.754-1.747-3.51-3.492-5.266-5.238-0.017-0.017-0.039-0.029-0.081-0.061 0 1.794 0 3.565 0 5.342-0.437 0-0.857 0-1.292 0 0-2.768 0-5.535 0-8.315 0.023-0.015 0.047-0.015 0.073-0.006 0.030 0.040 0.056 0.073 0.085 0.102 1.786 1.786 3.572 3.573 5.357 5.36 0.025 0.025 0.037 0.062 0.055 0.094 0.024-0.009 0.048-0.019 0.072-0.028 0-1.845 0-3.691 0-5.536 0.366 0 0.733 0 1.114 0zM14.558 11.8c0.015 0.391 0.015 0.782 0.015 1.186-1.075 0-2.143 0-3.22 0 0 0.777 0 1.542 0 2.32 0.805 0 1.612 0 2.427 0 0 0.412 0 0.811 0 1.223-0.806 0-1.612 0-2.428 0 0 0.819 0 1.626 0 2.445 1.067 0 2.135 0 3.212 0 0 0.391 0 0.769 0 1.156-1.475 0-2.951 0-4.443 0 0-2.767 0-5.533 0-8.315 1.474-0.015 2.948-0.015 4.436-0.015z"></path>
</svg>
