<!-- Generated by IcoMoon.io -->
<svg version="1.1" xmlns="http://www.w3.org/2000/svg" width="32" height="32" viewBox="0 0 32 32">
<path d="M14.528 16.35c0.018 0.002 0.022 0.002 0.038 0.006 0.288 0.038 0.572 0.090 0.788 0.188 0.202 0.088 0.318 0.2 0.426 0.4 0.164 0.304 0.174 0.728 0.026 1.050-0.11 0.24-0.352 0.44-0.574 0.546-0.23 0.112-0.456 0.164-0.716 0.194-0.454 0.050-0.944-0.044-1.354-0.242-0.242-0.118-0.538-0.322-0.686-0.582-0.11-0.192-0.106-0.442 0.026-0.624 0.212-0.29 0.666-0.354 1.010-0.342 0.262 0.010 0.73 0.090 0.978 0.178 0.070 0.026 0.322 0.124 0.366 0.17 0.030 0.032 0.050 0.078 0.038 0.12-0.056 0.174-0.478 0.264-0.598 0.282-0.326 0.050-0.494-0.074-0.864-0.22-0.088-0.034-0.212-0.074-0.304-0.082-0.168-0.016-0.37 0.030-0.402 0.214-0.016 0.094 0.094 0.182 0.18 0.22 0.198 0.086 0.36 0.116 0.554 0.118 0.578 0.010 1.226-0.086 1.698-0.42 0.064-0.046 0.128-0.114 0.13-0.198 0.002-0.172-0.298-0.278-0.298-0.278-0.32-0.13-0.908-0.196-1.21-0.22-0.318-0.028-0.818-0.068-0.938-0.086-0.124-0.018-0.258-0.044-0.366-0.092s-0.212-0.156-0.244-0.276c-0.054-0.218 0.016-0.484 0.136-0.656 0.316-0.454 1.054-0.626 1.606-0.694 0.534-0.066 1.398-0.066 1.922 0.214 0.082 0.044 0.124 0.084 0.106 0.17-0.034 0.162-0.156 0.266-0.304 0.314-0.156 0.048-0.478 0.068-0.618 0.076-0.632 0.036-1.396 0.018-1.998 0.182-0.046 0.014-0.13 0.036-0.154 0.066-0.096 0.102 0.174 0.132 0.232 0.142 0.018 0.004 0.020 0.006 0.040 0.006l1.328 0.156zM10.764 13.528c0 0 0.102-0.154 0.19-0.272 0.158-0.214 0.442-0.51 0.654-0.692 0.066-0.056 0.142-0.118 0.142-0.118s-0.12 0.012-0.188 0.026c-0.162 0.032-0.4 0.19-0.518 0.292-0.196 0.168-0.412 0.442-0.316 0.684 0.014 0.036 0.036 0.080 0.036 0.080zM11.856 13.82c0.31-0.022 0.6-0.11 0.87-0.26 0.266-0.148 0.654-0.436 0.614-0.776-0.012-0.112-0.084-0.194-0.174-0.232-0.118-0.052-0.18-0.044-0.33 0-0.11 0.032-0.16 0.052-0.264 0.112-0.304 0.176-0.734 0.554-0.968 0.856-0.056 0.070-0.11 0.15-0.152 0.204-0.028 0.034-0.048 0.064-0.046 0.074 0.008 0.034 0.328 0.030 0.45 0.022zM11.066 14.4c-0.032 0.034-0.066 0.116-0.102 0.176-0.018 0.032-0.052 0.072-0.076 0.088-0.080 0.058-0.148 0.062-0.226-0.008-0.11-0.096-0.172-0.246-0.178-0.392-0.002-0.064 0.008-0.132-0.004-0.186-0.020-0.090-0.11-0.182-0.158-0.27-0.058-0.1-0.104-0.278-0.11-0.392-0.020-0.358 0.168-0.686 0.414-0.946 0.246-0.262 0.568-0.48 0.918-0.628 0.33-0.14 0.816-0.234 1.18-0.108 0.118 0.040 0.282 0.142 0.366 0.246 0.018 0.022 0.034 0.046 0.050 0.058 0.016 0.010 0.060 0.014 0.092 0.020 0.116 0.020 0.282 0.108 0.35 0.166 0.138 0.12 0.214 0.232 0.248 0.396 0.070 0.33-0.12 0.692-0.338 0.912-0.37 0.378-0.736 0.644-1.21 0.83-0.208 0.082-0.532 0.158-0.768 0.136-0.074-0.006-0.15-0.026-0.22-0.030-0.036-0.004-0.17-0.038-0.184-0.048-0.018-0.012-0.040-0.024-0.044-0.020zM11.488 15.132c0.014 0.002 0.038 0.010 0.056 0.016 0.168 0.062 0.236 0.218 0.276 0.386 0.094 0.392 0.134 1.26 0.15 1.6 0.014 0.256 0.018 0.506 0.030 0.758 0.010 0.214 0.026 0.498-0.018 0.698-0.016 0.072-0.064 0.156-0.134 0.198-0.078 0.050-0.258 0.054-0.358 0.034-0.242-0.050-0.322-0.206-0.358-0.446-0.082-0.576-0.042-1.702 0.006-2.178 0.016-0.158 0.074-0.66 0.158-0.87 0.030-0.072 0.088-0.216 0.192-0.196zM4.088 16.088c0 0-0.362 0.026-0.61 0.054-0.318 0.034-0.914 0.136-1.256 0.26-0.104 0.036-0.312 0.124-0.332 0.23-0.018 0.11 0.050 0.196 0.126 0.286 0.044 0.052 0.292 0.29 0.362 0.348 0.292 0.244 0.884 0.62 1.32 0.802 0.15 0.062 0.398 0.15 0.398 0.15s-0.018-0.706-0.014-1.4c-0.002-0.368 0.006-0.73 0.006-0.73zM10.728 16.368c0.020 0.19-0.028 0.548-0.036 0.594-0.016 0.11-0.098 0.36-0.11 0.39-0.066 0.154-0.132 0.278-0.202 0.402-0.118 0.214-0.402 0.552-0.568 0.698-0.622 0.538-1.588 0.846-2.416 0.946-0.562 0.068-1.206 0.058-1.802-0.052-0.206-0.038-0.51-0.108-0.51-0.108s0.002 0.122-0.010 0.208c-0.006 0.038-0.034 0.142-0.050 0.176-0.042 0.090-0.114 0.136-0.218 0.154-0.126 0.022-0.258 0.030-0.372-0.018-0.19-0.080-0.258-0.256-0.29-0.46-0.026-0.162-0.054-0.446-0.054-0.446s-0.142-0.066-0.26-0.126c-0.362-0.178-0.706-0.394-1.008-0.618-0.084-0.062-0.442-0.362-0.522-0.438-0.222-0.21-0.422-0.42-0.574-0.69-0.118-0.206-0.152-0.392-0.062-0.614 0.124-0.31 0.568-0.544 0.874-0.678 0.224-0.098 0.918-0.326 1.206-0.368 0.136-0.020 0.348-0.058 0.362-0.066 0.006-0.004 0.010-0.008 0.014-0.012 0.006-0.010 0.018-0.316 0.014-0.428-0.004-0.11 0.080-0.836 0.108-0.99 0.016-0.082 0.078-0.402 0.142-0.486 0.042-0.056 0.116-0.052 0.176-0.014 0.33 0.206 0.432 0.92 0.456 1.282 0.014 0.222 0.022 0.554 0.022 0.554s0.38-0.010 0.614-0.004c0.226 0.006 0.478 0.042 0.712 0.078 0.302 0.048 0.89 0.176 1.226 0.348 0.278 0.142 0.538 0.378 0.622 0.63 0.078 0.232 0.066 0.39-0.052 0.598-0.134 0.236-0.386 0.41-0.644 0.424-0.076 0.004-0.364-0.034-0.454-0.104-0.034-0.026-0.032-0.076-0.008-0.11 0.010-0.014 0.144-0.084 0.224-0.126 0.040-0.022 0.074-0.046 0.104-0.074 0.066-0.058 0.126-0.122 0.118-0.198-0.008-0.096-0.11-0.156-0.21-0.196-0.46-0.182-1.38-0.334-1.824-0.362-0.172-0.010-0.42-0.018-0.42-0.018l0.052 2.452c0 0 0.204 0.038 0.366 0.066 0.092 0.014 0.484 0.050 0.588 0.052 0.792 0.022 1.678-0.050 2.404-0.394 0.322-0.15 0.614-0.336 0.836-0.59 0.29-0.334 0.444-0.792 0.404-1.272-0.044-0.522-0.412-1.144-0.706-1.524-0.778-0.998-2.11-1.82-3.28-2.302-1.196-0.492-2.38-0.774-3.648-0.822-0.328-0.012-1.042 0.004-1.402 0.104-0.052 0.016-0.104 0.032-0.15 0.044-0.038 0.008-0.098 0.034-0.114 0.048-0.010 0.006-0.018 0.016-0.018 0.016s0.022 0.012 0.044 0.022c0.038 0.018 0.198 0.026 0.282 0.042 0.074 0.014 0.152 0.052 0.182 0.108 0.030 0.052 0.034 0.092-0.002 0.136-0.082 0.1-0.39 0.082-0.526 0.062-0.14-0.024-0.316-0.066-0.348-0.19-0.036-0.144 0.032-0.284 0.106-0.416 0.15-0.262 0.362-0.398 0.674-0.482 0.444-0.122 1.002-0.206 1.422-0.222 0.948-0.036 1.846 0.13 2.762 0.41 0.528 0.156 1.216 0.422 1.72 0.666 0.362 0.174 0.93 0.494 1.25 0.704 0.102 0.066 0.69 0.5 0.782 0.578 0.19 0.156 0.442 0.382 0.622 0.562 0.35 0.348 0.786 0.88 0.998 1.302 0.054 0.1 0.094 0.2 0.158 0.318 0.022 0.040 0.12 0.28 0.136 0.35s0.040 0.17 0.044 0.174c0.002 0.034 0.046 0.24 0.044 0.32zM22.642 15.826c-0.444 0.102-1.61 0.158-1.61 0.158l-0.146 0.462c0 0 0.582-0.050 1.008-0.006 0 0 0.138-0.016 0.154 0.156 0.006 0.16-0.014 0.332-0.014 0.332s-0.010 0.104-0.156 0.13c-0.16 0.026-1.258 0.070-1.258 0.070l-0.178 0.602c0 0-0.066 0.138 0.082 0.098 0.138-0.038 1.286-0.252 1.438-0.222 0.16 0.040 0.338 0.254 0.286 0.45-0.062 0.242-1.208 0.974-1.906 0.922 0 0-0.366 0.024-0.678-0.472-0.29-0.472 0.108-1.366 0.108-1.366s-0.182-0.418-0.050-0.558c0 0 0.078-0.072 0.308-0.088l0.282-0.582c0 0-0.32 0.022-0.51-0.214-0.178-0.224-0.194-0.326-0.058-0.388 0.146-0.072 1.48-0.314 2.398-0.284 0 0 0.318-0.030 0.596 0.522-0.002 0 0.13 0.224-0.096 0.278zM19.188 18.062c-0.118 0.278-0.428 0.572-0.814 0.388-0.382-0.184-0.988-1.426-0.988-1.426s-0.23-0.462-0.274-0.45c0 0-0.050-0.090-0.080 0.416-0.032 0.504 0.006 1.486-0.194 1.642-0.19 0.154-0.422 0.094-0.542-0.088-0.11-0.18-0.154-0.604-0.096-1.35 0.070-0.746 0.242-1.542 0.466-1.788 0.222-0.244 0.398-0.066 0.468-0.002 0 0 0.296 0.268 0.784 1.056l0.086 0.146c0 0 0.444 0.744 0.49 0.742 0 0 0.036 0.034 0.068 0.010 0.046-0.014 0.028-0.252 0.028-0.252s-0.092-0.812-0.498-2.184c0 0-0.062-0.17-0.020-0.332s0.204-0.086 0.204-0.086 0.626 0.316 0.932 1.336c0.304 1.022 0.1 1.944-0.020 2.222zM25.94 17.452c-0.286 0.498-1.092 1.542-2.162 1.294-0.354 0.858-0.65 1.726-0.822 3.024 0 0-0.038 0.252-0.246 0.166-0.208-0.074-0.55-0.418-0.62-0.896-0.074-0.628 0.206-1.69 0.776-2.906-0.166-0.27-0.28-0.658-0.182-1.21 0 0 0.144-1.022 1.17-1.946 0 0 0.122-0.106 0.194-0.074 0.078 0.034 0.042 0.366-0.020 0.528-0.066 0.162-0.522 0.954-0.522 0.954s-0.286 0.534-0.206 0.958c0.538-0.83 1.764-2.5 2.524-1.974 0.254 0.182 0.374 0.58 0.374 1.008 0 0.374-0.090 0.774-0.258 1.074zM25.718 16.138c0 0-0.042-0.33-0.364 0.034-0.278 0.306-0.778 0.88-1.178 1.66 0.422-0.048 0.83-0.276 0.952-0.394 0.198-0.176 0.666-0.658 0.59-1.3zM31.84 16.064h-1.962c-0.038-0.666-0.12-1.318-0.246-1.986-0.014-0.070-0.074-0.12-0.144-0.12h-0.452c-0.040 0-0.078 0.018-0.102 0.048-0.026 0.032-0.036 0.070-0.028 0.11 0.128 0.648 0.21 1.286 0.25 1.948h-1.888c-0.088 0-0.16 0.070-0.16 0.158v0.408c0 0.088 0.072 0.16 0.16 0.16h1.916c0.002 0.102 0.002 0.19 0.002 0.276 0 0.588-0.026 1.074-0.086 1.62-0.006 0.042 0.010 0.084 0.038 0.116 0.028 0.030 0.068 0.050 0.11 0.050h0.42c0.082 0 0.15-0.062 0.158-0.142 0.058-0.55 0.082-1.042 0.082-1.642 0-0.084-0.002-0.174-0.002-0.276h1.936c0.088 0 0.16-0.072 0.16-0.16v-0.408c-0.002-0.088-0.074-0.16-0.162-0.16zM5.59 10.594c-0.028 0.042-0.036 0.092-0.020 0.138 0.018 0.048 0.054 0.084 0.1 0.1l0.352 0.118c0.022 0.006 0.042 0.010 0.062 0.010 0.066 0 0.126-0.032 0.162-0.086 1.156-1.692 2.716-3.102 4.514-4.076 1.858-1.006 3.962-1.538 6.088-1.538 2.566 0 5.042 0.758 7.16 2.19 2.066 1.398 3.672 3.346 4.642 5.634 0.030 0.068 0.096 0.114 0.17 0.114h0.42c0.048 0 0.094-0.024 0.122-0.066 0.028-0.040 0.034-0.092 0.014-0.138-1-2.462-2.692-4.562-4.892-6.070-2.252-1.544-4.894-2.36-7.636-2.36-4.536 0.002-8.746 2.256-11.258 6.030zM24.352 22.792c0.644 0 1.186 0.24 1.53 0.74h0.016v-0.622h0.828v4.412h-0.828v-0.686h-0.016c-0.31 0.526-0.868 0.796-1.498 0.796-1.29 0-2.342-0.972-2.342-2.246 0-1.406 1.012-2.394 2.31-2.394v0zM11.182 22.792c1.218 0 2.366 0.956 2.35 2.358-0.016 1.202-1.042 2.33-2.496 2.284-1.234-0.038-2.282-1.098-2.266-2.33 0.014-1.332 1.068-2.312 2.412-2.312zM17.858 22.792c0.734 0 1.33 0.51 1.354 1.29h-0.828c-0.040-0.318-0.222-0.534-0.566-0.534-0.318 0-0.518 0.216-0.518 0.47 0 0.374 0.382 0.486 0.82 0.622 0.622 0.192 1.194 0.566 1.194 1.386 0 0.852-0.622 1.41-1.482 1.41-0.796 0-1.562-0.542-1.562-1.562h0.828c0.040 0.534 0.31 0.804 0.748 0.804 0.382 0 0.638-0.246 0.638-0.606 0-0.302-0.23-0.502-0.748-0.668-1.084-0.342-1.266-0.812-1.266-1.314 0.002-0.78 0.662-1.298 1.388-1.298zM4.088 21.43c0.458 0 0.828 0.37 0.828 0.828v1.124h0.016c0.262-0.39 0.686-0.59 1.234-0.59 1.052 0 1.84 0.668 1.84 1.88v2.652h-0.826v-2.398c0-0.948-0.366-1.378-1.1-1.378-0.726 0-1.164 0.526-1.164 1.386v2.39h-0.828v-5.894zM15.3 21.43v1.482h0.726v0.756h-0.726v3.656c-0.458 0-0.828-0.37-0.828-0.828v-2.828h-0.342v-0.756h0.342v-1.482h0.828zM21.054 21.43v1.482h0.726v0.756h-0.724v3.656c-0.458 0-0.828-0.37-0.828-0.828v-2.828h-0.344v-0.756h0.342v-1.482h0.828zM29.706 22.792v0.852c-0.716 0.024-1.084 0.462-1.084 1.204v1.648c0 0.458-0.37 0.828-0.828 0.828v-4.412h0.772v0.398h0.016c0.2-0.296 0.542-0.486 1.124-0.518v0zM11.142 23.548c-0.95 0-1.754 0.922-1.498 1.948 0.174 0.696 0.808 1.2 1.526 1.182 0.848-0.024 1.532-0.7 1.532-1.576 0.002-0.86-0.692-1.554-1.56-1.554v0zM24.376 23.548c-0.874 0-1.58 0.79-1.5 1.722 0.068 0.77 0.696 1.392 1.468 1.406 0.876 0.018 1.568-0.706 1.568-1.552 0.002-0.858-0.62-1.576-1.536-1.576z"></path>
</svg>
