<!-- Generated by IcoMoon.io -->
<svg version="1.1" xmlns="http://www.w3.org/2000/svg" width="48" height="32" viewBox="0 0 48 32">
<path d="M6.92 12.589c-0.555 0.242-0.563 1.108-0.013 1.336 0.45 0.186 0.943 0.060 1.123-0.288 0.205-0.396 0.042-0.888-0.349-1.051-0.287-0.12-0.48-0.119-0.761 0.003zM21.293 12.534c-0.426 0.14-0.658 0.485-0.585 0.872 0.116 0.619 1.074 0.837 1.468 0.335 0.172-0.219 0.187-0.677 0.029-0.902-0.178-0.255-0.618-0.402-0.912-0.304zM16.688 12.974c-1.774 0.255-2.876 2.066-2.457 4.041 0.141 0.664 0.384 1.149 0.793 1.582 1.392 1.472 4.238 1.082 4.894-0.671 0.073-0.196 0.144-0.447 0.157-0.56l0.024-0.204-1.519-0.038-0.047 0.19c-0.152 0.608-0.656 0.939-1.363 0.894-0.801-0.051-1.276-0.579-1.398-1.556-0.107-0.854 0.068-1.623 0.462-2.021 0.622-0.629 1.758-0.548 2.17 0.155l0.176 0.3 1.452-0.039-0.022-0.202c-0.038-0.349-0.344-0.898-0.667-1.195-0.398-0.367-0.897-0.593-1.496-0.68-0.537-0.078-0.59-0.078-1.157 0.004zM4.155 13.090c-0.107 0.021-0.118 0.221-0.136 2.433-0.018 2.236-0.029 2.42-0.146 2.55-0.297 0.328-0.943 0.231-1.108-0.165-0.053-0.126-0.096-0.308-0.096-0.405v-0.175l-1.399 0.039 0.015 0.361c0.029 0.71 0.432 1.31 1.068 1.594 0.288 0.129 0.469 0.156 1.031 0.157 0.984 0.001 1.527-0.229 1.903-0.807 0.286-0.439 0.318-0.795 0.299-3.282l-0.018-2.319-0.648-0.002c-0.357-0.001-0.701 0.008-0.765 0.021zM10.52 14.57c-1.174 0.265-1.853 1.283-1.76 2.637 0.049 0.71 0.297 1.255 0.769 1.686 0.456 0.417 0.944 0.582 1.702 0.575 1.296-0.011 2.169-0.767 2.349-2.033 0.13-0.918-0.162-1.855-0.733-2.359-0.565-0.497-1.484-0.698-2.327-0.507zM25.511 14.559c-0.329 0.093-0.788 0.396-0.853 0.564-0.075 0.196-0.158 0.085-0.158-0.212v-0.307h-1.365v4.78l1.399-0.039 0.034-1.606c0.036-1.726 0.064-1.858 0.425-2.052 0.188-0.1 0.673-0.099 0.863 0.003 0.288 0.154 0.314 0.309 0.35 2.017l0.034 1.638 1.407 0.039-0.021-1.896c-0.022-2.041-0.033-2.107-0.421-2.534-0.354-0.39-1.097-0.564-1.693-0.396zM30.128 14.564c-1.078 0.267-1.718 1.071-1.789 2.247-0.1 1.658 0.84 2.669 2.472 2.657 0.891-0.007 1.561-0.314 1.943-0.893 0.341-0.515 0.309-0.56-0.406-0.56-0.54 0-0.62 0.016-0.684 0.136-0.112 0.21-0.435 0.342-0.834 0.342-0.62 0-0.993-0.313-1.118-0.939l-0.044-0.221h3.448l-0.038-0.529c-0.087-1.233-0.678-1.992-1.746-2.244-0.465-0.109-0.752-0.109-1.204 0.003zM36.029 14.597c-0.255 0.091-0.456 0.223-0.627 0.415l-0.252 0.283-0.021-0.329-0.021-0.329-1.331-0.039v4.78h1.432l0-1.552c0-1.763 0.038-1.932 0.485-2.15 0.214-0.105 0.282-0.109 0.512-0.034 0.466 0.152 0.504 0.311 0.504 2.15l0 1.586h1.432v-1.537c0-1.626 0.034-1.841 0.331-2.105 0.166-0.149 0.587-0.172 0.822-0.046 0.305 0.163 0.348 0.426 0.348 2.117v1.571h1.442l-0.022-1.893c-0.021-1.785-0.031-1.909-0.169-2.166-0.295-0.549-0.735-0.807-1.388-0.814-0.57-0.006-1.012 0.163-1.323 0.507l-0.24 0.265-0.143-0.23c-0.295-0.477-1.114-0.686-1.775-0.452zM43.26 14.575c-0.529 0.114-0.932 0.379-1.141 0.749-0.271 0.478-0.243 0.509 0.466 0.509 0.596 0 0.628-0.008 0.804-0.196 0.357-0.382 1.131-0.342 1.343 0.070 0.060 0.116 0.096 0.325 0.084 0.489l-0.021 0.286-0.887 0.042c-0.488 0.023-0.981 0.073-1.095 0.111-0.684 0.225-0.997 0.581-1.041 1.182-0.041 0.565 0.029 0.848 0.281 1.134 0.614 0.7 2.003 0.708 2.635 0.016l0.198-0.217 0.096 0.637 1.246-0.039v-3.547l-0.189-0.384c-0.231-0.471-0.542-0.7-1.142-0.84-0.54-0.127-1.049-0.127-1.638 0.001zM6.626 16.992v2.388h1.365v-4.775h-1.365v2.388zM20.816 16.995v2.39l1.399-0.039 0.036-4.741h-1.434v2.39zM31.262 15.598c0.124 0.064 0.258 0.221 0.336 0.392 0.244 0.537 0.265 0.524-0.891 0.524-0.774 0-1.023-0.021-1.022-0.085 0.004-0.218 0.283-0.674 0.489-0.8 0.275-0.168 0.794-0.183 1.087-0.031zM11.74 15.738c0.31 0.261 0.426 0.588 0.432 1.22 0.008 0.928-0.356 1.466-0.995 1.467-0.369 0-0.637-0.163-0.814-0.496-0.129-0.242-0.154-0.395-0.154-0.937s0.025-0.696 0.153-0.936c0.187-0.351 0.426-0.49 0.847-0.494 0.247-0.002 0.367 0.038 0.531 0.176zM44.829 17.555c-0 0.452-0.185 0.772-0.528 0.915-0.561 0.235-1.11-0.054-1.11-0.583 0-0.464 0.362-0.674 1.177-0.684l0.46-0.006-0 0.358z"></path>
</svg>
