<!-- Generated by IcoMoon.io -->
<svg version="1.1" xmlns="http://www.w3.org/2000/svg" width="32" height="32" viewBox="0 0 32 32">
<path d="M19.888 12.624h-1.796v6.768h4.892v-1.477h-3.095v-5.29zM26.771 15.569v1.196h1.371c0 0 0.013 1.506-1.402 1.506-0.359 0-0.68-0.13-0.926-0.377-0.384-0.384-0.586-1.030-0.586-1.868 0-1.388 0.552-2.216 1.475-2.216 0.577 0 1.011 0.354 1.122 0.891h1.905c-0.099-0.78-0.313-1.187-0.835-1.601-0.561-0.434-1.283-0.655-2.145-0.655-1.023 0-1.878 0.314-2.472 0.908-0.621 0.621-0.949 1.535-0.949 2.644 0 1.185 0.347 2.185 0.978 2.815 0.495 0.495 1.155 0.756 1.909 0.756 1.657 0 2.038-0.993 2.038-0.993v0.815h1.496v-3.822h-2.978z"></path>
<path d="M9.097 9.186c-3.781 0-6.846 3.065-6.846 6.846s3.065 6.846 6.846 6.846c3.781 0 6.846-3.065 6.846-6.846s-3.065-6.846-6.846-6.846zM10.764 18.44v0.525h-1.418v0.004h-0.526v-5.887h0.526v5.358h1.418zM9.097 21.762c-3.165 0-5.731-2.566-5.731-5.731s2.566-5.731 5.731-5.731c0.084 0 0.167 0.002 0.249 0.005l-0.001 0.522c-0.082-0.004-0.165-0.006-0.249-0.006-2.877 0-5.209 2.332-5.209 5.209s2.332 5.209 5.209 5.209c2.799 0 5.082-2.207 5.204-4.975l0.001-0.015h-3.53v-0.526h4.047c0.005 0.102 0.008 0.204 0.008 0.306-0 3.165-2.566 5.731-5.731 5.731zM7.765 13.863c0 0.445-0.361 0.805-0.805 0.805s-0.805-0.361-0.805-0.805 0.36-0.805 0.805-0.805c0.445 0 0.805 0.361 0.805 0.805z"></path>
</svg>
