<!-- Generated by IcoMoon.io -->
<svg version="1.1" xmlns="http://www.w3.org/2000/svg" width="81" height="32" viewBox="0 0 81 32">
<path d="M62.679 13.712l-0.024 0.404h-0.731v0.37h0.74l0.003 0.631c0.001 0.347 0.009 1.015 0.017 1.485 0.017 0.993 0.038 1.077 0.321 1.331 0.29 0.261 0.233 0.254 2.39 0.254h1.912v-0.337h-0.203c-0.256 0-0.416-0.066-0.503-0.208-0.066-0.107-0.068-0.166-0.068-1.634v-1.523h0.774v-0.37h-0.774v-0.808h-3.83l-0.024 0.404zM19.262 14.436c0 0.416 0.007 0.757 0.015 0.757s0.179-0.067 0.378-0.148c0.535-0.219 1.092-0.37 1.827-0.497 0.139-0.024 0.51-0.044 0.824-0.044 0.51-0 0.595 0.008 0.782 0.075 0.367 0.132 0.622 0.369 0.731 0.679 0.053 0.151 0.069 0.406 0.026 0.405-0.014-0-0.134-0.037-0.267-0.082-0.59-0.2-1.351-0.299-2.332-0.302-1.007-0.003-1.45 0.076-1.998 0.36-0.828 0.429-1.048 1.248-0.485 1.808 0.264 0.263 0.831 0.558 1.326 0.69 0.846 0.226 1.752 0.237 2.628 0.031 0.285-0.067 0.849-0.24 1.095-0.336 0.052-0.020 0.059-0 0.059 0.166v0.189h4.744v-0.37l-0.261-0c-0.263-0-0.46-0.070-0.496-0.177-0.008-0.023-0.019-0.595-0.024-1.27l-0.010-1.228-0.107-0.225c-0.131-0.276-0.343-0.495-0.614-0.631-0.403-0.204-0.402-0.203-2.542-0.203-1.074 0-2.127 0.015-2.34 0.034-0.618 0.054-1.294 0.189-2.111 0.423l-0.076 0.022v-0.883h-0.774v0.757zM40.458 14.436c0 0.416 0.011 0.757 0.025 0.757s0.169-0.062 0.343-0.137c1.111-0.479 2.775-0.706 3.46-0.472 0.471 0.162 0.781 0.545 0.781 0.968 0 0.123-0.016 0.131-0.158 0.075-0.799-0.314-2.547-0.454-3.56-0.285-1.006 0.168-1.648 0.681-1.692 1.353-0.025 0.377 0.124 0.645 0.514 0.923 0.59 0.421 1.322 0.646 2.258 0.693 0.707 0.036 1.558-0.107 2.333-0.39 0.156-0.057 0.289-0.104 0.294-0.104s0.010 0.083 0.010 0.185v0.185h4.744v-0.363l-0.302-0.012c-0.278-0.011-0.309-0.019-0.395-0.105l-0.093-0.093-0.017-1.286c-0.012-0.884-0.030-1.314-0.057-1.376-0.068-0.153-0.275-0.42-0.397-0.513-0.167-0.127-0.505-0.28-0.715-0.324-0.126-0.026-0.836-0.033-2.357-0.023-1.845 0.012-2.231 0.023-2.53 0.072-0.474 0.077-1.071 0.211-1.379 0.309-0.139 0.044-0.271 0.080-0.294 0.081-0.032 0-0.042-0.109-0.042-0.437v-0.437h-0.774v0.757zM68.718 14.057c-0.001 0.19-0.010 0.47-0.020 0.623l-0.018 0.278h0.747v-0.437h0.824c0.454 0 0.824 0.007 0.824 0.016s-0.093 0.164-0.207 0.345c-0.221 0.351-0.257 0.408-0.54 0.85-0.1 0.157-0.354 0.559-0.563 0.892s-0.513 0.818-0.677 1.077l-0.297 0.471 6.455 0.017v0.504h0.707v-1.245h-0.707v0.37h-1.649l0.19-0.294c0.105-0.162 0.311-0.484 0.459-0.715s0.318-0.496 0.378-0.589c0.345-0.53 0.665-1.025 0.901-1.396 0.147-0.231 0.304-0.474 0.348-0.54s0.080-0.13 0.080-0.143-1.469-0.023-3.264-0.023h-3.264v-0.404h-0.707l-0.002 0.345zM36.354 14.080c-0.661 0.14-1.287 0.489-1.834 1.024l-0.285 0.279-0.003-0.154c-0.002-0.085-0.005-0.374-0.008-0.642l-0.005-0.488-4.761-0.017v0.371h0.248c0.223 0 0.257 0.009 0.337 0.089l0.089 0.089v1.49c0 1.342-0.006 1.496-0.056 1.546-0.085 0.085-0.199 0.117-0.418 0.117h-0.2v0.404h5.518v-0.404h-0.272c-0.255 0-0.278-0.006-0.37-0.098-0.095-0.095-0.099-0.11-0.104-0.446-0.014-0.811 0.039-1.079 0.279-1.44 0.11-0.165 0.437-0.472 0.503-0.472 0.008 0 0.014 0.087 0.014 0.193 0 0.503 0.351 1.017 0.885 1.298 0.305 0.16 0.587 0.223 1.002 0.224 0.847 0.001 1.617-0.402 1.829-0.959 0.284-0.742-0.071-1.532-0.844-1.882-0.41-0.186-1.016-0.233-1.543-0.122zM1.060 14.264v0.181l0.272 0.012c0.258 0.012 0.277 0.018 0.37 0.122l0.098 0.109v1.397c0 1.533-0.001 1.543-0.201 1.646-0.059 0.030-0.188 0.051-0.319 0.051h-0.22v0.404h5.585v-0.404h-0.269c-0.29 0-0.38-0.045-0.421-0.21-0.011-0.042-0.015-0.607-0.009-1.254l0.010-1.177 0.093-0.159c0.261-0.445 0.858-0.458 1.15-0.026l0.102 0.152 0.020 3.079h4.774v-0.404h-0.254c-0.225 0-0.263-0.010-0.336-0.082l-0.082-0.082v-1.214c0-1.322 0.005-1.359 0.195-1.559 0.12-0.126 0.282-0.191 0.478-0.191s0.358 0.065 0.478 0.191c0.195 0.204 0.195 0.211 0.195 1.844v1.498h4.878v-0.404h-0.286c-0.266 0-0.293-0.006-0.392-0.095l-0.107-0.095-0.014-1.259c-0.015-1.392-0.021-1.439-0.234-1.703-0.137-0.17-0.403-0.327-0.748-0.443l-0.256-0.086-1.52-0.012c-1.435-0.011-1.536-0.008-1.808 0.056-0.339 0.080-0.62 0.215-0.895 0.429l-0.199 0.154-0.17-0.149c-0.249-0.218-0.546-0.357-0.93-0.436-0.309-0.063-0.431-0.067-1.679-0.055-1.517 0.014-1.62 0.028-2.196 0.296l-0.278 0.129v-0.433h-4.878v0.181zM50.72 14.28c0 0.188 0.026 0.204 0.318 0.205 0.135 0 0.185 0.018 0.261 0.091l0.095 0.090v2.945l-0.080 0.093c-0.071 0.082-0.108 0.095-0.32 0.106l-0.239 0.014v0.362h5.316v-0.37h-0.204c-0.115 0-0.246-0.022-0.301-0.050-0.203-0.105-0.202-0.103-0.202-1.233 0-0.649 0.014-1.094 0.038-1.198 0.101-0.436 0.539-0.758 0.919-0.675 0.188 0.041 0.292 0.123 0.379 0.298 0.070 0.141 0.074 0.197 0.078 0.94 0.002 0.435 0.013 1.128 0.024 1.539l0.020 0.749h4.7v-0.37h-0.25c-0.22 0-0.262-0.011-0.353-0.087l-0.104-0.087v-1.152c0-0.687-0.015-1.232-0.037-1.35-0.074-0.403-0.325-0.732-0.696-0.914l-0.193-0.094-1.682-0.010c-1.121-0.007-1.754 0.002-1.897 0.027-0.254 0.044-0.585 0.188-0.818 0.355l-0.167 0.12 0.024-0.254 0.024-0.254h-4.651v0.164zM78.138 14.202c-0.2 0.062-0.447 0.281-0.562 0.499-0.077 0.146-0.090 0.213-0.089 0.442 0.001 0.224 0.016 0.298 0.090 0.442 0.374 0.724 1.397 0.728 1.781 0.006 0.064-0.119 0.077-0.197 0.077-0.447 0-0.273-0.009-0.319-0.096-0.466-0.259-0.441-0.72-0.623-1.203-0.475zM78.814 14.421c0.332 0.168 0.531 0.567 0.442 0.888-0.038 0.137-0.204 0.436-0.228 0.412-0.009-0.009-0.031-0.12-0.049-0.247s-0.054-0.252-0.080-0.277c-0.040-0.040-0.037-0.060 0.019-0.136 0.036-0.049 0.075-0.143 0.085-0.209 0.016-0.102 0.003-0.138-0.082-0.234l-0.102-0.114-0.398-0.018c-0.371-0.016-0.391-0.021-0.297-0.064 0.236-0.108 0.478-0.108 0.69-0.001zM78.166 15.758l0.143 0.010v-0.508h0.147c0.171 0 0.209 0.035 0.239 0.219 0.046 0.288 0.045 0.286 0.162 0.287l0.109 0.001-0.084 0.065c-0.136 0.106-0.402 0.152-0.595 0.103-0.599-0.151-0.827-0.905-0.405-1.342l0.108-0.111 0.034 1.266 0.143 0.010zM78.672 14.762c0.022 0.022 0.040 0.072 0.040 0.111 0 0.11-0.067 0.152-0.242 0.152h-0.162v-0.303h0.162c0.089 0 0.18 0.018 0.202 0.040zM23.72 16.028l0.135 0.093 0.018 1.282-0.16 0.063c-0.251 0.098-0.56 0.087-0.755-0.028-0.327-0.192-0.475-0.492-0.406-0.821 0.12-0.571 0.742-0.886 1.169-0.59zM44.916 16.028l0.135 0.093 0.018 1.282-0.16 0.063c-0.251 0.098-0.56 0.087-0.755-0.028-0.351-0.206-0.507-0.566-0.392-0.903 0.18-0.53 0.758-0.783 1.155-0.507zM62.698 13.556c0 0.136-0.010 0.318-0.021 0.404l-0.021 0.156h-0.731v0.37h0.74l0.003 0.631c0.001 0.347 0.009 1.015 0.017 1.484 0.017 0.993 0.038 1.077 0.321 1.331 0.29 0.261 0.233 0.254 2.39 0.254h1.912v-0.337h-0.203c-0.256 0-0.416-0.066-0.503-0.208-0.066-0.107-0.068-0.166-0.068-1.634v-1.523h0.774v-0.37h-0.774v-0.808h-3.836v0.248zM19.262 14.438v0.759l0.076-0.023c0.042-0.013 0.117-0.045 0.168-0.070 0.252-0.128 0.96-0.354 1.405-0.448 0.76-0.16 1.611-0.213 1.992-0.123 0.468 0.11 0.773 0.342 0.9 0.682 0.065 0.174 0.094 0.45 0.047 0.45-0.012 0-0.164-0.046-0.338-0.101-0.543-0.174-1.529-0.301-2.339-0.302-0.466-0-1.094 0.076-1.423 0.173-1.338 0.394-1.732 1.542-0.757 2.205 0.946 0.643 2.382 0.848 3.718 0.532 0.282-0.067 0.882-0.25 1.102-0.337 0.052-0.020 0.059-0.001 0.059 0.166v0.189h4.744v-0.363l-0.302-0.012c-0.269-0.010-0.311-0.021-0.385-0.096l-0.083-0.084-0.021-2.49-0.105-0.219c-0.058-0.12-0.176-0.29-0.263-0.377-0.183-0.184-0.543-0.375-0.811-0.43-0.134-0.028-0.803-0.035-2.364-0.025-2.059 0.013-2.202 0.018-2.632 0.089-0.366 0.061-1.043 0.218-1.539 0.359l-0.076 0.021v-0.883h-0.774v0.759zM40.458 14.436c0 0.416 0.007 0.757 0.015 0.757s0.18-0.068 0.381-0.15c1.069-0.438 2.508-0.664 3.24-0.509 0.578 0.123 0.913 0.451 0.964 0.947 0.010 0.101 0.007 0.183-0.008 0.183s-0.168-0.045-0.341-0.101c-1.068-0.342-3.013-0.394-3.856-0.104-0.741 0.255-1.16 0.689-1.196 1.239-0.014 0.213-0.005 0.265 0.071 0.421 0.147 0.3 0.395 0.515 0.864 0.75 0.545 0.273 1.108 0.408 1.851 0.443 0.701 0.033 1.507-0.101 2.287-0.379 0.177-0.063 0.325-0.115 0.329-0.115s0.008 0.083 0.008 0.185v0.185h4.744v-0.37h-0.285c-0.268 0-0.292-0.006-0.395-0.098l-0.11-0.098-0.034-2.58-0.098-0.176c-0.202-0.364-0.613-0.659-1.047-0.749-0.133-0.028-0.799-0.035-2.347-0.025-2.010 0.013-2.192 0.019-2.615 0.086-0.469 0.075-1.151 0.231-1.409 0.323-0.248 0.089-0.239 0.103-0.239-0.385v-0.437h-0.774v0.757zM68.719 14.074c-0.001 0.199-0.010 0.479-0.020 0.623l-0.019 0.261h0.747v-0.437h0.824c0.454 0 0.824 0.007 0.824 0.015 0 0.014-0.287 0.48-0.52 0.843-0.059 0.093-0.318 0.501-0.574 0.908s-0.629 0.998-0.828 1.312l-0.362 0.572 6.457 0.017v0.504h0.707v-1.245h-0.707v0.37h-1.651l0.114-0.177c0.325-0.505 0.822-1.279 0.944-1.471 0.076-0.119 0.328-0.509 0.559-0.866 0.636-0.981 0.74-1.146 0.74-1.168 0-0.011-1.469-0.020-3.264-0.020h-3.264v-0.404h-0.707l-0.001 0.362zM36.354 14.081c-0.664 0.142-1.314 0.508-1.859 1.046l-0.261 0.258-0.003-0.155c-0.002-0.085-0.005-0.375-0.008-0.643l-0.005-0.488-4.761-0.017v0.371h0.254c0.225 0 0.263 0.010 0.337 0.082l0.082 0.082v1.496c0 1.348-0.006 1.502-0.056 1.552-0.085 0.085-0.199 0.117-0.418 0.117h-0.2v0.404h5.518v-0.404h-0.267c-0.234 0-0.279-0.010-0.362-0.081-0.091-0.078-0.095-0.095-0.113-0.48-0.036-0.763 0.039-1.107 0.325-1.497 0.113-0.154 0.391-0.399 0.453-0.399 0.015 0 0.019 0.050 0.008 0.112-0.023 0.145 0.066 0.491 0.183 0.708 0.208 0.387 0.689 0.735 1.172 0.848 0.353 0.083 0.955 0.052 1.309-0.068 0.383-0.13 0.579-0.243 0.796-0.462 0.222-0.224 0.33-0.468 0.356-0.803 0.085-1.114-1.109-1.876-2.481-1.582zM1.060 14.267v0.185h0.222c0.248 0 0.42 0.064 0.481 0.178 0.029 0.054 0.037 0.457 0.030 1.512l-0.010 1.438-0.093 0.093c-0.083 0.083-0.121 0.094-0.362 0.105l-0.269 0.012v0.397h5.585v-0.404h-0.269c-0.29 0-0.38-0.045-0.421-0.21-0.011-0.042-0.015-0.607-0.009-1.254l0.010-1.177 0.093-0.159c0.246-0.419 0.806-0.462 1.11-0.087 0.053 0.066 0.11 0.178 0.127 0.25s0.031 0.785 0.031 1.585l0.001 1.455h4.778v-0.404h-0.254c-0.225 0-0.263-0.010-0.336-0.082l-0.082-0.082 0.001-1.221c0.001-1.117 0.006-1.233 0.063-1.356 0.12-0.26 0.32-0.387 0.607-0.387 0.198 0 0.359 0.064 0.48 0.191 0.195 0.204 0.195 0.211 0.195 1.844v1.498h4.878v-0.404h-0.286c-0.266 0-0.293-0.006-0.393-0.096l-0.107-0.096-0.013-1.259c-0.011-1.039-0.022-1.285-0.066-1.41-0.128-0.363-0.472-0.615-1.038-0.758-0.322-0.082-0.347-0.083-1.761-0.083-1.312 0-1.458 0.006-1.712 0.067-0.32 0.077-0.597 0.208-0.835 0.394-0.091 0.072-0.185 0.142-0.209 0.156-0.027 0.016-0.105-0.029-0.211-0.122-0.235-0.206-0.558-0.357-0.92-0.432-0.268-0.055-0.465-0.063-1.539-0.064-0.934-0-1.3 0.011-1.514 0.049-0.322 0.056-0.673 0.169-0.93 0.3l-0.177 0.090v-0.438h-4.878v0.185zM50.72 14.28c0 0.188 0.026 0.205 0.323 0.205 0.141 0 0.188 0.017 0.261 0.089l0.089 0.089v2.948l-0.080 0.093c-0.071 0.082-0.108 0.095-0.32 0.106l-0.239 0.014v0.362h5.316v-0.37l-0.21-0c-0.227-0-0.393-0.072-0.462-0.201-0.026-0.049-0.034-0.413-0.027-1.188 0.010-1.113 0.010-1.119 0.093-1.28 0.152-0.298 0.445-0.499 0.724-0.499 0.304 0 0.54 0.198 0.571 0.48 0.015 0.14 0.049 1.918 0.050 2.697l0.001 0.362h4.71v-0.37h-0.25c-0.22 0-0.262-0.011-0.353-0.087l-0.104-0.087v-1.153c0-0.638-0.015-1.234-0.034-1.334-0.076-0.401-0.341-0.752-0.704-0.93l-0.187-0.092-1.692-0.010c-0.989-0.006-1.765 0.004-1.867 0.023-0.273 0.050-0.548 0.166-0.788 0.33l-0.22 0.15 0.048-0.51h-4.649v0.164zM78.138 14.2c-0.202 0.065-0.429 0.268-0.552 0.493-0.084 0.153-0.099 0.218-0.099 0.432-0.001 0.412 0.177 0.713 0.537 0.902 0.141 0.075 0.212 0.089 0.437 0.089 0.32 0 0.505-0.071 0.701-0.271 0.223-0.228 0.274-0.359 0.275-0.703 0-0.272-0.009-0.319-0.095-0.465-0.125-0.212-0.273-0.353-0.459-0.436-0.194-0.087-0.541-0.106-0.744-0.041zM78.82 14.423c0.297 0.149 0.496 0.508 0.451 0.813-0.020 0.137-0.21 0.517-0.242 0.485-0.008-0.009-0.031-0.112-0.050-0.23s-0.054-0.245-0.078-0.281c-0.037-0.057-0.035-0.079 0.020-0.153 0.035-0.047 0.072-0.14 0.083-0.206 0.016-0.102 0.003-0.138-0.082-0.234l-0.102-0.114-0.398-0.017c-0.35-0.015-0.389-0.022-0.321-0.061 0.193-0.11 0.501-0.111 0.72-0.002zM78.166 15.758l0.143 0.010v-0.508h0.147c0.085 0 0.164 0.020 0.186 0.047 0.029 0.035 0.101 0.35 0.104 0.449 0 0.005 0.057 0.009 0.126 0.009l0.126 0-0.101 0.067c-0.164 0.108-0.42 0.152-0.611 0.103-0.599-0.151-0.827-0.905-0.405-1.342l0.108-0.111 0.034 1.266 0.143 0.010zM78.672 14.762c0.022 0.022 0.040 0.072 0.040 0.111 0 0.11-0.067 0.152-0.242 0.152h-0.162v-0.303h0.162c0.089 0 0.18 0.018 0.202 0.040zM23.542 15.934c0.069 0.019 0.171 0.073 0.227 0.12l0.102 0.086v1.267l-0.16 0.062c-0.249 0.096-0.56 0.084-0.755-0.031-0.325-0.191-0.475-0.492-0.406-0.818 0.070-0.335 0.302-0.592 0.608-0.674 0.198-0.053 0.23-0.054 0.384-0.012zM44.739 15.934c0.069 0.019 0.171 0.073 0.227 0.12l0.102 0.086v1.267l-0.16 0.062c-0.25 0.096-0.56 0.084-0.755-0.031-0.351-0.206-0.507-0.567-0.392-0.903 0.103-0.299 0.321-0.516 0.594-0.589 0.199-0.053 0.23-0.054 0.383-0.012zM62.697 13.636c-0.001 0.509 0.025 0.48-0.407 0.48h-0.366v0.37h0.74l0.003 0.631c0.001 0.347 0.009 1.015 0.017 1.484 0.017 0.993 0.038 1.077 0.321 1.331 0.29 0.261 0.233 0.254 2.39 0.254h1.912v-0.337h-0.203c-0.256 0-0.416-0.066-0.503-0.208-0.066-0.107-0.068-0.166-0.068-1.634v-1.523h0.774v-0.37h-0.774v-0.808h-3.836l-0 0.328zM19.262 14.438v0.759l0.076-0.023c0.042-0.013 0.117-0.045 0.168-0.070 0.252-0.128 0.96-0.354 1.405-0.448 0.76-0.16 1.611-0.213 1.992-0.123 0.428 0.101 0.719 0.302 0.873 0.603 0.070 0.137 0.128 0.529 0.079 0.529-0.015 0-0.169-0.046-0.343-0.101-0.796-0.255-2.222-0.369-3.129-0.251-0.492 0.064-0.791 0.151-1.133 0.328-0.773 0.4-1.029 1.172-0.572 1.718 0.206 0.246 0.758 0.571 1.224 0.722 0.516 0.167 0.889 0.22 1.564 0.22 0.567 0.001 0.687-0.009 1.060-0.089 0.344-0.073 1.013-0.27 1.287-0.379 0.052-0.020 0.059-0.001 0.059 0.166v0.189h4.744v-0.363l-0.302-0.012c-0.269-0.010-0.311-0.021-0.386-0.096l-0.084-0.084-0.004-1.126c-0.004-1.187-0.023-1.401-0.15-1.648-0.173-0.336-0.619-0.654-1.042-0.742-0.132-0.028-0.806-0.035-2.347-0.025-2.032 0.013-2.19 0.018-2.63 0.088-0.378 0.060-1.036 0.213-1.559 0.361l-0.076 0.021v-0.883h-0.774v0.759zM40.458 14.438v0.759l0.076-0.023c0.042-0.013 0.115-0.044 0.164-0.068 0.163-0.082 0.547-0.219 0.904-0.32 1.212-0.344 2.311-0.394 2.87-0.131 0.206 0.097 0.417 0.305 0.5 0.493 0.070 0.157 0.124 0.516 0.078 0.516-0.014 0-0.172-0.047-0.35-0.104-0.18-0.058-0.576-0.142-0.895-0.19-0.482-0.073-0.693-0.087-1.346-0.089-1.041-0.003-1.45 0.069-2.009 0.357-0.303 0.156-0.563 0.398-0.691 0.643-0.078 0.149-0.091 0.215-0.092 0.461-0.001 0.267 0.007 0.3 0.112 0.471 0.138 0.225 0.372 0.419 0.751 0.62 0.362 0.193 0.585 0.271 1.071 0.374 0.735 0.157 1.538 0.144 2.305-0.036 0.284-0.067 0.893-0.253 1.102-0.337 0.052-0.021 0.059-0.001 0.059 0.165v0.189h4.744v-0.37h-0.285c-0.268 0-0.292-0.006-0.395-0.098l-0.11-0.098-0.034-2.58-0.096-0.172c-0.204-0.368-0.571-0.634-1.018-0.738-0.203-0.047-0.499-0.052-2.385-0.040-2.003 0.013-2.186 0.019-2.608 0.086-0.469 0.075-1.151 0.231-1.409 0.323-0.248 0.089-0.239 0.103-0.239-0.385v-0.437h-0.774v0.759zM68.719 14.074c-0.001 0.199-0.010 0.479-0.020 0.623l-0.019 0.261h0.747v-0.437h0.824c0.454 0 0.824 0.007 0.824 0.015s-0.179 0.3-0.398 0.648c-0.588 0.936-1.519 2.411-1.715 2.719l-0.172 0.269 6.457 0.017v0.504h0.707v-1.245h-0.707v0.37h-1.649l0.079-0.126c0.099-0.156 0.809-1.261 0.914-1.422 0.042-0.065 0.33-0.511 0.639-0.993s0.599-0.929 0.643-0.995c0.044-0.066 0.080-0.13 0.080-0.143s-1.469-0.023-3.264-0.023h-3.264v-0.404h-0.707l-0.001 0.362zM36.421 14.065c-0.702 0.141-1.386 0.521-1.935 1.075l-0.269 0.272v-1.313l-4.761-0.017v0.371h0.254c0.225 0 0.263 0.010 0.337 0.082l0.082 0.082v1.496c0 1.348-0.006 1.502-0.056 1.552-0.085 0.085-0.199 0.117-0.418 0.117h-0.2v0.404h5.518v-0.404h-0.268c-0.246 0-0.277-0.008-0.371-0.093l-0.102-0.093-0.002-0.555c-0.003-0.736 0.045-0.928 0.332-1.322 0.109-0.149 0.387-0.394 0.449-0.394 0.015 0 0.019 0.050 0.008 0.112-0.023 0.145 0.066 0.491 0.183 0.708 0.203 0.377 0.693 0.735 1.155 0.844 0.27 0.064 0.785 0.065 1.078 0.003 0.291-0.062 0.678-0.226 0.878-0.373 0.433-0.318 0.62-0.87 0.478-1.414-0.224-0.861-1.268-1.364-2.37-1.143zM1.060 14.267v0.185h0.214c0.118 0 0.26 0.016 0.317 0.036 0.212 0.074 0.209 0.051 0.209 1.628v1.431l-0.098 0.109c-0.093 0.104-0.112 0.11-0.37 0.122l-0.272 0.012v0.397h5.585v-0.404h-0.269c-0.29 0-0.38-0.045-0.421-0.21-0.011-0.042-0.015-0.608-0.009-1.257l0.010-1.18 0.102-0.165c0.254-0.411 0.8-0.447 1.101-0.075 0.053 0.066 0.11 0.178 0.127 0.25s0.031 0.785 0.031 1.585l0.001 1.455h4.778v-0.404h-0.254c-0.225 0-0.263-0.010-0.336-0.082l-0.082-0.082 0.001-1.221c0.001-1.117 0.006-1.233 0.063-1.356 0.12-0.26 0.32-0.387 0.609-0.387s0.489 0.127 0.609 0.387c0.058 0.125 0.062 0.247 0.063 1.64l0.001 1.506h4.878v-0.404h-0.297c-0.285 0-0.3-0.004-0.393-0.101l-0.096-0.101-0.013-1.254c-0.014-1.388-0.020-1.434-0.234-1.699-0.139-0.173-0.445-0.349-0.784-0.451-0.243-0.073-0.309-0.077-1.759-0.088-1.453-0.011-1.517-0.009-1.8 0.061-0.35 0.087-0.669 0.246-0.904 0.451l-0.171 0.15-0.080-0.086c-0.044-0.047-0.179-0.15-0.299-0.229-0.489-0.321-0.713-0.356-2.27-0.356-1.31 0-1.559 0.022-2.019 0.179-0.13 0.044-0.315 0.121-0.412 0.17l-0.177 0.090v-0.438h-4.878v0.185zM50.72 14.28c0 0.189 0.025 0.205 0.33 0.205 0.144 0 0.194 0.016 0.261 0.083l0.083 0.082v2.96l-0.080 0.093c-0.071 0.082-0.108 0.095-0.32 0.106l-0.239 0.014v0.362h5.316v-0.37l-0.21-0c-0.227-0-0.393-0.072-0.462-0.201-0.026-0.049-0.034-0.413-0.027-1.188 0.010-1.113 0.010-1.119 0.093-1.28 0.152-0.298 0.445-0.499 0.724-0.499 0.304 0 0.54 0.198 0.571 0.48 0.017 0.156 0.049 1.812 0.050 2.596l0.001 0.463h4.71v-0.37h-0.25c-0.22 0-0.262-0.011-0.353-0.087l-0.104-0.087v-1.153c0-0.638-0.015-1.234-0.034-1.334-0.075-0.397-0.346-0.754-0.705-0.931l-0.186-0.091-1.692-0.010c-0.989-0.006-1.765 0.004-1.867 0.023-0.273 0.050-0.548 0.166-0.788 0.33l-0.22 0.15 0.048-0.51h-4.649v0.164zM78.131 14.205c-0.21 0.073-0.422 0.262-0.545 0.487-0.084 0.153-0.099 0.218-0.099 0.432-0.001 0.412 0.177 0.713 0.537 0.902 0.232 0.123 0.629 0.128 0.865 0.012 0.187-0.092 0.374-0.274 0.474-0.461 0.107-0.199 0.105-0.644-0.004-0.866-0.101-0.206-0.286-0.39-0.476-0.474-0.204-0.090-0.544-0.106-0.751-0.035zM78.82 14.423c0.321 0.161 0.508 0.527 0.439 0.858-0.034 0.165-0.196 0.475-0.23 0.441-0.008-0.009-0.031-0.112-0.050-0.23s-0.054-0.245-0.078-0.281c-0.037-0.057-0.035-0.079 0.020-0.153 0.035-0.047 0.072-0.14 0.083-0.206 0.016-0.102 0.003-0.138-0.082-0.234l-0.102-0.114-0.398-0.017c-0.35-0.015-0.389-0.022-0.321-0.061 0.193-0.11 0.501-0.111 0.72-0.002zM78.166 15.758l0.143 0.010v-0.508h0.147c0.085 0 0.164 0.020 0.186 0.047 0.029 0.035 0.101 0.35 0.104 0.449 0 0.005 0.057 0.009 0.126 0.009l0.126 0-0.101 0.067c-0.164 0.108-0.42 0.152-0.611 0.103-0.599-0.151-0.827-0.905-0.405-1.342l0.108-0.111 0.034 1.266 0.143 0.010zM78.672 14.762c0.022 0.022 0.040 0.072 0.040 0.111 0 0.11-0.067 0.152-0.242 0.152h-0.162v-0.303h0.162c0.089 0 0.18 0.018 0.202 0.040zM23.542 15.934c0.069 0.019 0.171 0.073 0.227 0.12l0.102 0.086v1.267l-0.16 0.062c-0.226 0.087-0.556 0.081-0.737-0.014-0.186-0.098-0.364-0.312-0.418-0.503-0.114-0.406 0.177-0.892 0.601-1.006 0.198-0.053 0.23-0.054 0.384-0.012zM44.739 15.934c0.069 0.019 0.171 0.073 0.227 0.12l0.102 0.086v1.267l-0.16 0.062c-0.226 0.087-0.556 0.081-0.737-0.014-0.347-0.182-0.526-0.584-0.41-0.92 0.103-0.299 0.321-0.516 0.594-0.589 0.199-0.053 0.23-0.054 0.383-0.012zM62.697 13.636c-0.001 0.509 0.025 0.48-0.407 0.48h-0.366v0.37h0.74l0.003 0.631c0.001 0.347 0.009 1.015 0.017 1.484 0.017 0.993 0.038 1.077 0.321 1.331 0.29 0.261 0.233 0.254 2.39 0.254h1.912v-0.337h-0.203c-0.256 0-0.416-0.066-0.503-0.208-0.066-0.107-0.068-0.166-0.068-1.634v-1.523h0.774v-0.37h-0.774v-0.808h-3.836l-0 0.328zM19.262 14.438v0.759l0.076-0.023c0.042-0.013 0.117-0.045 0.168-0.070 0.252-0.128 0.96-0.354 1.405-0.448 0.76-0.16 1.611-0.213 1.992-0.123 0.428 0.101 0.719 0.302 0.873 0.603 0.070 0.137 0.128 0.529 0.079 0.529-0.015 0-0.169-0.046-0.343-0.101-0.796-0.255-2.222-0.369-3.129-0.251-0.492 0.064-0.791 0.151-1.133 0.328-0.497 0.258-0.795 0.669-0.794 1.098 0.001 0.365 0.142 0.603 0.519 0.878 0.843 0.615 2.27 0.853 3.552 0.592 0.342-0.070 1-0.261 1.286-0.374 0.052-0.020 0.059-0.001 0.059 0.166v0.189h4.744v-0.363l-0.302-0.012c-0.269-0.010-0.311-0.021-0.386-0.096l-0.084-0.084-0.004-1.126c-0.004-1.202-0.023-1.409-0.156-1.653-0.186-0.345-0.615-0.648-1.037-0.736-0.132-0.028-0.806-0.035-2.347-0.025-2.032 0.013-2.19 0.018-2.63 0.088-0.378 0.060-1.036 0.213-1.559 0.361l-0.076 0.021v-0.883h-0.774v0.759zM40.458 14.436c0 0.416 0.006 0.757 0.014 0.757s0.137-0.053 0.287-0.117c1.056-0.452 2.586-0.7 3.335-0.542 0.578 0.123 0.913 0.451 0.964 0.947 0.010 0.101 0.007 0.183-0.008 0.183s-0.17-0.046-0.346-0.103c-0.854-0.273-2.454-0.376-3.371-0.215-0.756 0.132-1.333 0.475-1.574 0.936-0.077 0.147-0.090 0.214-0.091 0.46-0.001 0.267 0.007 0.3 0.111 0.471 0.378 0.621 1.66 1.111 2.899 1.108 0.673-0.001 1.526-0.181 2.347-0.495 0.031-0.012 0.042 0.035 0.042 0.173v0.189h4.744v-0.37h-0.285c-0.268 0-0.292-0.006-0.395-0.098l-0.11-0.098-0.034-2.58-0.096-0.172c-0.204-0.368-0.571-0.634-1.018-0.738-0.203-0.047-0.499-0.052-2.385-0.040-2.003 0.013-2.186 0.019-2.608 0.086-0.469 0.075-1.151 0.231-1.409 0.323-0.248 0.089-0.239 0.103-0.239-0.385v-0.437h-0.774v0.757zM68.719 14.091c-0.001 0.208-0.010 0.488-0.020 0.623l-0.019 0.244h0.747v-0.437h0.824c0.454 0 0.824 0.007 0.824 0.016s-0.179 0.3-0.397 0.648c-1.001 1.589-1.329 2.11-1.598 2.532l-0.289 0.454 6.457 0.017v0.504h0.707v-1.245h-0.707v0.37h-1.649l0.090-0.143c0.085-0.136 0.739-1.153 0.903-1.405 0.042-0.065 0.33-0.511 0.639-0.993s0.599-0.929 0.643-0.995c0.044-0.066 0.080-0.13 0.080-0.143s-1.469-0.023-3.264-0.023h-3.264v-0.404h-0.707l-0.001 0.378zM36.421 14.063c-0.716 0.151-1.388 0.525-1.935 1.078l-0.269 0.272 0-0.657 0-0.657-4.761-0.017v0.371h0.254c0.225 0 0.263 0.010 0.337 0.082l0.082 0.082-0 1.491c-0 0.82-0.012 1.506-0.025 1.524-0.071 0.097-0.172 0.136-0.391 0.151l-0.239 0.017-0.020 0.387h5.521v-0.404h-0.268c-0.246 0-0.277-0.008-0.371-0.093l-0.102-0.093-0.002-0.555c-0.003-0.746 0.046-0.936 0.346-1.339 0.121-0.162 0.369-0.377 0.434-0.377 0.014 0 0.018 0.050 0.008 0.112-0.023 0.145 0.066 0.491 0.183 0.708 0.203 0.377 0.693 0.735 1.155 0.844 0.802 0.189 1.838-0.111 2.234-0.647 0.173-0.235 0.266-0.563 0.243-0.862-0.049-0.642-0.467-1.133-1.151-1.355-0.332-0.107-0.918-0.138-1.262-0.065zM1.060 14.267v0.185h0.238c0.253 0 0.35 0.032 0.443 0.147 0.053 0.065 0.058 0.198 0.059 1.51l0.001 1.438-0.098 0.109c-0.093 0.104-0.112 0.11-0.37 0.122l-0.272 0.012v0.397h5.585v-0.404h-0.269c-0.29 0-0.38-0.045-0.421-0.21-0.011-0.042-0.015-0.608-0.009-1.257l0.010-1.18 0.102-0.165c0.254-0.411 0.8-0.447 1.101-0.075 0.053 0.066 0.11 0.178 0.127 0.25s0.031 0.785 0.031 1.585l0.001 1.455h4.778v-0.404h-0.254c-0.225 0-0.263-0.010-0.336-0.082l-0.082-0.082 0.001-1.221c0.001-1.117 0.006-1.233 0.063-1.356 0.12-0.26 0.32-0.387 0.609-0.387s0.489 0.127 0.609 0.387c0.058 0.125 0.062 0.247 0.063 1.64l0.001 1.506h4.878v-0.404h-0.297c-0.285 0-0.3-0.004-0.393-0.101l-0.096-0.101-0.015-1.271c-0.017-1.413-0.019-1.427-0.249-1.702-0.138-0.166-0.483-0.351-0.835-0.449-0.197-0.055-0.373-0.061-1.766-0.061-1.41 0-1.569 0.006-1.783 0.063-0.302 0.081-0.63 0.251-0.842 0.437l-0.168 0.147-0.166-0.146c-0.249-0.219-0.581-0.38-0.937-0.453-0.27-0.056-0.464-0.064-1.541-0.064-0.934-0-1.3 0.011-1.514 0.049-0.322 0.056-0.673 0.169-0.93 0.3l-0.177 0.090v-0.438h-4.878v0.185zM50.72 14.28c0 0.189 0.025 0.205 0.33 0.205 0.144 0 0.194 0.016 0.261 0.083l0.083 0.082v2.96l-0.080 0.093c-0.071 0.082-0.108 0.095-0.32 0.106l-0.239 0.014v0.362h5.316v-0.37h-0.204c-0.115 0-0.246-0.022-0.301-0.050-0.203-0.105-0.202-0.1-0.202-1.263 0-1.212 0.014-1.303 0.236-1.556 0.415-0.471 1.1-0.364 1.16 0.18 0.017 0.159 0.049 1.791 0.050 2.579l0.001 0.48h4.71v-0.37h-0.25c-0.22 0-0.262-0.011-0.353-0.087l-0.104-0.087v-1.153c0-0.638-0.015-1.234-0.034-1.334-0.075-0.397-0.346-0.754-0.705-0.931l-0.186-0.091-1.682-0.010c-1.172-0.007-1.743 0.001-1.883 0.028-0.299 0.058-0.537 0.157-0.783 0.325l-0.22 0.151 0.044-0.51h-4.645v0.164zM78.131 14.205c-0.21 0.073-0.422 0.262-0.545 0.487-0.084 0.153-0.099 0.218-0.099 0.432-0.001 0.403 0.186 0.719 0.534 0.902 0.143 0.075 0.215 0.090 0.44 0.090 0.408 0.001 0.667-0.152 0.886-0.521 0.078-0.132 0.089-0.188 0.089-0.437 0-0.232-0.015-0.316-0.078-0.445-0.101-0.206-0.286-0.39-0.476-0.474-0.204-0.090-0.544-0.106-0.751-0.035zM78.856 14.445c0.194 0.104 0.304 0.241 0.382 0.479 0.049 0.15 0.052 0.209 0.021 0.356-0.035 0.166-0.197 0.476-0.231 0.442-0.008-0.009-0.031-0.112-0.050-0.23s-0.054-0.245-0.078-0.281c-0.038-0.057-0.034-0.080 0.026-0.162 0.104-0.14 0.094-0.336-0.022-0.453-0.088-0.088-0.112-0.093-0.487-0.109-0.347-0.015-0.385-0.022-0.317-0.061 0.106-0.061 0.336-0.1 0.478-0.081 0.065 0.009 0.19 0.054 0.278 0.101zM78.166 15.758l0.143 0.010v-0.508h0.147c0.085 0 0.164 0.020 0.186 0.047 0.029 0.035 0.101 0.35 0.104 0.449 0 0.005 0.057 0.009 0.126 0.009l0.126 0-0.101 0.067c-0.164 0.108-0.42 0.152-0.611 0.103-0.599-0.151-0.827-0.905-0.405-1.342l0.108-0.111 0.034 1.266 0.143 0.010zM78.672 14.762c0.022 0.022 0.040 0.072 0.040 0.111 0 0.11-0.067 0.152-0.242 0.152h-0.162v-0.303h0.162c0.089 0 0.18 0.018 0.202 0.040zM23.542 15.934c0.069 0.019 0.171 0.073 0.227 0.12l0.102 0.086v1.267l-0.16 0.062c-0.226 0.087-0.556 0.081-0.737-0.014-0.186-0.098-0.364-0.312-0.418-0.503-0.114-0.406 0.177-0.892 0.601-1.006 0.198-0.053 0.23-0.054 0.384-0.012zM44.739 15.934c0.069 0.019 0.171 0.073 0.227 0.12l0.102 0.086v1.267l-0.16 0.062c-0.226 0.087-0.556 0.081-0.737-0.014-0.261-0.137-0.45-0.433-0.45-0.706 0-0.346 0.287-0.71 0.633-0.803 0.199-0.053 0.23-0.054 0.383-0.012zM62.667 14.068c0.002 0.039 0.009 0.047 0.020 0.020 0.010-0.024 0.009-0.053-0.003-0.065s-0.019 0.009-0.017 0.044zM34.203 14.304c0.002 0.039 0.010 0.047 0.020 0.020 0.010-0.024 0.009-0.053-0.003-0.065s-0.019 0.009-0.018 0.044zM41.204 14.452c0 0.046 0.008 0.065 0.017 0.042s0.009-0.061 0-0.084c-0.009-0.023-0.017-0.004-0.017 0.042zM50.848 14.475c0.024 0.010 0.054 0.009 0.065-0.003s-0.009-0.019-0.044-0.018c-0.039 0.002-0.047 0.010-0.020 0.020zM12.056 14.644c0.024 0.010 0.053 0.009 0.064-0.003s-0.009-0.019-0.044-0.018c-0.039 0.002-0.047 0.010-0.020 0.020zM34.208 14.789c0 0.065 0.007 0.091 0.015 0.059s0.009-0.085 0-0.118c-0.009-0.033-0.015-0.006-0.015 0.059zM34.203 15.279c0.002 0.039 0.010 0.047 0.020 0.020 0.010-0.024 0.009-0.053-0.003-0.065s-0.019 0.009-0.018 0.044zM27.811 15.717c0.002 0.039 0.010 0.047 0.020 0.020 0.010-0.024 0.009-0.053-0.003-0.065s-0.019 0.009-0.018 0.044zM62.674 15.882c0 0.093 0.007 0.126 0.014 0.075s0.007-0.127-0.001-0.168c-0.008-0.041-0.014 0-0.014 0.093zM56.779 16.12c0.002 0.039 0.009 0.047 0.020 0.020 0.010-0.024 0.009-0.053-0.003-0.065s-0.019 0.009-0.017 0.044zM62.669 16.202c0 0.046 0.008 0.065 0.017 0.042s0.009-0.061 0-0.084c-0.009-0.023-0.017-0.004-0.017 0.042zM55.335 16.337c0 0.046 0.008 0.065 0.017 0.042s0.009-0.061 0-0.084c-0.009-0.023-0.017-0.004-0.017 0.042zM56.779 16.726c0.002 0.039 0.009 0.047 0.020 0.020 0.010-0.024 0.009-0.053-0.003-0.065s-0.019 0.009-0.017 0.044zM34.208 17.009c0 0.065 0.007 0.091 0.015 0.059s0.009-0.085 0-0.118c-0.009-0.033-0.015-0.006-0.015 0.059zM62.667 14.068c0.002 0.039 0.009 0.047 0.020 0.020 0.010-0.024 0.009-0.053-0.003-0.065s-0.019 0.009-0.017 0.044zM34.203 14.842c0.002 0.039 0.010 0.047 0.020 0.020 0.010-0.024 0.009-0.053-0.003-0.065s-0.019 0.009-0.018 0.044zM34.203 15.279c0.002 0.039 0.010 0.047 0.020 0.020 0.010-0.024 0.009-0.053-0.003-0.065s-0.019 0.009-0.018 0.044zM56.779 16.726c0.002 0.039 0.009 0.047 0.020 0.020 0.010-0.024 0.009-0.053-0.003-0.065s-0.019 0.009-0.017 0.044z"></path>
</svg>
