<!-- Generated by IcoMoon.io -->
<svg version="1.1" xmlns="http://www.w3.org/2000/svg" width="43" height="32" viewBox="0 0 43 32">
<path d="M10.623 9.786c-4.535 0.228-9.215 1.609-9.857 2.908-0.076 0.153-0.078 0.162-0.067 0.357 0.011 0.23 0.061 0.38 0.188 0.57 0.095 0.142 0.301 0.351 0.471 0.479 0.514 0.386 1.479 0.733 2.529 0.912 0.431 0.074 0.458 0.068 0.271-0.055-0.221-0.145-0.476-0.411-0.566-0.59-0.154-0.305-0.085-0.55 0.241-0.861 0.986-0.942 3.762-1.758 7.327-2.155 1.453-0.162 2.565-0.23 4.058-0.251 2.3-0.032 4.632 0.14 6.763 0.499 0.463 0.078 1.282 0.241 1.491 0.297 0.118 0.031 0.167 0.026 0.108-0.011-0.079-0.050-0.714-0.321-1.084-0.461-2.433-0.926-5.444-1.494-8.716-1.642-0.546-0.024-2.65-0.024-3.156 0.002zM13.414 12.555c-1.043 0.11-2.044 0.611-2.799 1.404-0.579 0.607-0.958 1.327-1.134 2.152-0.053 0.251-0.059 0.313-0.058 0.746 0 0.408 0.007 0.502 0.048 0.691 0.14 0.64 0.428 1.161 0.883 1.601 0.557 0.537 1.22 0.826 2.058 0.896 0.727 0.062 1.525-0.111 2.232-0.484 1.215-0.64 2.088-1.784 2.35-3.083 0.043-0.212 0.050-0.308 0.050-0.717-0-0.367-0.009-0.514-0.039-0.661-0.083-0.408-0.26-0.837-0.491-1.186-0.158-0.239-0.579-0.656-0.832-0.824-0.656-0.435-1.449-0.623-2.268-0.537zM23.451 13.754c0 0.011-0.053 0.351-0.118 0.754s-0.118 0.738-0.118 0.742c0 0.004-0.109 0.008-0.242 0.008h-0.242l-0.081 0.531c-0.045 0.292-0.081 0.539-0.080 0.547s0.108 0.016 0.239 0.016h0.238l-0.012 0.059c-0.014 0.067-0.549 3.448-0.549 3.469 0 0.008 0.26 0.014 0.578 0.014h0.577l0.023-0.134c0.027-0.156 0.54-3.386 0.54-3.399 0-0.005 0.169-0.009 0.376-0.009s0.376-0.004 0.376-0.008c0-0.016 0.152-0.969 0.163-1.027l0.012-0.059h-0.757l0.012-0.070c0.032-0.184 0.225-1.412 0.225-1.432 0-0.015-0.187-0.023-0.579-0.023-0.354 0-0.579 0.008-0.579 0.021zM14.005 13.808c1.504 0.229 2.2 1.781 1.459 3.255-0.221 0.44-0.661 0.943-1.062 1.215-1.106 0.75-2.366 0.712-3.126-0.094-0.854-0.905-0.712-2.433 0.325-3.481 0.248-0.251 0.512-0.446 0.815-0.601 0.547-0.281 1.056-0.375 1.59-0.294zM19.941 15.142c-0.364 0.052-0.72 0.206-0.931 0.403l-0.073 0.067 0.013-0.086c0.007-0.047 0.019-0.127 0.027-0.177l0.015-0.091h-0.582c-0.32 0-0.582 0.004-0.582 0.009s-0.247 1.558-0.547 3.451-0.547 3.459-0.547 3.479c-0 0.035 0.042 0.038 0.579 0.038 0.409 0 0.579-0.007 0.579-0.024 0-0.028 0.402-2.557 0.421-2.644l0.012-0.059 0.132 0.118c0.152 0.136 0.397 0.271 0.583 0.321 0.303 0.082 0.817 0.063 1.181-0.043 0.903-0.262 1.595-1.056 1.839-2.112 0.056-0.241 0.077-0.768 0.041-1.014-0.119-0.813-0.627-1.408-1.353-1.586-0.177-0.043-0.651-0.074-0.805-0.052zM27.26 15.161c-0.585 0.103-1.109 0.384-1.551 0.831-0.889 0.9-1.090 2.222-0.475 3.133 0.6 0.888 1.874 1.137 2.97 0.578 0.787-0.401 1.325-1.091 1.529-1.966 0.060-0.258 0.055-0.857-0.010-1.095-0.196-0.72-0.736-1.254-1.459-1.442-0.262-0.068-0.735-0.087-1.004-0.039zM32.489 15.144c-0.206 0.035-0.491 0.179-0.629 0.318l-0.059 0.061 0.015-0.144 0.015-0.144h-1.157l-0.361 2.292c-0.198 1.261-0.365 2.309-0.37 2.33-0.010 0.036 0.024 0.038 0.575 0.032l0.585-0.006 0.199-1.267c0.216-1.368 0.265-1.604 0.392-1.868 0.165-0.342 0.396-0.512 0.696-0.514 0.19-0.001 0.287 0.051 0.348 0.186 0.035 0.077 0.041 0.14 0.039 0.403-0.001 0.288-0.018 0.413-0.22 1.658-0.12 0.741-0.219 1.361-0.219 1.379 0 0.028 0.074 0.033 0.579 0.033 0.319 0 0.579-0.003 0.579-0.006 0-0.033 0.395-2.515 0.421-2.641 0.136-0.674 0.424-1.009 0.868-1.011 0.225-0.001 0.329 0.059 0.383 0.221 0.038 0.113 0.029 0.479-0.019 0.773-0.024 0.146-0.125 0.784-0.225 1.417s-0.187 1.172-0.193 1.199l-0.011 0.048h1.172l0.22-1.401c0.121-0.77 0.23-1.512 0.243-1.648 0.058-0.612-0.050-1.041-0.342-1.357-0.454-0.491-1.473-0.476-2.14 0.030l-0.15 0.114-0.141-0.142c-0.271-0.273-0.709-0.413-1.094-0.349zM39.016 15.16c-0.821 0.136-1.523 0.672-1.921 1.469-0.106 0.213-0.238 0.612-0.283 0.861-0.045 0.245-0.050 0.746-0.011 0.934 0.137 0.653 0.498 1.134 1.043 1.395 0.107 0.051 0.257 0.109 0.334 0.128 0.339 0.085 0.815 0.062 1.167-0.054 0.211-0.070 0.331-0.134 0.51-0.269l0.12-0.091-0.028 0.143c-0.047 0.244-0.11 0.219 0.55 0.219 0.418 0 0.579-0.007 0.579-0.024 0-0.014 0.159-1.035 0.354-2.271s0.354-2.268 0.354-2.294v-0.048h-0.568c-0.636 0-0.575-0.017-0.603 0.172-0.027 0.187-0.024 0.185-0.149 0.067-0.136-0.129-0.367-0.249-0.589-0.307-0.217-0.056-0.62-0.071-0.861-0.031zM20.166 16.246c0.672 0.107 0.947 0.739 0.682 1.566-0.171 0.535-0.52 0.901-0.995 1.044-0.19 0.057-0.54 0.052-0.696-0.010-0.25-0.099-0.421-0.282-0.519-0.552-0.065-0.18-0.080-0.581-0.030-0.828 0.137-0.677 0.727-1.217 1.353-1.24 0.036-0.001 0.127 0.008 0.204 0.020zM27.917 16.28c0.177 0.052 0.275 0.11 0.408 0.236 0.221 0.211 0.313 0.475 0.294 0.845-0.024 0.467-0.23 0.877-0.6 1.194-0.229 0.197-0.641 0.353-0.925 0.352-0.132-0-0.367-0.055-0.5-0.116-0.238-0.109-0.46-0.388-0.522-0.657-0.037-0.162-0.028-0.49 0.020-0.678 0.122-0.484 0.441-0.872 0.891-1.084 0.314-0.148 0.64-0.18 0.935-0.093zM39.645 16.256c0.183 0.048 0.315 0.123 0.427 0.242 0.241 0.258 0.322 0.611 0.243 1.063-0.114 0.656-0.55 1.153-1.144 1.305-0.999 0.255-1.57-0.826-0.986-1.869 0.13-0.234 0.426-0.524 0.638-0.628 0.283-0.139 0.571-0.178 0.822-0.113zM10.816 9.777c-3.047 0.13-6.407 0.819-8.416 1.724-0.693 0.312-1.121 0.584-1.434 0.912-0.177 0.184-0.272 0.389-0.272 0.58 0 0.408 0.224 0.776 0.682 1.12 0.208 0.156 0.578 0.342 1.031 0.52 0.39 0.152 1.293 0.367 1.775 0.423 0.145 0.017 0.144 0.012-0.042-0.109-0.201-0.13-0.461-0.405-0.548-0.579-0.064-0.127-0.075-0.169-0.074-0.29 0.003-0.202 0.063-0.317 0.287-0.541 0.152-0.153 0.432-0.369 0.563-0.434 0.016-0.008 0.097-0.053 0.18-0.101s0.203-0.111 0.268-0.14c0.065-0.030 0.157-0.072 0.204-0.094 0.305-0.141 0.612-0.26 1.009-0.391 1.989-0.657 4.619-1.073 7.868-1.246 0.659-0.035 2.963-0.035 3.628 0.001 1.589 0.084 2.933 0.221 4.273 0.435 0.567 0.091 1.477 0.271 1.716 0.341 0.041 0.012 0.078 0.018 0.082 0.014 0.008-0.008-0.22-0.142-0.24-0.142-0.006 0-0.084-0.034-0.174-0.075s-0.169-0.075-0.177-0.075c-0.008-0.001-0.042-0.015-0.075-0.031-0.156-0.082-1.228-0.464-1.669-0.595-2.413-0.719-4.714-1.094-7.493-1.22-0.409-0.018-2.559-0.023-2.952-0.007zM13.414 12.555c-1.043 0.11-2.044 0.611-2.799 1.404-0.579 0.607-0.958 1.327-1.134 2.152-0.053 0.251-0.059 0.313-0.058 0.746 0 0.408 0.007 0.502 0.048 0.691 0.14 0.64 0.428 1.161 0.883 1.601 0.557 0.537 1.22 0.826 2.058 0.896 0.727 0.062 1.525-0.111 2.232-0.484 1.215-0.64 2.088-1.784 2.35-3.083 0.043-0.212 0.050-0.308 0.050-0.717-0-0.367-0.009-0.514-0.039-0.661-0.083-0.408-0.26-0.837-0.491-1.186-0.158-0.239-0.579-0.656-0.832-0.824-0.656-0.435-1.449-0.623-2.268-0.537zM23.451 13.754c0 0.011-0.053 0.351-0.118 0.754s-0.118 0.738-0.118 0.742c0 0.004-0.109 0.008-0.242 0.008h-0.242l-0.081 0.531c-0.045 0.292-0.081 0.539-0.080 0.547s0.108 0.016 0.239 0.016h0.238l-0.012 0.059c-0.014 0.067-0.549 3.448-0.549 3.469 0 0.008 0.26 0.014 0.578 0.014h0.578l0.023-0.134c0.027-0.156 0.54-3.386 0.54-3.399 0-0.005 0.169-0.009 0.376-0.009s0.376-0.004 0.376-0.008c0-0.016 0.152-0.969 0.163-1.027l0.012-0.059h-0.757l0.012-0.070c0.032-0.184 0.225-1.412 0.225-1.432 0-0.015-0.187-0.023-0.579-0.023-0.354 0-0.579 0.008-0.579 0.021zM14.005 13.808c1.504 0.229 2.2 1.781 1.459 3.255-0.221 0.44-0.661 0.943-1.062 1.215-1.106 0.75-2.366 0.712-3.126-0.094-0.854-0.905-0.712-2.433 0.325-3.481 0.248-0.251 0.512-0.446 0.815-0.601 0.547-0.281 1.056-0.375 1.59-0.294zM19.941 15.142c-0.364 0.052-0.72 0.206-0.931 0.403l-0.073 0.067 0.013-0.086c0.007-0.047 0.019-0.127 0.027-0.177l0.015-0.091h-0.582c-0.32 0-0.582 0.004-0.582 0.009s-0.247 1.558-0.547 3.451-0.547 3.459-0.547 3.479c-0 0.035 0.042 0.038 0.579 0.038 0.409 0 0.579-0.007 0.579-0.024 0-0.028 0.402-2.557 0.421-2.644l0.012-0.059 0.132 0.118c0.152 0.136 0.397 0.271 0.583 0.321 0.303 0.082 0.817 0.063 1.181-0.043 0.903-0.262 1.595-1.056 1.839-2.112 0.056-0.241 0.077-0.768 0.041-1.014-0.119-0.813-0.627-1.408-1.353-1.586-0.177-0.043-0.651-0.074-0.805-0.052zM27.26 15.161c-0.585 0.103-1.109 0.384-1.551 0.831-0.889 0.9-1.090 2.222-0.475 3.133 0.6 0.888 1.874 1.137 2.97 0.578 0.787-0.401 1.325-1.091 1.529-1.966 0.060-0.258 0.055-0.857-0.010-1.095-0.196-0.72-0.736-1.254-1.459-1.442-0.262-0.068-0.735-0.087-1.004-0.039zM32.489 15.144c-0.206 0.035-0.491 0.179-0.629 0.318l-0.059 0.061 0.015-0.144 0.015-0.144h-1.157l-0.361 2.292c-0.198 1.261-0.365 2.309-0.37 2.33-0.010 0.036 0.024 0.038 0.575 0.032l0.585-0.006 0.2-1.267c0.216-1.368 0.265-1.604 0.392-1.868 0.165-0.342 0.396-0.512 0.696-0.514 0.19-0.001 0.287 0.051 0.348 0.186 0.035 0.077 0.041 0.14 0.039 0.403-0.001 0.288-0.018 0.413-0.22 1.658-0.12 0.741-0.219 1.361-0.219 1.379 0 0.028 0.074 0.033 0.579 0.033 0.319 0 0.579-0.003 0.579-0.006 0-0.033 0.395-2.515 0.421-2.641 0.136-0.674 0.424-1.009 0.868-1.011 0.225-0.001 0.329 0.059 0.383 0.221 0.038 0.113 0.029 0.479-0.019 0.773-0.024 0.146-0.125 0.784-0.225 1.417s-0.187 1.172-0.193 1.199l-0.011 0.048h1.172l0.22-1.401c0.121-0.77 0.23-1.512 0.243-1.648 0.058-0.612-0.050-1.041-0.342-1.357-0.454-0.491-1.473-0.476-2.14 0.030l-0.15 0.114-0.141-0.142c-0.271-0.273-0.709-0.413-1.094-0.349zM39.016 15.16c-0.821 0.136-1.523 0.672-1.921 1.469-0.106 0.213-0.238 0.612-0.283 0.861-0.045 0.245-0.050 0.746-0.011 0.934 0.137 0.653 0.498 1.134 1.043 1.395 0.107 0.051 0.257 0.109 0.334 0.128 0.339 0.085 0.815 0.062 1.167-0.054 0.211-0.070 0.331-0.134 0.51-0.269l0.12-0.091-0.028 0.143c-0.047 0.244-0.11 0.219 0.55 0.219 0.418 0 0.579-0.007 0.579-0.024 0-0.014 0.159-1.035 0.354-2.271s0.354-2.268 0.354-2.294v-0.048h-0.568c-0.636 0-0.575-0.017-0.603 0.172-0.027 0.187-0.024 0.185-0.149 0.067-0.136-0.129-0.367-0.249-0.589-0.307-0.217-0.056-0.62-0.071-0.861-0.031zM20.166 16.246c0.672 0.107 0.947 0.739 0.682 1.566-0.171 0.535-0.52 0.901-0.995 1.044-0.19 0.057-0.54 0.052-0.696-0.010-0.25-0.099-0.421-0.282-0.519-0.552-0.065-0.18-0.080-0.581-0.030-0.828 0.137-0.677 0.727-1.217 1.353-1.24 0.036-0.001 0.127 0.008 0.204 0.020zM27.917 16.28c0.177 0.052 0.275 0.11 0.408 0.236 0.221 0.211 0.313 0.475 0.294 0.845-0.024 0.467-0.23 0.877-0.6 1.194-0.229 0.197-0.641 0.353-0.926 0.352-0.132-0-0.367-0.055-0.5-0.116-0.238-0.109-0.46-0.388-0.522-0.657-0.037-0.162-0.028-0.49 0.020-0.678 0.122-0.484 0.441-0.872 0.891-1.084 0.314-0.148 0.64-0.18 0.935-0.093zM39.645 16.256c0.183 0.048 0.315 0.123 0.427 0.242 0.241 0.258 0.322 0.611 0.243 1.063-0.114 0.656-0.55 1.153-1.144 1.305-0.999 0.255-1.57-0.826-0.986-1.869 0.13-0.234 0.426-0.524 0.638-0.628 0.283-0.139 0.571-0.178 0.822-0.113zM10.952 9.773c-0.005 0.005-0.144 0.015-0.309 0.022-0.362 0.016-0.605 0.031-1.008 0.063-0.138 0.011-0.347 0.031-0.451 0.044-0.081 0.010-0.354 0.034-0.397 0.035-0.017 0.001-0.046 0.006-0.064 0.013s-0.066 0.015-0.107 0.017c-0.077 0.005-0.187 0.018-0.376 0.044-0.181 0.024-0.193 0.027-0.193 0.031 0 0.003-0.034 0.008-0.075 0.011s-0.075 0.008-0.075 0.010c0 0.002-0.039 0.008-0.086 0.012s-0.117 0.013-0.156 0.019c-0.158 0.026-0.192 0.031-0.274 0.044-0.090 0.014-0.185 0.030-0.258 0.043-0.024 0.004-0.086 0.014-0.14 0.021s-0.129 0.024-0.168 0.036c-0.039 0.012-0.102 0.025-0.14 0.029-0.063 0.006-0.138 0.019-0.24 0.042-0.024 0.005-0.072 0.015-0.107 0.021s-0.084 0.016-0.107 0.021c-0.024 0.005-0.075 0.015-0.114 0.021s-0.081 0.017-0.094 0.025c-0.024 0.015-0.127 0.032-0.195 0.032-0.021 0.001-0.038 0.008-0.038 0.017s-0.017 0.017-0.038 0.016c-0.066-0.002-0.241 0.032-0.241 0.048 0 0.008-0.021 0.016-0.048 0.018-0.066 0.004-0.123 0.016-0.295 0.059-0.024 0.006-0.062 0.016-0.086 0.021s-0.059 0.015-0.081 0.020c-0.021 0.005-0.063 0.019-0.095 0.031s-0.063 0.016-0.070 0.009c-0.008-0.008-0.013-0.002-0.013 0.011s-0.014 0.019-0.031 0.012c-0.017-0.007-0.043-0.004-0.058 0.005s-0.051 0.019-0.082 0.022c-0.030 0.004-0.058 0.016-0.062 0.028s-0.015 0.018-0.024 0.013c-0.015-0.009-0.182 0.034-0.259 0.067-0.017 0.008-0.046 0.016-0.064 0.020-0.071 0.014-0.098 0.023-0.142 0.047-0.025 0.014-0.050 0.020-0.056 0.014-0.015-0.015-0.293 0.075-0.351 0.114-0.025 0.016-0.075 0.033-0.112 0.038-0.102 0.013-0.347 0.101-0.347 0.124 0 0.011-0.015 0.015-0.031 0.009s-0.037-0.003-0.044 0.008-0.037 0.021-0.067 0.021c-0.029 0-0.048 0.009-0.041 0.020s-0.005 0.019-0.025 0.017-0.095 0.024-0.165 0.057c-0.123 0.058-0.163 0.072-0.223 0.075-0.015 0.001-0.022 0.011-0.015 0.024s0.006 0.020-0.004 0.017c-0.035-0.009-0.157 0.029-0.147 0.046 0.006 0.010-0.031 0.028-0.082 0.041s-0.118 0.043-0.15 0.068-0.068 0.038-0.082 0.029c-0.017-0.011-0.019-0.006-0.008 0.013 0.013 0.021 0.008 0.024-0.019 0.015-0.024-0.010-0.031-0.006-0.021 0.011s0.004 0.020-0.021 0.011c-0.020-0.008-0.031-0.006-0.026 0.004s-0.013 0.029-0.043 0.043c-0.032 0.015-0.049 0.016-0.041 0.003 0.019-0.031-0.146 0.068-0.174 0.104-0.013 0.017-0.032 0.025-0.043 0.019s-0.058 0.016-0.105 0.050c-0.047 0.034-0.117 0.076-0.156 0.094s-0.070 0.042-0.070 0.054-0.015 0.022-0.033 0.022c-0.020 0-0.027 0.010-0.018 0.024s0.006 0.019-0.009 0.010c-0.014-0.008-0.048 0.008-0.077 0.037s-0.058 0.047-0.064 0.040c-0.007-0.007-0.012 0.005-0.012 0.025s-0.009 0.031-0.021 0.024c-0.011-0.007-0.033 0.007-0.048 0.031s-0.038 0.044-0.050 0.044c-0.030 0-0.122 0.102-0.158 0.176-0.016 0.032-0.039 0.056-0.051 0.053s-0.029 0.020-0.038 0.050c-0.009 0.029-0.017 0.044-0.020 0.032s-0.031 0.036-0.064 0.107c-0.073 0.156-0.077 0.343-0.013 0.629 0.009 0.039 0.023 0.066 0.031 0.060 0.016-0.010 0.079 0.136 0.071 0.165-0.003 0.009 0.005 0.016 0.017 0.016s0.021 0.015 0.021 0.033c0 0.018 0.010 0.028 0.021 0.020s0.021 0.002 0.021 0.021c0 0.019 0.015 0.040 0.032 0.046s0.027 0.020 0.021 0.030c-0.006 0.010 0.018 0.039 0.054 0.063s0.060 0.055 0.052 0.066c-0.007 0.011 0.002 0.020 0.019 0.020s0.056 0.034 0.088 0.075c0.031 0.041 0.069 0.075 0.083 0.075s0.038 0.019 0.052 0.043 0.046 0.043 0.071 0.043c0.024 0 0.038 0.010 0.031 0.021s0.008 0.021 0.032 0.021c0.025 0 0.040 0.009 0.034 0.019-0.010 0.016 0.032 0.047 0.074 0.054 0.006 0.001 0.044 0.025 0.085 0.054s0.066 0.040 0.056 0.024c-0.018-0.030 0.163 0.068 0.233 0.125 0.023 0.019 0.034 0.022 0.025 0.008-0.022-0.039-0.006-0.033 0.051 0.016 0.043 0.037 0.067 0.046 0.119 0.043 0.006-0.001 0.026 0.014 0.043 0.031s0.048 0.026 0.067 0.018c0.024-0.009 0.030-0.005 0.020 0.011s0.003 0.025 0.038 0.025c0.029 0 0.059 0.010 0.067 0.022s0.023 0.016 0.035 0.009 0.038 0.001 0.057 0.018c0.043 0.038 0.195 0.089 0.212 0.072 0.007-0.007 0.032-0.001 0.057 0.013 0.051 0.028 0.069 0.034 0.131 0.043 0.024 0.004 0.049 0.014 0.055 0.023s0.041 0.021 0.075 0.026c0.080 0.012 0.149 0.028 0.149 0.033 0 0.003 0.019 0.008 0.043 0.011 0.056 0.009 0.129 0.026 0.129 0.031 0 0.002 0.022 0.008 0.048 0.012s0.070 0.013 0.097 0.018 0.048 0.011 0.048 0.014c0 0.003 0.019 0.008 0.043 0.012s0.072 0.013 0.107 0.020c0.036 0.007 0.098 0.016 0.14 0.021s0.075 0.010 0.075 0.011c0 0.003 0.043 0.011 0.161 0.031 0.029 0.005 0.102 0.014 0.16 0.019 0.095 0.009 0.102 0.007 0.066-0.021-0.023-0.017-0.052-0.030-0.067-0.030s-0.031-0.015-0.038-0.032c-0.007-0.017-0.030-0.032-0.051-0.032s-0.051-0.020-0.066-0.044c-0.015-0.024-0.036-0.039-0.046-0.031s-0.026 0.001-0.035-0.013c-0.011-0.017-0.006-0.019 0.015-0.007 0.025 0.015 0.026 0.013 0.001-0.017-0.016-0.020-0.036-0.034-0.043-0.031-0.020 0.007-0.186-0.163-0.203-0.208-0.008-0.021-0.024-0.031-0.036-0.024s-0.021-0.001-0.021-0.018-0.015-0.047-0.033-0.065c-0.018-0.018-0.034-0.041-0.035-0.050-0.005-0.038-0.047-0.114-0.063-0.114-0.010 0-0.012-0.015-0.005-0.032s0.001-0.032-0.014-0.032-0.021-0.013-0.015-0.028c0.006-0.016 0.004-0.069-0.006-0.119-0.010-0.052-0.008-0.095 0.004-0.102s0.015-0.025 0.009-0.042c-0.006-0.016-0.002-0.035 0.010-0.043s0.016-0.021 0.010-0.031c-0.016-0.027 0.012-0.088 0.034-0.075 0.011 0.007 0.013-0.004 0.006-0.021s-0.002-0.033 0.011-0.033 0.024-0.015 0.024-0.033c0-0.018 0.010-0.028 0.021-0.020s0.021 0.002 0.021-0.012c0-0.015 0.017-0.039 0.038-0.056s0.024-0.024 0.008-0.015c-0.020 0.011-0.025 0.008-0.015-0.010 0.008-0.014 0.023-0.020 0.033-0.015s0.064-0.040 0.122-0.102 0.112-0.11 0.121-0.107c0.009 0.003 0.016-0.009 0.016-0.027s0.014-0.032 0.031-0.032c0.017 0 0.039-0.015 0.050-0.034s0.032-0.036 0.050-0.038c0.048-0.008 0.169-0.085 0.158-0.102-0.005-0.008 0.010-0.020 0.034-0.026 0.065-0.017 0.072-0.021 0.102-0.051 0.016-0.016 0.043-0.028 0.060-0.028s0.026-0.010 0.019-0.021 0.002-0.021 0.021-0.021c0.041 0 0.158-0.058 0.199-0.099 0.016-0.016 0.055-0.036 0.087-0.044 0.101-0.025 0.219-0.085 0.202-0.104-0.009-0.010 0.001-0.011 0.021-0.004s0.038 0.004 0.038-0.007 0.034-0.026 0.075-0.034c0.041-0.008 0.070-0.023 0.063-0.033s0.013-0.019 0.043-0.019 0.055-0.010 0.055-0.021c0-0.012 0.008-0.020 0.016-0.017 0.031 0.008 0.198-0.054 0.198-0.073 0-0.011 0.012-0.017 0.027-0.015 0.041 0.007 0.145-0.026 0.145-0.046 0-0.010 0.017-0.017 0.038-0.016 0.041 0.002 0.549-0.163 0.614-0.201 0.022-0.013 0.073-0.026 0.114-0.029s0.085-0.016 0.099-0.027c0.015-0.011 0.060-0.028 0.101-0.036s0.099-0.020 0.128-0.026c0.029-0.006 0.060-0.022 0.069-0.036s0.021-0.019 0.029-0.011 0.051 0.001 0.096-0.015 0.088-0.023 0.095-0.016c0.007 0.007 0.013 0.002 0.013-0.011s0.019-0.018 0.043-0.012c0.024 0.006 0.043 0.001 0.043-0.011s0.019-0.017 0.043-0.011c0.024 0.006 0.043 0.001 0.043-0.011s0.019-0.017 0.043-0.011c0.024 0.006 0.043 0.001 0.043-0.011s0.019-0.017 0.043-0.011c0.024 0.006 0.043 0.002 0.043-0.008s0.021-0.021 0.048-0.022c0.070-0.004 0.161-0.021 0.295-0.057 0.065-0.017 0.164-0.038 0.22-0.046s0.102-0.022 0.102-0.031c0-0.008 0.012-0.017 0.027-0.018 0.073-0.007 0.204-0.024 0.252-0.034 0.081-0.016 0.14-0.031 0.14-0.035 0-0.002 0.034-0.008 0.075-0.013 0.105-0.013 0.249-0.040 0.263-0.050 0.003-0.002 0.039-0.008 0.081-0.013 0.082-0.010 0.142-0.020 0.258-0.043 0.041-0.008 0.099-0.018 0.129-0.021s0.092-0.013 0.14-0.021c0.047-0.008 0.108-0.014 0.134-0.013s0.048-0.006 0.048-0.015 0.031-0.018 0.070-0.018c0.039-0.001 0.114-0.008 0.166-0.016 0.187-0.029 0.163-0.026 0.462-0.065 0.024-0.003 0.043-0.008 0.043-0.011s0.039-0.008 0.086-0.011c0.075-0.006 0.161-0.015 0.376-0.043 0.24-0.031 0.299-0.038 0.365-0.043 0.041-0.003 0.075-0.008 0.075-0.011s0.043-0.008 0.097-0.012c0.053-0.004 0.145-0.012 0.204-0.018s0.165-0.017 0.236-0.022c0.071-0.006 0.187-0.016 0.258-0.022 0.219-0.020 0.792-0.064 1.117-0.087 0.326-0.023 0.988-0.053 1.331-0.061 0.324-0.008 1.947-0.008 2.351-0.001 0.434 0.008 1.65 0.072 1.986 0.104 0.059 0.006 0.175 0.016 0.258 0.023s0.194 0.017 0.247 0.022c0.277 0.028 0.385 0.038 0.472 0.043 0.053 0.003 0.102 0.008 0.107 0.011 0.015 0.008 0.090 0.016 0.247 0.028 0.071 0.006 0.134 0.012 0.14 0.015s0.035 0.008 0.064 0.011c0.084 0.009 0.323 0.040 0.483 0.063 0.047 0.007 0.12 0.017 0.161 0.023s0.109 0.016 0.15 0.021c0.041 0.006 0.107 0.015 0.145 0.019s0.097 0.014 0.129 0.021c0.052 0.011 0.127 0.022 0.316 0.046 0.036 0.004 0.088 0.013 0.118 0.017s0.1 0.016 0.158 0.023c0.057 0.008 0.127 0.022 0.155 0.033s0.070 0.015 0.095 0.011c0.024-0.005 0.044-0.001 0.044 0.010s0.021 0.019 0.048 0.020 0.092 0.008 0.145 0.015c0.053 0.007 0.109 0.014 0.123 0.015s0.027 0.010 0.027 0.019c0 0.009 0.017 0.017 0.038 0.017s0.067 0.006 0.102 0.013 0.093 0.016 0.129 0.020c0.036 0.004 0.092 0.018 0.125 0.031s0.069 0.019 0.079 0.013c0.010-0.006 0.024-0.001 0.031 0.011s0.037 0.017 0.066 0.013 0.052 0.001 0.052 0.012c0 0.012 0.012 0.017 0.027 0.012s0.051-0.001 0.081 0.011c0.030 0.011 0.068 0.024 0.086 0.027s0.052 0.013 0.075 0.021c0.024 0.008 0.004-0.008-0.043-0.033s-0.089-0.055-0.092-0.064c-0.004-0.010-0.022-0.011-0.041-0.004-0.021 0.008-0.029 0.004-0.020-0.010s-0.024-0.034-0.082-0.051c-0.053-0.016-0.096-0.036-0.096-0.045s-0.008-0.015-0.016-0.012c-0.009 0.003-0.036-0.007-0.062-0.021s-0.052-0.019-0.059-0.012-0.014 0.002-0.014-0.013c0-0.015-0.009-0.021-0.020-0.014s-0.026 0.003-0.033-0.010-0.038-0.022-0.067-0.022c-0.030 0-0.048-0.009-0.040-0.021 0.013-0.021-0.031-0.031-0.093-0.023-0.016 0.002-0.022-0.007-0.015-0.019 0.014-0.022-0.029-0.033-0.092-0.024-0.016 0.002-0.022-0.007-0.015-0.019 0.013-0.021-0.020-0.031-0.090-0.028-0.015 0.001-0.027-0.007-0.027-0.016 0-0.018-0.106-0.052-0.137-0.045-0.011 0.003-0.025-0.004-0.032-0.013-0.021-0.030-0.13-0.071-0.189-0.071-0.031 0-0.050-0.007-0.041-0.015 0.019-0.019-0.772-0.284-0.851-0.285-0.032-0.001-0.059-0.009-0.059-0.019 0-0.020-0.117-0.055-0.171-0.051-0.017 0.001-0.037-0.005-0.043-0.014-0.013-0.019-0.386-0.122-0.424-0.117-0.015 0.002-0.027-0.006-0.027-0.016s-0.008-0.018-0.016-0.017c-0.009 0.001-0.021 0.001-0.027-0.002-0.019-0.008-0.096-0.023-0.14-0.028-0.024-0.003-0.048-0.011-0.053-0.019s-0.045-0.020-0.086-0.028c-0.085-0.015-0.14-0.028-0.14-0.033 0-0.002-0.015-0.007-0.032-0.011s-0.054-0.013-0.081-0.020c-0.027-0.007-0.070-0.017-0.097-0.023s-0.072-0.017-0.102-0.024c-0.029-0.007-0.075-0.014-0.102-0.015s-0.048-0.011-0.048-0.021c0-0.011-0.012-0.015-0.027-0.010s-0.060-0.002-0.102-0.017-0.092-0.023-0.113-0.020-0.038-0.004-0.038-0.016c0-0.012-0.015-0.017-0.031-0.010s-0.037 0.003-0.044-0.008c-0.007-0.011-0.034-0.017-0.059-0.013s-0.058-0.001-0.071-0.011-0.056-0.023-0.097-0.028c-0.040-0.005-0.073-0.011-0.073-0.014s-0.019-0.007-0.043-0.009c-0.077-0.009-0.213-0.031-0.279-0.045-0.036-0.008-0.077-0.015-0.091-0.015s-0.027-0.008-0.027-0.017-0.017-0.017-0.038-0.017-0.071-0.007-0.113-0.014c-0.041-0.007-0.102-0.014-0.134-0.015s-0.059-0.009-0.059-0.017c0-0.008-0.022-0.015-0.048-0.015s-0.082-0.007-0.123-0.015c-0.041-0.008-0.102-0.016-0.134-0.017s-0.059-0.011-0.059-0.021c0-0.011-0.027-0.017-0.059-0.015s-0.064 0.002-0.070-0.001-0.030-0.008-0.053-0.011c-0.024-0.004-0.086-0.013-0.14-0.021s-0.126-0.018-0.161-0.021c-0.036-0.004-0.064-0.008-0.064-0.010s-0.024-0.008-0.053-0.012c-0.029-0.005-0.088-0.014-0.129-0.021s-0.119-0.015-0.172-0.019-0.097-0.010-0.097-0.013c0-0.007-0.052-0.015-0.204-0.031-0.065-0.007-0.147-0.017-0.183-0.024s-0.117-0.015-0.183-0.021c-0.121-0.010-0.261-0.025-0.376-0.040-0.036-0.005-0.132-0.015-0.215-0.023s-0.194-0.019-0.247-0.024c-0.167-0.016-0.349-0.031-0.494-0.042-0.077-0.005-0.207-0.015-0.29-0.021-0.161-0.012-0.405-0.026-0.815-0.046-0.303-0.015-2.879-0.031-2.891-0.019zM13.414 12.555c-1.043 0.11-2.044 0.611-2.799 1.404-0.579 0.607-0.958 1.327-1.134 2.152-0.053 0.251-0.059 0.313-0.058 0.746 0 0.408 0.007 0.502 0.048 0.691 0.14 0.64 0.428 1.161 0.883 1.601 0.557 0.537 1.22 0.826 2.058 0.896 0.727 0.062 1.525-0.111 2.232-0.484 1.215-0.64 2.088-1.784 2.35-3.083 0.043-0.212 0.050-0.308 0.050-0.717-0-0.367-0.009-0.514-0.039-0.661-0.083-0.408-0.26-0.837-0.491-1.186-0.158-0.239-0.579-0.656-0.832-0.824-0.656-0.435-1.449-0.623-2.268-0.537zM23.451 13.754c0 0.011-0.053 0.351-0.118 0.754s-0.118 0.738-0.118 0.742c0 0.004-0.109 0.008-0.242 0.008h-0.242l-0.081 0.531c-0.045 0.292-0.081 0.539-0.080 0.547s0.108 0.016 0.239 0.016h0.238l-0.012 0.059c-0.014 0.067-0.549 3.448-0.549 3.469 0 0.008 0.26 0.014 0.578 0.014h0.578l0.023-0.134c0.027-0.156 0.54-3.386 0.54-3.399 0-0.005 0.169-0.009 0.376-0.009s0.376-0.004 0.376-0.008c0-0.016 0.152-0.969 0.163-1.027l0.012-0.059h-0.757l0.012-0.070c0.032-0.184 0.225-1.412 0.225-1.432 0-0.015-0.187-0.023-0.579-0.023-0.354 0-0.579 0.008-0.579 0.021zM14.005 13.808c1.504 0.229 2.2 1.781 1.459 3.255-0.221 0.44-0.661 0.943-1.062 1.215-1.106 0.75-2.366 0.712-3.126-0.094-0.854-0.905-0.712-2.433 0.325-3.481 0.248-0.251 0.512-0.446 0.815-0.601 0.547-0.281 1.056-0.375 1.59-0.294zM19.941 15.142c-0.364 0.052-0.72 0.206-0.931 0.403l-0.073 0.067 0.013-0.086c0.007-0.047 0.019-0.127 0.027-0.177l0.015-0.091h-0.582c-0.32 0-0.582 0.004-0.582 0.009s-0.247 1.558-0.547 3.451-0.547 3.459-0.547 3.479c-0 0.035 0.042 0.038 0.579 0.038 0.409 0 0.579-0.007 0.579-0.024 0-0.028 0.402-2.557 0.421-2.644l0.012-0.059 0.132 0.118c0.152 0.136 0.397 0.271 0.583 0.321 0.303 0.082 0.817 0.063 1.181-0.043 0.903-0.262 1.595-1.056 1.839-2.112 0.056-0.241 0.077-0.768 0.041-1.014-0.119-0.813-0.627-1.408-1.353-1.586-0.177-0.043-0.651-0.074-0.805-0.052zM27.26 15.161c-0.585 0.103-1.109 0.384-1.551 0.831-0.889 0.9-1.090 2.222-0.475 3.133 0.6 0.888 1.874 1.137 2.97 0.578 0.787-0.401 1.325-1.091 1.529-1.966 0.060-0.258 0.055-0.857-0.010-1.095-0.196-0.72-0.736-1.254-1.459-1.442-0.262-0.068-0.735-0.087-1.004-0.039zM32.489 15.144c-0.206 0.035-0.491 0.179-0.629 0.318l-0.059 0.061 0.015-0.144 0.015-0.144h-1.157l-0.361 2.292c-0.198 1.261-0.365 2.309-0.37 2.33-0.010 0.036 0.024 0.038 0.575 0.032l0.585-0.006 0.2-1.267c0.216-1.368 0.265-1.604 0.392-1.868 0.165-0.342 0.396-0.512 0.696-0.514 0.19-0.001 0.287 0.051 0.348 0.186 0.035 0.077 0.041 0.14 0.039 0.403-0.001 0.288-0.018 0.413-0.22 1.658-0.12 0.741-0.219 1.361-0.219 1.379 0 0.028 0.074 0.033 0.579 0.033 0.319 0 0.579-0.003 0.579-0.006 0-0.033 0.395-2.515 0.421-2.641 0.136-0.674 0.424-1.009 0.868-1.011 0.225-0.001 0.329 0.059 0.383 0.221 0.038 0.113 0.029 0.479-0.019 0.773-0.024 0.146-0.125 0.784-0.225 1.417s-0.187 1.172-0.193 1.199l-0.011 0.048h1.172l0.22-1.401c0.121-0.77 0.23-1.512 0.243-1.648 0.058-0.612-0.050-1.041-0.342-1.357-0.454-0.491-1.473-0.476-2.14 0.030l-0.15 0.114-0.141-0.142c-0.271-0.273-0.709-0.413-1.094-0.349zM39.016 15.16c-0.821 0.136-1.523 0.672-1.921 1.469-0.106 0.213-0.237 0.612-0.283 0.861-0.045 0.245-0.050 0.746-0.011 0.934 0.138 0.653 0.498 1.134 1.043 1.395 0.107 0.051 0.257 0.109 0.334 0.128 0.339 0.085 0.815 0.062 1.167-0.054 0.211-0.070 0.331-0.134 0.51-0.269l0.12-0.091-0.028 0.143c-0.047 0.244-0.11 0.219 0.55 0.219 0.418 0 0.579-0.007 0.579-0.024 0-0.014 0.159-1.035 0.354-2.271s0.354-2.268 0.354-2.294v-0.048h-0.568c-0.636 0-0.575-0.017-0.603 0.172-0.027 0.187-0.024 0.185-0.149 0.067-0.136-0.129-0.367-0.249-0.589-0.307-0.217-0.056-0.62-0.071-0.861-0.031zM20.166 16.246c0.672 0.107 0.947 0.739 0.682 1.566-0.171 0.535-0.52 0.901-0.995 1.044-0.19 0.057-0.54 0.052-0.696-0.010-0.25-0.099-0.421-0.282-0.519-0.552-0.065-0.18-0.080-0.581-0.030-0.828 0.137-0.677 0.727-1.217 1.353-1.24 0.036-0.001 0.127 0.008 0.204 0.020zM27.917 16.28c0.177 0.052 0.275 0.11 0.408 0.236 0.221 0.211 0.313 0.475 0.294 0.845-0.024 0.467-0.23 0.877-0.6 1.194-0.229 0.197-0.641 0.353-0.926 0.352-0.131-0-0.367-0.055-0.5-0.116-0.238-0.109-0.46-0.388-0.522-0.657-0.038-0.162-0.028-0.49 0.019-0.678 0.122-0.484 0.441-0.872 0.891-1.084 0.314-0.148 0.64-0.18 0.935-0.093zM39.645 16.256c0.183 0.048 0.315 0.123 0.427 0.242 0.241 0.258 0.322 0.611 0.243 1.063-0.114 0.656-0.55 1.153-1.144 1.305-0.999 0.255-1.57-0.826-0.986-1.869 0.13-0.234 0.426-0.524 0.638-0.628 0.283-0.139 0.571-0.178 0.822-0.113zM10.993 9.777c0.027 0.005 0.070 0.005 0.097 0s0.005-0.009-0.048-0.009-0.075 0.004-0.048 0.009zM13.376 9.777c0.027 0.005 0.065 0.005 0.086-0.001s-0.001-0.010-0.049-0.009c-0.047 0.001-0.064 0.005-0.037 0.010zM10.499 9.798c0.015 0.006 0.039 0.006 0.053 0s0.003-0.011-0.027-0.011-0.042 0.005-0.027 0.011zM13.924 9.798c0.021 0.005 0.050 0.005 0.064-0.001s-0.003-0.011-0.038-0.010c-0.036 0.001-0.047 0.005-0.026 0.011zM10.156 9.819c0.015 0.006 0.039 0.006 0.053 0s0.003-0.011-0.027-0.011-0.042 0.005-0.027 0.011zM14.332 9.82c0.021 0.005 0.050 0.005 0.064-0.001s-0.003-0.011-0.038-0.010c-0.036 0.001-0.047 0.005-0.026 0.011zM9.834 9.841c0.015 0.006 0.039 0.006 0.053 0s0.003-0.011-0.027-0.011-0.042 0.005-0.027 0.011zM14.665 9.841c0.015 0.006 0.039 0.006 0.053 0s0.003-0.011-0.027-0.011-0.042 0.005-0.027 0.011zM9.576 9.862c0.015 0.006 0.039 0.006 0.053 0s0.003-0.011-0.027-0.011-0.042 0.005-0.027 0.011zM14.965 9.862c0.015 0.006 0.039 0.006 0.053 0s0.003-0.011-0.027-0.011-0.042 0.005-0.027 0.011zM9.341 9.884c0.015 0.006 0.034 0.005 0.041-0.002s-0.006-0.012-0.028-0.011c-0.025 0.001-0.030 0.006-0.013 0.013zM15.245 9.884c0.015 0.006 0.034 0.005 0.041-0.002s-0.006-0.012-0.028-0.011c-0.025 0.001-0.030 0.006-0.013 0.013zM8.934 9.927c0.015 0.006 0.034 0.005 0.041-0.002s-0.006-0.012-0.028-0.011c-0.025 0.001-0.030 0.006-0.013 0.013zM8.74 9.948c0.015 0.006 0.034 0.005 0.041-0.002s-0.006-0.012-0.028-0.011c-0.025 0.001-0.030 0.006-0.013 0.013zM16.297 9.991c0.015 0.006 0.034 0.005 0.041-0.002s-0.006-0.012-0.028-0.011c-0.025 0.001-0.030 0.006-0.013 0.013zM17.113 10.098c0.015 0.006 0.034 0.005 0.041-0.002s-0.006-0.012-0.028-0.011c-0.025 0.001-0.030 0.006-0.013 0.013zM14.633 11.108c0.032 0.005 0.081 0.005 0.107-0.001s-0.001-0.009-0.059-0.009c-0.059 0.001-0.081 0.004-0.048 0.009zM16.672 11.108c0.032 0.005 0.085 0.005 0.118 0s0.006-0.009-0.059-0.009c-0.065 0-0.091 0.004-0.059 0.009zM14.010 11.13c0.021 0.005 0.054 0.005 0.075 0s0.004-0.010-0.038-0.010-0.058 0.004-0.038 0.010zM17.338 11.13c0.021 0.005 0.054 0.005 0.075 0s0.004-0.010-0.038-0.010-0.058 0.004-0.038 0.010zM13.537 11.151c0.021 0.005 0.054 0.005 0.075 0s0.004-0.010-0.038-0.010-0.058 0.004-0.038 0.010zM17.81 11.151c0.021 0.005 0.050 0.005 0.064-0.001s-0.003-0.011-0.038-0.010c-0.036 0.001-0.047 0.005-0.026 0.011zM13.173 11.172c0.021 0.005 0.050 0.005 0.064-0.001s-0.003-0.011-0.038-0.010c-0.036 0.001-0.047 0.005-0.026 0.011zM18.186 11.172c0.015 0.006 0.039 0.006 0.053 0s0.003-0.011-0.027-0.011-0.042 0.005-0.027 0.011zM12.861 11.193c0.015 0.006 0.039 0.006 0.053 0s0.003-0.011-0.027-0.011-0.042 0.005-0.027 0.011zM18.508 11.193c0.015 0.006 0.039 0.006 0.053 0s0.003-0.011-0.027-0.011-0.042 0.005-0.027 0.011zM12.561 11.214c0.015 0.006 0.039 0.006 0.053 0s0.003-0.011-0.027-0.011-0.042 0.005-0.027 0.011zM12.326 11.236c0.015 0.006 0.034 0.005 0.041-0.002s-0.006-0.012-0.028-0.011c-0.025 0.001-0.030 0.006-0.013 0.013zM12.068 11.258c0.015 0.006 0.034 0.005 0.041-0.002s-0.006-0.012-0.028-0.011c-0.025 0.001-0.030 0.006-0.013 0.013zM19.754 11.301c0.015 0.006 0.034 0.005 0.041-0.002s-0.006-0.012-0.028-0.011c-0.025 0.001-0.030 0.006-0.013 0.013zM19.947 11.322c0.015 0.006 0.034 0.005 0.041-0.002s-0.006-0.012-0.028-0.011c-0.025 0.001-0.030 0.006-0.013 0.013zM11.209 11.344c0.015 0.006 0.034 0.005 0.041-0.002s-0.006-0.012-0.028-0.011c-0.025 0.001-0.030 0.006-0.013 0.013zM20.14 11.344c0.015 0.006 0.034 0.005 0.041-0.002s-0.006-0.012-0.028-0.011c-0.025 0.001-0.030 0.006-0.013 0.013zM20.333 11.365c0.015 0.006 0.034 0.005 0.041-0.002s-0.006-0.012-0.028-0.011c-0.025 0.001-0.030 0.006-0.013 0.013zM20.999 11.451c0.015 0.006 0.034 0.005 0.041-0.002s-0.006-0.012-0.028-0.011c-0.025 0.001-0.030 0.006-0.013 0.013zM21.149 11.472c0.015 0.006 0.034 0.005 0.041-0.002s-0.006-0.012-0.028-0.011c-0.025 0.001-0.030 0.006-0.013 0.013zM21.3 11.494c0.015 0.006 0.034 0.005 0.041-0.002s-0.006-0.012-0.028-0.011c-0.025 0.001-0.030 0.006-0.013 0.013zM9.578 11.559c0.015 0.006 0.034 0.005 0.041-0.002s-0.006-0.012-0.028-0.011c-0.025 0.001-0.030 0.006-0.013 0.013zM1.003 12.365l-0.063 0.070 0.070-0.063c0.039-0.035 0.070-0.066 0.070-0.070 0-0.017-0.017-0.002-0.077 0.063zM13.414 12.555c-1.043 0.11-2.044 0.611-2.799 1.404-0.579 0.607-0.958 1.327-1.134 2.152-0.053 0.251-0.059 0.313-0.058 0.746 0 0.408 0.007 0.502 0.048 0.691 0.14 0.64 0.428 1.161 0.883 1.601 0.557 0.537 1.22 0.826 2.058 0.896 0.727 0.062 1.525-0.111 2.232-0.484 1.215-0.64 2.088-1.784 2.35-3.083 0.043-0.212 0.050-0.308 0.050-0.717-0-0.367-0.009-0.514-0.039-0.661-0.083-0.408-0.26-0.837-0.491-1.186-0.158-0.239-0.579-0.656-0.832-0.824-0.656-0.435-1.449-0.623-2.268-0.537zM3.784 13.535l-0.117 0.123 0.123-0.117c0.115-0.109 0.133-0.13 0.117-0.13-0.004 0-0.059 0.056-0.123 0.123zM23.451 13.754c0 0.011-0.053 0.351-0.118 0.754s-0.118 0.738-0.118 0.742c0 0.004-0.109 0.008-0.242 0.008h-0.242l-0.081 0.531c-0.045 0.292-0.081 0.539-0.080 0.547s0.108 0.016 0.239 0.016h0.238l-0.012 0.059c-0.014 0.067-0.549 3.448-0.549 3.469 0 0.008 0.26 0.014 0.578 0.014h0.578l0.023-0.134c0.027-0.156 0.54-3.386 0.54-3.399 0-0.005 0.169-0.009 0.376-0.009s0.376-0.004 0.376-0.008c0-0.016 0.152-0.969 0.163-1.027l0.012-0.059h-0.757l0.012-0.070c0.032-0.184 0.225-1.412 0.225-1.432 0-0.015-0.187-0.023-0.579-0.023-0.354 0-0.579 0.008-0.579 0.021zM14.005 13.808c1.504 0.229 2.2 1.781 1.459 3.255-0.221 0.44-0.661 0.943-1.062 1.215-1.106 0.75-2.366 0.712-3.126-0.094-0.854-0.905-0.712-2.433 0.325-3.481 0.248-0.251 0.512-0.446 0.815-0.601 0.547-0.281 1.056-0.375 1.59-0.294zM1.209 13.978c0 0.004 0.017 0.021 0.038 0.038 0.034 0.027 0.035 0.026 0.008-0.008-0.028-0.036-0.046-0.047-0.046-0.029zM1.316 14.064c0 0.004 0.017 0.021 0.038 0.038 0.034 0.027 0.035 0.026 0.008-0.008-0.028-0.036-0.046-0.047-0.046-0.029zM3.817 14.7c0.021 0.024 0.044 0.043 0.050 0.043s-0.007-0.019-0.028-0.043c-0.021-0.024-0.044-0.043-0.050-0.043s0.007 0.019 0.028 0.043zM3.968 14.829c0.021 0.024 0.044 0.043 0.050 0.043s-0.007-0.019-0.028-0.043c-0.021-0.024-0.044-0.043-0.050-0.043s0.007 0.019 0.028 0.043zM19.941 15.142c-0.364 0.052-0.72 0.206-0.931 0.403l-0.073 0.067 0.013-0.086c0.007-0.047 0.019-0.127 0.027-0.177l0.015-0.091h-0.582c-0.32 0-0.582 0.004-0.582 0.009s-0.247 1.558-0.547 3.451-0.547 3.459-0.547 3.479c-0 0.035 0.042 0.038 0.579 0.038 0.409 0 0.579-0.007 0.579-0.024 0-0.028 0.402-2.557 0.421-2.644l0.012-0.059 0.132 0.118c0.152 0.136 0.397 0.271 0.583 0.321 0.303 0.082 0.817 0.063 1.181-0.043 0.903-0.262 1.595-1.056 1.839-2.112 0.056-0.241 0.077-0.768 0.041-1.014-0.119-0.813-0.627-1.408-1.353-1.586-0.177-0.043-0.651-0.074-0.805-0.052zM27.26 15.161c-0.585 0.103-1.109 0.384-1.551 0.831-0.889 0.9-1.090 2.222-0.475 3.133 0.6 0.888 1.874 1.137 2.97 0.578 0.787-0.401 1.325-1.091 1.529-1.966 0.060-0.258 0.055-0.857-0.010-1.095-0.196-0.72-0.736-1.254-1.459-1.442-0.262-0.068-0.735-0.087-1.004-0.039zM32.489 15.144c-0.206 0.035-0.491 0.179-0.629 0.318l-0.059 0.061 0.015-0.144 0.015-0.144h-1.157l-0.361 2.292c-0.198 1.261-0.365 2.309-0.37 2.33-0.010 0.036 0.024 0.038 0.575 0.032l0.585-0.006 0.2-1.267c0.216-1.368 0.265-1.604 0.392-1.868 0.165-0.342 0.396-0.512 0.696-0.514 0.19-0.001 0.287 0.051 0.348 0.186 0.035 0.077 0.041 0.14 0.039 0.403-0.001 0.288-0.018 0.413-0.22 1.658-0.12 0.741-0.219 1.361-0.219 1.379 0 0.028 0.074 0.033 0.579 0.033 0.319 0 0.579-0.003 0.579-0.006 0-0.033 0.395-2.515 0.421-2.641 0.136-0.674 0.424-1.009 0.868-1.011 0.225-0.001 0.329 0.059 0.383 0.221 0.038 0.113 0.029 0.479-0.019 0.773-0.024 0.146-0.125 0.784-0.225 1.417s-0.187 1.172-0.193 1.199l-0.011 0.048h1.172l0.22-1.401c0.121-0.77 0.23-1.512 0.243-1.648 0.058-0.612-0.050-1.041-0.342-1.357-0.454-0.491-1.473-0.476-2.14 0.030l-0.15 0.114-0.141-0.142c-0.271-0.273-0.709-0.413-1.094-0.349zM39.016 15.16c-0.821 0.136-1.523 0.672-1.921 1.469-0.106 0.213-0.238 0.612-0.283 0.861-0.045 0.245-0.050 0.746-0.011 0.934 0.137 0.653 0.498 1.134 1.043 1.395 0.107 0.051 0.257 0.109 0.334 0.128 0.339 0.085 0.815 0.062 1.167-0.054 0.211-0.070 0.331-0.134 0.51-0.269l0.12-0.091-0.028 0.143c-0.047 0.244-0.11 0.219 0.55 0.219 0.418 0 0.579-0.007 0.579-0.024 0-0.014 0.159-1.035 0.354-2.271s0.354-2.268 0.354-2.294v-0.048h-0.568c-0.636 0-0.575-0.017-0.603 0.172-0.027 0.187-0.024 0.185-0.149 0.067-0.136-0.129-0.367-0.249-0.589-0.307-0.217-0.056-0.62-0.071-0.861-0.031zM20.166 16.246c0.672 0.107 0.947 0.739 0.682 1.566-0.171 0.535-0.52 0.901-0.995 1.044-0.19 0.057-0.54 0.052-0.696-0.010-0.25-0.099-0.421-0.282-0.519-0.552-0.065-0.18-0.080-0.581-0.030-0.828 0.137-0.677 0.727-1.217 1.353-1.24 0.036-0.001 0.127 0.008 0.204 0.020zM27.917 16.28c0.177 0.052 0.275 0.11 0.408 0.236 0.221 0.211 0.313 0.475 0.294 0.845-0.024 0.467-0.23 0.877-0.6 1.194-0.229 0.197-0.641 0.353-0.926 0.352-0.132-0-0.367-0.055-0.5-0.116-0.238-0.109-0.46-0.388-0.522-0.657-0.037-0.162-0.028-0.49 0.020-0.678 0.122-0.484 0.441-0.872 0.891-1.084 0.314-0.148 0.64-0.18 0.935-0.093zM39.645 16.256c0.183 0.048 0.315 0.123 0.427 0.242 0.241 0.258 0.322 0.611 0.243 1.063-0.114 0.656-0.55 1.153-1.144 1.305-0.999 0.255-1.57-0.826-0.986-1.869 0.13-0.234 0.426-0.524 0.638-0.628 0.283-0.139 0.571-0.178 0.822-0.113zM11.015 9.777c0.027 0.005 0.065 0.005 0.086-0.001s-0.001-0.010-0.049-0.009c-0.047 0.001-0.064 0.005-0.037 0.010zM13.376 9.777c0.027 0.005 0.065 0.005 0.086-0.001s-0.001-0.010-0.049-0.009c-0.047 0.001-0.064 0.005-0.037 0.010zM10.499 9.798c0.015 0.006 0.039 0.006 0.053 0s0.003-0.011-0.027-0.011-0.042 0.005-0.027 0.011zM13.924 9.798c0.021 0.005 0.050 0.005 0.064-0.001s-0.003-0.011-0.038-0.010c-0.036 0.001-0.047 0.005-0.026 0.011zM10.156 9.819c0.015 0.006 0.039 0.006 0.053 0s0.003-0.011-0.027-0.011-0.042 0.005-0.027 0.011zM14.332 9.82c0.021 0.005 0.050 0.005 0.064-0.001s-0.003-0.011-0.038-0.010c-0.036 0.001-0.047 0.005-0.026 0.011zM9.834 9.841c0.015 0.006 0.039 0.006 0.053 0s0.003-0.011-0.027-0.011-0.042 0.005-0.027 0.011zM14.666 9.841c0.015 0.006 0.034 0.005 0.041-0.002s-0.006-0.012-0.028-0.011c-0.025 0.001-0.030 0.006-0.013 0.013zM9.576 9.862c0.015 0.006 0.039 0.006 0.053 0s0.003-0.011-0.027-0.011-0.042 0.005-0.027 0.011zM14.965 9.862c0.015 0.006 0.039 0.006 0.053 0s0.003-0.011-0.027-0.011-0.042 0.005-0.027 0.011zM9.341 9.884c0.015 0.006 0.034 0.005 0.041-0.002s-0.006-0.012-0.028-0.011c-0.025 0.001-0.030 0.006-0.013 0.013zM15.245 9.884c0.015 0.006 0.034 0.005 0.041-0.002s-0.006-0.012-0.028-0.011c-0.025 0.001-0.030 0.006-0.013 0.013zM16.297 9.991c0.015 0.006 0.034 0.005 0.041-0.002s-0.006-0.012-0.028-0.011c-0.025 0.001-0.030 0.006-0.013 0.013zM17.113 10.098c0.015 0.006 0.034 0.005 0.041-0.002s-0.006-0.012-0.028-0.011c-0.025 0.001-0.030 0.006-0.013 0.013zM14.633 11.108c0.032 0.005 0.081 0.005 0.107-0.001s-0.001-0.009-0.059-0.009c-0.059 0.001-0.081 0.004-0.048 0.009zM16.694 11.108c0.032 0.005 0.081 0.005 0.107-0.001s-0-0.009-0.059-0.009c-0.059 0.001-0.081 0.004-0.048 0.009zM14.010 11.13c0.021 0.005 0.054 0.005 0.075 0s0.004-0.010-0.038-0.010-0.058 0.004-0.038 0.010zM17.338 11.13c0.021 0.005 0.054 0.005 0.075 0s0.004-0.010-0.038-0.010-0.058 0.004-0.038 0.010zM13.537 11.151c0.021 0.005 0.054 0.005 0.075 0s0.004-0.010-0.038-0.010-0.058 0.004-0.038 0.010zM17.81 11.151c0.021 0.005 0.050 0.005 0.064-0.001s-0.003-0.011-0.038-0.010c-0.036 0.001-0.047 0.005-0.026 0.011zM13.161 11.172c0.015 0.006 0.039 0.006 0.053 0s0.003-0.011-0.027-0.011-0.042 0.005-0.027 0.011zM18.186 11.172c0.015 0.006 0.039 0.006 0.053 0s0.003-0.011-0.027-0.011-0.042 0.005-0.027 0.011zM12.861 11.193c0.015 0.006 0.039 0.006 0.053 0s0.003-0.011-0.027-0.011-0.042 0.005-0.027 0.011zM18.508 11.193c0.015 0.006 0.039 0.006 0.053 0s0.003-0.011-0.027-0.011-0.042 0.005-0.027 0.011zM12.562 11.215c0.015 0.006 0.034 0.005 0.041-0.002s-0.006-0.012-0.028-0.011c-0.025 0.001-0.030 0.006-0.013 0.013zM12.326 11.236c0.015 0.006 0.034 0.005 0.041-0.002s-0.006-0.012-0.028-0.011c-0.025 0.001-0.030 0.006-0.013 0.013zM19.947 11.322c0.015 0.006 0.034 0.005 0.041-0.002s-0.006-0.012-0.028-0.011c-0.025 0.001-0.030 0.006-0.013 0.013zM11.209 11.344c0.015 0.006 0.034 0.005 0.041-0.002s-0.006-0.012-0.028-0.011c-0.025 0.001-0.030 0.006-0.013 0.013zM20.14 11.344c0.015 0.006 0.034 0.005 0.041-0.002s-0.006-0.012-0.028-0.011c-0.025 0.001-0.030 0.006-0.013 0.013zM20.999 11.451c0.015 0.006 0.034 0.005 0.041-0.002s-0.006-0.012-0.028-0.011c-0.025 0.001-0.030 0.006-0.013 0.013zM21.149 11.472c0.015 0.006 0.034 0.005 0.041-0.002s-0.006-0.012-0.028-0.011c-0.025 0.001-0.030 0.006-0.013 0.013zM21.3 11.494c0.015 0.006 0.034 0.005 0.041-0.002s-0.006-0.012-0.028-0.011c-0.025 0.001-0.030 0.006-0.013 0.013zM9.578 11.559c0.015 0.006 0.034 0.005 0.041-0.002s-0.006-0.012-0.028-0.011c-0.025 0.001-0.030 0.006-0.013 0.013zM1.003 12.365l-0.063 0.070 0.070-0.063c0.039-0.035 0.070-0.066 0.070-0.070 0-0.017-0.017-0.002-0.077 0.063zM13.414 12.555c-1.043 0.11-2.044 0.611-2.799 1.404-0.579 0.607-0.958 1.327-1.134 2.152-0.053 0.251-0.059 0.313-0.058 0.746 0 0.408 0.007 0.502 0.048 0.691 0.14 0.64 0.428 1.161 0.883 1.601 0.557 0.537 1.22 0.826 2.058 0.896 0.727 0.062 1.525-0.111 2.232-0.484 1.215-0.64 2.088-1.784 2.35-3.083 0.043-0.212 0.050-0.308 0.050-0.717-0-0.367-0.009-0.514-0.039-0.661-0.083-0.408-0.26-0.837-0.491-1.186-0.158-0.239-0.579-0.656-0.832-0.824-0.656-0.435-1.449-0.623-2.268-0.537zM3.783 13.535l-0.052 0.059 0.059-0.052c0.032-0.028 0.059-0.055 0.059-0.059 0-0.017-0.017-0.003-0.066 0.052zM23.451 13.754c0 0.011-0.053 0.351-0.118 0.754s-0.118 0.738-0.118 0.742c0 0.004-0.109 0.008-0.242 0.008h-0.242l-0.081 0.531c-0.045 0.292-0.081 0.539-0.080 0.547s0.108 0.016 0.239 0.016h0.238l-0.012 0.059c-0.014 0.067-0.549 3.448-0.549 3.469 0 0.008 0.26 0.014 0.578 0.014h0.578l0.023-0.134c0.027-0.156 0.54-3.386 0.54-3.399 0-0.005 0.169-0.009 0.376-0.009s0.376-0.004 0.376-0.008c0-0.016 0.152-0.969 0.163-1.027l0.012-0.059h-0.757l0.012-0.070c0.032-0.184 0.225-1.412 0.225-1.432 0-0.015-0.187-0.023-0.579-0.023-0.354 0-0.579 0.008-0.579 0.021zM14.005 13.808c1.504 0.229 2.2 1.781 1.459 3.255-0.221 0.44-0.661 0.943-1.062 1.215-1.106 0.75-2.366 0.712-3.126-0.094-0.854-0.905-0.712-2.433 0.325-3.481 0.248-0.251 0.512-0.446 0.815-0.601 0.547-0.281 1.056-0.375 1.59-0.294zM3.817 14.7c0.021 0.024 0.044 0.043 0.050 0.043s-0.007-0.019-0.028-0.043c-0.021-0.024-0.044-0.043-0.050-0.043s0.007 0.019 0.028 0.043zM19.941 15.142c-0.364 0.052-0.72 0.206-0.931 0.403l-0.073 0.067 0.013-0.086c0.007-0.047 0.019-0.127 0.027-0.177l0.015-0.091h-0.582c-0.32 0-0.582 0.004-0.582 0.009s-0.247 1.558-0.547 3.451-0.547 3.459-0.547 3.479c-0 0.035 0.042 0.038 0.579 0.038 0.409 0 0.579-0.007 0.579-0.024 0-0.028 0.402-2.557 0.421-2.644l0.012-0.059 0.132 0.118c0.152 0.136 0.397 0.271 0.583 0.321 0.303 0.082 0.817 0.063 1.181-0.043 0.903-0.262 1.595-1.056 1.839-2.112 0.056-0.241 0.077-0.768 0.041-1.014-0.119-0.813-0.627-1.408-1.353-1.586-0.177-0.043-0.651-0.074-0.805-0.052zM27.26 15.161c-0.585 0.103-1.109 0.384-1.551 0.831-0.889 0.9-1.090 2.222-0.475 3.133 0.6 0.888 1.874 1.137 2.97 0.578 0.787-0.401 1.325-1.091 1.529-1.966 0.060-0.258 0.055-0.857-0.010-1.095-0.196-0.72-0.736-1.254-1.459-1.442-0.262-0.068-0.735-0.087-1.004-0.039zM32.489 15.144c-0.206 0.035-0.491 0.179-0.629 0.318l-0.059 0.061 0.015-0.144 0.015-0.144h-1.157l-0.361 2.292c-0.198 1.261-0.365 2.309-0.37 2.33-0.010 0.036 0.024 0.038 0.575 0.032l0.585-0.006 0.2-1.267c0.216-1.368 0.265-1.604 0.392-1.868 0.165-0.342 0.396-0.512 0.696-0.514 0.19-0.001 0.287 0.051 0.348 0.186 0.035 0.077 0.041 0.14 0.039 0.403-0.001 0.288-0.018 0.413-0.22 1.658-0.12 0.741-0.219 1.361-0.219 1.379 0 0.028 0.074 0.033 0.579 0.033 0.319 0 0.579-0.003 0.579-0.006 0-0.033 0.395-2.515 0.421-2.641 0.136-0.674 0.424-1.009 0.868-1.011 0.225-0.001 0.329 0.059 0.383 0.221 0.038 0.113 0.029 0.479-0.019 0.773-0.024 0.146-0.125 0.784-0.225 1.417s-0.187 1.172-0.193 1.199l-0.011 0.048h1.172l0.22-1.401c0.121-0.77 0.23-1.512 0.243-1.648 0.058-0.612-0.050-1.041-0.342-1.357-0.454-0.491-1.473-0.476-2.14 0.030l-0.15 0.114-0.141-0.142c-0.271-0.273-0.709-0.413-1.094-0.349zM39.016 15.16c-0.821 0.136-1.523 0.672-1.921 1.469-0.106 0.213-0.238 0.612-0.283 0.861-0.045 0.245-0.050 0.746-0.011 0.934 0.137 0.653 0.498 1.134 1.043 1.395 0.107 0.051 0.257 0.109 0.334 0.128 0.339 0.085 0.815 0.062 1.167-0.054 0.211-0.070 0.331-0.134 0.51-0.269l0.12-0.091-0.028 0.143c-0.047 0.244-0.11 0.219 0.55 0.219 0.418 0 0.579-0.007 0.579-0.024 0-0.014 0.159-1.035 0.354-2.271s0.354-2.268 0.354-2.294v-0.048h-0.568c-0.636 0-0.575-0.017-0.603 0.172-0.027 0.187-0.024 0.185-0.149 0.067-0.136-0.129-0.367-0.249-0.589-0.307-0.217-0.056-0.62-0.071-0.861-0.031zM20.166 16.246c0.672 0.107 0.947 0.739 0.682 1.566-0.171 0.535-0.52 0.901-0.995 1.044-0.19 0.057-0.54 0.052-0.696-0.010-0.25-0.099-0.421-0.282-0.519-0.552-0.065-0.18-0.080-0.581-0.030-0.828 0.137-0.677 0.727-1.217 1.353-1.24 0.036-0.001 0.127 0.008 0.204 0.020zM27.917 16.28c0.177 0.052 0.275 0.11 0.408 0.236 0.221 0.211 0.313 0.475 0.294 0.845-0.024 0.467-0.23 0.877-0.6 1.194-0.229 0.197-0.641 0.353-0.926 0.352-0.132-0-0.367-0.055-0.5-0.116-0.238-0.109-0.46-0.388-0.522-0.657-0.037-0.162-0.028-0.49 0.020-0.678 0.122-0.484 0.441-0.872 0.891-1.084 0.314-0.148 0.64-0.18 0.935-0.093zM39.645 16.256c0.183 0.048 0.315 0.123 0.427 0.242 0.241 0.258 0.322 0.611 0.243 1.063-0.114 0.656-0.55 1.153-1.144 1.305-0.999 0.255-1.57-0.826-0.986-1.869 0.13-0.234 0.426-0.524 0.638-0.628 0.283-0.139 0.571-0.178 0.822-0.113zM11.015 9.777c0.027 0.005 0.065 0.005 0.086-0.001s-0.001-0.010-0.049-0.009c-0.047 0.001-0.064 0.005-0.037 0.010zM13.376 9.777c0.027 0.005 0.065 0.005 0.086-0.001s-0.001-0.010-0.049-0.009c-0.047 0.001-0.064 0.005-0.037 0.010zM10.499 9.798c0.015 0.006 0.039 0.006 0.053 0s0.003-0.011-0.027-0.011-0.042 0.005-0.027 0.011zM13.924 9.798c0.021 0.005 0.050 0.005 0.064-0.001s-0.003-0.011-0.038-0.010c-0.036 0.001-0.047 0.005-0.026 0.011zM10.157 9.819c0.015 0.006 0.034 0.005 0.041-0.002s-0.006-0.012-0.028-0.011c-0.025 0.001-0.030 0.006-0.013 0.013zM14.332 9.82c0.021 0.005 0.050 0.005 0.064-0.001s-0.003-0.011-0.038-0.010c-0.036 0.001-0.047 0.005-0.026 0.011zM9.834 9.841c0.015 0.006 0.039 0.006 0.053 0s0.003-0.011-0.027-0.011-0.042 0.005-0.027 0.011zM14.666 9.841c0.015 0.006 0.034 0.005 0.041-0.002s-0.006-0.012-0.028-0.011c-0.025 0.001-0.030 0.006-0.013 0.013zM9.578 9.862c0.015 0.006 0.034 0.005 0.041-0.002s-0.006-0.012-0.028-0.011c-0.025 0.001-0.030 0.006-0.013 0.013zM14.965 9.862c0.015 0.006 0.039 0.006 0.053 0s0.003-0.011-0.027-0.011-0.042 0.005-0.027 0.011zM9.341 9.884c0.015 0.006 0.034 0.005 0.041-0.002s-0.006-0.012-0.028-0.011c-0.025 0.001-0.030 0.006-0.013 0.013zM15.245 9.884c0.015 0.006 0.034 0.005 0.041-0.002s-0.006-0.012-0.028-0.011c-0.025 0.001-0.030 0.006-0.013 0.013zM16.297 9.991c0.015 0.006 0.034 0.005 0.041-0.002s-0.006-0.012-0.028-0.011c-0.025 0.001-0.030 0.006-0.013 0.013zM14.633 11.108c0.032 0.005 0.081 0.005 0.107-0.001s-0.001-0.009-0.059-0.009c-0.059 0.001-0.081 0.004-0.048 0.009zM16.694 11.108c0.032 0.005 0.081 0.005 0.107-0.001s-0-0.009-0.059-0.009c-0.059 0.001-0.081 0.004-0.048 0.009zM14.010 11.13c0.021 0.005 0.054 0.005 0.075 0s0.004-0.010-0.038-0.010-0.058 0.004-0.038 0.010zM17.338 11.13c0.021 0.005 0.054 0.005 0.075 0s0.004-0.010-0.038-0.010-0.058 0.004-0.038 0.010zM13.559 11.151c0.021 0.005 0.050 0.005 0.064-0.001s-0.003-0.011-0.038-0.010c-0.036 0.001-0.047 0.005-0.026 0.011zM17.799 11.15c0.015 0.006 0.039 0.006 0.053 0s0.003-0.011-0.027-0.011-0.042 0.005-0.027 0.011zM13.185 11.172c0.015 0.006 0.034 0.005 0.041-0.002s-0.006-0.012-0.028-0.011c-0.025 0.001-0.030 0.006-0.013 0.013zM18.187 11.172c0.015 0.006 0.034 0.005 0.041-0.002s-0.006-0.012-0.028-0.011c-0.025 0.001-0.030 0.006-0.013 0.013zM12.861 11.193c0.015 0.006 0.039 0.006 0.053 0s0.003-0.011-0.027-0.011-0.042 0.005-0.027 0.011zM18.509 11.193c0.015 0.006 0.034 0.005 0.041-0.002s-0.006-0.012-0.028-0.011c-0.025 0.001-0.030 0.006-0.013 0.013zM12.326 11.236c0.015 0.006 0.034 0.005 0.041-0.002s-0.006-0.012-0.028-0.011c-0.025 0.001-0.030 0.006-0.013 0.013zM19.947 11.322c0.015 0.006 0.034 0.005 0.041-0.002s-0.006-0.012-0.028-0.011c-0.025 0.001-0.030 0.006-0.013 0.013zM11.209 11.344c0.015 0.006 0.034 0.005 0.041-0.002s-0.006-0.012-0.028-0.011c-0.025 0.001-0.030 0.006-0.013 0.013zM20.14 11.344c0.015 0.006 0.034 0.005 0.041-0.002s-0.006-0.012-0.028-0.011c-0.025 0.001-0.030 0.006-0.013 0.013zM1.003 12.365l-0.063 0.070 0.070-0.063c0.039-0.035 0.070-0.066 0.070-0.070 0-0.017-0.017-0.002-0.077 0.063zM13.414 12.555c-1.043 0.11-2.044 0.611-2.799 1.404-0.579 0.607-0.958 1.327-1.134 2.152-0.053 0.251-0.059 0.313-0.058 0.746 0 0.408 0.007 0.502 0.048 0.691 0.14 0.64 0.428 1.161 0.883 1.601 0.557 0.537 1.22 0.826 2.058 0.896 0.727 0.062 1.525-0.111 2.232-0.484 1.215-0.64 2.088-1.784 2.35-3.083 0.043-0.212 0.050-0.308 0.050-0.717-0-0.367-0.009-0.514-0.039-0.661-0.083-0.408-0.26-0.837-0.491-1.186-0.158-0.239-0.579-0.656-0.832-0.824-0.656-0.435-1.449-0.623-2.268-0.537zM3.783 13.535l-0.052 0.059 0.059-0.052c0.032-0.028 0.059-0.055 0.059-0.059 0-0.017-0.017-0.003-0.066 0.052zM23.451 13.754c0 0.011-0.053 0.351-0.118 0.754s-0.118 0.738-0.118 0.742c0 0.004-0.109 0.008-0.242 0.008h-0.242l-0.081 0.531c-0.045 0.292-0.081 0.539-0.080 0.547s0.108 0.016 0.239 0.016h0.238l-0.012 0.059c-0.014 0.067-0.549 3.448-0.549 3.469 0 0.008 0.26 0.014 0.578 0.014h0.578l0.023-0.134c0.027-0.156 0.54-3.386 0.54-3.399 0-0.005 0.169-0.009 0.376-0.009s0.376-0.004 0.376-0.008c0-0.016 0.152-0.969 0.163-1.027l0.012-0.059h-0.757l0.012-0.070c0.032-0.184 0.225-1.412 0.225-1.432 0-0.015-0.187-0.023-0.579-0.023-0.354 0-0.579 0.008-0.579 0.021zM14.005 13.808c1.504 0.229 2.2 1.781 1.459 3.255-0.221 0.44-0.661 0.943-1.062 1.215-1.106 0.75-2.366 0.712-3.126-0.094-0.854-0.905-0.712-2.433 0.325-3.481 0.248-0.251 0.512-0.446 0.815-0.601 0.547-0.281 1.056-0.375 1.59-0.294zM19.941 15.142c-0.364 0.052-0.72 0.206-0.931 0.403l-0.073 0.067 0.013-0.086c0.007-0.047 0.019-0.127 0.027-0.177l0.015-0.091h-0.582c-0.32 0-0.582 0.004-0.582 0.009s-0.247 1.558-0.547 3.451-0.547 3.459-0.547 3.479c-0 0.035 0.042 0.038 0.579 0.038 0.409 0 0.579-0.007 0.579-0.024 0-0.028 0.402-2.557 0.421-2.644l0.012-0.059 0.132 0.118c0.152 0.136 0.397 0.271 0.583 0.321 0.303 0.082 0.817 0.063 1.181-0.043 0.903-0.262 1.595-1.056 1.839-2.112 0.056-0.241 0.077-0.768 0.041-1.014-0.119-0.813-0.627-1.408-1.353-1.586-0.177-0.043-0.651-0.074-0.805-0.052zM27.26 15.161c-0.585 0.103-1.109 0.384-1.551 0.831-0.889 0.9-1.090 2.222-0.475 3.133 0.6 0.888 1.874 1.137 2.97 0.578 0.787-0.401 1.325-1.091 1.529-1.966 0.060-0.258 0.055-0.857-0.010-1.095-0.196-0.72-0.736-1.254-1.459-1.442-0.262-0.068-0.735-0.087-1.004-0.039zM32.489 15.144c-0.206 0.035-0.491 0.179-0.629 0.318l-0.059 0.061 0.015-0.144 0.015-0.144h-1.157l-0.361 2.292c-0.198 1.261-0.365 2.309-0.37 2.33-0.010 0.036 0.024 0.038 0.575 0.032l0.585-0.006 0.2-1.267c0.216-1.368 0.265-1.604 0.392-1.868 0.165-0.342 0.396-0.512 0.696-0.514 0.19-0.001 0.287 0.051 0.348 0.186 0.035 0.077 0.041 0.14 0.039 0.403-0.001 0.288-0.018 0.413-0.22 1.658-0.12 0.741-0.219 1.361-0.219 1.379 0 0.028 0.074 0.033 0.579 0.033 0.319 0 0.579-0.003 0.579-0.006 0-0.033 0.395-2.515 0.421-2.641 0.136-0.674 0.424-1.009 0.868-1.011 0.225-0.001 0.329 0.059 0.383 0.221 0.038 0.113 0.029 0.479-0.019 0.773-0.024 0.146-0.125 0.784-0.225 1.417s-0.187 1.172-0.193 1.199l-0.011 0.048h1.172l0.22-1.401c0.121-0.77 0.23-1.512 0.243-1.648 0.058-0.612-0.050-1.041-0.342-1.357-0.454-0.491-1.473-0.476-2.14 0.030l-0.15 0.114-0.141-0.142c-0.271-0.273-0.709-0.413-1.094-0.349zM39.016 15.16c-0.821 0.136-1.523 0.672-1.921 1.469-0.106 0.213-0.238 0.612-0.283 0.861-0.045 0.245-0.050 0.746-0.011 0.934 0.137 0.653 0.498 1.134 1.043 1.395 0.107 0.051 0.257 0.109 0.334 0.128 0.339 0.085 0.815 0.062 1.167-0.054 0.211-0.070 0.331-0.134 0.51-0.269l0.12-0.091-0.028 0.143c-0.047 0.244-0.11 0.219 0.55 0.219 0.418 0 0.579-0.007 0.579-0.024 0-0.014 0.159-1.035 0.354-2.271s0.354-2.268 0.354-2.294v-0.048h-0.568c-0.636 0-0.575-0.017-0.603 0.172-0.027 0.187-0.024 0.185-0.149 0.067-0.136-0.129-0.367-0.249-0.589-0.307-0.217-0.056-0.62-0.071-0.861-0.031zM20.166 16.246c0.672 0.107 0.947 0.739 0.682 1.566-0.171 0.535-0.52 0.901-0.995 1.044-0.19 0.057-0.54 0.052-0.696-0.010-0.25-0.099-0.421-0.282-0.519-0.552-0.065-0.18-0.080-0.581-0.030-0.828 0.137-0.677 0.727-1.217 1.353-1.24 0.036-0.001 0.127 0.008 0.204 0.020zM27.917 16.28c0.177 0.052 0.275 0.11 0.408 0.236 0.221 0.211 0.313 0.475 0.294 0.845-0.024 0.467-0.23 0.877-0.6 1.194-0.229 0.197-0.641 0.353-0.926 0.352-0.132-0-0.367-0.055-0.5-0.116-0.238-0.109-0.46-0.388-0.522-0.657-0.037-0.162-0.028-0.49 0.020-0.678 0.122-0.484 0.441-0.872 0.891-1.084 0.314-0.148 0.64-0.18 0.935-0.093zM39.645 16.256c0.183 0.048 0.315 0.123 0.427 0.242 0.241 0.258 0.322 0.611 0.243 1.063-0.114 0.656-0.55 1.153-1.144 1.305-0.999 0.255-1.57-0.826-0.986-1.869 0.13-0.234 0.426-0.524 0.638-0.628 0.283-0.139 0.571-0.178 0.822-0.113zM1.003 12.365l-0.063 0.070 0.070-0.063c0.039-0.035 0.070-0.066 0.070-0.070 0-0.017-0.017-0.002-0.077 0.063zM13.414 12.555c-1.043 0.11-2.044 0.611-2.799 1.404-0.579 0.607-0.958 1.327-1.134 2.152-0.053 0.251-0.059 0.313-0.058 0.746 0 0.408 0.007 0.502 0.048 0.691 0.14 0.64 0.428 1.161 0.883 1.601 0.557 0.537 1.22 0.826 2.058 0.896 0.727 0.062 1.525-0.111 2.232-0.484 1.215-0.64 2.088-1.784 2.35-3.083 0.043-0.212 0.050-0.308 0.050-0.717-0-0.367-0.009-0.514-0.039-0.661-0.083-0.408-0.26-0.837-0.491-1.186-0.158-0.239-0.579-0.656-0.832-0.824-0.656-0.435-1.449-0.623-2.268-0.537zM3.783 13.535l-0.052 0.059 0.059-0.052c0.032-0.028 0.059-0.055 0.059-0.059 0-0.017-0.017-0.003-0.066 0.052zM23.451 13.754c0 0.011-0.053 0.351-0.118 0.754s-0.118 0.738-0.118 0.742c0 0.004-0.109 0.008-0.242 0.008h-0.242l-0.081 0.531c-0.045 0.292-0.081 0.539-0.080 0.547s0.108 0.016 0.239 0.016h0.238l-0.012 0.059c-0.014 0.067-0.549 3.448-0.549 3.469 0 0.008 0.26 0.014 0.578 0.014h0.578l0.023-0.134c0.027-0.156 0.54-3.386 0.54-3.399 0-0.005 0.169-0.009 0.376-0.009s0.376-0.004 0.376-0.008c0-0.016 0.152-0.969 0.163-1.027l0.012-0.059h-0.757l0.012-0.070c0.032-0.184 0.225-1.412 0.225-1.432 0-0.015-0.187-0.023-0.579-0.023-0.354 0-0.579 0.008-0.579 0.021zM14.005 13.808c1.504 0.229 2.2 1.781 1.459 3.255-0.221 0.44-0.661 0.943-1.062 1.215-1.106 0.75-2.366 0.712-3.126-0.094-0.854-0.905-0.712-2.433 0.325-3.481 0.248-0.251 0.512-0.446 0.815-0.601 0.547-0.281 1.056-0.375 1.59-0.294zM19.941 15.142c-0.364 0.052-0.72 0.206-0.931 0.403l-0.073 0.067 0.013-0.086c0.007-0.047 0.019-0.127 0.027-0.177l0.015-0.091h-0.582c-0.32 0-0.582 0.004-0.582 0.009s-0.247 1.558-0.547 3.451-0.547 3.459-0.547 3.479c-0 0.035 0.042 0.038 0.579 0.038 0.409 0 0.579-0.007 0.579-0.024 0-0.028 0.402-2.557 0.421-2.644l0.012-0.059 0.132 0.118c0.152 0.136 0.397 0.271 0.583 0.321 0.303 0.082 0.817 0.063 1.181-0.043 0.903-0.262 1.595-1.056 1.839-2.112 0.056-0.241 0.077-0.768 0.041-1.014-0.119-0.813-0.627-1.408-1.353-1.586-0.177-0.043-0.651-0.074-0.805-0.052zM27.26 15.161c-0.585 0.103-1.109 0.384-1.551 0.831-0.889 0.9-1.090 2.222-0.475 3.133 0.6 0.888 1.874 1.137 2.97 0.578 0.787-0.401 1.325-1.091 1.529-1.966 0.060-0.258 0.055-0.857-0.010-1.095-0.196-0.72-0.736-1.254-1.459-1.442-0.262-0.068-0.735-0.087-1.004-0.039zM32.489 15.144c-0.206 0.035-0.491 0.179-0.629 0.318l-0.059 0.061 0.015-0.144 0.015-0.144h-1.157l-0.361 2.292c-0.198 1.261-0.365 2.309-0.37 2.33-0.010 0.036 0.024 0.038 0.575 0.032l0.585-0.006 0.2-1.267c0.216-1.368 0.265-1.604 0.392-1.868 0.165-0.342 0.396-0.512 0.696-0.514 0.19-0.001 0.287 0.051 0.348 0.186 0.035 0.077 0.041 0.14 0.039 0.403-0.001 0.288-0.018 0.413-0.22 1.658-0.12 0.741-0.219 1.361-0.219 1.379 0 0.028 0.074 0.033 0.579 0.033 0.319 0 0.579-0.003 0.579-0.006 0-0.033 0.395-2.515 0.421-2.641 0.136-0.674 0.424-1.009 0.868-1.011 0.225-0.001 0.329 0.059 0.383 0.221 0.038 0.113 0.029 0.479-0.019 0.773-0.024 0.146-0.125 0.784-0.225 1.417s-0.187 1.172-0.193 1.199l-0.011 0.048h1.172l0.22-1.401c0.121-0.77 0.23-1.512 0.243-1.648 0.058-0.612-0.050-1.041-0.342-1.357-0.454-0.491-1.473-0.476-2.14 0.030l-0.15 0.114-0.141-0.142c-0.271-0.273-0.709-0.413-1.094-0.349zM39.016 15.16c-0.821 0.136-1.523 0.672-1.921 1.469-0.106 0.213-0.238 0.612-0.283 0.861-0.045 0.245-0.050 0.746-0.011 0.934 0.137 0.653 0.498 1.134 1.043 1.395 0.107 0.051 0.257 0.109 0.334 0.128 0.339 0.085 0.815 0.062 1.167-0.054 0.211-0.070 0.331-0.134 0.51-0.269l0.12-0.091-0.028 0.143c-0.047 0.244-0.11 0.219 0.55 0.219 0.418 0 0.579-0.007 0.579-0.024 0-0.014 0.159-1.035 0.354-2.271s0.354-2.268 0.354-2.294v-0.048h-0.568c-0.636 0-0.575-0.017-0.603 0.172-0.027 0.187-0.024 0.185-0.149 0.067-0.136-0.129-0.367-0.249-0.589-0.307-0.217-0.056-0.62-0.071-0.861-0.031zM20.166 16.246c0.672 0.107 0.947 0.739 0.682 1.566-0.171 0.535-0.52 0.901-0.995 1.044-0.19 0.057-0.54 0.052-0.696-0.010-0.25-0.099-0.421-0.282-0.519-0.552-0.065-0.18-0.080-0.581-0.030-0.828 0.137-0.677 0.727-1.217 1.353-1.24 0.036-0.001 0.127 0.008 0.204 0.020zM27.917 16.28c0.177 0.052 0.275 0.11 0.408 0.236 0.221 0.211 0.313 0.475 0.294 0.845-0.024 0.467-0.23 0.877-0.6 1.194-0.229 0.197-0.641 0.353-0.926 0.352-0.132-0-0.367-0.055-0.5-0.116-0.238-0.109-0.46-0.388-0.522-0.657-0.037-0.162-0.028-0.49 0.020-0.678 0.122-0.484 0.441-0.872 0.891-1.084 0.314-0.148 0.64-0.18 0.935-0.093zM39.645 16.256c0.183 0.048 0.315 0.123 0.427 0.242 0.241 0.258 0.322 0.611 0.243 1.063-0.114 0.656-0.55 1.153-1.144 1.305-0.999 0.255-1.57-0.826-0.986-1.869 0.13-0.234 0.426-0.524 0.638-0.628 0.283-0.139 0.571-0.178 0.822-0.113zM13.414 12.555c-1.043 0.11-2.044 0.611-2.799 1.404-0.579 0.607-0.958 1.327-1.134 2.152-0.053 0.251-0.059 0.313-0.058 0.746 0 0.408 0.007 0.502 0.048 0.691 0.14 0.64 0.428 1.161 0.883 1.601 0.557 0.537 1.22 0.826 2.058 0.896 0.727 0.062 1.525-0.111 2.232-0.484 1.215-0.64 2.088-1.784 2.35-3.083 0.043-0.212 0.050-0.308 0.050-0.717-0-0.367-0.009-0.514-0.039-0.661-0.083-0.408-0.26-0.837-0.491-1.186-0.158-0.239-0.579-0.656-0.832-0.824-0.656-0.435-1.449-0.623-2.268-0.537zM23.451 13.754c0 0.011-0.053 0.351-0.118 0.754s-0.118 0.738-0.118 0.742c0 0.004-0.109 0.008-0.242 0.008h-0.242l-0.081 0.531c-0.045 0.292-0.081 0.539-0.080 0.547s0.108 0.016 0.239 0.016h0.238l-0.012 0.059c-0.014 0.067-0.549 3.448-0.549 3.469 0 0.008 0.26 0.014 0.578 0.014h0.578l0.023-0.134c0.027-0.156 0.54-3.386 0.54-3.399 0-0.005 0.169-0.009 0.376-0.009s0.376-0.004 0.376-0.008c0-0.016 0.152-0.969 0.163-1.027l0.012-0.059h-0.757l0.012-0.070c0.032-0.184 0.225-1.412 0.225-1.432 0-0.015-0.187-0.023-0.579-0.023-0.354 0-0.579 0.008-0.579 0.021zM14.005 13.808c1.504 0.229 2.2 1.781 1.459 3.255-0.221 0.44-0.661 0.943-1.062 1.215-1.106 0.75-2.366 0.712-3.126-0.094-0.854-0.905-0.712-2.433 0.325-3.481 0.248-0.251 0.512-0.446 0.815-0.601 0.547-0.281 1.056-0.375 1.59-0.294zM19.941 15.142c-0.364 0.052-0.72 0.206-0.931 0.403l-0.073 0.067 0.013-0.086c0.007-0.047 0.019-0.127 0.027-0.177l0.015-0.091h-0.582c-0.32 0-0.582 0.004-0.582 0.009s-0.247 1.558-0.547 3.451-0.547 3.459-0.547 3.479c-0 0.035 0.042 0.038 0.579 0.038 0.409 0 0.579-0.007 0.579-0.024 0-0.028 0.402-2.557 0.421-2.644l0.012-0.059 0.132 0.118c0.152 0.136 0.397 0.271 0.583 0.321 0.303 0.082 0.817 0.063 1.181-0.043 0.903-0.262 1.595-1.056 1.839-2.112 0.056-0.241 0.077-0.768 0.041-1.014-0.119-0.813-0.627-1.408-1.353-1.586-0.177-0.043-0.651-0.074-0.805-0.052zM27.26 15.161c-0.585 0.103-1.109 0.384-1.551 0.831-0.889 0.9-1.090 2.222-0.475 3.133 0.6 0.888 1.874 1.137 2.97 0.578 0.787-0.401 1.325-1.091 1.529-1.966 0.060-0.258 0.055-0.857-0.010-1.095-0.196-0.72-0.736-1.254-1.459-1.442-0.262-0.068-0.735-0.087-1.004-0.039zM32.489 15.144c-0.206 0.035-0.491 0.179-0.629 0.318l-0.059 0.061 0.015-0.144 0.015-0.144h-1.157l-0.361 2.292c-0.198 1.261-0.365 2.309-0.37 2.33-0.010 0.036 0.024 0.038 0.575 0.032l0.585-0.006 0.2-1.267c0.216-1.368 0.265-1.604 0.392-1.868 0.165-0.342 0.396-0.512 0.696-0.514 0.19-0.001 0.287 0.051 0.348 0.186 0.035 0.077 0.041 0.14 0.039 0.403-0.001 0.288-0.018 0.413-0.22 1.658-0.12 0.741-0.219 1.361-0.219 1.379 0 0.028 0.074 0.033 0.579 0.033 0.319 0 0.579-0.003 0.579-0.006 0-0.033 0.395-2.515 0.421-2.641 0.136-0.674 0.424-1.009 0.868-1.011 0.225-0.001 0.329 0.059 0.383 0.221 0.038 0.113 0.029 0.479-0.019 0.773-0.024 0.146-0.125 0.784-0.225 1.417s-0.187 1.172-0.193 1.199l-0.011 0.048h1.172l0.22-1.401c0.121-0.77 0.23-1.512 0.243-1.648 0.058-0.612-0.050-1.041-0.342-1.357-0.454-0.491-1.473-0.476-2.14 0.030l-0.15 0.114-0.141-0.142c-0.271-0.273-0.709-0.413-1.094-0.349zM39.016 15.16c-0.821 0.136-1.523 0.672-1.921 1.469-0.106 0.213-0.237 0.612-0.283 0.861-0.045 0.245-0.050 0.746-0.011 0.934 0.138 0.653 0.498 1.134 1.043 1.395 0.107 0.051 0.257 0.109 0.334 0.128 0.339 0.085 0.815 0.062 1.167-0.054 0.211-0.070 0.331-0.134 0.51-0.269l0.12-0.091-0.028 0.143c-0.047 0.244-0.11 0.219 0.55 0.219 0.418 0 0.579-0.007 0.579-0.024 0-0.014 0.159-1.035 0.354-2.271s0.354-2.268 0.354-2.294v-0.048h-0.568c-0.636 0-0.575-0.017-0.603 0.172-0.027 0.187-0.024 0.185-0.149 0.067-0.136-0.129-0.367-0.249-0.589-0.307-0.217-0.056-0.62-0.071-0.861-0.031zM20.166 16.246c0.672 0.107 0.947 0.739 0.682 1.566-0.171 0.535-0.52 0.901-0.995 1.044-0.19 0.057-0.54 0.052-0.696-0.010-0.25-0.099-0.421-0.282-0.519-0.552-0.065-0.18-0.080-0.581-0.030-0.828 0.137-0.677 0.727-1.217 1.353-1.24 0.036-0.001 0.127 0.008 0.204 0.020zM27.917 16.28c0.177 0.052 0.275 0.11 0.408 0.236 0.221 0.211 0.313 0.475 0.294 0.845-0.024 0.467-0.23 0.877-0.6 1.194-0.229 0.197-0.641 0.353-0.926 0.352-0.131-0-0.367-0.055-0.5-0.116-0.238-0.109-0.46-0.388-0.522-0.657-0.038-0.162-0.028-0.49 0.019-0.678 0.122-0.484 0.441-0.872 0.891-1.084 0.314-0.148 0.64-0.18 0.935-0.093zM39.645 16.256c0.183 0.048 0.315 0.123 0.427 0.242 0.241 0.258 0.322 0.611 0.243 1.063-0.114 0.656-0.55 1.153-1.144 1.305-0.999 0.255-1.57-0.826-0.986-1.869 0.13-0.234 0.426-0.524 0.638-0.628 0.283-0.139 0.571-0.178 0.822-0.113z"></path>
</svg>
