<!-- Generated by IcoMoon.io -->
<svg version="1.1" xmlns="http://www.w3.org/2000/svg" width="31" height="32" viewBox="0 0 31 32">
<path d="M13.574 4.603c-0.469 0-0.745 0.229-0.78 0.645-0.023 0.422 0.224 0.668 0.559 0.733 0.129 0.023 0.263 0.023 0.392 0 0.306-0.047 0.535-0.294 0.558-0.598 0.029-0.358-0.135-0.634-0.451-0.74-0.088-0.029-0.183-0.046-0.277-0.040zM6.629 6.567c-0.461-0.002-0.886 0.152-1.282 0.446-0.035 0.035-0.077 0.066-0.124 0.089-0.012-0.006-0.021-0.013-0.021-0.019-0.018-0.059-0.031-0.118-0.049-0.177-0.047-0.147-0.105-0.2-0.263-0.2-0.176 0-0.358 0.006-0.533 0-0.135-0.006-0.259 0.014-0.352 0.119 0 2.052 0.001 4.111 0.007 6.157 0.076 0.123 0.194 0.146 0.329 0.14 0.211-0.006 0.422 0 0.633 0 0.37 0 0.37 0 0.37-0.364v-1.67c0-0.041-0.020-0.089 0.021-0.124 0.294 0.229 0.652 0.37 1.021 0.405 0.516 0.053 0.986-0.076 1.379-0.428 0.288-0.264 0.498-0.604 0.61-0.98 0.157-0.479 0.167-0.966 0.126-1.458-0.023-0.305-0.106-0.605-0.229-0.881-0.241-0.504-0.611-0.875-1.173-1.004-0.161-0.035-0.318-0.052-0.471-0.053zM18.114 6.57c-0.147 0-0.294 0.015-0.44 0.045-0.381 0.070-0.721 0.238-1.044 0.438-0.041 0.024-0.076 0.065-0.135 0.065-0.029-0.088-0.046-0.165-0.075-0.247-0.036-0.099-0.101-0.163-0.206-0.163h-0.731c-0.070 0-0.143 0.042-0.166 0.112-0.012 0.047-0.016 0.095-0.016 0.142v4.068c0 0.199 0.051 0.259 0.257 0.259h0.786c0.217 0 0.264-0.046 0.264-0.263v-3.127c-0.011-0.047 0.018-0.1 0.065-0.112 0.317-0.153 0.675-0.224 1.027-0.201 0.2 0.011 0.369 0.152 0.41 0.352 0.023 0.099 0.030 0.206 0.030 0.305v2.773c0 0.217 0.047 0.27 0.264 0.27h0.62c0.094 0 0.183-0.001 0.27-0.007 0.082 0 0.146-0.058 0.146-0.14 0.012-0.058 0.012-0.111 0.012-0.17v-3.083c-0.006-0.047 0.023-0.095 0.070-0.107 0.317-0.147 0.665-0.217 1.010-0.194 0.188 0.012 0.352 0.14 0.398 0.322 0.029 0.106 0.041 0.212 0.035 0.323v2.715c0 0.065-0.001 0.128 0.011 0.193 0.012 0.070 0.070 0.13 0.14 0.136 0.047 0.006 0.095 0.006 0.142 0.006h0.715c0.264 0 0.299-0.034 0.299-0.298v-3.039c0-0.071 0.001-0.133-0.005-0.198-0.024-0.305-0.108-0.586-0.33-0.815-0.235-0.246-0.538-0.34-0.873-0.358-0.463-0.023-0.922 0.083-1.332 0.294-0.159 0.082-0.31 0.175-0.457 0.263-0.006-0.012-0.013-0.010-0.005-0.016-0.012-0.012-0.023-0.024-0.035-0.042-0.158-0.235-0.404-0.398-0.68-0.457-0.147-0.030-0.294-0.045-0.439-0.045zM25.557 6.61c-0.195-0.020-0.392-0.016-0.588 0.009-0.927 0.106-1.531 0.617-1.806 1.502-0.194 0.604-0.17 1.22-0.012 1.83 0.206 0.78 0.722 1.242 1.502 1.406 0.445 0.1 0.895 0.082 1.341 0.012 0.235-0.041 0.471-0.101 0.694-0.189 0.135-0.053 0.206-0.134 0.2-0.287-0.006-0.141 0-0.288 0-0.434 0-0.176-0.071-0.229-0.241-0.188s-0.334 0.076-0.503 0.112c-0.364 0.076-0.74 0.075-1.103 0.011-0.498-0.1-0.821-0.527-0.792-1.055 0.052 0.006 0.111 0.011 0.164 0.023 0.439 0.082 0.891 0.089 1.331 0.019 0.258-0.035 0.505-0.113 0.734-0.236 0.264-0.153 0.456-0.363 0.538-0.656 0.206-0.739-0.112-1.486-0.88-1.76-0.188-0.061-0.381-0.102-0.577-0.121zM12.109 6.661c-0.381-0.029-0.762 0.089-1.067 0.323-0.118 0.093-0.23 0.193-0.335 0.299-0.024 0.035-0.059 0.058-0.1 0.070-0.035-0.158-0.070-0.305-0.112-0.45-0.041-0.147-0.111-0.201-0.264-0.201h-0.563c-0.27 0-0.298 0.031-0.298 0.3v3.987c0 0.047-0.002 0.095 0.004 0.142 0.006 0.077 0.066 0.14 0.142 0.146 0.041 0.006 0.088 0.005 0.129 0.005h0.763c0.041 0 0.088 0.001 0.129-0.005 0.076 0 0.136-0.059 0.142-0.135 0.006-0.053 0.005-0.1 0.005-0.153v-2.813c0-0.065-0.001-0.125 0.081-0.154 0.37-0.123 0.751-0.198 1.143-0.163 0.082 0.006 0.16 0.010 0.242 0.004 0.105-0.012 0.148-0.052 0.171-0.158 0.012-0.082 0.017-0.158 0.011-0.24 0-0.2 0.005-0.405-0.007-0.605-0.011-0.147-0.063-0.195-0.216-0.201zM13.094 6.701c-0.141 0.006-0.195 0.060-0.201 0.201v2.081c0 0.669 0.002 1.336-0.004 1.987 0 0.047-0.002 0.095 0.004 0.142 0.006 0.083 0.077 0.148 0.159 0.154 0.029 0.006 0.055 0.005 0.084 0.005h0.815c0.035 0 0.065 0.001 0.1-0.005 0.076-0.006 0.134-0.059 0.14-0.135 0.006-0.065 0.012-0.131 0.012-0.195v-3.903c0-0.053 0.001-0.101-0.005-0.154-0.012-0.135-0.054-0.177-0.189-0.177-0.305-0.006-0.61-0.006-0.915 0zM25.298 7.511c0.106 0.006 0.21 0.029 0.31 0.070 0.153 0.065 0.252 0.207 0.27 0.37 0.018 0.1 0.012 0.206-0.018 0.305-0.070 0.211-0.241 0.299-0.445 0.34-0.123 0.029-0.252 0.040-0.381 0.028-0.229 0-0.462-0.016-0.691-0.051-0.088-0.011-0.089-0.011-0.077-0.105 0.018-0.141 0.059-0.276 0.112-0.405 0.176-0.428 0.546-0.575 0.922-0.552zM6.201 7.562c0.085 0.001 0.173 0.009 0.261 0.026 0.247 0.035 0.457 0.193 0.557 0.422 0.088 0.188 0.141 0.393 0.153 0.599 0.035 0.375 0.034 0.75-0.072 1.108-0.041 0.182-0.133 0.345-0.268 0.468-0.153 0.129-0.341 0.207-0.54 0.207-0.299 0.018-0.593-0.047-0.857-0.188-0.065-0.029-0.106-0.094-0.1-0.164v-1.062c0-0.352 0.006-0.703 0-1.055-0.006-0.082 0.043-0.153 0.119-0.182 0.242-0.114 0.489-0.183 0.747-0.18zM9.816 13.262c-0.044-0.006-0.087 0-0.131 0.007-0.371 0.032-0.642 0.288-0.673 0.635-0.038 0.434 0.163 0.735 0.553 0.829 0.069 0.012 0.137 0.026 0.207 0.026 0.509 0.013 0.894-0.276 0.844-0.849-0.012-0.265-0.181-0.49-0.427-0.585-0.119-0.050-0.247-0.076-0.372-0.063zM15.076 13.305c-0.239 0-0.283 0.045-0.283 0.284v2.038c0 0.044 0.018 0.089-0.014 0.133-0.056-0.006-0.087-0.045-0.131-0.070-0.655-0.384-1.341-0.452-2.034-0.131-0.485 0.226-0.785 0.637-0.98 1.12-0.189 0.466-0.235 0.957-0.222 1.453 0 0.466 0.107 0.923 0.315 1.338 0.239 0.459 0.587 0.812 1.091 0.963 0.686 0.214 1.327 0.107 1.911-0.327 0.044-0.025 0.068-0.069 0.125-0.082 0.032 0.069 0.057 0.145 0.070 0.22 0.025 0.101 0.114 0.171 0.22 0.171h0.152c0.226 0 0.445 0.006 0.666 0 0.176 0 0.227-0.058 0.234-0.241v-6.63c-0.006-0.195-0.056-0.241-0.245-0.241h-0.876zM24.689 15.358c-0.201-0.008-0.402 0.005-0.603 0.037-0.849 0.125-1.46 0.578-1.755 1.383-0.289 0.768-0.282 1.611 0.007 2.378 0.252 0.698 0.754 1.14 1.478 1.322 0.384 0.095 0.786 0.119 1.182 0.063 1.321-0.157 1.869-1.159 1.957-2.027 0 0 0.032-0.26 0.032-0.38l-0.007-0.527c0.006-0.072-0.018-0.218-0.018-0.224-0.013-0.119-0.037-0.24-0.068-0.353-0.233-0.83-0.756-1.379-1.605-1.592-0.199-0.047-0.398-0.073-0.598-0.079zM19.468 15.413c-1.057 0.025-1.863 0.56-2.191 1.617-0.22 0.698-0.188 1.41 0.026 2.108 0.22 0.718 0.724 1.152 1.441 1.347 0.308 0.075 0.628 0.107 0.943 0.095 0.459-0.006 0.917-0.096 1.352-0.259 0.183-0.069 0.227-0.132 0.227-0.327v-0.453c-0.006-0.183-0.083-0.246-0.265-0.201-0.138 0.038-0.27 0.070-0.408 0.102-0.422 0.101-0.862 0.119-1.29 0.044-0.428-0.082-0.717-0.327-0.829-0.755-0.032-0.125-0.057-0.251-0.070-0.383 0.032 0 0.063-0.002 0.088 0.011 0.416 0.074 0.839 0.107 1.26 0.075 0.365-0.025 0.729-0.094 1.056-0.27 0.334-0.164 0.566-0.474 0.635-0.839 0.044-0.226 0.045-0.465-0.005-0.691-0.132-0.567-0.491-0.917-1.032-1.1-0.302-0.095-0.623-0.133-0.938-0.12zM3.737 15.513c-0.126 0-0.171 0.063-0.152 0.189 0.019 0.082 0.046 0.172 0.084 0.247 0.378 0.994 0.761 1.982 1.138 2.97 0.157 0.415 0.321 0.835 0.478 1.251 0.069 0.176 0.182 0.263 0.377 0.257 0.276-0.006 0.554-0.006 0.83 0 0.139 0.013 0.271-0.074 0.315-0.206 0.013-0.038 0.032-0.076 0.044-0.113 0.422-1.095 0.844-2.195 1.266-3.29l0.376-1c0.082-0.227 0.031-0.297-0.208-0.297h-0.955c-0.114 0-0.222 0.068-0.253 0.182l-0.037 0.115c-0.289 0.975-0.579 1.943-0.868 2.918-0.038 0.125-0.076 0.246-0.114 0.371-0.012 0-0.020-0.001-0.014-0.007-0.259-0.875-0.509-1.755-0.766-2.63-0.076-0.239-0.146-0.484-0.215-0.723-0.038-0.132-0.106-0.234-0.257-0.234-0.352 0-0.712-0.006-1.070 0zM9.357 15.52c-0.195 0-0.247 0.056-0.253 0.252v4.354c0 0.038 0.001 0.082 0.007 0.119 0.013 0.119 0.069 0.182 0.195 0.182 0.34 0.006 0.674 0.006 1.014 0 0.126-0.006 0.182-0.063 0.195-0.189v-4.466c0-0.195-0.055-0.252-0.251-0.252h-0.905zM19.341 16.378c0.085-0.008 0.174-0.006 0.265 0.003 0.032 0 0.055 0.014 0.086 0.014 0.44 0.069 0.548 0.42 0.467 0.759-0.063 0.252-0.27 0.346-0.503 0.39-0.125 0.025-0.258 0.038-0.39 0.032-0.258-0.006-0.509-0.025-0.761-0.063-0.056-0.006-0.080-0.029-0.068-0.086 0.044-0.246 0.101-0.486 0.252-0.687 0.174-0.231 0.398-0.339 0.653-0.362zM13.722 16.432c0.334-0.032 0.667 0.032 0.969 0.17 0.075 0.025 0.119 0.1 0.114 0.182-0.012 0.391-0.005 0.768-0.005 1.151v1.145c0.013 0.075-0.031 0.146-0.1 0.177-0.302 0.17-0.648 0.239-0.988 0.189-0.289-0.032-0.542-0.206-0.674-0.465-0.101-0.201-0.158-0.416-0.177-0.637-0.050-0.397-0.019-0.8 0.075-1.184 0.032-0.107 0.071-0.206 0.127-0.306 0.132-0.246 0.383-0.403 0.66-0.422zM24.439 16.464c0.119-0.013 0.239-0.015 0.358 0.011 0.252 0.050 0.46 0.215 0.573 0.447 0.107 0.22 0.168 0.467 0.181 0.712 0.006 0.113 0.014 0.224 0.007 0.338 0.018 0.278-0.013 0.55-0.088 0.807-0.038 0.132-0.096 0.251-0.177 0.364-0.138 0.195-0.358 0.322-0.596 0.34-0.119 0.013-0.239 0.012-0.358-0.014-0.265-0.050-0.486-0.226-0.592-0.472-0.095-0.195-0.151-0.407-0.17-0.621-0.032-0.371-0.038-0.743 0.050-1.108 0.032-0.145 0.095-0.288 0.17-0.415 0.138-0.226 0.377-0.371 0.642-0.39zM24.439 22.418c-0.358 0.010-0.709 0.045-1.056 0.117-0.45 0.108-0.874 0.271-1.252 0.542-0.061 0.036-0.114 0.087-0.155 0.143-0.036 0.061-0.051 0.121-0.015 0.183s0.099 0.067 0.166 0.062l0.617-0.077c0.465-0.061 0.934-0.082 1.405-0.061 0.169 0.010 0.331 0.040 0.49 0.091 0.168 0.051 0.282 0.2 0.287 0.374 0.010 0.102 0.005 0.204-0.005 0.306-0.036 0.282-0.093 0.558-0.175 0.829-0.138 0.496-0.311 0.969-0.49 1.45-0.020 0.051-0.030 0.102-0.035 0.154 0.005 0.097 0.066 0.148 0.163 0.123 0.061-0.020 0.118-0.055 0.164-0.102 0.23-0.214 0.428-0.462 0.591-0.732 0.45-0.751 0.722-1.592 0.788-2.466 0.010-0.148 0.003-0.297-0.017-0.44-0.015-0.122-0.090-0.234-0.208-0.28-0.086-0.041-0.172-0.071-0.265-0.096-0.327-0.087-0.66-0.108-0.997-0.119zM4.872 22.68c-0.036 0.009-0.069 0.027-0.095 0.055-0.051 0.055-0.066 0.132-0.035 0.204 0.020 0.051 0.055 0.102 0.096 0.138 0.174 0.164 0.342 0.328 0.521 0.486 1.921 1.701 4.122 2.87 6.63 3.452 0.725 0.168 1.466 0.28 2.212 0.336 0.282 0.020 0.562 0.032 0.843 0.047 0.204-0.005 0.41-0.005 0.614 0 0.812-0.031 1.619-0.119 2.418-0.262 1.389-0.26 2.738-0.714 4-1.353 0.669-0.337 1.303-0.741 1.89-1.201 0.072-0.050 0.127-0.116 0.168-0.193 0.010-0.020 0.022-0.046 0.027-0.067 0.041-0.169-0.061-0.343-0.23-0.384-0.102-0.026-0.214-0.011-0.306 0.040-0.619 0.286-1.252 0.532-1.9 0.747-1.231 0.409-2.503 0.7-3.79 0.864-0.551 0.072-1.104 0.123-1.661 0.138-1.032 0.036-2.068-0.010-3.095-0.138-0.715-0.092-1.425-0.219-2.13-0.383-2.1-0.49-4.103-1.318-5.937-2.452-0.041-0.026-0.087-0.046-0.133-0.067-0.035-0.015-0.073-0.017-0.108-0.009z"></path>
</svg>
