<svg width="24" height="24" viewBox="0 0 24 24" fill="none" xmlns="http://www.w3.org/2000/svg">
<g id="projector">
<path id="icon" d="M4 15V16M20 15V16M18.75 15H20.5C21.0523 15 21.5 14.5523 21.5 14V10C21.5 9.44772 21.0523 9 20.5 9H18.75M13 15H3.5C2.94772 15 2.5 14.5523 2.5 14V10C2.5 9.44772 2.94772 9 3.5 9H13M20 12C20 14.2091 18.2091 16 16 16C13.7909 16 12 14.2091 12 12C12 9.79086 13.7909 8 16 8C18.2091 8 20 9.79086 20 12ZM18 12C18 13.1046 17.1046 14 16 14C14.8954 14 14 13.1046 14 12C14 10.8954 14.8954 10 16 10C17.1046 10 18 10.8954 18 12Z" stroke="#1A1B1E" stroke-linecap="round"/>
</g>
</svg>
