<!-- Generated by IcoMoon.io -->
<svg version="1.1" xmlns="http://www.w3.org/2000/svg" width="42" height="32" viewBox="0 0 42 32">
<path d="M22.611 16.614l-4.812-4.505v7.576h1.433v-4.198l4.812 4.505v-7.576h-1.433v4.198zM11.451 12.007c-2.252 0-3.993 1.741-3.993 3.993 0 2.15 1.843 3.993 3.993 3.993 2.252 0 3.993-1.74 3.993-3.993s-1.74-3.993-3.993-3.993zM11.451 18.56c-1.433 0-2.56-1.126-2.56-2.559s1.126-2.56 2.56-2.56c1.433 0 2.56 1.126 2.56 2.56s-1.126 2.559-2.56 2.559zM5.001 16c-0.409-0.307-0.921-0.512-1.638-0.717-1.433-0.409-1.433-0.819-1.433-1.024 0-0.409 0.512-0.819 1.229-0.819 0.614 0 1.126 0.307 1.331 0.41l0.102 0.102 1.126-0.819-0.102-0.102c0 0-0.921-1.024-2.457-1.024-0.717 0-1.433 0.205-1.945 0.614s-0.819 1.024-0.819 1.638c0 0.614 0.307 1.229 0.819 1.638 0.409 0.307 0.921 0.512 1.638 0.717 1.433 0.409 1.433 0.819 1.433 1.024 0 0.409-0.512 0.819-1.229 0.819-0.614 0-1.126-0.307-1.331-0.41l-0.102-0.102-1.126 0.819 0.102 0.102c0 0 0.921 1.024 2.457 1.024 0.717 0 1.433-0.205 1.945-0.614s0.819-1.024 0.819-1.638c0-0.614-0.307-1.126-0.819-1.638zM30.392 12.007c-2.252 0-3.993 1.741-3.993 3.993s1.843 3.993 3.993 3.993c2.252 0 3.993-1.74 3.993-3.993s-1.843-3.993-3.993-3.993zM30.392 18.56c-1.433 0-2.559-1.126-2.559-2.559s1.126-2.56 2.559-2.56c1.433 0 2.559 1.126 2.559 2.56s-1.228 2.559-2.559 2.559zM36.842 15.898c0.41 0.307 0.922 0.512 1.638 0.717 1.433 0.409 1.433 0.819 1.433 1.024 0 0.409-0.512 0.819-1.228 0.819-0.614 0-1.126-0.307-1.331-0.41h-0.102l-1.126 0.819 0.102 0.102c0 0 0.921 1.024 2.457 1.024 0.717 0 1.433-0.205 1.945-0.614s0.819-1.024 0.819-1.638-0.307-1.228-0.819-1.638c-0.409-0.307-0.921-0.512-1.638-0.717-1.433-0.41-1.433-0.819-1.433-1.024 0-0.41 0.512-0.819 1.228-0.819 0.614 0 1.126 0.307 1.331 0.409l0.102 0.102 1.126-0.819-0.102-0.102c0 0-0.921-1.024-2.457-1.024-0.717 0-1.433 0.205-1.945 0.614s-0.819 1.024-0.819 1.638c-0.102 0.614 0.205 1.126 0.819 1.536z"></path>
</svg>
