<!-- Generated by IcoMoon.io -->
<svg version="1.1" xmlns="http://www.w3.org/2000/svg" width="32" height="32" viewBox="0 0 32 32">
<path d="M26.045 9.973c-0.296 1.757-0.754 3.22-1.523 4.826-0.2 0.42-0.4 0.84-0.606 1.274-0.209 0.432-0.418 0.864-0.634 1.309-0.313 0.659-0.313 0.659-0.634 1.332-1.552 3.239-1.552 3.239-2.129 3.816-1.004 0.020-2.009 0.021-3.014 0-0.506-0.887-1.008-1.777-1.507-2.669-0.279-0.495-0.56-0.991-0.848-1.501-0.659-1.356-0.659-1.356-0.659-2.863 3.327 0.377 3.327 0.377 5.022 1.507 0.031-0.332 0.062-0.663 0.094-1.004 0.565-2.085 1.626-3.8 2.919-5.524 1.237-0.619 2.149-0.538 3.516-0.503z"></path>
<path d="M8.215 10.412c1.256 0.063 1.256 0.063 1.758 0.565 0.044 0.858 0.054 1.717 0.049 2.576-0.002 0.779-0.002 0.779-0.005 1.575-0.004 0.547-0.008 1.094-0.013 1.657-0.002 0.549-0.004 1.097-0.007 1.662-0.006 1.36-0.014 2.721-0.025 4.082-1.16 0-2.321 0-3.516 0-0.014-1.915-0.023-3.83-0.031-5.744-0.004-0.547-0.008-1.094-0.013-1.657-0.002-0.52-0.003-1.039-0.005-1.575-0.003-0.481-0.005-0.963-0.008-1.458 0.081-1.595 0.213-1.602 1.815-1.682z"></path>
<path d="M13.991 12.986c0 3.149 0 6.298 0 9.543-1.16 0-2.321 0-3.516 0 0-3.149 0-6.298 0-9.543 1.004-0.503 1.004-0.503 3.516 0z"></path>
<path d="M21.022 15.497c0.497 0 0.994 0 1.507 0-0.142 0.89-0.29 1.779-0.439 2.669-0.082 0.495-0.163 0.991-0.247 1.501-0.318 1.356-0.318 1.356-1.323 2.863-1.57 0.094-1.57 0.094-3.014 0-0.052-0.342-0.104-0.684-0.157-1.036-0.419-1.791-1.096-3.315-1.852-4.991 2.009 0.503 2.009 0.503 4.018 1.004 0.218-0.332 0.435-0.663 0.659-1.004 0.279-0.332 0.56-0.663 0.848-1.004z"></path>
<path d="M9.973 13.489c0.014 1.046 0.023 2.093 0.031 3.139 0.006 0.583 0.012 1.165 0.018 1.766-0.040 1.328-0.156 2.377-0.552 3.634-0.663 0-1.326 0-2.009 0-0.054-1.14-0.093-2.281-0.126-3.422-0.023-0.635-0.047-1.27-0.071-1.925 0.196-1.685 0.196-1.685 1.177-2.664 1.028-0.528 1.028-0.528 1.531-0.528z"></path>
<path d="M11.48 12.484c0.829 0.165 1.658 0.332 2.511 0.503 0 3.149 0 6.298 0 9.543-1.16 0-2.321 0-3.516 0 0-0.829 0-1.657 0-2.511 0.165 0.497 0.332 0.994 0.503 1.507 0.663 0 1.326 0 2.009 0 0-2.652 0-5.304 0-8.036-0.497 0-0.994 0-1.507 0 0-0.332 0-0.663 0-1.004z"></path>
<path d="M8.246 10.444c0.606 0.015 0.606 0.015 1.225 0.031 0.165 0.829 0.332 1.658 0.503 2.511-2.386 1.507-2.386 1.507-3.516 1.507-0.021-1.171-0.021-2.344 0-3.516 0.503-0.503 0.503-0.503 1.789-0.534z"></path>
<path d="M21.022 15.497c0.497 0 0.994 0 1.507 0-0.332 1.492-0.663 2.983-1.004 4.52-0.663 0-1.326 0-2.009 0-0.127-1.518-0.103-2.331 0.659-3.672 0.279-0.279 0.56-0.56 0.848-0.848z"></path>
<path d="M10.476 12.986c1.243 0.248 1.243 0.248 2.511 0.503 0 0.663 0 1.326 0 2.009-0.663 0-1.326 0-2.009 0 0 1.326 0 2.652 0 4.018-0.165 0-0.332 0-0.503 0 0-2.155 0-4.309 0-6.529z"></path>
<path d="M22.529 11.982c0.829 0 1.657 0 2.511 0-0.165 0.829-0.332 1.658-0.503 2.511-0.994 0-1.989 0-3.014 0 0.332-0.829 0.663-1.658 1.004-2.511z"></path>
<path d="M26.045 9.973c-0.165 0.829-0.332 1.658-0.503 2.511-1.492-0.248-1.492-0.248-3.014-0.503 0-0.497 0-0.994 0-1.507 1.237-0.619 2.149-0.538 3.516-0.503z"></path>
<path d="M22.027 10.978c0.503 1.507 0.503 1.507 0 3.014 0.829 0.165 1.657 0.332 2.511 0.503-0.165 0.332-0.332 0.663-0.503 1.004-1.16-0.165-2.321-0.332-3.516-0.503 0.275-1.695 0.53-2.553 1.507-4.018z"></path>
<path d="M6.959 10.476c0.829 0 1.657 0 2.511 0-0.165 0.663-0.332 1.326-0.503 2.009-0.663 0.165-1.326 0.332-2.009 0.503 0-0.829 0-1.658 0-2.511z"></path>
</svg>
