<!-- Generated by IcoMoon.io -->
<svg version="1.1" xmlns="http://www.w3.org/2000/svg" width="41" height="32" viewBox="0 0 41 32">
<path d="M14.835 19.47c-1.428 0-2.753-0.428-3.637-1.222-0.668-0.6-0.989-1.415-0.989-2.253 0-0.828 0.335-1.649 0.989-2.246 0.822-0.749 2.272-1.218 3.638-1.218 1.511 0 2.721 0.38 3.646 1.22 0.658 0.597 0.976 1.414 0.976 2.244 0 0.804-0.338 1.661-0.976 2.253-0.861 0.799-2.214 1.222-3.646 1.222v-0.915c0.758 0 1.461-0.262 1.952-0.75 0.488-0.485 0.715-1.081 0.715-1.81 0-0.698-0.245-1.351-0.715-1.814-0.484-0.477-1.204-0.746-1.952-0.746-0.75 0-1.47 0.266-1.955 0.746-0.467 0.463-0.713 1.117-0.713 1.814 0 0.694 0.249 1.348 0.713 1.81 0.485 0.483 1.203 0.75 1.955 0.75v0.915zM4.4 12.534c-0.764 0-1.631 0.143-2.369 0.472-0.68 0.304-1.237 0.795-1.237 1.609-0 0.733 0.466 1.162 0.453 1.151 0.198 0.182 0.517 0.493 1.351 0.675 0.373 0.081 1.17 0.207 1.963 0.289 0.788 0.083 1.563 0.162 1.879 0.242 0.251 0.064 0.672 0.151 0.672 0.624 0 0.471-0.444 0.615-0.521 0.646s-0.61 0.275-1.567 0.275c-0.707 0-1.557-0.213-1.866-0.323-0.357-0.127-0.732-0.295-1.081-0.722-0.087-0.106-0.224-0.397-0.224-0.685h-0.867v2.428h0.963v-0.328c0-0.038 0.047-0.191 0.208-0.118 0.201 0.091 0.792 0.326 1.409 0.456 0.506 0.106 0.833 0.182 1.462 0.182 1.027 0 1.579-0.167 1.96-0.276 0.359-0.103 0.803-0.288 1.164-0.575 0.195-0.156 0.624-0.554 0.624-1.278 0-0.694-0.373-1.126-0.504-1.257-0.178-0.179-0.397-0.317-0.624-0.424-0.198-0.093-0.511-0.205-0.767-0.268-0.496-0.122-1.619-0.272-2.156-0.328-0.563-0.059-1.539-0.14-1.929-0.26-0.118-0.037-0.359-0.152-0.359-0.431 0-0.199 0.11-0.368 0.328-0.504 0.346-0.217 1.045-0.352 1.773-0.352 0.861-0.003 1.59 0.194 2.054 0.401 0.158 0.071 0.342 0.171 0.489 0.291 0.166 0.135 0.398 0.415 0.482 0.806h0.778v-2.114h-0.869v0.246c0 0.079-0.082 0.182-0.237 0.097-0.389-0.204-1.488-0.644-2.835-0.646zM23.436 12.918l4.237 3.824-0.044-2.575c-0.004-0.338-0.067-0.479-0.432-0.479h-0.797v-0.77h3.623v0.77h-0.777c-0.372 0-0.396 0.119-0.401 0.479l0.066 4.92h-1.241l-4.881-4.356 0.001 3.092c0.004 0.336 0.020 0.494 0.366 0.494h0.87v0.77h-3.558v-0.77h0.832c0.311 0 0.298-0.296 0.298-0.512v-3.608c0-0.233-0.033-0.507-0.521-0.507h-0.675v-0.771zM34.165 18.315c0.034 0 0.185-0.004 0.214-0.013 0.075-0.023 0.135-0.077 0.166-0.146l0.001-0.001c0.011-0.026 0.017-0.142 0.017-0.167l0.001-1.217c0-0.029-0.002-0.042-0.052-0.107-0.054-0.071-2.219-2.525-2.319-2.633-0.123-0.134-0.339-0.341-0.667-0.341h-0.753v-0.771h4.249v0.77h-0.512c-0.119 0-0.197 0.113-0.096 0.238 0 0 1.43 1.71 1.443 1.728s0.025 0.023 0.043 0.006c0.018-0.017 1.465-1.718 1.477-1.731 0.069-0.083 0.022-0.239-0.127-0.239h-0.526v-0.771h3.482v0.771h-0.778c-0.282 0-0.397 0.052-0.61 0.292-0.097 0.11-2.285 2.607-2.345 2.675-0.031 0.035-0.029 0.085-0.029 0.114v1.217c0 0.025 0.005 0.14 0.017 0.166 0.032 0.071 0.092 0.125 0.165 0.148l0.002 0.001c0.029 0.009 0.178 0.014 0.212 0.014h0.796v0.771h-4.227v-0.771l0.754 0.001z"></path>
</svg>
