<!-- Generated by IcoMoon.io -->
<svg version="1.1" xmlns="http://www.w3.org/2000/svg" width="39" height="32" viewBox="0 0 39 32">
<path d="M6.193 10.299c-3.149 0-5.701 2.552-5.701 5.701s2.552 5.701 5.701 5.701c3.149 0 5.701-2.552 5.701-5.701s-2.552-5.7-5.701-5.7l0-0zM8.807 18.522c-0.102 0.167-0.321 0.221-0.489 0.118-1.339-0.818-3.023-1.003-5.008-0.549-0.191 0.044-0.382-0.076-0.425-0.268s0.076-0.382 0.267-0.426c2.172-0.496 4.034-0.282 5.537 0.636 0.167 0.103 0.221 0.321 0.118 0.489zM9.505 16.969c-0.129 0.209-0.402 0.275-0.611 0.146-1.532-0.942-3.868-1.215-5.681-0.665-0.235 0.071-0.484-0.062-0.555-0.296s0.062-0.483 0.296-0.554c2.070-0.628 4.644-0.324 6.404 0.757 0.209 0.129 0.275 0.402 0.146 0.611v-0zM9.565 15.353c-1.837-1.091-4.869-1.192-6.623-0.659-0.282 0.085-0.58-0.074-0.665-0.355s0.074-0.58 0.355-0.665c2.014-0.611 5.361-0.493 7.477 0.763 0.254 0.15 0.337 0.478 0.186 0.731s-0.478 0.337-0.731 0.186zM16.003 15.562c-0.984-0.235-1.159-0.399-1.159-0.746 0-0.327 0.308-0.547 0.766-0.547 0.444 0 0.884 0.167 1.345 0.511 0.014 0.010 0.031 0.015 0.048 0.012s0.032-0.012 0.043-0.026l0.481-0.677c0.020-0.028 0.014-0.067-0.012-0.088-0.549-0.441-1.168-0.655-1.89-0.655-1.063 0-1.805 0.638-1.805 1.55 0 0.979 0.641 1.325 1.748 1.592 0.942 0.217 1.101 0.399 1.101 0.724 0 0.36-0.321 0.584-0.839 0.584-0.575 0-1.044-0.194-1.568-0.647-0.013-0.012-0.031-0.016-0.047-0.016-0.018 0.001-0.033 0.010-0.044 0.022l-0.539 0.641c-0.022 0.027-0.020 0.067 0.006 0.090 0.61 0.545 1.36 0.832 2.17 0.832 1.145 0 1.885-0.626 1.885-1.594 0.002-0.817-0.487-1.27-1.686-1.562l-0.002-0.001zM20.282 14.591c-0.496 0-0.903 0.196-1.24 0.596v-0.451c0-0.036-0.029-0.065-0.064-0.065h-0.882c-0.035 0-0.064 0.029-0.064 0.065v5.011c0 0.035 0.029 0.065 0.064 0.065h0.882c0.035 0 0.064-0.029 0.064-0.065v-1.582c0.336 0.377 0.744 0.561 1.24 0.561 0.922 0 1.857-0.71 1.857-2.068 0.001-1.358-0.932-2.068-1.856-2.068l-0.001 0zM21.113 16.659c0 0.691-0.426 1.173-1.035 1.173-0.603 0-1.057-0.504-1.057-1.173s0.455-1.173 1.057-1.173c0.6-0 1.035 0.493 1.035 1.173v0zM24.531 14.591c-1.188 0-2.118 0.915-2.118 2.083 0 1.155 0.925 2.060 2.104 2.060 1.192 0 2.125-0.912 2.125-2.075 0-1.159-0.927-2.068-2.111-2.068v-0zM24.531 17.839c-0.632 0-1.108-0.508-1.108-1.181 0-0.676 0.46-1.166 1.094-1.166 0.636 0 1.115 0.508 1.115 1.181 0 0.676-0.463 1.166-1.101 1.166zM29.178 14.672h-0.97v-0.992c0-0.035-0.029-0.065-0.064-0.065h-0.882c-0.035 0-0.065 0.029-0.065 0.065v0.992h-0.424c-0.035 0-0.064 0.029-0.064 0.065v0.757c0 0.035 0.029 0.065 0.064 0.065h0.424v1.96c0 0.792 0.394 1.193 1.172 1.193 0.316 0 0.578-0.065 0.825-0.206 0.020-0.011 0.032-0.032 0.032-0.056v-0.721c0-0.022-0.012-0.043-0.031-0.054-0.019-0.012-0.043-0.013-0.063-0.003-0.169 0.085-0.334 0.124-0.517 0.124-0.282 0-0.409-0.129-0.409-0.416v-1.822h0.97c0.035 0 0.064-0.029 0.064-0.065v-0.757c0.001-0.036-0.027-0.065-0.063-0.065l-0.001-0zM32.558 14.676v-0.122c0-0.358 0.137-0.518 0.445-0.518 0.184 0 0.332 0.037 0.497 0.092 0.020 0.006 0.042 0.003 0.058-0.009s0.027-0.032 0.027-0.052v-0.743c0-0.028-0.017-0.054-0.046-0.062-0.174-0.052-0.397-0.105-0.732-0.105-0.813 0-1.244 0.459-1.244 1.325v0.186h-0.424c-0.035 0-0.065 0.029-0.065 0.065v0.761c0 0.035 0.029 0.065 0.065 0.065h0.424v3.023c0 0.036 0.029 0.065 0.065 0.065h0.881c0.036 0 0.065-0.029 0.065-0.065v-3.022h0.823l1.261 3.022c-0.143 0.317-0.284 0.381-0.476 0.381-0.155 0-0.319-0.046-0.486-0.138-0.016-0.008-0.035-0.010-0.051-0.005-0.017 0.006-0.031 0.018-0.038 0.035l-0.299 0.656c-0.014 0.031-0.002 0.067 0.028 0.084 0.312 0.169 0.593 0.241 0.941 0.241 0.651 0 1.011-0.304 1.327-1.119l1.529-3.951c0.008-0.020 0.005-0.042-0.007-0.060s-0.031-0.028-0.052-0.028h-0.917c-0.028 0-0.052 0.018-0.061 0.043l-0.94 2.685-1.029-2.686c-0.010-0.025-0.033-0.042-0.060-0.042l-1.506-0zM30.599 14.672h-0.882c-0.035 0-0.065 0.029-0.065 0.065v3.845c0 0.036 0.029 0.065 0.065 0.065h0.882c0.035 0 0.065-0.029 0.065-0.065v-3.845c0-0.036-0.029-0.065-0.065-0.065v-0zM30.163 12.921c-0.349 0-0.632 0.283-0.632 0.632s0.283 0.632 0.632 0.632 0.632-0.283 0.632-0.632c0-0.349-0.283-0.632-0.632-0.632zM37.884 15.908c-0.349 0-0.62-0.28-0.62-0.62s0.275-0.623 0.624-0.623 0.62 0.28 0.62 0.62c0 0.34-0.275 0.624-0.624 0.624zM37.888 14.726c-0.318 0-0.558 0.253-0.558 0.562s0.239 0.558 0.555 0.558c0.318 0 0.558-0.253 0.558-0.562s-0.239-0.558-0.555-0.558zM38.025 15.348l0.176 0.246h-0.149l-0.158-0.226h-0.136v0.226h-0.124v-0.651h0.29c0.152 0 0.251 0.077 0.251 0.208 0.001 0.107-0.061 0.172-0.151 0.198h-0.001zM37.92 15.054h-0.161v0.206h0.161c0.080 0 0.129-0.040 0.129-0.103 0-0.067-0.048-0.103-0.129-0.103z"></path>
</svg>
