<!-- Generated by IcoMoon.io -->
<svg version="1.1" xmlns="http://www.w3.org/2000/svg" width="41" height="32" viewBox="0 0 41 32">
<path d="M32.971 16.001l-2.771-1.6v1.141h-14.162l2.758-2.913c0.235-0.188 0.542-0.32 0.857-0.327 1.278 0 2.037-0 2.316-0.001 0.189 0.539 0.698 0.929 1.302 0.929 0.765 0 1.385-0.62 1.385-1.386s-0.62-1.386-1.385-1.386c-0.605 0-1.113 0.389-1.302 0.928l-2.289-0c-0.62 0-1.27 0.341-1.684 0.739 0.011-0.012 0.023-0.025-0.001 0-0.009 0.010-2.926 3.091-2.926 3.091-0.234 0.188-0.541 0.319-0.857 0.327h-1.602c-0.212-1.058-1.147-1.856-2.268-1.856-1.278 0-2.314 1.036-2.314 2.314s1.036 2.314 2.314 2.314c1.121 0 2.056-0.798 2.268-1.857h1.574c0.004 0 0.008 0 0.012 0h3.481c0.315 0.008 0.622 0.139 0.855 0.327 0 0 2.916 3.081 2.925 3.090 0.023 0.025 0.012 0.012 0 0 0.414 0.399 1.064 0.739 1.685 0.739l2.206-0v0.929h2.772v-2.771h-2.772v0.928c0 0-0.581-0.001-2.233-0.001-0.316-0.007-0.623-0.139-0.858-0.327l-2.758-2.914h10.699v1.143l2.771-1.6z"></path>
</svg>
