<svg xmlns="http://www.w3.org/2000/svg" width="54" height="54" viewBox="0 0 54 54">
  <g id="bar" transform="translate(-456 -2546)">
    <rect id="Rectangle_3425" data-name="Rectangle 3425" width="54" height="54" transform="translate(456 2546)" fill="none"/>
    <g id="Group_4969" data-name="Group 4969" transform="translate(-1.461 -1.881)">
      <path id="Path_1486" data-name="Path 1486" d="M0,19.661V0" transform="translate(458.124 2564.881)" fill="#96db90"/>
      <path id="Path_1486_-_Outline" data-name="Path 1486 - Outline" d="M.576,19.661H-.75V0H.576Z" transform="translate(458.211 2564.881)" fill="#96db90"/>
      <path id="Line_719" data-name="Line 719" d="M.576,19.426H-.75V0H.576Z" transform="translate(510.885 2564.881)" fill="#96db90"/>
      <path id="Path_1485" data-name="Path 1485" d="M89.667,0" transform="translate(421.034 2565.504)" fill="#96db90"/>
      <path id="Path_1466" data-name="Path 1466" d="M1.074,0-.6,13.614" transform="translate(466.787 2571.016)" fill="#96db90"/>
      <path id="Path_1466_-_Outline" data-name="Path 1466 - Outline" d="M-.659,14a.446.446,0,0,1-.055,0A.442.442,0,0,1-1.1,13.5L.578-.112A.442.442,0,0,1,1.071-.5.442.442,0,0,1,1.455,0L-.221,13.61A.442.442,0,0,1-.659,14Z" transform="translate(466.845 2571.074)" fill="#96db90"/>
      <path id="Path_1465" data-name="Path 1465" d="M0,0S1.346,11.462,1.6,13.628" transform="translate(473.471 2571.016)" fill="#96db90"/>
      <path id="Path_1465_-_Outline" data-name="Path 1465 - Outline" d="M1.537,14.012A.442.442,0,0,1,1.1,13.62C.852,11.48-.484.108-.5-.006A.442.442,0,0,1-.11-.5.442.442,0,0,1,.381-.11c.013.115,1.349,11.487,1.6,13.629a.442.442,0,0,1-.389.49Z" transform="translate(473.529 2571.074)" fill="#96db90"/>
      <path id="Rectangle_2876" data-name="Rectangle 2876" d="M.354,0H8.17a.354.354,0,0,1,0,.707H.354A.354.354,0,0,1,.354,0Z" transform="translate(466.338 2579.68)" fill="#96db90"/>
      <path id="Path_1463" data-name="Path 1463" d="M6079.321,176.488a11.893,11.893,0,0,1-2.894-.329l.117-.426a12.552,12.552,0,0,0,5.555,0l.1.43A12.554,12.554,0,0,1,6079.321,176.488Z" transform="translate(-5608.63 2396.336)" fill="#96db90"/>
      <path id="Path_1464" data-name="Path 1464" d="M6048.328,166.405c-.509,0-1.021-.02-1.646-.044l-.4-.016a30.789,30.789,0,0,1-3.113-.312.575.575,0,0,1,.178-1.136c.016,0,1.59.247,2.979.3l.4.016a21.709,21.709,0,0,0,2.971-.014,28.912,28.912,0,0,0,3-.361.575.575,0,0,1,.2,1.132,30.206,30.206,0,0,1-3.106.375C6049.253,166.389,6048.792,166.405,6048.328,166.405Z" transform="translate(-5577.388 2405.198)" fill="#96db90"/>
      <path id="Path_1466-2" data-name="Path 1466" d="M1.074,0-.6,13.614" transform="translate(480.049 2571.016)" fill="#96db90"/>
      <path id="Path_1466_-_Outline-2" data-name="Path 1466 - Outline" d="M-.659,14a.446.446,0,0,1-.055,0A.442.442,0,0,1-1.1,13.5L.578-.112A.442.442,0,0,1,1.071-.5.442.442,0,0,1,1.455,0L-.221,13.61A.442.442,0,0,1-.659,14Z" transform="translate(480.106 2571.074)" fill="#96db90"/>
      <path id="Path_1465-2" data-name="Path 1465" d="M0,0S1.346,11.462,1.6,13.628" transform="translate(486.733 2571.016)" fill="#96db90"/>
      <path id="Path_1465_-_Outline-2" data-name="Path 1465 - Outline" d="M1.537,14.012A.442.442,0,0,1,1.1,13.62C.852,11.48-.484.108-.5-.006A.442.442,0,0,1-.11-.5.442.442,0,0,1,.381-.11c.013.115,1.349,11.487,1.6,13.629a.442.442,0,0,1-.389.49Z" transform="translate(486.791 2571.074)" fill="#96db90"/>
      <path id="Rectangle_2876-2" data-name="Rectangle 2876" d="M.354,0H8.17a.354.354,0,0,1,0,.707H.354A.354.354,0,0,1,.354,0Z" transform="translate(479.599 2579.68)" fill="#96db90"/>
      <path id="Path_1463-2" data-name="Path 1463" d="M6079.321,176.488a11.893,11.893,0,0,1-2.894-.329l.117-.426a12.552,12.552,0,0,0,5.555,0l.1.43A12.554,12.554,0,0,1,6079.321,176.488Z" transform="translate(-5595.368 2396.336)" fill="#96db90"/>
      <path id="Path_1464-2" data-name="Path 1464" d="M6048.328,166.405c-.509,0-1.021-.02-1.646-.044l-.4-.016a30.789,30.789,0,0,1-3.113-.312.575.575,0,0,1,.178-1.136c.016,0,1.59.247,2.979.3l.4.016a21.709,21.709,0,0,0,2.971-.014,28.912,28.912,0,0,0,3-.361.575.575,0,0,1,.2,1.132,30.206,30.206,0,0,1-3.106.375C6049.253,166.389,6048.792,166.405,6048.328,166.405Z" transform="translate(-5564.126 2405.198)" fill="#96db90"/>
      <path id="Path_1466-3" data-name="Path 1466" d="M1.074,0-.6,13.614" transform="translate(493.31 2571.016)" fill="#96db90"/>
      <path id="Path_1466_-_Outline-3" data-name="Path 1466 - Outline" d="M-.659,14a.446.446,0,0,1-.055,0A.442.442,0,0,1-1.1,13.5L.578-.112A.442.442,0,0,1,1.071-.5.442.442,0,0,1,1.455,0L-.221,13.61A.442.442,0,0,1-.659,14Z" transform="translate(493.368 2571.074)" fill="#96db90"/>
      <path id="Path_1465-3" data-name="Path 1465" d="M0,0S1.346,11.462,1.6,13.628" transform="translate(499.995 2571.016)" fill="#96db90"/>
      <path id="Path_1465_-_Outline-3" data-name="Path 1465 - Outline" d="M1.537,14.012A.442.442,0,0,1,1.1,13.62C.852,11.48-.484.108-.5-.006A.442.442,0,0,1-.11-.5.442.442,0,0,1,.381-.11c.013.115,1.349,11.487,1.6,13.629a.442.442,0,0,1-.389.49Z" transform="translate(500.053 2571.074)" fill="#96db90"/>
      <path id="Rectangle_2876-3" data-name="Rectangle 2876" d="M.354,0H8.17a.354.354,0,0,1,0,.707H.354A.354.354,0,0,1,.354,0Z" transform="translate(492.861 2579.68)" fill="#96db90"/>
      <path id="Path_1463-3" data-name="Path 1463" d="M6079.321,176.488a11.893,11.893,0,0,1-2.894-.329l.117-.426a12.552,12.552,0,0,0,5.555,0l.1.43A12.554,12.554,0,0,1,6079.321,176.488Z" transform="translate(-5582.106 2396.336)" fill="#96db90"/>
      <path id="Path_1464-3" data-name="Path 1464" d="M6048.328,166.405c-.509,0-1.021-.02-1.646-.044l-.4-.016a30.789,30.789,0,0,1-3.113-.312.575.575,0,0,1,.178-1.136c.016,0,1.59.247,2.979.3l.4.016a21.709,21.709,0,0,0,2.971-.014,28.912,28.912,0,0,0,3-.361.575.575,0,0,1,.2,1.132,30.206,30.206,0,0,1-3.106.375C6049.253,166.389,6048.792,166.405,6048.328,166.405Z" transform="translate(-5550.865 2405.198)" fill="#96db90"/>
      <rect id="Rectangle_2887" data-name="Rectangle 2887" width="52.48" height="1.768" transform="translate(458.317 2564.881)" fill="#96db90"/>
    </g>
  </g>
</svg>