<svg xmlns="http://www.w3.org/2000/svg" width="54" height="54" viewBox="0 0 54 54">
  <g id="bedroom" transform="translate(-450 -741)">
    <rect id="Rectangle_3417" data-name="Rectangle 3417" width="54" height="54" transform="translate(450 741)" fill="none"/>
    <g id="Group_4961" data-name="Group 4961" transform="translate(-1.117 -0.377)">
      <path id="Path_1422" data-name="Path 1422" d="M1929.5,547.319l-45.794,0a.527.527,0,0,1-.519-.431,19.676,19.676,0,0,1-.327-4.627,3.451,3.451,0,0,1,3.053-2.79c.714-.119,35.5-.179,43.63-.179,1.854,0,4.129,0,4.437.011,1.469.042,2.527,1.158,2.761,2.912a27.218,27.218,0,0,1-.149,4.309.528.528,0,0,1-.5.472C1935.028,547.048,1929.7,547.319,1929.5,547.319Zm-45.348-1.057,45.346,0c.2,0,3.592-.174,6.087-.3a22.626,22.626,0,0,0,.11-3.611c-.061-.459-.368-1.958-1.745-2-.134,0-.884-.01-4.407-.01-12.083,0-42.364.072-43.468.166-.252.044-1.987.4-2.167,1.875A16.882,16.882,0,0,0,1884.151,546.262Z" transform="translate(-1431.683 230.356)" fill="#90dbb1"/>
      <path id="Path_1423" data-name="Path 1423" d="M1884.486,526.346a.528.528,0,0,1-.492-.716,11.518,11.518,0,0,1,3.7-4.365c2.737-2.133,4.176-3.262,4.19-3.273a.528.528,0,0,1,.651.83c-.014.011-1.455,1.141-4.193,3.275a10.767,10.767,0,0,0-3.367,3.914A.529.529,0,0,1,1884.486,526.346Z" transform="translate(-1432.659 246.372)" fill="#90dbb1"/>
      <path id="Path_1424" data-name="Path 1424" d="M1915.833,490.21a.528.528,0,0,1-.527-.52c0-.056-.081-5.578-.081-7.133,0-1.948,1.131-2.043,1.806-2.1l.142-.012c.793-.076,15.914-.017,16.731.021l.2.009a3.766,3.766,0,0,1,1.045.134,1.04,1.04,0,0,1,.736.935,15.379,15.379,0,0,1,0,1.759.528.528,0,0,1-1.054-.056,14.671,14.671,0,0,0,0-1.6.256.256,0,0,0,0-.032,3.007,3.007,0,0,0-.771-.086l-.207-.009c-.746-.036-15.864-.093-16.581-.025l-.154.014a.747.747,0,0,0-.839,1.048c0,1.547.08,7.062.081,7.118a.528.528,0,0,1-.52.535Z" transform="translate(-1456.327 274.989)" fill="#90dbb1"/>
      <path id="Path_1425" data-name="Path 1425" d="M2016.17,490.451a.528.528,0,0,1-.528-.528c0-.289,0-.615-.008-.96-.009-.8-.021-1.785.008-2.916.019-.757,0-1.277-.013-1.734a10.626,10.626,0,0,1,.015-1.4c.083-.912.048-1.457-.1-1.623-.008-.009-.014-.015-.056-.015l-1.586-.005c-3.891-.015-15.578-.059-16.606,0a1.661,1.661,0,0,0-.073.647.528.528,0,0,1-1.055,0c0-.419,0-1.533.924-1.687.232-.039,2.43-.067,16.813-.013l1.582.005a1.1,1.1,0,0,1,.835.359,3.32,3.32,0,0,1,.374,2.429,9.669,9.669,0,0,0-.011,1.268c.015.449.033,1.008.013,1.8-.028,1.112-.017,2.091-.008,2.878,0,.348.008.676.008.972A.528.528,0,0,1,2016.17,490.451Z" transform="translate(-1517.672 275.191)" fill="#90dbb1"/>
      <path id="Path_1427" data-name="Path 1427" d="M2079.128,526.521a.528.528,0,0,1-.524-.47,5.967,5.967,0,0,0-.839-2.41,10.728,10.728,0,0,0-2.076-2l-.23-.183a29.318,29.318,0,0,1-2.854-2.792.528.528,0,0,1,.862-.609,30.465,30.465,0,0,0,2.652,2.578l.224.178a11.6,11.6,0,0,1,2.272,2.205,6.954,6.954,0,0,1,1.037,2.918.528.528,0,0,1-.467.582A.537.537,0,0,1,2079.128,526.521Z" transform="translate(-1574.578 246.8)" fill="#90dbb1"/>
      <path id="Path_1433" data-name="Path 1433" d="M2075.208,581.12a.791.791,0,0,1-.791-.791V576.88a.791.791,0,1,1,1.583,0v3.448A.791.791,0,0,1,2075.208,581.12Z" transform="translate(-1577.233 200.704)" fill="#90dbb1"/>
      <path id="Path_1437" data-name="Path 1437" d="M.041,4.853A.791.791,0,0,1-.75,4.061V.649a.791.791,0,1,1,1.583,0V4.061A.791.791,0,0,1,.041,4.853Z" transform="translate(458.419 776.935)" fill="#90dbb1"/>
      <path id="Rectangle_2888" data-name="Rectangle 2888" d="M2.224,1.055a1.169,1.169,0,0,0,0,2.337H13.343a1.169,1.169,0,0,0,0-2.337H2.224M2.224,0H13.343a2.224,2.224,0,0,1,0,4.448H2.224A2.224,2.224,0,0,1,2.224,0Z" transform="translate(462.382 760.91)" fill="#90dbb1"/>
      <path id="Rectangle_2892" data-name="Rectangle 2892" d="M2.224,1.055a1.169,1.169,0,0,0,0,2.337H13.343a1.169,1.169,0,0,0,0-2.337H2.224M2.224,0H13.343a2.224,2.224,0,0,1,0,4.448H2.224A2.224,2.224,0,0,1,2.224,0Z" transform="translate(480.173 760.91)" fill="#90dbb1"/>
      <path id="Line_748" data-name="Line 748" d="M51.945,1.11H.055A1.055,1.055,0,1,1,.055-1h51.89a1.055,1.055,0,1,1,0,2.11Z" transform="translate(452.117 776.051)" fill="#90dbb1"/>
      <path id="Path_1490" data-name="Path 1490" d="M5866.332,785.97h-.037c-.691-.048-1.122-.085-1.467-.114-.815-.07-1.12-.1-3.277-.128a.528.528,0,0,1,.008-1.055h.008c2.194.033,2.509.06,3.351.132.342.029.767.065,1.45.113a.528.528,0,0,1-.036,1.054Z" transform="translate(-5401.907 -20.456)" fill="#90dbb1"/>
      <path id="Path_1491" data-name="Path 1491" d="M5859.208,786.092c-1.638,0-3.948-.012-6.5-.026-4.953-.027-10.566-.057-14.336-.018h-.006a.528.528,0,0,1-.005-1.055c3.78-.039,9.4-.009,14.354.018,3.723.02,6.937.037,8.276.017H5861a.528.528,0,0,1,.008,1.055C5860.584,786.09,5859.968,786.092,5859.208,786.092Z" transform="translate(-5362.55 -20.535)" fill="#90dbb1"/>
    </g>
  </g>
</svg>