<svg xmlns="http://www.w3.org/2000/svg" width="54" height="54" viewBox="0 0 54 54">
  <g id="drawing_room" transform="translate(-439 -2319)">
    <rect id="Rectangle_3424" data-name="Rectangle 3424" width="54" height="54" transform="translate(439 2319)" fill="none"/>
    <g id="Group_4968" data-name="Group 4968" transform="translate(-8.199 0.374)">
      <path id="Path_1546" data-name="Path 1546" d="M8824.52-736.548c-.009-.247-.2-6.054-.18-7.065a1.251,1.251,0,0,1,.319-.921c.426-.41,1.185-.393,3.009-.352l.64.014c2.835.057,5.815.041,7.512,0h.071a1.448,1.448,0,0,1,1.076.367c.451.45.437,1.169.415,2.164-.008.385-.017.821,0,1.294l-.816.03c-.018-.5-.009-.945,0-1.341.015-.732.027-1.364-.177-1.568a.717.717,0,0,0-.5-.129h-.053c-1.7.041-4.7.057-7.547,0l-.643-.014a6.708,6.708,0,0,0-2.424.124.589.589,0,0,0-.069.346c-.016.99.178,6.964.18,7.025Z" transform="translate(-8365.917 3084.828)" fill="#b7a994"/>
      <path id="Path_1547" data-name="Path 1547" d="M8836.565-741.285c-.029-.392-.022-.773-.016-1.142.011-.653.022-1.269-.205-1.495-.034-.034-.135-.134-.465-.134h-.043c-1.7.041-4.7.057-7.547,0l-.642-.014a6.712,6.712,0,0,0-2.425.124.591.591,0,0,0-.068.346c-.017.99,0,1.621,0,1.627l-.817.021c0-.026-.016-.652,0-1.661a1.255,1.255,0,0,1,.319-.921c.426-.41,1.185-.393,3.009-.352l.641.014c2.836.057,5.816.041,7.512,0h.059a1.422,1.422,0,0,1,1.044.372,2.831,2.831,0,0,1,.445,2.089c-.006.35-.013.711.015,1.065Z" transform="translate(-8353.688 3084.828)" fill="#b7a994"/>
      <path id="Path_1548" data-name="Path 1548" d="M8837.294-736.413l-.787-.219a.262.262,0,0,0-.009.044c0-.041.053-.5.066-3.841,0-.705.02-1.3.033-1.773a4.866,4.866,0,0,0-.092-1.779c-.086-.087-.521-.077-.669-.073-1.7.041-4.7.057-7.547,0l-.642-.014a6.712,6.712,0,0,0-2.425.124.591.591,0,0,0-.068.346c-.017.99,0,1.621,0,1.627l-.817.021c0-.026-.016-.652,0-1.661a1.255,1.255,0,0,1,.319-.921c.426-.41,1.185-.393,3.009-.352l.641.014c2.836.057,5.816.041,7.512,0l.193,0a1.444,1.444,0,0,1,1.073.316c.383.385.366,1.009.328,2.378-.013.472-.028,1.059-.031,1.755C8837.371-737.933,8837.342-736.583,8837.294-736.413Z" transform="translate(-8341.461 3084.828)" fill="#b7a994"/>
      <path id="Path_1545" data-name="Path 1545" d="M8808.9-729.373a.988.988,0,0,1-.777-.3.8.8,0,0,1-.2-.588v-5.948c0-1.154,1.809-1.6,2.779-1.847l.191-.049a7.725,7.725,0,0,1,2.117-.011l-.094.811a6.949,6.949,0,0,0-1.814-.011l-.2.052a9.028,9.028,0,0,0-1.451.46c-.443.2-.708.421-.708.594v6a.477.477,0,0,0,.182.021c.671-.018,2.16,0,2.223,0l-.01.817c-.016,0-1.537-.017-2.191,0Z" transform="translate(-8354.146 3080.008)" fill="#b7a994"/>
      <path id="Path_1550" data-name="Path 1550" d="M8810.791-729.516h-.046c-.655-.017-2.176,0-2.191,0l-.01-.817c.063,0,1.553-.018,2.222,0a.492.492,0,0,0,.182-.021v-6c0-.173-.266-.4-.709-.595a9.045,9.045,0,0,0-1.451-.46l-.2-.051a15.683,15.683,0,0,0-2.522-.11l-.015-.817a16.481,16.481,0,0,1,2.746.137l.19.048c.972.242,2.78.693,2.78,1.847v5.948a.806.806,0,0,1-.2.588A.988.988,0,0,1,8810.791-729.516Z" transform="translate(-8310.566 3080.151)" fill="#b7a994"/>
      <path id="Path_1549" data-name="Path 1549" d="M8858.759-715.5h-40.924a.736.736,0,0,1-.735-.735v-3.425a.736.736,0,0,1,.735-.735.736.736,0,0,1,.736.735v2.69h39.451v-2.654a.736.736,0,0,1,.736-.735.736.736,0,0,1,.735.735v3.39A.736.736,0,0,1,8858.759-715.5Z" transform="translate(-8360.94 3067.031)" fill="#b7a994"/>
      <path id="Rectangle_3071" data-name="Rectangle 3071" d="M1.412.817a.6.6,0,1,0,0,1.191H9.039a.6.6,0,1,0,0-1.191H1.412m0-.817H9.039a1.412,1.412,0,1,1,0,2.825H1.412A1.412,1.412,0,1,1,1.412,0Z" transform="translate(458.589 2346.66)" fill="#b7a994"/>
      <path id="Rectangle_3072" data-name="Rectangle 3072" d="M1.412.817a.6.6,0,1,0,0,1.191H9.039a.6.6,0,1,0,0-1.191H1.412m0-.817H9.039a1.412,1.412,0,1,1,0,2.825H1.412A1.412,1.412,0,1,1,1.412,0Z" transform="translate(471.865 2346.66)" fill="#b7a994"/>
      <path id="Rectangle_3073" data-name="Rectangle 3073" d="M1.412.817a.6.6,0,1,0,0,1.191H9.039a.6.6,0,1,0,0-1.191H1.412m0-.817H9.039a1.412,1.412,0,1,1,0,2.825H1.412A1.412,1.412,0,1,1,1.412,0Z" transform="translate(485.424 2346.66)" fill="#b7a994"/>
      <path id="Line_825" data-name="Line 825" d="M-.165,2.548A.735.735,0,0,1-.9,1.813V-.165A.735.735,0,0,1-.165-.9.735.735,0,0,1,.57-.165V1.813A.735.735,0,0,1-.165,2.548Z" transform="translate(460.872 2351.396)" fill="#b7a994"/>
      <path id="Line_826" data-name="Line 826" d="M-.165,2.548A.735.735,0,0,1-.9,1.813V-.165A.735.735,0,0,1-.165-.9.735.735,0,0,1,.57-.165V1.813A.735.735,0,0,1-.165,2.548Z" transform="translate(493.356 2351.396)" fill="#b7a994"/>
      <path id="Line_815" data-name="Line 815" d="M-.091,8.114A.409.409,0,0,1-.2,8.1a.408.408,0,0,1-.287-.5L1.641-.2a.408.408,0,0,1,.5-.287.408.408,0,0,1,.287.5L.3,7.813A.409.409,0,0,1-.091,8.114Z" transform="translate(466.883 2352.306)" fill="#b7a994"/>
      <path id="Line_816" data-name="Line 816" d="M2.035,8.114a.409.409,0,0,1-.394-.3L-.486.016A.408.408,0,0,1-.2-.486.408.408,0,0,1,.3-.2L2.429,7.6a.409.409,0,0,1-.394.516Z" transform="translate(486.022 2352.306)" fill="#b7a994"/>
      <rect id="Rectangle_3026" data-name="Rectangle 3026" width="21.266" height="0.951" rx="0.475" transform="translate(466.437 2351.74)" fill="#b7a994"/>
      <path id="Line_828" data-name="Line 828" d="M.317,19.645H-.5V0H.317Z" transform="translate(450.651 2338.605)" fill="#b7a994"/>
      <path id="Path_1551" data-name="Path 1551" d="M1.582.817l-.663,5.6H5.785L5.022.817H1.582M.856,0H5.735l.985,7.238H0Z" transform="translate(447.199 2331.626)" fill="#b7a994"/>
      <path id="Line_829" data-name="Line 829" d="M3.01.317h-3.1A.408.408,0,0,1-.5-.092.408.408,0,0,1-.092-.5h3.1a.408.408,0,0,1,.408.408A.408.408,0,0,1,3.01.317Z" transform="translate(449.1 2358.341)" fill="#b7a994"/>
    </g>
  </g>
</svg>