<svg xmlns="http://www.w3.org/2000/svg" width="54" height="54" viewBox="0 0 54 54">
  <g id="garden" transform="translate(-468 -2777)">
    <rect id="Rectangle_3426" data-name="Rectangle 3426" width="54" height="54" transform="translate(468 2777)" fill="none"/>
    <g id="Group_4970" data-name="Group 4970" transform="translate(0.157 0.426)">
      <path id="Rectangle_3410" data-name="Rectangle 3410" d="M1.58,1.58v9.48H8.954V1.58H1.58M0,0H10.534V12.64H0Z" transform="translate(489.916 2804.127)" fill="#8fdfd8"/>
      <path id="Rectangle_3412" data-name="Rectangle 3412" d="M5.267,1.58A3.693,3.693,0,0,0,1.618,4.74h7.3A3.693,3.693,0,0,0,5.267,1.58m0-1.58a5.267,5.267,0,0,1,5.267,5.267V6.32H0V5.267A5.267,5.267,0,0,1,5.267,0Z" transform="translate(489.916 2789.38)" fill="#8fdfd8"/>
      <path id="Rectangle_3411" data-name="Rectangle 3411" d="M1.58,1.58V6.847h15.8V1.58H1.58M0,0H18.961V8.427H0Z" transform="translate(485.702 2796.754)" fill="#8fdfd8"/>
      <path id="Path_1928" data-name="Path 1928" d="M9724.931-277.257a.527.527,0,0,1-.521-.456.527.527,0,0,1,.451-.593,21.072,21.072,0,0,0,3.552-.861c2.716-.946,3.3-1.99,3.313-2.7a.822.822,0,0,0-.234-.643c-.8-.78-3.587-.666-6.547-.545a65.478,65.478,0,0,1-7.391.01,6,6,0,0,1-2.7-.713,1.913,1.913,0,0,1-1-1.707c.05-1.413,1.7-2.977,4.4-4.185a27.754,27.754,0,0,1,11.007-2.071c4.96,0,8.259-.028,10.909-.05,4.315-.035,7.167-.058,13.233.05a10.445,10.445,0,0,1,5.271,1.283,3.7,3.7,0,0,1,1.963,3.076c.021,2.723-3.559,5.771-11.463,6.03h-.018a.526.526,0,0,1-.526-.509.527.527,0,0,1,.509-.544,17.226,17.226,0,0,0,8.032-1.847c1.541-.882,2.42-2.021,2.412-3.123a2.693,2.693,0,0,0-1.466-2.189,9.421,9.421,0,0,0-4.732-1.125c-6.054-.108-8.9-.085-13.206-.05-2.652.022-5.954.048-10.918.05a26.684,26.684,0,0,0-10.577,1.979c-2.57,1.148-3.751,2.465-3.778,3.261-.025.71.994,1.208,2.725,1.332a64.666,64.666,0,0,0,7.275-.012c3.6-.147,6.2-.253,7.325.844a1.851,1.851,0,0,1,.551,1.415c-.026,1.522-1.384,2.761-4.034,3.681a21.762,21.762,0,0,1-3.742.905A.532.532,0,0,1,9724.931-277.257Z" transform="translate(-9242.007 3107.831)" fill="#8fdfd8"/>
      <path id="Path_1929" data-name="Path 1929" d="M.527,8.265A.527.527,0,0,1,.233,7.3c.339-.227.684-.455,1.027-.678a.527.527,0,0,1,.574.883c-.338.22-.68.445-1.014.669A.524.524,0,0,1,.527,8.265Zm2.8-1.8a.527.527,0,0,1-.277-.975c.568-.35,1.161-.707,1.814-1.091a.527.527,0,0,1,.535.907c-.646.381-1.234.735-1.8,1.081A.524.524,0,0,1,3.329,6.466ZM6.954,4.32a.527.527,0,0,1-.264-.983l.3-.173c.524-.3,1.02-.588,1.522-.882a.527.527,0,0,1,.532.909c-.5.295-1,.581-1.527.885l-.3.172A.524.524,0,0,1,6.954,4.32Zm3.631-2.136a.527.527,0,0,1-.276-.976c.628-.385,1.2-.752,1.762-1.121a.527.527,0,0,1,.581.878c-.568.376-1.154.749-1.793,1.141A.524.524,0,0,1,10.586,2.185Z" transform="translate(480.938 2798.243) rotate(-109)" fill="#8fdfd8"/>
      <path id="Path_1930" data-name="Path 1930" d="M.527,8.265A.527.527,0,0,1,.233,7.3c.339-.227.684-.455,1.027-.678a.527.527,0,0,1,.574.883c-.338.22-.68.445-1.014.669A.524.524,0,0,1,.527,8.265Zm2.8-1.8a.527.527,0,0,1-.277-.975c.568-.35,1.161-.707,1.814-1.091a.527.527,0,0,1,.535.907c-.646.381-1.234.735-1.8,1.081A.524.524,0,0,1,3.329,6.466ZM6.954,4.32a.527.527,0,0,1-.264-.983l.3-.173c.524-.3,1.02-.588,1.522-.882a.527.527,0,0,1,.532.909c-.5.295-1,.581-1.527.885l-.3.172A.524.524,0,0,1,6.954,4.32Zm3.631-2.136a.527.527,0,0,1-.276-.976c.628-.385,1.2-.752,1.762-1.121a.527.527,0,0,1,.581.878c-.568.376-1.154.749-1.793,1.141A.524.524,0,0,1,10.586,2.185Z" transform="translate(499.812 2787.735) rotate(-14)" fill="#8fdfd8"/>
      <path id="Path_1931" data-name="Path 1931" d="M.527,8.968a.527.527,0,0,1-.233-1l.521-.258a.527.527,0,1,1,.467.944L.76,8.914A.525.525,0,0,1,.527,8.968Zm2.408-1.2a.527.527,0,0,1-.237-1c.589-.3,1.221-.615,1.879-.949a.527.527,0,0,1,.477.939c-.659.334-1.292.654-1.882.951A.525.525,0,0,1,2.935,7.769ZM6.693,5.864a.527.527,0,0,1-.24-1l1.874-.96a.527.527,0,0,1,.481.937l-1.876.961A.525.525,0,0,1,6.693,5.864ZM10.442,3.94a.527.527,0,0,1-.241-1l1.873-.964a.527.527,0,0,1,.482.937l-1.874.964A.524.524,0,0,1,10.442,3.94Zm3.747-1.928a.527.527,0,0,1-.241-1c.723-.371,1.337-.685,1.877-.959A.527.527,0,1,1,16.3,1c-.538.274-1.151.587-1.873.958A.524.524,0,0,1,14.189,2.012Z" transform="matrix(0.946, -0.326, 0.326, 0.946, 497.368, 2783.762)" fill="#8fdfd8"/>
      <path id="Path_1932" data-name="Path 1932" d="M.527,8.265A.527.527,0,0,1,.233,7.3c.339-.227.684-.455,1.027-.678a.527.527,0,0,1,.574.883c-.338.22-.68.445-1.014.669A.524.524,0,0,1,.527,8.265Zm2.8-1.8a.527.527,0,0,1-.277-.975c.568-.35,1.161-.707,1.814-1.091a.527.527,0,0,1,.535.907c-.646.381-1.234.735-1.8,1.081A.524.524,0,0,1,3.329,6.466ZM6.954,4.32a.527.527,0,0,1-.264-.983l.3-.173c.524-.3,1.02-.588,1.522-.882a.527.527,0,0,1,.532.909c-.5.295-1,.581-1.527.885l-.3.172A.524.524,0,0,1,6.954,4.32Zm3.631-2.136a.527.527,0,0,1-.276-.976c.628-.385,1.2-.752,1.762-1.121a.527.527,0,0,1,.581.878c-.568.376-1.154.749-1.793,1.141A.524.524,0,0,1,10.586,2.185Z" transform="translate(484.461 2790.804) rotate(-101)" fill="#8fdfd8"/>
      <path id="Path_1934" data-name="Path 1934" d="M.527,8.265a.527.527,0,0,1-.266-.981l1.054-.617a.527.527,0,1,1,.532.909L.793,8.193A.524.524,0,0,1,.527,8.265ZM3.4,6.582A.527.527,0,0,1,3.132,5.6c.681-.4,1.274-.75,1.812-1.07a.527.527,0,1,1,.538.906c-.539.32-1.133.671-1.816,1.072A.524.524,0,0,1,3.4,6.582ZM7.02,4.428a.527.527,0,0,1-.273-.977c.633-.383,1.219-.742,1.791-1.1a.527.527,0,1,1,.556.895c-.576.358-1.165.719-1.8,1.1A.524.524,0,0,1,7.02,4.428ZM10.6,2.2a.527.527,0,0,1-.285-.97C10.9.856,11.477.481,12.072.088a.527.527,0,1,1,.581.878c-.6.4-1.179.774-1.772,1.154A.524.524,0,0,1,10.6,2.2Z" transform="matrix(0.961, -0.276, 0.276, 0.961, 495.437, 2781.673)" fill="#8fdfd8"/>
      <path id="Path_1933" data-name="Path 1933" d="M.527,9.044a.527.527,0,0,1-.29-.967C.794,7.711,1.372,7.333,2,6.923a.527.527,0,0,1,.573.884c-.631.409-1.207.785-1.761,1.15A.524.524,0,0,1,.527,9.044ZM4.062,6.75a.527.527,0,0,1-.285-.97q.891-.572,1.775-1.137a.527.527,0,1,1,.567.888q-.881.563-1.773,1.135A.524.524,0,0,1,4.062,6.75Zm3.55-2.27a.527.527,0,0,1-.284-.971L9.1,2.375a.527.527,0,0,1,.568.887L7.895,4.4A.524.524,0,0,1,7.612,4.48ZM11.16,2.206a.527.527,0,0,1-.287-.969C11.539.806,12.114.43,12.631.088a.527.527,0,0,1,.581.878c-.52.344-1.1.722-1.767,1.155A.524.524,0,0,1,11.16,2.206Z" transform="matrix(-0.276, -0.961, 0.961, -0.276, 481.617, 2793.84)" fill="#8fdfd8"/>
    </g>
  </g>
</svg>