<svg xmlns="http://www.w3.org/2000/svg" width="54" height="54" viewBox="0 0 54 54">
  <g id="home_office" transform="translate(-442 -1636)">
    <rect id="Rectangle_3421" data-name="Rectangle 3421" width="54" height="54" transform="translate(442 1636)" fill="none"/>
    <g id="Group_4965" data-name="Group 4965" transform="translate(0)">
      <rect id="Rectangle_2980" data-name="Rectangle 2980" width="54" height="1.688" rx="0.844" transform="translate(442 1660.344)" fill="#7c9edf"/>
      <rect id="Rectangle_2983" data-name="Rectangle 2983" width="45.563" height="0.844" transform="translate(445.375 1663.719)" fill="#7c9edf"/>
      <rect id="Rectangle_2981" data-name="Rectangle 2981" width="1.688" height="19.406" rx="0.844" transform="translate(490.938 1660.344)" fill="#7c9edf"/>
      <rect id="Rectangle_2982" data-name="Rectangle 2982" width="1.688" height="19.406" rx="0.844" transform="translate(444.532 1660.344)" fill="#7c9edf"/>
      <rect id="Rectangle_2986" data-name="Rectangle 2986" width="1.688" height="2.531" transform="translate(468.157 1657.813)" fill="#7c9edf"/>
      <rect id="Rectangle_2987" data-name="Rectangle 2987" width="8.817" height="0.63" rx="0.315" transform="translate(448.218 1659.854)" fill="#7c9edf"/>
      <rect id="Rectangle_2988" data-name="Rectangle 2988" width="8.187" height="0.63" rx="0.315" transform="translate(484.115 1659.854)" fill="#7c9edf"/>
      <path id="Rectangle_3074" data-name="Rectangle 3074" d="M.9,0h.6a.9.9,0,0,1,.9.9v0a0,0,0,0,1,0,0H0a0,0,0,0,1,0,0v0A.9.9,0,0,1,.9,0Z" transform="translate(476.772 1659.714)" fill="#7c9edf"/>
      <rect id="Rectangle_2989" data-name="Rectangle 2989" width="5.063" height="0.844" rx="0.422" transform="translate(466.469 1659.5)" fill="#7c9edf"/>
      <path id="Rectangle_3393" data-name="Rectangle 3393" d="M1.013,1.012V10.8H19.237V1.012H1.013M0,0H20.25V11.813H0Z" transform="translate(458.875 1646)" fill="#7c9edf"/>
    </g>
  </g>
</svg>