<svg xmlns="http://www.w3.org/2000/svg" width="54" height="54" viewBox="0 0 54 54">
  <g id="kids_room" transform="translate(-453 -1187)">
    <rect id="Rectangle_3419" data-name="Rectangle 3419" width="54" height="54" transform="translate(453 1187)" fill="none"/>
    <g id="Group_4963" data-name="Group 4963" transform="translate(-0.198 3.885)">
      <path id="Rectangle_2996" data-name="Rectangle 2996" d="M5.948,1.19A4.764,4.764,0,0,0,1.19,5.948V9.517H41.936V5.948A4.764,4.764,0,0,0,37.177,1.19H5.948m0-1.19H37.177a5.948,5.948,0,0,1,5.948,5.948v4.759H0V5.948A5.948,5.948,0,0,1,5.948,0Z" transform="translate(453.198 1213.52)" fill="#62ded1"/>
      <path id="Rectangle_3001" data-name="Rectangle 3001" d="M3.569.595A2.978,2.978,0,0,0,.595,3.569v1.19H14.871V3.569A2.978,2.978,0,0,0,11.9.595H3.569m0-.595H11.9a3.569,3.569,0,0,1,3.569,3.569V5.354H0V3.569A3.569,3.569,0,0,1,3.569,0Z" transform="translate(466.4 1208.699)" fill="#62ded1"/>
      <rect id="Rectangle_3000" data-name="Rectangle 3000" width="43.125" height="1.19" transform="translate(453.198 1223.929)" fill="#62ded1"/>
      <path id="Path_1507" data-name="Path 1507" d="M6.246.892A5.217,5.217,0,0,0,.892,5.948V11.6H30.336V5.948A5.217,5.217,0,0,0,24.983.892H6.246m0-.892H24.983a6.1,6.1,0,0,1,6.246,5.948v6.543H0V5.948A6.1,6.1,0,0,1,6.246,0Z" transform="translate(459.147 1201.858)" fill="#62ded1"/>
      <path id="Line_801" data-name="Line 801" d="M.19,2.762H-1V0H.19Z" transform="translate(457.47 1225.119)" fill="#62ded1"/>
      <path id="Line_802" data-name="Line 802" d="M.19,2.762H-1V0H.19Z" transform="translate(492.863 1225.119)" fill="#62ded1"/>
      <path id="Rectangle_3000_-_Outline" data-name="Rectangle 3000 - Outline" d="M0,0H43.125V1.19H0Z" transform="translate(453.198 1223.93)" fill="#62ded1"/>
      <path id="Path_1473" data-name="Path 1473" d="M6801,311.16h-.977v-29.3a3.738,3.738,0,0,0-.884-2.475,3.522,3.522,0,0,0-2.355-1.166c-2.044-.2-3.326.158-4.159,1.169a4.39,4.39,0,0,0-.8,2.468l-.976.009a5.321,5.321,0,0,1,1.02-3.1c1.047-1.272,2.639-1.754,5.008-1.52a4.484,4.484,0,0,1,4.12,4.612Z" transform="translate(-6297.282 915.161)" fill="#62ded1"/>
      <path id="Path_1474" data-name="Path 1474" d="M6825.128,468.02h-7.063a.488.488,0,1,1,0-.976h7.063a.488.488,0,1,1,0,.976Z" transform="translate(-6318.418 758.812)" fill="#62ded1"/>
      <path id="Path_1483" data-name="Path 1483" d="M4.544.976A3.629,3.629,0,0,0,1.914,2.165,3.51,3.51,0,0,0,1.067,3.7l.765,0c.85,0,1.835.005,2.878.011s2.137.011,3.081.011h.2A3.664,3.664,0,0,0,4.544.976m0-.976A4.685,4.685,0,0,1,9.1,4.7c-1.909.018-5.1-.017-7.267-.017-.769,0-1.409,0-1.82.017A4.582,4.582,0,0,1,4.544,0Z" transform="translate(489.545 1196.319)" fill="#62ded1"/>
    </g>
  </g>
</svg>