<svg id="kitchen" xmlns="http://www.w3.org/2000/svg" width="54" height="54" viewBox="0 0 54 54">
  <rect id="Rectangle_3444" data-name="Rectangle 3444" width="54" height="54" fill="none"/>
  <g id="Group_4965" data-name="Group 4965" transform="translate(-17906.715 -1546.278)">
    <path id="Rectangle_3413" data-name="Rectangle 3413" d="M1.5,1.5V18.533H47V1.5H1.5M0,0H48.5V20.033H0Z" transform="translate(17909.715 1577.745)" fill="#b1afa0"/>
    <path id="Line_955" data-name="Line 955" d="M0,18.8a.5.5,0,0,1-.5-.5V0A.5.5,0,0,1,0-.5.5.5,0,0,1,.5,0V18.3A.5.5,0,0,1,0,18.8Z" transform="translate(17926.049 1578.799)" fill="#b1afa0"/>
    <path id="Line_956" data-name="Line 956" d="M0,18.8a.5.5,0,0,1-.5-.5V0A.5.5,0,0,1,0-.5.5.5,0,0,1,.5,0V18.3A.5.5,0,0,1,0,18.8Z" transform="translate(17942.057 1578.799)" fill="#b1afa0"/>
    <path id="Path_1951" data-name="Path 1951" d="M-44.285.5H-91.5A.5.5,0,0,1-92,0a.5.5,0,0,1,.5-.5h47.215a.5.5,0,0,1,.5.5A.5.5,0,0,1-44.285.5Z" transform="translate(18001.809 1582.995)" fill="#b1afa0"/>
    <path id="Path_1952" data-name="Path 1952" d="M-75.76.5H-91.5A.5.5,0,0,1-92,0a.5.5,0,0,1,.5-.5h15.74a.5.5,0,0,1,.5.5A.5.5,0,0,1-75.76.5Z" transform="translate(18001.809 1589.675)" fill="#b1afa0"/>
    <path id="Path_1953" data-name="Path 1953" d="M-75.842.5H-91.5A.5.5,0,0,1-92,0a.5.5,0,0,1,.5-.5h15.658a.5.5,0,0,1,.5.5A.5.5,0,0,1-75.842.5Z" transform="translate(18033.557 1589.675)" fill="#b1afa0"/>
    <path id="Rectangle_3414" data-name="Rectangle 3414" d="M1.5,1.5V12.207H47V1.5H1.5M0,0H48.5V13.707H0Z" transform="translate(17909.715 1549.278)" fill="#b1afa0"/>
    <path id="Line_958" data-name="Line 958" d="M0,12.72a.5.5,0,0,1-.5-.5V0A.5.5,0,0,1,0-.5.5.5,0,0,1,.5,0V12.22A.5.5,0,0,1,0,12.72Z" transform="translate(17926.049 1550.13)" fill="#b1afa0"/>
    <path id="Line_959" data-name="Line 959" d="M0,12.72a.5.5,0,0,1-.5-.5V0A.5.5,0,0,1,0-.5.5.5,0,0,1,.5,0V12.22A.5.5,0,0,1,0,12.72Z" transform="translate(17942.057 1550.13)" fill="#b1afa0"/>
    <path id="Line_960" data-name="Line 960" d="M3.48.25H0A.25.25,0,0,1-.25,0,.25.25,0,0,1,0-.25H3.48A.25.25,0,0,1,3.73,0,.25.25,0,0,1,3.48.25Z" transform="translate(17916.305 1559.402)" fill="#b1afa0"/>
    <path id="Line_967" data-name="Line 967" d="M3.48.25H0A.25.25,0,0,1-.25,0,.25.25,0,0,1,0-.25H3.48A.25.25,0,0,1,3.73,0,.25.25,0,0,1,3.48.25Z" transform="translate(17916.305 1580.367)" fill="#b1afa0"/>
    <path id="Line_961" data-name="Line 961" d="M3.48.25H0A.25.25,0,0,1-.25,0,.25.25,0,0,1,0-.25H3.48A.25.25,0,0,1,3.73,0,.25.25,0,0,1,3.48.25Z" transform="translate(17932.311 1559.402)" fill="#b1afa0"/>
    <path id="Line_962" data-name="Line 962" d="M3.48.25H0A.25.25,0,0,1-.25,0,.25.25,0,0,1,0-.25H3.48A.25.25,0,0,1,3.73,0,.25.25,0,0,1,3.48.25Z" transform="translate(17948.318 1559.402)" fill="#b1afa0"/>
    <path id="Line_968" data-name="Line 968" d="M3.48.25H0A.25.25,0,0,1-.25,0,.25.25,0,0,1,0-.25H3.48A.25.25,0,0,1,3.73,0,.25.25,0,0,1,3.48.25Z" transform="translate(17948.318 1580.367)" fill="#b1afa0"/>
    <path id="Path_1949" data-name="Path 1949" d="M18022.658,1643.415H18009a.5.5,0,0,1-.5-.5v-1.392a.5.5,0,0,1,.277-.447l5.047-2.523a.492.492,0,0,1,.223-.053h3.623a.491.491,0,0,1,.225.054l4.99,2.523a.5.5,0,0,1,.275.446v1.392A.5.5,0,0,1,18022.658,1643.415Zm-13.16-1h12.66v-.584l-4.609-2.33h-3.387l-4.664,2.332Z" transform="translate(-81.818 -74.292)" fill="#b1afa0"/>
    <path id="Line_963" data-name="Line 963" d="M0,2.5A.5.5,0,0,1-.5,2V0A.5.5,0,0,1,0-.5.5.5,0,0,1,.5,0V2A.5.5,0,0,1,0,2.5Z" transform="translate(17932.311 1562.711)" fill="#b1afa0"/>
    <path id="Line_964" data-name="Line 964" d="M0,2.5A.5.5,0,0,1-.5,2V0A.5.5,0,0,1,0-.5.5.5,0,0,1,.5,0V2A.5.5,0,0,1,0,2.5Z" transform="translate(17935.791 1562.711)" fill="#b1afa0"/>
    <path id="Path_1950" data-name="Path 1950" d="M17939.391,1680.172a.5.5,0,0,1-.5-.494c0-.016-.02-1.6-.023-2.97a2.976,2.976,0,0,1,.7-2.242,2.446,2.446,0,0,1,1.795-.628h.051a2.162,2.162,0,0,1,1.705.683,2.706,2.706,0,0,1,.535,1.964.5.5,0,0,1-.992-.133,1.689,1.689,0,0,0-.3-1.173,1.2,1.2,0,0,0-.951-.341h-.053a1.485,1.485,0,0,0-1.088.337,2.132,2.132,0,0,0-.408,1.53c0,1.364.023,2.944.023,2.96a.5.5,0,0,1-.494.506Z" transform="translate(-24.32 -101.926)" fill="#b1afa0"/>
    <path id="Line_965" data-name="Line 965" d="M5.045.5H0A.5.5,0,0,1-.5,0,.5.5,0,0,1,0-.5H5.045a.5.5,0,0,1,.5.5A.5.5,0,0,1,5.045.5Z" transform="translate(17927.441 1576.634)" fill="#b1afa0"/>
    <path id="Line_966" data-name="Line 966" d="M5.045.5H0A.5.5,0,0,1-.5,0,.5.5,0,0,1,0-.5H5.045a.5.5,0,0,1,.5.5A.5.5,0,0,1,5.045.5Z" transform="translate(17935.443 1576.634)" fill="#b1afa0"/>
    <path id="Ellipse_1050" data-name="Ellipse 1050" d="M1,.3a.7.7,0,1,0,.7.7A.7.7,0,0,0,1,.3M1,0A1,1,0,1,1,0,1,1,1,0,0,1,1,0Z" transform="translate(17928.693 1579.854)" fill="#b1afa0"/>
    <path id="Ellipse_1053" data-name="Ellipse 1053" d="M1,.3a.7.7,0,1,0,.7.7A.7.7,0,0,0,1,.3M1,0A1,1,0,1,1,0,1,1,1,0,0,1,1,0Z" transform="translate(17935.02 1579.854)" fill="#b1afa0"/>
    <path id="Ellipse_1051" data-name="Ellipse 1051" d="M1,.3a.7.7,0,1,0,.7.7A.7.7,0,0,0,1,.3M1,0A1,1,0,1,1,0,1,1,1,0,0,1,1,0Z" transform="translate(17931.855 1579.854)" fill="#b1afa0"/>
    <path id="Ellipse_1052" data-name="Ellipse 1052" d="M1,.3a.7.7,0,1,0,.7.7A.7.7,0,0,0,1,.3M1,0A1,1,0,1,1,0,1,1,1,0,0,1,1,0Z" transform="translate(17938.182 1579.854)" fill="#b1afa0"/>
  </g>
</svg>