<svg xmlns="http://www.w3.org/2000/svg" width="54" height="54" viewBox="0 0 54 54">
  <g id="living_space" transform="translate(-427 -69)">
    <rect id="Rectangle_3414" data-name="Rectangle 3414" width="54" height="54" transform="translate(427 69)" fill="none"/>
    <g id="Group_4958" data-name="Group 4958" transform="translate(1.75 -39.393)">
      <path id="Path_1467" data-name="Path 1467" d="M6596.559,387.785c-.156,0-.307-.011-.446-.021s-.255-.018-.372-.018l-1.835-.006q-14.117-.046-21.8-.046c-5.358,0-8.334.017-8.891.051a3.8,3.8,0,0,1-2.359-.486,2.054,2.054,0,0,1-.9-1.379c-.063-.381-.376-2.609-.708-4.968-.289-2.051-.586-4.171-.748-5.277a2.389,2.389,0,0,1,.528-2.126,2.452,2.452,0,0,1,1.921-.611h3.049v1.125h-3.122l-.032,0a1.059,1.059,0,0,0-1.232,1.454c.163,1.108.46,3.23.749,5.283.33,2.352.643,4.573.7,4.94.11.663.872,1,2.085.927.656-.04,4.406-.053,9.159-.053,7.4,0,17.223.032,21.6.046l1.833.006c.156,0,.306.011.452.021a1.4,1.4,0,0,0,.8-.074,1.925,1.925,0,0,0,.516-1.273c.151-.98.383-2.8.608-4.561.308-2.41.6-4.686.736-5.3a1.571,1.571,0,0,0-.211-1.288,1.051,1.051,0,0,0-.868-.353h-3.257v-1.125h3.257a2.13,2.13,0,0,1,1.745.774,2.668,2.668,0,0,1,.432,2.236c-.126.566-.427,2.922-.718,5.2-.226,1.767-.459,3.595-.612,4.589a2.76,2.76,0,0,1-1.016,2.046A1.866,1.866,0,0,1,6596.559,387.785Z" transform="translate(-6133.203 -238.544)" fill="#49d5fe"/>
      <path id="Path_1468" data-name="Path 1468" d="M6588.465,366.67a.422.422,0,0,1-.419-.384c-.208-2.29-.424-8.277-.424-9.246a2.492,2.492,0,0,1,.512-1.635,2.622,2.622,0,0,1,2.135-.822h10.582a3.948,3.948,0,0,1,2.006.489,2.01,2.01,0,0,1,1.033,1.793v5.873a.422.422,0,0,1-.844,0v-5.873c0-1.37-1.828-1.439-2.195-1.439h-10.582a1.843,1.843,0,0,0-1.485.515,1.692,1.692,0,0,0-.318,1.1c0,.962.213,6.9.42,9.17a.423.423,0,0,1-.382.458Z" transform="translate(-6157.325 -223.519)" fill="#49d5fe"/>
      <path id="Path_1469" data-name="Path 1469" d="M6690.685,365.616h-.02a.422.422,0,0,1-.4-.44c.109-2.388.352-8.235.4-9.288a1.4,1.4,0,0,0-.389-1.092,2.453,2.453,0,0,0-1.848-.562c-.688.026-2.649.007-4.725-.012-2.643-.025-5.638-.053-6.173.01a1.619,1.619,0,0,0-1.43,1.674.422.422,0,1,1-.843,0,2.471,2.471,0,0,1,2.175-2.512c.587-.069,3.48-.042,6.279-.016,2.065.019,4.018.038,4.686.013.062,0,.123,0,.184,0a3.18,3.18,0,0,1,2.293.814,2.24,2.24,0,0,1,.635,1.722c-.043,1.052-.288,6.9-.4,9.291A.422.422,0,0,1,6690.685,365.616Z" transform="translate(-6229.53 -222.499)" fill="#49d5fe"/>
      <path id="Rectangle_2880" data-name="Rectangle 2880" d="M2.334.843a1.491,1.491,0,1,0,0,2.982H13.006a1.491,1.491,0,1,0,0-2.982H2.334m0-.843H13.006a2.334,2.334,0,0,1,0,4.669H2.334A2.334,2.334,0,1,1,2.334,0Z" transform="translate(430.444 141.295)" fill="#49d5fe"/>
      <path id="Rectangle_2881" data-name="Rectangle 2881" d="M2.334.843a1.491,1.491,0,1,0,0,2.982H13.006a1.491,1.491,0,1,0,0-2.982H2.334m0-.843H13.006a2.334,2.334,0,0,1,0,4.669H2.334A2.334,2.334,0,1,1,2.334,0Z" transform="translate(446.451 141.295)" fill="#49d5fe"/>
      <path id="Path_1470" data-name="Path 1470" d="M6580.313,457.307a.562.562,0,0,1-.488-.841l1.875-3.289a.562.562,0,1,1,.977.557l-1.875,3.289A.562.562,0,0,1,6580.313,457.307Z" transform="translate(-6150.784 -304.776)" fill="#49d5fe"/>
      <path id="Path_1471" data-name="Path 1471" d="M6761.853,457.35a.561.561,0,0,1-.5-.3l-1.789-3.333a.563.563,0,0,1,.992-.532l1.787,3.333a.562.562,0,0,1-.495.828Z" transform="translate(-6299.183 -304.776)" fill="#49d5fe"/>
      <path id="Path_1473" data-name="Path 1473" d="M6800.857,310.785h-.931V281.791a3.714,3.714,0,0,0-.879-2.46,3.5,3.5,0,0,0-2.342-1.159c-2-.2-3.313.171-4.129,1.163a4.311,4.311,0,0,0-.792,2.452l-.931.01a5.24,5.24,0,0,1,1-3.054c1.032-1.253,2.6-1.729,4.94-1.5a4.42,4.42,0,0,1,4.061,4.546Z" transform="translate(-6325.055 -158.796)" fill="#49d5fe"/>
      <path id="Path_1474" data-name="Path 1474" d="M6818.078,467.543h6.989" transform="translate(-6346.283 -315.532)" fill="#49d5fe"/>
      <path id="Path_1474_-_Outline" data-name="Path 1474 - Outline" d="M6825.033,467.974h-6.989a.466.466,0,1,1,0-.931h6.989a.466.466,0,1,1,0,.931Z" transform="translate(-6346.249 -315.497)" fill="#49d5fe"/>
      <path id="Path_1483" data-name="Path 1483" d="M4.5.931A3.626,3.626,0,0,0,1.868,2.118,3.5,3.5,0,0,0,1.011,3.7l.8,0c.841,0,1.816.005,2.848.011s2.115.011,3.049.011h.245A3.663,3.663,0,0,0,4.5.931M4.5,0A4.636,4.636,0,0,1,9,4.647c-1.889.018-5.044-.017-7.19-.017-.761,0-1.394,0-1.8.017A4.534,4.534,0,0,1,4.5,0Z" transform="translate(461.798 122.304)" fill="#49d5fe"/>
    </g>
  </g>
</svg>