<svg xmlns="http://www.w3.org/2000/svg" width="54" height="54" viewBox="0 0 54 54">
  <g id="main_entrance" transform="translate(-442 -506)">
    <rect id="Rectangle_3416" data-name="Rectangle 3416" width="54" height="54" transform="translate(442 506)" fill="none"/>
    <g id="Group_4960" data-name="Group 4960" transform="translate(1.9 1.004)">
      <path id="Rectangle_3042" data-name="Rectangle 3042" d="M2.651.994A1.659,1.659,0,0,0,.994,2.651V39.415H32.56V2.651A1.659,1.659,0,0,0,30.9.994H2.651m0-.994H30.9a2.651,2.651,0,0,1,2.651,2.651V40.409H0V2.651A2.651,2.651,0,0,1,2.651,0Z" transform="translate(449.652 511.996)" fill="#73b4f6"/>
      <path id="Rectangle_3043" data-name="Rectangle 3043" d="M.663.663V13.206H8.509V.663H.663M0,0H9.171V13.869H0Z" transform="translate(453.454 517.664)" fill="#73b4f6"/>
      <path id="Rectangle_3045" data-name="Rectangle 3045" d="M.663.663V8.956H8.509V.663H.663M0,0H9.171V9.619H0Z" transform="translate(453.454 537.6)" fill="#73b4f6"/>
      <path id="Rectangle_3044" data-name="Rectangle 3044" d="M.663.663V13.206H8.509V.663H.663M0,0H9.171V13.869H0Z" transform="translate(470.231 517.664)" fill="#73b4f6"/>
      <path id="Rectangle_3046" data-name="Rectangle 3046" d="M.663.663V8.956H8.509V.663H.663M0,0H9.171V9.619H0Z" transform="translate(470.231 537.6)" fill="#73b4f6"/>
      <path id="Line_818" data-name="Line 818" d="M.163,39.559H-.5V0H.163Z" transform="translate(466.709 512.51)" fill="#73b4f6"/>
      <path id="Rectangle_3047" data-name="Rectangle 3047" d="M1.325.663a.663.663,0,0,0-.663.663V3.148a.663.663,0,0,0,.663.663H3.148a.663.663,0,0,0,.663-.663V1.325A.663.663,0,0,0,3.148.663H1.325m0-.663H3.148A1.325,1.325,0,0,1,4.474,1.325V3.148A1.325,1.325,0,0,1,3.148,4.474H1.325A1.325,1.325,0,0,1,0,3.148V1.325A1.325,1.325,0,0,1,1.325,0Z" transform="translate(464.192 531.533)" fill="#73b4f6"/>
      <path id="Rectangle_3048" data-name="Rectangle 3048" d="M1.383.985a.4.4,0,0,0-.4.4V3.459a.4.4,0,0,0,.8,0V1.383a.4.4,0,0,0-.4-.4m0-.985A1.383,1.383,0,0,1,2.767,1.383V3.459A1.383,1.383,0,0,1,0,3.459V1.383A1.383,1.383,0,0,1,1.383,0Z" transform="translate(486.814 523.232)" fill="#73b4f6"/>
      <path id="Rectangle_3049" data-name="Rectangle 3049" d="M1.383.985a.4.4,0,0,0-.4.4V3.459a.4.4,0,0,0,.8,0V1.383a.4.4,0,0,0-.4-.4m0-.985A1.383,1.383,0,0,1,2.767,1.383V3.459A1.383,1.383,0,0,1,0,3.459V1.383A1.383,1.383,0,0,1,1.383,0Z" transform="translate(442.544 523.232)" fill="#73b4f6"/>
      <path id="Line_817" data-name="Line 817" d="M53.007.485H-.007A.493.493,0,0,1-.5-.007.493.493,0,0,1-.007-.5H53.007a.493.493,0,0,1,.493.493A.493.493,0,0,1,53.007.485Z" transform="translate(440.6 552.077)" fill="#73b4f6"/>
    </g>
  </g>
</svg>