<svg xmlns="http://www.w3.org/2000/svg" width="54" height="54" viewBox="0 0 54 54">
  <g id="stair_space" transform="translate(-439 -1416)">
    <rect id="Rectangle_3420" data-name="Rectangle 3420" width="54" height="54" transform="translate(439 1416)" fill="none"/>
    <g id="Group_4964" data-name="Group 4964" transform="translate(-6.021 -1.5)">
      <path id="Path_1572" data-name="Path 1572" d="M10013.334-622.694a.834.834,0,0,1-.833-.834v-7.888a.834.834,0,0,1,.833-.834.833.833,0,0,1,.834.834v7.888A.833.833,0,0,1,10013.334-622.694Z" transform="translate(-9558.093 2094.194)" fill="#53bff1"/>
      <path id="Path_1573" data-name="Path 1573" d="M10013.334-624.082a.833.833,0,0,1-.833-.834v-6.5a.834.834,0,0,1,.833-.834.833.833,0,0,1,.834.834v6.5A.833.833,0,0,1,10013.334-624.082Z" transform="translate(-9545.823 2083.239)" fill="#53bff1"/>
      <path id="Path_1574" data-name="Path 1574" d="M10013.334-624.082a.833.833,0,0,1-.833-.834v-6.5a.834.834,0,0,1,.833-.834.833.833,0,0,1,.834.834v6.5A.833.833,0,0,1,10013.334-624.082Z" transform="translate(-9533.554 2072.722)" fill="#53bff1"/>
      <path id="Path_1575" data-name="Path 1575" d="M10013.334-625.615a.834.834,0,0,1-.833-.834v-4.966a.834.834,0,0,1,.833-.834.833.833,0,0,1,.834.834v4.966A.833.833,0,0,1,10013.334-625.615Z" transform="translate(-9530.047 2064.834)" fill="#53bff1"/>
      <path id="Path_1568" data-name="Path 1568" d="M10053.937-631.082h-45.354a.833.833,0,0,1-.832-.834.833.833,0,0,1,.832-.834h45.354a.834.834,0,0,1,.835.834A.834.834,0,0,1,10053.937-631.082Z" transform="translate(-9557.506 2094.256)" fill="#53bff1"/>
      <path id="Path_1569" data-name="Path 1569" d="M10041.448-631.082h-32.866a.833.833,0,0,1-.832-.834.833.833,0,0,1,.832-.834h32.866a.833.833,0,0,1,.833.834A.833.833,0,0,1,10041.448-631.082Z" transform="translate(-9544.14 2083.739)" fill="#53bff1"/>
      <path id="Path_1570" data-name="Path 1570" d="M10030.053-631.082h-21.471a.833.833,0,0,1-.832-.834.833.833,0,0,1,.832-.834h21.471a.833.833,0,0,1,.835.834A.833.833,0,0,1,10030.053-631.082Z" transform="translate(-9532.746 2073.222)" fill="#53bff1"/>
      <path id="Path_1571" data-name="Path 1571" d="M10025.016-631.082h-16.434a.833.833,0,0,1-.832-.834.833.833,0,0,1,.832-.834h16.434a.833.833,0,0,1,.833.834A.834.834,0,0,1,10025.016-631.082Z" transform="translate(-9527.707 2065.334)" fill="#53bff1"/>
      <path id="Path_1576" data-name="Path 1576" d="M10002.58-651.352a.576.576,0,0,1-.441-.205.58.58,0,0,1,.066-.818l35.641-30.236a.579.579,0,0,1,.817.067.581.581,0,0,1-.066.818l-35.641,30.236A.578.578,0,0,1,10002.58-651.352Z" transform="translate(-9556.979 2100.25)" fill="#53bff1"/>
      <path id="Path_1577" data-name="Path 1577" d="M10015.7-649.676a7.476,7.476,0,0,1-1.592-.17.58.58,0,0,1-.429-.7.578.578,0,0,1,.7-.43h0c.021.005,2.223.509,3.381-.427a2.241,2.241,0,0,0,.724-1.919c-.071-4.053,0-8.809,0-8.857a.581.581,0,0,1,.581-.572h.009a.58.58,0,0,1,.571.589c0,.047-.07,4.785,0,8.818a3.363,3.363,0,0,1-1.158,2.846A4.453,4.453,0,0,1,10015.7-649.676Z" transform="translate(-9558.419 2097.778)" fill="#53bff1"/>
      <path id="Path_1578" data-name="Path 1578" d="M10015.7-649.676a7.476,7.476,0,0,1-1.592-.17.58.58,0,0,1-.429-.7.578.578,0,0,1,.7-.43h0c.021.005,2.223.509,3.381-.427a2.241,2.241,0,0,0,.724-1.919c-.071-4.053,0-8.809,0-8.857a.581.581,0,0,1,.581-.572h.009a.58.58,0,0,1,.571.589c0,.047-.07,4.785,0,8.818a3.363,3.363,0,0,1-1.158,2.846A4.453,4.453,0,0,1,10015.7-649.676Z" transform="translate(-9546.149 2087.261)" fill="#53bff1"/>
    </g>
  </g>
</svg>