<svg xmlns="http://www.w3.org/2000/svg" width="54" height="54" viewBox="0 0 54 54">
  <g id="closet" transform="translate(-468 -2097)">
    <rect id="Rectangle_3423" data-name="Rectangle 3423" width="54" height="54" transform="translate(468 2097)" fill="none"/>
    <g id="Group_4967" data-name="Group 4967" transform="translate(-1.5 -0.734)">
      <path id="Path_1579" data-name="Path 1579" d="M10280.391-872h7.746a.89.89,0,0,1,.889.89v50.45a.891.891,0,0,1-.467.783.891.891,0,0,1-.912-.039l-7.744-5.089a.888.888,0,0,1-.4-.744v-45.36A.89.89,0,0,1,10280.391-872Zm6.855,1.78h-5.965v43.99l5.965,3.92Z" transform="translate(-9810 2971.177)" fill="#7d79cb"/>
      <path id="Path_1580" data-name="Path 1580" d="M10325-838.414a.89.89,0,0,1-.89-.89v-31.4l-34.832.539h-.014a.89.89,0,0,1-.89-.876.891.891,0,0,1,.876-.9l35.735-.553h.014a.892.892,0,0,1,.625.256.894.894,0,0,1,.266.634V-839.3A.891.891,0,0,1,10325-838.414Z" transform="translate(-9811.021 2971.234)" fill="#7d79cb"/>
      <path id="Path_1581" data-name="Path 1581" d="M10289.14-844.622a.89.89,0,0,1-.886-.814.89.89,0,0,1,.811-.963l35.846-3.1c.025,0,.052,0,.077,0a.889.889,0,0,1,.886.814.89.89,0,0,1-.811.963l-35.845,3.1C10289.192-844.623,10289.165-844.622,10289.14-844.622Z" transform="translate(-9811.006 2968.591)" fill="#7d79cb"/>
      <path id="Path_1582" data-name="Path 1582" d="M10289.141-815.375a.889.889,0,0,1-.767-.439.889.889,0,0,1,.056-.985l7.964-10.621a.89.89,0,0,1,.568-.344l36.511-5.974a.89.89,0,0,1,.924.449.889.889,0,0,1-.115,1.021l-10.622,11.948a.892.892,0,0,1-.545.291l-33.853,4.647A.908.908,0,0,1,10289.141-815.375Zm8.462-10.69-6.471,8.629,31.415-4.312,8.737-9.828Z" transform="translate(-9811.007 2966.78)" fill="#7d79cb"/>
      <path id="Path_1583" data-name="Path 1583" d="M10294.972-830.055a.891.891,0,0,1-.885-.795.891.891,0,0,1,.786-.98c.2-.024,4.688-.634,4.816-6.658a.89.89,0,0,1,.452-.755.889.889,0,0,1,.88,0,12.642,12.642,0,0,0,4.689,1.324c1.54.137,3.651.037,5.04-1.213a2.553,2.553,0,0,0,.2-.2,8.2,8.2,0,0,0-2.626-.362c-.253-.007-.5-.01-.736-.01-.993,0-1.776.053-1.785.054a.891.891,0,0,1-.949-.827.89.89,0,0,1,.826-.949c.06,0,1.474-.1,2.987-.036,2.467.1,3.686.542,4.076,1.464.205.484.233,1.257-.8,2.187-1.866,1.679-4.5,1.832-6.39,1.663a15.509,15.509,0,0,1-4.182-.975,8.141,8.141,0,0,1-3.124,5.73,7.2,7.2,0,0,1-3.179,1.329A.93.93,0,0,1,10294.972-830.055Z" transform="translate(-9811.676 2967.669)" fill="#7d79cb"/>
      <path id="Path_1584" data-name="Path 1584" d="M10313.474-831.255a.89.89,0,0,1-.89-.89v-6.048a.89.89,0,0,1,.89-.89.891.891,0,0,1,.891.89v6.048A.891.891,0,0,1,10313.474-831.255Z" transform="translate(-9813.056 2966.329)" fill="#7d79cb"/>
      <path id="Path_1586" data-name="Path 1586" d="M10313.474-833.689a.89.89,0,0,1-.89-.89v-3.614a.89.89,0,0,1,.89-.89.891.891,0,0,1,.891.89v3.614A.891.891,0,0,1,10313.474-833.689Z" transform="translate(-9804.041 2967.394)" fill="#7d79cb"/>
      <path id="Path_1585" data-name="Path 1585" d="M10319.638-836.639c-1.284,0-2.363-.1-2.418-.109a.889.889,0,0,1-.8-.972.889.889,0,0,1,.884-.8.867.867,0,0,1,.087,0h0c.012,0,1.049.1,2.252.1q.179,0,.36,0c2.078-.036,2.659-.374,2.778-.464a.263.263,0,0,0-.062-.219c-.261-.324-1.315-.889-5.444-1.032a.891.891,0,0,1-.86-.92.891.891,0,0,1,.89-.859h.03c3.95.136,5.911.627,6.771,1.694a2.069,2.069,0,0,1,.418,1.715c-.281,1.54-2.489,1.8-4.127,1.855C10320.142-836.643,10319.886-836.639,10319.638-836.639Z" transform="translate(-9814.241 2967.719)" fill="#7d79cb"/>
      <path id="Path_1587" data-name="Path 1587" d="M10301.312-831.706a8.4,8.4,0,0,1-2.059-.291.89.89,0,0,1-.642-1.082.891.891,0,0,1,1.082-.643,3.887,3.887,0,0,0,2.376.12.891.891,0,0,1,1.2.2.89.89,0,0,1-.167,1.248A2.924,2.924,0,0,1,10301.312-831.706Z" transform="translate(-9811.742 2966.78)" fill="#7d79cb"/>
      <path id="Path_1588" data-name="Path 1588" d="M10295.04-822.688a.889.889,0,0,1-.888-.85c-.064-1.417-1.022-1.988-2.71-2.877a9.273,9.273,0,0,1-2.985-2.126.889.889,0,0,1,.113-1.254.892.892,0,0,1,1.255.114,7.821,7.821,0,0,0,2.446,1.69c1.662.875,3.545,1.866,3.659,4.371a.89.89,0,0,1-.849.93Z" transform="translate(-9811.006 2966.35)" fill="#7d79cb"/>
      <path id="Path_1589" data-name="Path 1589" d="M10314.972-823.552a.89.89,0,0,1-.873-.72.891.891,0,0,1,.7-1.044l3.264-.636a.893.893,0,0,1,1.045.7.891.891,0,0,1-.7,1.044l-3.264.636A.889.889,0,0,1,10314.972-823.552Z" transform="translate(-9813.824 2965.887)" fill="#7d79cb"/>
      <circle id="Ellipse_1027" data-name="Ellipse 1027" cx="1.478" cy="1.478" r="1.478" transform="translate(496.746 2105.118)" fill="#7d79cb"/>
    </g>
  </g>
</svg>