<svg id="adj_spot" xmlns="http://www.w3.org/2000/svg" width="24" height="24" viewBox="0 0 24 24">
  <rect id="Rectangle_3221" data-name="Rectangle 3221" width="24" height="24" fill="none"/>
  <g id="Group_5238" data-name="Group 5238" transform="translate(-435.176 -334.166)">
    <g id="Group_4607" data-name="Group 4607" transform="translate(-3083.117 -2779.126)">
      <ellipse id="Ellipse_1030" data-name="Ellipse 1030" cx="1.771" cy="2.38" rx="1.771" ry="2.38" transform="translate(3530.202 3122.473) rotate(-47)" fill="none"/>
      <path id="Ellipse_1031" data-name="Ellipse 1031" d="M3.182,1C2,1,1,2.463,1,4.194S2,7.388,3.182,7.388,5.363,5.925,5.363,4.194,4.364,1,3.182,1m0-1C4.939,0,6.363,1.878,6.363,4.194S4.939,8.388,3.182,8.388,0,6.51,0,4.194,1.424,0,3.182,0Z" transform="matrix(0.819, -0.574, 0.574, 0.819, 3528.969, 3119.941)"/>
      <path id="Path_1835" data-name="Path 1835" d="M2.752,12.9A4.258,4.258,0,0,1,.164,11.725,3.92,3.92,0,0,1-1.3,9.4a2.922,2.922,0,0,1,.29-2C-.55,6.64,4.54.25,5.119-.476a.5.5,0,0,1,.7-.079.5.5,0,0,1,.079.7C3.644,2.978.169,7.384-.153,7.918a2.475,2.475,0,0,0,.946,3.029c1.5,1.212,2.24,1.121,3.079.526,1.247-.973,6.691-6.959,6.746-7.02a.5.5,0,0,1,.74.672c-.227.25-5.581,6.137-6.881,7.144l-.016.012A2.912,2.912,0,0,1,2.752,12.9Z" transform="matrix(0.978, 0.208, -0.208, 0.978, 3526.303, 3117.642)"/>
      <path id="Path_1836" data-name="Path 1836" d="M3567.143,3216.58a.5.5,0,0,1-.5-.5v-5.223a.5.5,0,0,1,1,0v5.223A.5.5,0,0,1,3567.143,3216.58Z" transform="translate(-35.92 -82.731)"/>
      <path id="Path_1837" data-name="Path 1837" d="M3542.775,3251.786H3535a.5.5,0,0,1,0-1h7.775a.5.5,0,0,1,0,1Z" transform="translate(-7.699 -117.826)"/>
      <ellipse id="Ellipse_1036" data-name="Ellipse 1036" cx="1.349" cy="2.361" rx="1.349" ry="2.361" transform="matrix(0.819, -0.574, 0.574, 0.819, 3531.522, 3120.392)"/>
    </g>
  </g>
</svg>