<svg id="lights" xmlns="http://www.w3.org/2000/svg" width="24" height="24" viewBox="0 0 24 24">
  <g id="Group_1325" data-name="Group 1325" transform="translate(-406 -253)">
    <path id="Path_254" data-name="Path 254" d="M7,1A6.089,6.089,0,0,0,1,7.164l0,.061c-.092,1.5.564,2.564,1.471,4.039A22.294,22.294,0,0,1,4.422,15H9.4c.766-1.436,1.418-2.494,1.953-3.363,1.16-1.883,1.64-2.662,1.64-4.473A6.089,6.089,0,0,0,7,1M7,0a7.082,7.082,0,0,1,7,7.164c0,3.147-1.379,3.8-3.988,8.836H3.724C2.277,11.788-.194,10.309,0,7.164A7.082,7.082,0,0,1,7,0Z" transform="translate(411.009 255)"/>
    <path id="Rectangle_1269" data-name="Rectangle 1269" d="M0,0H6A0,0,0,0,1,6,0V0A3,3,0,0,1,3,3H3A3,3,0,0,1,0,0V0A0,0,0,0,1,0,0Z" transform="translate(415 272)"/>
  </g>
  <rect id="Rectangle_1011" data-name="Rectangle 1011" width="24" height="24" fill="none"/>
</svg>