<svg width="48" height="48" viewBox="0 0 48 48" fill="none" xmlns="http://www.w3.org/2000/svg">
<path d="M19.3271 34H28.673M24 6V8M36.7279 11.2721L35.3137 12.6863M42.0001 23.9999H40.0001M8.00012 23.9999H6.00012M12.6863 12.6863L11.2721 11.2721M16.9289 31.0711C13.0237 27.1659 13.0237 20.8342 16.9289 16.929C20.8342 13.0237 27.1658 13.0237 31.0711 16.929C34.9763 20.8342 34.9763 27.1659 31.0711 31.0711L29.9769 32.1653C28.7111 33.4311 28 35.1478 28 36.9379V38C28 40.2091 26.2092 42 24 42C21.7909 42 20 40.2091 20 38V36.9379C20 35.1478 19.2889 33.4311 18.0231 32.1653L16.9289 31.0711Z" stroke="#909094" stroke-width="2" stroke-linecap="round" stroke-linejoin="round"/>
</svg>
