<svg id="inground_recessed" xmlns="http://www.w3.org/2000/svg" width="24" height="24" viewBox="0 0 24 24">
  <rect id="Rectangle_3234" data-name="Rectangle 3234" width="24" height="24" fill="none"/>
  <g id="Group_5251" data-name="Group 5251" transform="translate(-171.008 -447.969)">
    <g id="Group_4611" data-name="Group 4611" transform="translate(-3.992 13.969)">
      <path id="Path_1861" data-name="Path 1861" d="M2277.691,3266.609c-5.095,0-5.338-2.72-5.345-2.838,0-.011,0-.022,0-.034v-5.565a.5.5,0,0,1,1,0v5.536a1.642,1.642,0,0,0,.609.941,5.671,5.671,0,0,0,3.737.96c.1,0,.2,0,.307,0,2.641-.059,3.668-.567,4.065-.982a1.026,1.026,0,0,0,.276-.835v-.04c-.011-.55,0-5.372,0-5.577a.5.5,0,0,1,.5-.5h0a.5.5,0,0,1,.5.5c0,.05-.011,5.015,0,5.554v.036a2,2,0,0,1-.552,1.551c-.778.816-2.337,1.238-4.767,1.292C2277.907,3266.608,2277.8,3266.609,2277.691,3266.609Z" transform="translate(-2089.859 -2813.047)"/>
      <path id="Ellipse_1041" data-name="Ellipse 1041" d="M9.992,1a22.237,22.237,0,0,0-6.75.924C1.548,2.489,1,3.116,1,3.331s.548.842,2.243,1.407a22.237,22.237,0,0,0,6.75.924,22.237,22.237,0,0,0,6.75-.924c1.695-.565,2.243-1.192,2.243-1.407s-.548-.842-2.243-1.407A22.237,22.237,0,0,0,9.992,1m0-1c5.519,0,9.992,1.491,9.992,3.331S15.511,6.662,9.992,6.662,0,5.17,0,3.331,4.474,0,9.992,0Z" transform="translate(178 439)"/>
      <ellipse id="Ellipse_1042" data-name="Ellipse 1042" cx="5.996" cy="1.4" rx="5.996" ry="1.4" transform="translate(181.996 440.931)"/>
    </g>
  </g>
</svg>