<svg id="plant_uplifter" xmlns="http://www.w3.org/2000/svg" width="24" height="24" viewBox="0 0 24 24">
  <rect id="Rectangle_3233" data-name="Rectangle 3233" width="24" height="24" fill="none"/>
  <g id="Group_5250" data-name="Group 5250" transform="translate(-108 -448)">
    <g id="Group_4610" data-name="Group 4610" transform="translate(0 20)">
      <path id="Path_1856" data-name="Path 1856" d="M2275.847,3263.219c-3.3,0-4.512-.7-4.941-1.13a1.006,1.006,0,0,1-.344-.715v-3.812a.5.5,0,0,1,.5-.5h1.781a.5.5,0,0,1,0,1h-1.281v3.26c.094.119.849.9,4.28.9h.185a13.9,13.9,0,0,0,3.745-.377c.6-.2.6-.394.6-.467v-3.312H2279a.5.5,0,0,1,0-1h1.875a.5.5,0,0,1,.5.5v3.813c0,1.5-2.135,1.818-5.34,1.844Z" transform="translate(-2156 -2820)"/>
      <path id="Path_1857" data-name="Path 1857" d="M2276.438,3269.89h-1.125a.5.5,0,0,1-.5-.44L2274,3262.7a.5.5,0,1,1,.993-.12l.76,6.309h.23l.642-6.3a.5.5,0,1,1,.995.1l-.687,6.749A.5.5,0,0,1,2276.438,3269.89Z" transform="translate(-2155.813 -2819.922)"/>
      <path id="Path_1858" data-name="Path 1858" d="M2275.753,3261.346a4.268,4.268,0,0,1-2.81-.771,1.59,1.59,0,0,1-.6-1.039c0-.012,0-.024,0-.036v-5.906a.5.5,0,0,1,1,0v5.864c.031.113.322.888,2.406.888l.184,0c1.688-.035,2.185-.369,2.32-.51a.345.345,0,0,0,.091-.3v-.024c-.007-.315,0-5.689,0-5.918a.5.5,0,0,1,.5-.5h0a.5.5,0,0,1,.5.5c0,1.933-.005,5.652,0,5.895v.019a1.321,1.321,0,0,1-.366,1.015c-.5.52-1.484.788-3.023.82Z" transform="translate(-2155.851 -2820)"/>
      <path id="Ellipse_1039" data-name="Ellipse 1039" d="M6,1c-2.764,0-4.44.63-4.909,1C1.56,2.37,3.236,3,6,3s4.44-.63,4.909-1C10.44,1.63,8.764,1,6,1M6,0c3.314,0,6,.9,6,2S9.314,4,6,4,0,3.1,0,2,2.686,0,6,0Z" transform="translate(114 430)"/>
      <ellipse id="Ellipse_1040" data-name="Ellipse 1040" cx="3" cy="0.75" rx="3" ry="0.75" transform="translate(117 431.25)"/>
    </g>
  </g>
</svg>