<svg id="spot" xmlns="http://www.w3.org/2000/svg" width="24" height="24" viewBox="0 0 24 24">
  <rect id="Rectangle_3220" data-name="Rectangle 3220" width="24" height="24" fill="none"/>
  <g id="Group_5237" data-name="Group 5237" transform="translate(-390.031 -334.948)">
    <g id="Group_4606" data-name="Group 4606" transform="translate(-3214.241 -2855.052)">
      <path id="Ellipse_1028" data-name="Ellipse 1028" d="M3,1C1.915,1,1,2.373,1,4s.915,3,2,3S5,5.623,5,4,4.082,1,3,1M3,0C4.654,0,6,1.79,6,4S4.654,8,3,8,0,6.206,0,4,1.342,0,3,0Z" transform="translate(3607.273 3206.757) rotate(-43)"/>
      <path id="Path_1833" data-name="Path 1833" d="M3619.654,3216.057a.5.5,0,0,1-.324-.881c3.006-2.55,8.821-7.5,9.32-7.979a2.024,2.024,0,0,0,.2-1.438,4.085,4.085,0,0,0-.879-2.132c-.974-1.135-2.793-1.809-3.847-.962-1.252,1.008-8.648,7.906-8.722,7.976a.5.5,0,1,1-.682-.731c.305-.285,7.5-6.993,8.778-8.024,1.52-1.223,3.933-.424,5.233,1.09a5.107,5.107,0,0,1,1.113,2.664,2.783,2.783,0,0,1-.5,2.277c-.646.623-9.011,7.719-9.367,8.021A.5.5,0,0,1,3619.654,3216.057Z" transform="translate(-5.283 -5.161)"/>
      <path id="Path_1834" data-name="Path 1834" d="M3646.167,3197.825a.5.5,0,0,1-.5-.5v-5.575a.5.5,0,0,1,1,0v5.575A.5.5,0,0,1,3646.167,3197.825Z" transform="translate(-27.787 -0.179)"/>
      <path id="Line_731" data-name="Line 731" d="M7.425.5H0A.5.5,0,0,1-.5,0,.5.5,0,0,1,0-.5H7.425a.5.5,0,0,1,.5.5A.5.5,0,0,1,7.425.5Z" transform="translate(3614.477 3191.5)"/>
      <ellipse id="Ellipse_1029" data-name="Ellipse 1029" cx="1.927" cy="2.927" rx="1.927" ry="2.927" transform="translate(3609.229 3206.008) rotate(-43)"/>
      <path id="Ellipse_1029_-_Outline" data-name="Ellipse 1029 - Outline" d="M1.927.5C1.154.5.5,1.611.5,2.927s.654,2.427,1.427,2.427S3.355,4.242,3.355,2.927,2.7.5,1.927.5m0-.5C2.992,0,3.855,1.31,3.855,2.927S2.992,5.854,1.927,5.854,0,4.543,0,2.927.863,0,1.927,0Z" transform="translate(3609.229 3206.008) rotate(-43)"/>
      <path id="Line_732" data-name="Line 732" d="M0,2.25a.249.249,0,0,1-.177-.073.25.25,0,0,1,0-.354l2-2a.25.25,0,0,1,.354,0,.25.25,0,0,1,0,.354l-2,2A.249.249,0,0,1,0,2.25Z" transform="translate(3616.559 3200.552)"/>
    </g>
  </g>
</svg>