<svg id="surface_mounted" xmlns="http://www.w3.org/2000/svg" width="24" height="24" viewBox="0 0 24 24">
  <rect id="Rectangle_3217" data-name="Rectangle 3217" width="24" height="24" fill="none"/>
  <g id="Group_5234" data-name="Group 5234" transform="translate(-231.984 -335.198)">
    <g id="Group_4602" data-name="Group 4602" transform="translate(-3467.572 -2790.744)">
      <path id="Ellipse_1023" data-name="Ellipse 1023" d="M10,1a25.418,25.418,0,0,0-6.523.761C1.626,2.275,1.072,2.845,1,3c.068.155.622.725,2.473,1.239A25.418,25.418,0,0,0,10,5a25.418,25.418,0,0,0,6.523-.761C18.374,3.725,18.928,3.155,19,3c-.068-.155-.622-.725-2.473-1.239A25.418,25.418,0,0,0,10,1m0-1c5.523,0,10,1.343,10,3S15.523,6,10,6,0,4.657,0,3,4.477,0,10,0Z" transform="translate(3701.573 3132.046)"/>
      <path id="Path_1831" data-name="Path 1831" d="M3702.386,3135.62a.5.5,0,0,1-.5-.5v-3.066a.5.5,0,0,1,.079-.27,4.843,4.843,0,0,1,2.021-1.494,18.634,18.634,0,0,1,7.777-1.347h.074a20.261,20.261,0,0,1,7.865,1.261,4.253,4.253,0,0,1,2.174,1.638.509.509,0,0,1,.037.142c.033.3.01,2.469,0,3.127a.5.5,0,0,1-.5.494h-.006a.5.5,0,0,1-.494-.506c.012-1.011.021-2.465.008-2.9a4.415,4.415,0,0,0-1.764-1.14,19.392,19.392,0,0,0-7.325-1.117h-.07a17.7,17.7,0,0,0-7.239,1.2,4.964,4.964,0,0,0-1.642,1.089v2.89A.5.5,0,0,1,3702.386,3135.62Z" transform="translate(-0.329 0)"/>
      <ellipse id="Ellipse_1024" data-name="Ellipse 1024" cx="7" cy="1" rx="7" ry="1" transform="translate(3704.573 3134.046)"/>
    </g>
    <g id="Group_4603" data-name="Group 4603" transform="translate(-4)">
      <path id="Line_728" data-name="Line 728" d="M0,2.75a.748.748,0,0,1-.53-.22.75.75,0,0,1,0-1.061l2-2a.75.75,0,0,1,1.061,0A.75.75,0,0,1,2.53.53l-2,2A.748.748,0,0,1,0,2.75Z" transform="translate(241.5 350.5)"/>
      <path id="Line_730" data-name="Line 730" d="M2,2.75a.748.748,0,0,1-.53-.22l-2-2A.75.75,0,0,1-.53-.53.75.75,0,0,1,.53-.53l2,2A.75.75,0,0,1,2,2.75Z" transform="translate(252.5 350.5)"/>
      <path id="Line_729" data-name="Line 729" d="M0,4.75A.75.75,0,0,1-.75,4V0A.75.75,0,0,1,0-.75.75.75,0,0,1,.75,0V4A.75.75,0,0,1,0,4.75Z" transform="translate(248 351.5)"/>
    </g>
  </g>
</svg>