<svg id="track" xmlns="http://www.w3.org/2000/svg" width="24" height="24" viewBox="0 0 24 24">
  <rect id="Rectangle_3238" data-name="Rectangle 3238" width="24" height="24" fill="none"/>
  <g id="Group_4978" data-name="Group 4978" transform="translate(-516 -445)">
    <path id="Path_1957" data-name="Path 1957" d="M5406.112,394.021h-17.727a.385.385,0,0,1,0-.771h17.727a.385.385,0,0,1,0,.771Z" transform="translate(-4869.115 57.5)"/>
    <path id="Path_1962" data-name="Path 1962" d="M5378.981,140.357a.384.384,0,0,1,.263.1l3.8,3.556a.385.385,0,0,1,.012.551l-2.241,2.289a.386.386,0,0,1-.275.116h-.011a.384.384,0,0,1-.279-.131l-3.436-3.915a.385.385,0,0,1,.013-.523l1.877-1.93A.384.384,0,0,1,5378.981,140.357Zm3.249,3.953-3.236-3.028-1.365,1.4,2.927,3.335Z" transform="translate(-4858.219 317.085)"/>
    <path id="Path_1964" data-name="Path 1964" d="M5378.981,140.357a.384.384,0,0,1,.263.1l3.8,3.556a.385.385,0,0,1,.012.551l-2.241,2.289a.386.386,0,0,1-.275.116h-.011a.384.384,0,0,1-.279-.131l-3.436-3.915a.385.385,0,0,1,.013-.523l1.877-1.93A.384.384,0,0,1,5378.981,140.357Zm3.249,3.953-3.236-3.028-1.365,1.4,2.927,3.335Z" transform="translate(-4851.603 317.085)"/>
    <path id="Path_1966" data-name="Path 1966" d="M5378.981,140.357a.384.384,0,0,1,.263.1l3.8,3.556a.385.385,0,0,1,.012.551l-2.241,2.289a.386.386,0,0,1-.275.116h-.011a.384.384,0,0,1-.279-.131l-3.436-3.915a.385.385,0,0,1,.013-.523l1.877-1.93A.384.384,0,0,1,5378.981,140.357Zm3.249,3.953-3.236-3.028-1.365,1.4,2.927,3.335Z" transform="translate(-4844.666 317.085)"/>
    <path id="Path_1963" data-name="Path 1963" d="M4525.958,458.659h-.771v-7.346h.771Z" transform="translate(-4004.014 -0.129)"/>
    <path id="Path_1965" data-name="Path 1965" d="M4525.958,458.659h-.771v-7.346h.771Z" transform="translate(-3997.398 -0.129)"/>
    <path id="Path_1967" data-name="Path 1967" d="M4525.958,458.659h-.771v-7.346h.771Z" transform="translate(-3990.461 -0.129)"/>
  </g>
</svg>