<svg id="tube_light" xmlns="http://www.w3.org/2000/svg" width="24" height="24" viewBox="0 0 24 24">
  <rect id="Rectangle_3431" data-name="Rectangle 3431" width="24" height="24" fill="none"/>
  <g id="Group_5467" data-name="Group 5467" transform="translate(-343.361 293.428) rotate(-45)">
    <g id="Group_5466" data-name="Group 5466" transform="translate(-1)">
      <g id="Rectangle_3428" data-name="Rectangle 3428" transform="translate(442 49)" fill="none" stroke="#707070" stroke-width="1">
        <rect width="18" height="6" stroke="none"/>
        <rect x="0.5" y="0.5" width="17" height="5" fill="none"/>
      </g>
      <path id="Rectangle_3428_-_Outline" data-name="Rectangle 3428 - Outline" d="M1,1V5H17V1H1M0,0H18V6H0Z" transform="translate(442 49)"/>
      <path id="Line_788" data-name="Line 788" d="M3,.5H0v-1H3Z" transform="translate(460 51)"/>
      <path id="Line_789" data-name="Line 789" d="M3,.5H0v-1H3Z" transform="translate(460 53)"/>
      <path id="Line_790" data-name="Line 790" d="M3,.5H0v-1H3Z" transform="translate(439 51)"/>
      <path id="Line_791" data-name="Line 791" d="M3,.5H0v-1H3Z" transform="translate(439 53)"/>
      <rect id="Rectangle_3429" data-name="Rectangle 3429" width="2" height="6" transform="translate(442 49)"/>
      <path id="Rectangle_3429_-_Outline" data-name="Rectangle 3429 - Outline" d="M1.5,1V1M0,0H3V6H0Z" transform="translate(442 49)"/>
      <rect id="Rectangle_3430" data-name="Rectangle 3430" width="2" height="6" transform="translate(458 49)"/>
      <path id="Rectangle_3430_-_Outline" data-name="Rectangle 3430 - Outline" d="M1.5,1V1M0,0H3V6H0Z" transform="translate(456.586 49)"/>
    </g>
  </g>
</svg>