<svg id="wallsconce" xmlns="http://www.w3.org/2000/svg" width="24" height="24" viewBox="0 0 24 24">
  <rect id="Rectangle_3236" data-name="Rectangle 3236" width="24" height="24" fill="none"/>
  <g id="Group_4613" data-name="Group 4613" transform="translate(-290 -428)">
    <path id="Line_739" data-name="Line 739" d="M0,19.5A.5.5,0,0,1-.5,19V0A.5.5,0,0,1,0-.5.5.5,0,0,1,.5,0V19A.5.5,0,0,1,0,19.5Z" transform="translate(293.5 430.5)"/>
    <path id="Rectangle_3175" data-name="Rectangle 3175" d="M1,1V6H2V1H1M1,0H2A1,1,0,0,1,3,1V6A1,1,0,0,1,2,7H1A1,1,0,0,1,0,6V1A1,1,0,0,1,1,0Z" transform="translate(293 441)"/>
    <path id="Ellipse_1043" data-name="Ellipse 1043" d="M5,1A4,4,0,1,0,9,5,4,4,0,0,0,5,1M5,0A5,5,0,1,1,0,5,5,5,0,0,1,5,0Z" transform="translate(301 430)"/>
    <path id="Rectangle_3176" data-name="Rectangle 3176" d="M1,1V2H5V1H1M0,0H6V3H0Z" transform="translate(303 439)"/>
    <path id="Path_1862" data-name="Path 1862" d="M2461.938,3265H2452a.5.5,0,0,1,0-1h9.438v-2.391a.5.5,0,0,1,1,0v2.891A.5.5,0,0,1,2461.938,3265Z" transform="translate(-2156 -2820)"/>
    <path id="Path_1863" data-name="Path 1863" d="M2463.328,3258.078a.25.25,0,0,1-.078-.488,2.588,2.588,0,0,0,1.578-2.753,2.654,2.654,0,0,0-1.705-2.466.25.25,0,1,1,.191-.462,3.177,3.177,0,0,1,2.014,2.909,3.072,3.072,0,0,1-1.922,3.247A.247.247,0,0,1,2463.328,3258.078Z" transform="translate(-2156 -2820)"/>
  </g>
</svg>