<svg width="13" height="15" viewBox="0 0 13 15" fill="none" xmlns="http://www.w3.org/2000/svg">
<path d="M8.79412 11.0882H12.6176L11.5433 10.0139C11.2519 9.72251 11.0882 9.32734 11.0882 8.91529V6.5C11.0882 4.50226 9.81147 2.80271 8.02941 2.17285V1.91176C8.02941 1.06709 7.34467 0.382353 6.5 0.382353C5.65533 0.382353 4.97059 1.06709 4.97059 1.91176V2.17285C3.18853 2.80271 1.91176 4.50226 1.91176 6.5V8.91529C1.91176 9.32734 1.74808 9.72251 1.45671 10.0139L0.382353 11.0882H4.20588M8.79412 11.0882V11.8529C8.79412 13.1199 7.76701 14.1471 6.5 14.1471C5.23299 14.1471 4.20588 13.1199 4.20588 11.8529V11.0882M8.79412 11.0882H4.20588" stroke="#1A1B1E" stroke-width="0.75" stroke-linecap="round" stroke-linejoin="round"/>
</svg>
