<svg width="9" height="13" viewBox="0 0 9 13" fill="none" xmlns="http://www.w3.org/2000/svg">
<path d="M4.335 6.03551V8.70833M4.335 6.03551C3.63313 5.99354 2.95841 5.73795 2.40089 5.29994L0.375 3.70833M4.335 6.03551C4.40346 6.03961 4.47217 6.04167 4.54106 6.04167C5.4656 6.04167 6.35227 6.41265 7.00602 7.073L8.625 8.70833M4.335 8.70833C5.325 10.0417 5.985 11.0417 7.635 12.375M4.335 8.70833C4.335 8.70833 2.355 9.70833 1.365 12.375M7.635 2.375C7.635 3.47957 6.74852 4.375 5.655 4.375C4.56148 4.375 3.675 3.47957 3.675 2.375C3.675 1.27043 4.56148 0.375 5.655 0.375C6.74852 0.375 7.635 1.27043 7.635 2.375Z" stroke="#1A1B1E" stroke-width="0.75" stroke-linecap="round"/>
</svg>
