<svg width="15" height="12" viewBox="0 0 15 12" fill="none" xmlns="http://www.w3.org/2000/svg">
<path d="M0.375 6.375C0.375 5.54657 1.04657 4.875 1.875 4.875H13.125C13.9534 4.875 14.625 5.54657 14.625 6.375V7.875C14.625 8.70343 13.9534 9.375 13.125 9.375H1.875C1.04657 9.375 0.375 8.70343 0.375 7.875V6.375Z" stroke="#1A1B1E" stroke-width="0.75"/>
<path d="M3.75 7.125C3.75 7.53921 3.41421 7.875 3 7.875C2.58579 7.875 2.25 7.53921 2.25 7.125C2.25 6.71079 2.58579 6.375 3 6.375C3.41421 6.375 3.75 6.71079 3.75 7.125Z" stroke="#1A1B1E" stroke-width="0.75"/>
<path d="M12.75 7.125C12.75 7.53921 12.4142 7.875 12 7.875C11.5858 7.875 11.25 7.53921 11.25 7.125C11.25 6.71079 11.5858 6.375 12 6.375C12.4142 6.375 12.75 6.71079 12.75 7.125Z" stroke="#1A1B1E" stroke-width="0.75"/>
<path d="M3.33541 1.20418C3.5895 0.696003 4.10889 0.375 4.67705 0.375H10.3229C10.8911 0.375 11.4105 0.696004 11.6646 1.20418L13.5 4.875H1.5L3.33541 1.20418Z" stroke="#1A1B1E" stroke-width="0.75"/>
<path d="M1.5 9.375H3V10.875C3 11.2892 2.66421 11.625 2.25 11.625C1.83579 11.625 1.5 11.2892 1.5 10.875V9.375Z" stroke="#1A1B1E" stroke-width="0.75"/>
<path d="M12 9.375H13.5V10.875C13.5 11.2892 13.1642 11.625 12.75 11.625C12.3358 11.625 12 11.2892 12 10.875V9.375Z" stroke="#1A1B1E" stroke-width="0.75"/>
</svg>
